<svg width="603" height="576" viewBox="0 0 603 576" fill="none" xmlns="http://www.w3.org/2000/svg">
<path d="M33.8885 325.601C33.8885 325.601 57.0437 415.872 150.871 463.438C244.697 511.004 357.169 497.434 448.753 488.678C540.336 479.923 598.972 420.653 593.352 346.234C587.732 271.814 514.045 261.504 458.28 184.758C402.514 108.012 399.934 80.2253 309.496 42.025C219.058 3.8247 102.064 54.9965 56.4166 152.675C10.7695 250.353 33.8885 325.601 33.8885 325.601Z" fill="#D32222"/>
<path opacity="0.7" d="M33.8885 325.601C33.8885 325.601 57.0437 415.872 150.871 463.438C244.697 511.004 357.169 497.434 448.753 488.678C540.336 479.923 598.972 420.653 593.352 346.234C587.732 271.814 514.045 261.504 458.28 184.758C402.514 108.012 399.934 80.2253 309.496 42.025C219.058 3.8247 102.064 54.9965 56.4166 152.675C10.7695 250.353 33.8885 325.601 33.8885 325.601Z" fill="white"/>
<path d="M79.1982 76.8038V480.188" stroke="#263238" stroke-miterlimit="10"/>
<path d="M79.1982 61.2518V68.9702" stroke="#263238" stroke-miterlimit="10"/>
<path d="M232.975 61.2518V480.188" stroke="#263238" stroke-miterlimit="10"/>
<path d="M386.752 61.2518V480.188" stroke="#263238" stroke-miterlimit="10"/>
<path d="M540.529 120.983V480.188" stroke="#263238" stroke-miterlimit="10"/>
<path d="M540.529 61.2518V110.915" stroke="#263238" stroke-miterlimit="10"/>
<path d="M459.257 118.506H107.117V317.86H459.257V118.506Z" fill="#263238"/>
<path d="M457.267 124.174H109.107V312.192H457.267V124.174Z" fill="white" stroke="#263238" stroke-linecap="round" stroke-linejoin="round"/>
<path d="M461.235 115.096H103.101V125.787H461.235V115.096Z" fill="#263238"/>
<path d="M287.136 114.947C292.698 114.947 297.207 110.64 297.207 105.327C297.207 100.015 292.698 95.7081 287.136 95.7081C281.575 95.7081 277.066 100.015 277.066 105.327C277.066 110.64 281.575 114.947 287.136 114.947Z" fill="white" stroke="#263238" stroke-linecap="round" stroke-linejoin="round"/>
<path d="M292.443 105.327C292.445 106.33 292.136 107.311 291.554 108.147C290.973 108.982 290.145 109.633 289.176 110.018C288.206 110.404 287.139 110.506 286.109 110.312C285.079 110.117 284.132 109.636 283.389 108.927C282.645 108.219 282.139 107.315 281.933 106.332C281.727 105.348 281.832 104.329 282.233 103.402C282.634 102.475 283.314 101.683 284.187 101.125C285.06 100.568 286.086 100.27 287.136 100.27C288.542 100.27 289.89 100.802 290.884 101.751C291.879 102.699 292.44 103.985 292.443 105.327Z" fill="#D32222" stroke="#263238" stroke-miterlimit="10"/>
<path d="M172.325 246.274H129.295V204.595H202.475V246.274H180.514" stroke="#263238" stroke-miterlimit="10"/>
<path d="M245.445 266.227H187.039V299.497H245.445V266.227Z" stroke="#263238" stroke-miterlimit="10"/>
<path d="M309.906 204.595H317.275V246.274H244.095V204.595H302.887" stroke="#263238" stroke-miterlimit="10"/>
<path d="M250.185 143.666H336.076V185.357H225.305V143.666H241.996" stroke="#263238" stroke-miterlimit="10"/>
<path d="M431.411 204.595H358.23V246.274H431.411V204.595Z" stroke="#263238" stroke-miterlimit="10"/>
<path d="M219.263 164.194C219.263 164.194 180.43 169.344 157.612 200.77" stroke="#263238" stroke-miterlimit="10"/>
<path d="M194.419 250.767L199.557 265.098" stroke="#263238" stroke-miterlimit="10"/>
<path d="M247.459 249.477L242.756 262.944" stroke="#263238" stroke-miterlimit="10"/>
<path d="M193.913 260.375L199.557 265.098L200.968 258.693" stroke="#263238" stroke-miterlimit="10"/>
<path d="M240.453 258.693L242.563 264.084L248.557 260.709" stroke="#263238" stroke-miterlimit="10"/>
<path d="M158.662 194.377L157.612 200.771L165.005 196.393" stroke="#263238" stroke-miterlimit="10"/>
<path d="M319.421 224.34H356.084" stroke="#263238" stroke-miterlimit="10"/>
<path d="M348.329 219.963L356.445 224.34L349.041 228.718" stroke="#263238" stroke-miterlimit="10"/>
<path d="M203.693 224.34H240.356" stroke="#263238" stroke-miterlimit="10"/>
<path d="M232.602 219.963L240.706 224.34L233.313 228.718" stroke="#263238" stroke-miterlimit="10"/>
<path d="M280.419 188.686V199.342" stroke="#263238" stroke-miterlimit="10"/>
<path d="M284.99 191.923L280.407 199.676L275.836 192.603" stroke="#263238" stroke-miterlimit="10"/>
<path d="M355.734 236.932H320.471" stroke="#263238" stroke-miterlimit="10"/>
<path d="M327.924 232.554L320.133 236.932L327.248 241.309" stroke="#263238" stroke-miterlimit="10"/>
<path d="M248.207 156.66H314.489" stroke="#263238" stroke-miterlimit="10"/>
<path d="M248.207 162.72H314.489" stroke="#263238" stroke-miterlimit="10"/>
<path d="M248.207 168.779H314.489" stroke="#263238" stroke-miterlimit="10"/>
<path d="M136.097 219.963H195.686" stroke="#263238" stroke-miterlimit="10"/>
<path d="M136.097 226.034H195.686" stroke="#263238" stroke-miterlimit="10"/>
<path d="M136.097 232.093H195.686" stroke="#263238" stroke-miterlimit="10"/>
<path d="M251.741 219.963H311.317" stroke="#263238" stroke-miterlimit="10"/>
<path d="M251.741 226.034H311.317" stroke="#263238" stroke-miterlimit="10"/>
<path d="M251.741 232.093H311.317" stroke="#263238" stroke-miterlimit="10"/>
<path d="M363.139 219.963H422.715" stroke="#263238" stroke-miterlimit="10"/>
<path d="M363.139 226.034H422.715" stroke="#263238" stroke-miterlimit="10"/>
<path d="M363.139 232.093H422.715" stroke="#263238" stroke-miterlimit="10"/>
<path d="M194.625 277.551H240.103" stroke="#263238" stroke-miterlimit="10"/>
<path d="M194.625 283.611H240.103" stroke="#263238" stroke-miterlimit="10"/>
<path d="M194.625 289.682H240.103" stroke="#263238" stroke-miterlimit="10"/>
<path d="M396.292 161.948C396.163 161.945 396.038 161.903 395.936 161.828C395.834 161.752 395.76 161.647 395.725 161.529C395.69 161.41 395.695 161.284 395.741 161.169C395.787 161.053 395.87 160.955 395.978 160.888L396.436 160.612L396.268 160.704C396.133 160.759 395.983 160.766 395.844 160.724C395.704 160.681 395.586 160.591 395.511 160.472C395.436 160.352 395.409 160.21 395.435 160.073C395.461 159.935 395.538 159.812 395.652 159.725L398.064 158.262L395.954 159.414C395.819 159.478 395.663 159.492 395.518 159.453C395.373 159.413 395.248 159.322 395.169 159.199C395.091 159.076 395.063 158.929 395.092 158.788C395.121 158.646 395.205 158.52 395.327 158.434L399.644 155.739L395.556 158.043C395.421 158.116 395.261 158.136 395.111 158.1C394.96 158.063 394.83 157.973 394.748 157.847C394.669 157.719 394.643 157.567 394.677 157.421C394.71 157.276 394.8 157.148 394.929 157.064L401.658 152.767L395.098 156.372C394.966 156.446 394.809 156.468 394.661 156.433C394.512 156.399 394.384 156.311 394.302 156.188C394.259 156.128 394.228 156.06 394.213 155.988C394.197 155.917 394.197 155.843 394.212 155.771C394.226 155.699 394.255 155.631 394.298 155.57C394.34 155.509 394.395 155.457 394.459 155.416L404.553 148.504L394.471 154.068C394.335 154.141 394.176 154.162 394.025 154.125C393.875 154.089 393.745 153.998 393.663 153.873C393.58 153.748 393.551 153.598 393.583 153.454C393.614 153.31 393.703 153.183 393.831 153.101L401.067 148.308L393.952 152.237C393.821 152.308 393.666 152.331 393.519 152.299C393.371 152.267 393.242 152.183 393.156 152.064C393.073 151.94 393.044 151.789 393.076 151.645C393.108 151.501 393.197 151.374 393.325 151.292L397.425 148.654L393.554 150.785C393.419 150.858 393.259 150.879 393.109 150.842C392.958 150.806 392.828 150.715 392.746 150.589C392.664 150.464 392.637 150.312 392.671 150.168C392.705 150.024 392.797 149.898 392.927 149.818L395.568 148.113L393.156 149.437C393.024 149.496 392.875 149.507 392.735 149.469C392.595 149.431 392.475 149.346 392.396 149.23C392.316 149.113 392.284 148.973 392.304 148.836C392.324 148.698 392.395 148.572 392.505 148.481L399.56 143.493L392.577 147.341C392.445 147.409 392.291 147.427 392.145 147.392C391.999 147.357 391.872 147.271 391.789 147.151C391.706 147.032 391.673 146.887 391.696 146.745C391.719 146.603 391.797 146.475 391.914 146.385L398.161 141.777L391.95 145.152C391.816 145.223 391.658 145.244 391.509 145.21C391.359 145.176 391.228 145.089 391.142 144.968C391.058 144.845 391.027 144.695 391.057 144.551C391.086 144.407 391.173 144.28 391.299 144.196L394.35 142.042L391.528 143.608C391.394 143.68 391.236 143.7 391.086 143.666C390.937 143.632 390.806 143.546 390.72 143.424C390.638 143.302 390.607 143.154 390.634 143.011C390.66 142.868 390.743 142.74 390.865 142.652L393.361 140.843L391.106 142.088C390.974 142.161 390.817 142.183 390.669 142.149C390.521 142.114 390.392 142.026 390.31 141.903C390.225 141.784 390.19 141.638 390.212 141.495C390.235 141.352 390.313 141.222 390.43 141.131L391.636 140.198L390.672 140.728C390.553 140.796 390.413 140.821 390.276 140.8C390.139 140.779 390.015 140.713 389.924 140.613C389.839 140.51 389.793 140.382 389.793 140.25C389.793 140.119 389.839 139.991 389.924 139.887L391.829 137.583L390.093 138.539C389.994 138.601 389.879 138.634 389.761 138.634C389.643 138.634 389.528 138.601 389.43 138.539C389.337 138.472 389.267 138.381 389.226 138.277C389.185 138.173 389.177 138.061 389.2 137.952L389.381 137.249C389.279 137.243 389.18 137.213 389.092 137.163C389.004 137.113 388.93 137.044 388.875 136.961C388.8 136.828 388.782 136.672 388.824 136.526C388.867 136.38 388.967 136.255 389.104 136.178L389.972 135.694C390.074 135.64 390.19 135.615 390.307 135.623C390.423 135.631 390.535 135.67 390.628 135.737C390.721 135.804 390.792 135.896 390.832 136.001C390.872 136.105 390.879 136.219 390.853 136.328L390.696 136.915L393.88 135.164C394.001 135.1 394.141 135.078 394.277 135.101C394.413 135.124 394.537 135.192 394.627 135.291C394.718 135.391 394.77 135.518 394.774 135.65C394.778 135.782 394.735 135.911 394.651 136.017L392.758 138.321L398.462 135.176C398.594 135.106 398.748 135.086 398.895 135.118C399.041 135.15 399.171 135.232 399.258 135.348C399.342 135.469 399.375 135.616 399.35 135.759C399.326 135.902 399.246 136.031 399.126 136.12L397.92 137.065L400.935 135.394C401.067 135.327 401.221 135.308 401.367 135.344C401.513 135.379 401.639 135.464 401.722 135.584C401.805 135.704 401.839 135.848 401.816 135.99C401.793 136.132 401.715 136.261 401.598 136.351L399.102 138.159L403.214 135.855C403.348 135.784 403.506 135.763 403.656 135.797C403.805 135.832 403.936 135.918 404.022 136.04C404.104 136.162 404.135 136.31 404.108 136.453C404.082 136.596 403.999 136.724 403.877 136.811L400.814 138.966L405.409 136.431C405.474 136.39 405.547 136.361 405.623 136.346C405.7 136.331 405.779 136.331 405.856 136.346C405.932 136.36 406.005 136.389 406.071 136.43C406.136 136.472 406.192 136.525 406.235 136.587C406.279 136.649 406.309 136.718 406.324 136.792C406.34 136.865 406.34 136.94 406.325 137.014C406.31 137.087 406.28 137.157 406.236 137.219C406.193 137.281 406.137 137.334 406.072 137.376L399.825 141.984L408.062 137.376C408.197 137.305 408.354 137.284 408.504 137.318C408.653 137.352 408.784 137.439 408.87 137.56C408.953 137.683 408.983 137.83 408.957 137.973C408.93 138.116 408.847 138.245 408.726 138.332L401.658 143.32L410.366 138.528C410.499 138.454 410.658 138.432 410.808 138.466C410.959 138.5 411.089 138.588 411.174 138.712C411.257 138.838 411.286 138.99 411.255 139.136C411.223 139.283 411.134 139.411 411.005 139.496L408.352 141.189L411.777 139.3C411.91 139.239 412.062 139.227 412.204 139.266C412.346 139.305 412.468 139.393 412.547 139.512C412.626 139.631 412.656 139.774 412.632 139.914C412.608 140.053 412.531 140.179 412.416 140.267L408.328 142.906L413.152 140.233C413.285 140.172 413.437 140.16 413.579 140.199C413.721 140.238 413.843 140.326 413.922 140.445C414.001 140.564 414.031 140.707 414.007 140.847C413.983 140.986 413.906 141.112 413.791 141.201L406.555 145.993L414.78 141.454C414.913 141.393 415.065 141.381 415.207 141.42C415.349 141.459 415.471 141.547 415.55 141.666C415.629 141.786 415.659 141.929 415.635 142.068C415.611 142.207 415.534 142.333 415.419 142.422L405.325 149.334L416.565 143.124C416.7 143.051 416.859 143.031 417.01 143.067C417.16 143.104 417.29 143.195 417.373 143.32C417.415 143.381 417.445 143.45 417.459 143.522C417.474 143.594 417.473 143.668 417.457 143.74C417.442 143.812 417.411 143.88 417.368 143.94C417.324 144.001 417.268 144.052 417.204 144.092L410.462 148.412L417.783 144.369C417.918 144.304 418.073 144.29 418.219 144.33C418.364 144.369 418.488 144.46 418.567 144.583C418.646 144.706 418.674 144.853 418.644 144.995C418.615 145.136 418.531 145.262 418.41 145.348L414.092 148.043L418.711 145.498C418.846 145.422 419.006 145.399 419.158 145.436C419.309 145.473 419.439 145.565 419.519 145.693C419.561 145.755 419.59 145.824 419.604 145.897C419.617 145.969 419.616 146.044 419.599 146.116C419.582 146.188 419.55 146.256 419.505 146.316C419.461 146.376 419.404 146.426 419.338 146.465L416.926 147.94L419.423 146.557C419.557 146.481 419.718 146.459 419.869 146.496C420.02 146.533 420.151 146.625 420.231 146.753C420.31 146.881 420.336 147.034 420.302 147.179C420.268 147.324 420.178 147.452 420.05 147.537L419.592 147.813L420.11 147.525C420.243 147.464 420.396 147.452 420.538 147.491C420.68 147.53 420.802 147.618 420.88 147.737C420.959 147.857 420.99 148 420.965 148.139C420.941 148.278 420.864 148.404 420.749 148.493L413.803 153.216L421.039 149.218C421.172 149.141 421.331 149.118 421.482 149.152C421.634 149.187 421.765 149.277 421.847 149.403C421.93 149.529 421.959 149.681 421.928 149.827C421.896 149.973 421.807 150.102 421.678 150.186L421.521 150.278C421.655 150.205 421.814 150.184 421.964 150.219C422.114 150.254 422.244 150.343 422.327 150.467C422.411 150.591 422.441 150.741 422.412 150.886C422.384 151.031 422.298 151.16 422.172 151.246L420.822 152.156L422.1 151.465C422.222 151.39 422.368 151.361 422.511 151.382C422.653 151.403 422.783 151.473 422.875 151.58C422.967 151.686 423.016 151.821 423.01 151.959C423.005 152.097 422.947 152.229 422.848 152.329L420.556 154.852L422.775 153.631C422.883 153.57 423.007 153.544 423.131 153.556C423.255 153.569 423.371 153.619 423.463 153.7C423.557 153.777 423.624 153.881 423.655 153.997C423.685 154.112 423.677 154.234 423.632 154.345L423.39 154.886C423.508 154.874 423.626 154.895 423.731 154.946C423.836 154.997 423.923 155.076 423.981 155.174C424.061 155.306 424.082 155.462 424.041 155.609C424.001 155.755 423.901 155.881 423.764 155.958L422.486 156.66C422.378 156.722 422.252 156.75 422.127 156.739C422.002 156.728 421.883 156.679 421.789 156.599C421.695 156.52 421.63 156.413 421.603 156.296C421.577 156.178 421.59 156.056 421.642 155.946L421.847 155.462L418.048 157.559C417.925 157.621 417.783 157.641 417.646 157.615C417.509 157.588 417.386 157.518 417.298 157.414C417.21 157.311 417.162 157.182 417.162 157.049C417.163 156.915 417.211 156.786 417.3 156.683L419.592 154.161L410.8 158.976C410.667 159.047 410.512 159.067 410.364 159.033C410.217 158.998 410.088 158.912 410.004 158.792C409.961 158.731 409.93 158.663 409.915 158.592C409.899 158.52 409.899 158.446 409.914 158.374C409.928 158.303 409.958 158.234 410 158.173C410.042 158.113 410.097 158.06 410.161 158.02L411.511 157.098L406.506 159.851C406.371 159.924 406.212 159.945 406.061 159.908C405.911 159.872 405.781 159.781 405.698 159.656C405.617 159.53 405.59 159.379 405.624 159.234C405.658 159.09 405.749 158.964 405.879 158.884L406.024 158.78L402.683 160.623C402.552 160.697 402.395 160.719 402.247 160.684C402.098 160.65 401.97 160.562 401.887 160.439C401.844 160.379 401.814 160.311 401.799 160.239C401.783 160.167 401.783 160.094 401.797 160.022C401.812 159.95 401.841 159.882 401.884 159.821C401.926 159.76 401.981 159.708 402.044 159.667L409.027 154.978L396.593 161.833C396.507 161.9 396.402 161.94 396.292 161.948Z" fill="#D32222"/>
<path d="M377.707 178.076C374.982 175.861 372.787 173.112 371.272 170.015C369.757 166.918 368.957 163.546 368.928 160.128C368.928 146.534 381.265 135.521 396.485 135.521C411.705 135.521 424.054 146.534 424.054 160.128C424.054 173.722 411.717 184.735 396.485 184.735C392.497 184.735 388.552 183.951 384.895 182.431" stroke="#263238" stroke-miterlimit="10"/>
<path d="M344.651 154.817H362.053" stroke="#263238" stroke-miterlimit="10"/>
<path d="M344.651 160.543H362.053" stroke="#263238" stroke-miterlimit="10"/>
<path d="M344.651 166.28H362.053" stroke="#263238" stroke-miterlimit="10"/>
<path d="M134.288 252.564H164.896" stroke="#263238" stroke-miterlimit="10"/>
<path d="M134.288 258.301H164.896" stroke="#263238" stroke-miterlimit="10"/>
<path d="M127.933 178.03H158.541" stroke="#263238" stroke-miterlimit="10"/>
<path d="M134.288 264.027H164.896" stroke="#263238" stroke-miterlimit="10"/>
<path d="M134.288 276.065H164.896" stroke="#263238" stroke-miterlimit="10"/>
<path d="M134.288 281.802H164.896" stroke="#263238" stroke-miterlimit="10"/>
<path d="M134.288 287.539H164.896" stroke="#263238" stroke-miterlimit="10"/>
<path d="M389.152 136.143L396.593 161.867L423.813 155.935" stroke="#263238" stroke-miterlimit="10"/>
<path d="M128.258 142.733V171.371H176.402" stroke="#263238" stroke-miterlimit="10"/>
<path d="M143.249 146.638H133.251V171.371H143.249V146.638Z" fill="#D32222" stroke="#263238" stroke-miterlimit="10"/>
<path d="M168.683 152.271H158.686V171.36H168.683V152.271Z" fill="#D32222" stroke="#263238" stroke-miterlimit="10"/>
<path d="M155.972 138.828H145.975V171.372H155.972V138.828Z" fill="#D32222" stroke="#263238" stroke-miterlimit="10"/>
<path d="M70.2982 327.295C70.2982 327.295 70.2982 322.479 63.2431 315.775C56.188 309.07 51.6534 305.188 51.6534 305.188C51.6534 305.188 48.1198 316.259 54.6805 322.998C59.497 327.739 64.7212 332.085 70.2982 335.992V327.295Z" fill="#D32222"/>
<path d="M60.0591 357.362C60.0591 357.362 60.0591 352.547 53.004 345.842C45.9489 339.137 41.4144 335.232 41.4144 335.232C41.4144 335.232 37.8808 346.303 44.4294 353.042C49.2671 357.783 54.5114 362.13 60.1074 366.037L60.0591 357.362Z" fill="#D32222"/>
<path d="M69.8517 335.497C69.8517 335.497 70.3944 330.705 78.1489 324.714C85.9035 318.724 90.8481 315.36 90.8481 315.36C90.8481 315.36 93.1395 326.719 85.8794 332.767C80.5578 336.992 74.8782 340.787 68.8989 344.114L69.8517 335.497Z" fill="#D32222"/>
<path d="M57.4904 371.002C57.4904 371.002 58.5396 366.301 66.9213 361.117C75.303 355.933 80.5732 353.053 80.5732 353.053C80.5732 353.053 81.5983 364.573 73.7111 369.861C67.9697 373.53 61.9189 376.736 55.6211 379.446L57.4904 371.002Z" fill="#D32222"/>
<path d="M59.8056 409.72C59.8056 409.72 59.8056 404.905 66.8727 398.2C73.9399 391.496 78.4624 387.613 78.4624 387.613C78.4624 387.613 81.9839 398.684 75.4353 405.423C70.6006 410.168 65.356 414.515 59.7573 418.418L59.8056 409.72Z" fill="#D32222"/>
<path d="M59.6974 419.167C59.6974 419.167 60.409 414.409 54.4272 406.771C48.4454 399.133 44.5259 394.721 44.5259 394.721C44.5259 394.721 39.3884 405.204 44.8757 412.762C48.9397 418.106 53.466 423.116 58.407 427.738L59.6974 419.167Z" fill="#D32222"/>
<path d="M52.7385 447.183C52.7385 447.183 52.7385 442.368 59.7936 435.663C66.8487 428.959 71.3833 425.065 71.3833 425.065C71.3833 425.065 74.9169 436.136 68.3562 442.875C63.5226 447.624 58.278 451.975 52.6782 455.881L52.7385 447.183Z" fill="#D32222"/>
<path d="M57.4419 472.573C57.4419 472.573 56.1756 467.908 61.2046 459.683C66.2336 451.457 69.6466 446.63 69.6466 446.63C69.6466 446.63 75.9901 456.492 71.4435 464.602C68.0323 470.353 64.1276 475.825 59.7694 480.96L57.4419 472.573Z" fill="#D32222"/>
<path d="M70.9374 326.016C70.5818 331.038 69.9376 336.038 69.0078 340.992C66.2219 354.816 59.2392 363.64 56.4533 376.07C53.6675 388.5 61.6753 404.525 59.5286 420.492C57.3819 436.458 50.8816 445.352 52.7388 456.008C54.5961 466.664 64.3647 495.521 64.3647 495.521" stroke="#263238" stroke-linecap="round" stroke-linejoin="round"/>
<path d="M69.7915 338.7L77.3893 333.124" stroke="#263238" stroke-linecap="round" stroke-linejoin="round"/>
<path d="M70.1414 332.271L66.9575 326.868" stroke="#263238" stroke-linecap="round" stroke-linejoin="round"/>
<path d="M56.875 375.552C56.875 375.552 63.2427 370.944 69.7913 366.44" stroke="#263238" stroke-linecap="round" stroke-linejoin="round"/>
<path d="M60.0589 366.025C60.0589 366.025 54.7525 356.095 48.7466 349.505" stroke="#263238" stroke-linecap="round" stroke-linejoin="round"/>
<path d="M60.0591 416.575C63.6943 410.175 68.2805 404.312 73.6748 399.168" stroke="#263238" stroke-linecap="round" stroke-linejoin="round"/>
<path d="M58.829 423.325C56.8953 418.984 54.5879 414.803 51.9307 410.826C48.2162 405.596 47.6855 404.917 47.6855 404.917" stroke="#263238" stroke-linecap="round" stroke-linejoin="round"/>
<path d="M52.7388 456.031C54.3494 452.202 56.2645 448.497 58.4673 444.948C60.6716 441.663 63.1564 438.558 65.8962 435.663" stroke="#263238" stroke-linecap="round" stroke-linejoin="round"/>
<path d="M59.7452 480.96C59.3754 477.306 60.0332 473.623 61.6507 470.293C64.3039 465.397 67.3068 458.968 68.549 456.469" stroke="#263238" stroke-linecap="round" stroke-linejoin="round"/>
<path d="M24.1203 391.611C24.1203 391.611 23.5655 388.593 27.2318 383.639C30.898 378.685 33.2618 375.794 33.2618 375.794C33.2618 375.794 36.735 382.372 33.3824 387.314C30.9007 390.788 28.117 394.056 25.061 397.083L24.1203 391.611Z" fill="#D32222"/>
<path d="M33.9372 409.409C33.9372 409.409 33.3824 406.391 37.0486 401.426C40.7149 396.461 43.0787 393.592 43.0787 393.592C43.0787 393.592 46.5399 400.17 43.1993 405.112C40.7159 408.588 37.9324 411.86 34.8779 414.893L33.9372 409.409Z" fill="#D32222"/>
<path d="M25.3262 396.714C25.3262 396.714 24.4458 393.765 18.8982 390.816C13.3506 387.867 9.87735 386.208 9.87735 386.208C9.87735 386.208 9.73263 393.581 14.9787 396.576C18.7774 398.718 22.7594 400.549 26.882 402.048L25.3262 396.714Z" fill="#D32222"/>
<path d="M37.0969 417.692C37.0969 417.692 35.8909 414.858 30.0539 412.474C24.2168 410.089 20.5747 408.856 20.5747 408.856C20.5747 408.856 21.2501 416.195 26.7977 418.683C30.8251 420.375 34.9919 421.747 39.2556 422.784L37.0969 417.692Z" fill="#D32222"/>
<path d="M40.0392 442.218C40.0392 442.218 39.4965 439.2 34.2987 435.698C29.1008 432.196 25.8567 430.26 25.8567 430.26C25.8567 430.26 24.8919 437.576 29.7762 441.124C33.3214 443.597 37.0772 445.781 41.004 447.656L40.0392 442.218Z" fill="#D32222"/>
<path d="M41.1853 448.128C41.1853 448.128 40.1963 445.213 43.0787 439.811C45.961 434.408 47.9027 431.228 47.9027 431.228C47.9027 431.228 52.3166 437.265 49.7358 442.575C47.8006 446.35 45.5332 449.961 42.9581 453.37L41.1853 448.128Z" fill="#D32222"/>
<path d="M50.0371 472.481C50.0371 472.481 50.411 469.44 55.3797 465.661C60.3484 461.883 63.5202 459.775 63.5202 459.775C63.5202 459.775 64.9071 467.021 60.2519 470.822C56.8494 473.489 53.2186 475.878 49.3979 477.965L50.0371 472.481Z" fill="#D32222"/>
<path d="M48.7346 464.97C48.7346 464.97 48.2402 461.952 42.9941 458.496C37.748 455.04 34.5521 453.047 34.5521 453.047C34.5521 453.047 33.5993 460.362 38.4836 463.91C42.041 466.384 45.8088 468.569 49.7477 470.442L48.7346 464.97Z" fill="#D32222"/>
<path d="M48.6623 481.386C48.6623 481.386 48.9396 478.333 44.8392 473.691C40.7388 469.048 38.0856 466.376 38.0856 466.376C38.0856 466.376 35.2274 473.219 39.0022 477.827C41.809 481.088 44.8994 484.117 48.2402 486.881L48.6623 481.386Z" fill="#D32222"/>
<path d="M23.5532 390.908C24.346 394.028 25.3162 397.105 26.4597 400.124C29.7762 408.476 35.1549 413.315 38.3267 420.86C41.4985 428.406 38.3267 439.292 41.4382 449.038C44.5497 458.784 49.6872 463.726 49.7355 470.604C49.7837 477.481 46.9376 496.512 46.9376 496.512" stroke="#263238" stroke-linecap="round" stroke-linejoin="round"/>
<path d="M25.712 398.707L20.3091 396" stroke="#263238" stroke-linecap="round" stroke-linejoin="round"/>
<path d="M24.7593 394.721L26.1462 391" stroke="#263238" stroke-linecap="round" stroke-linejoin="round"/>
<path d="M37.9893 420.48C37.9893 420.48 33.4788 418.28 28.8599 416.091" stroke="#263238" stroke-linecap="round" stroke-linejoin="round"/>
<path d="M34.9741 414.847C36.2987 410.846 38.0484 406.986 40.1961 403.327" stroke="#263238" stroke-linecap="round" stroke-linejoin="round"/>
<path d="M40.6667 446.538C37.6569 442.905 34.1151 439.704 30.1504 437.034" stroke="#263238" stroke-linecap="round" stroke-linejoin="round"/>
<path d="M42.2104 450.651C42.9263 447.726 43.8944 444.863 45.1049 442.092C46.8415 438.428 47.0947 437.944 47.0947 437.944" stroke="#263238" stroke-linecap="round" stroke-linejoin="round"/>
<path d="M49.4463 475.776C51.2042 473.698 53.1493 471.77 55.2592 470.016C56.6262 469.058 57.9088 467.994 59.0943 466.836" stroke="#263238" stroke-linecap="round" stroke-linejoin="round"/>
<path d="M49.7358 470.523C48.2986 468.29 46.686 466.164 44.9118 464.164C43.1543 462.332 41.2424 460.64 39.1953 459.107" stroke="#263238" stroke-linecap="round" stroke-linejoin="round"/>
<path d="M48.24 486.881C48.0532 484.55 47.2207 482.307 45.828 480.384C43.609 477.596 41.004 473.875 39.9307 472.412" stroke="#263238" stroke-linecap="round" stroke-linejoin="round"/>
<path d="M568.194 188.058C573.661 165.581 559.017 143.126 535.486 137.904C511.955 132.681 488.447 146.669 482.98 169.146C477.513 191.624 492.157 214.079 515.688 219.301C539.219 224.524 562.727 210.536 568.194 188.058Z" fill="#263238" stroke="#263238" stroke-miterlimit="10"/>
<path d="M540.037 211.287C558.934 203.644 567.766 182.814 559.765 164.764C551.763 146.713 529.957 138.276 511.06 145.92C492.164 153.563 483.331 174.392 491.333 192.443C499.335 210.494 521.141 218.931 540.037 211.287Z" fill="white" stroke="#263238" stroke-miterlimit="10"/>
<path d="M537.032 155.82L525.551 178.572H541.952" stroke="#263238" stroke-miterlimit="10"/>
<path d="M529.723 178.56C529.726 179.349 529.483 180.121 529.026 180.778C528.569 181.435 527.918 181.947 527.156 182.251C526.394 182.554 525.554 182.635 524.744 182.482C523.934 182.33 523.189 181.951 522.604 181.394C522.02 180.837 521.621 180.127 521.459 179.353C521.297 178.58 521.379 177.778 521.694 177.049C522.01 176.32 522.545 175.697 523.231 175.258C523.918 174.82 524.725 174.586 525.551 174.586C526.098 174.584 526.64 174.686 527.147 174.885C527.653 175.084 528.113 175.376 528.501 175.746C528.888 176.115 529.196 176.553 529.406 177.036C529.615 177.519 529.723 178.037 529.723 178.56Z" fill="#D32222" stroke="#263238" stroke-miterlimit="10"/>
<path d="M289.03 286.525L283.41 278.715C283.41 278.715 284.519 266.158 283.265 264.2C282.011 262.241 261.702 259.972 260.496 261.423C259.29 262.875 263.559 264.188 263.559 264.188C263.559 264.188 260.665 265.409 260.966 266.803C261.412 268.854 265.115 269.107 265.115 269.107C265.115 269.107 262.172 270.985 262.534 272.206C262.823 273.174 265.766 273.934 265.766 273.934C265.766 273.934 262.787 275.224 265.223 276.872C267.66 278.519 269.722 280.224 269.722 280.224C269.722 280.224 268.033 283.68 272.604 286.687C277.175 289.693 285.074 295.165 285.074 295.165L289.03 286.525Z" fill="white" stroke="#263238" stroke-linecap="round" stroke-linejoin="round"/>
<path d="M261.256 256.193L256.757 255.836V257.161L260.375 259.108C260.581 258.114 260.876 257.139 261.256 256.193Z" fill="#263238" stroke="#263238" stroke-linecap="round" stroke-linejoin="round"/>
<path d="M278.935 264.891C278.735 264.898 278.535 264.871 278.345 264.81L260.496 259.43C260.263 259.371 260.045 259.267 259.855 259.125C259.666 258.983 259.508 258.805 259.392 258.603C259.276 258.402 259.205 258.179 259.181 257.95C259.157 257.721 259.183 257.49 259.255 257.27C259.328 257.051 259.446 256.847 259.603 256.673C259.76 256.498 259.952 256.355 260.169 256.254C260.385 256.152 260.62 256.093 260.861 256.081C261.102 256.068 261.343 256.103 261.569 256.182L279.418 261.562C279.819 261.683 280.163 261.936 280.388 262.277C280.612 262.617 280.704 263.022 280.646 263.42C280.589 263.819 280.385 264.185 280.072 264.454C279.759 264.723 279.356 264.878 278.935 264.891Z" fill="white" stroke="#263238" stroke-linecap="round" stroke-linejoin="round"/>
<path d="M288.234 268.243C287.964 268.244 287.695 268.206 287.438 268.128L278.224 265.352C277.877 265.305 277.544 265.187 277.249 265.005C276.954 264.823 276.705 264.582 276.517 264.299C276.33 264.016 276.21 263.697 276.165 263.364C276.12 263.032 276.152 262.694 276.258 262.375C276.364 262.055 276.541 261.761 276.778 261.514C277.015 261.267 277.306 261.072 277.629 260.943C277.953 260.814 278.303 260.754 278.653 260.768C279.004 260.781 279.347 260.867 279.659 261.02L288.873 263.796C289.469 263.984 289.965 264.386 290.255 264.918C290.545 265.449 290.608 266.067 290.429 266.642C290.279 267.091 289.987 267.486 289.595 267.772C289.202 268.059 288.727 268.223 288.234 268.243Z" fill="#263238" stroke="#263238" stroke-linecap="round" stroke-linejoin="round"/>
<path d="M280.805 270.812C279.975 268.511 279.008 266.258 277.911 264.061C276.644 261.827 274.208 259.903 273.243 257.656C272.279 255.41 269.698 258.889 270.65 260.571C271.603 262.253 273.762 264.753 273.798 265.893C273.834 267.034 274.148 267.875 272.773 271.653C271.398 275.432 270.638 279.717 273.714 282.735" fill="white"/>
<path d="M280.805 270.812C279.975 268.511 279.008 266.258 277.911 264.061C276.644 261.827 274.208 259.903 273.243 257.656C272.279 255.41 269.698 258.889 270.65 260.571C271.603 262.253 273.762 264.753 273.798 265.893C273.834 267.034 274.148 267.875 272.773 271.653C271.398 275.432 270.638 279.717 273.714 282.735" stroke="#263238" stroke-linecap="round" stroke-linejoin="round"/>
<path d="M263.607 264.188L273.798 265.893" stroke="#263238" stroke-linecap="round" stroke-linejoin="round"/>
<path d="M265.163 269.119C266.369 268.796 272.773 271.607 272.773 271.607" stroke="#263238" stroke-linecap="round" stroke-linejoin="round"/>
<path d="M265.814 273.946L271.109 275.639" stroke="#263238" stroke-linecap="round" stroke-linejoin="round"/>
<path d="M360.389 271.515C360.389 271.515 357.35 269.798 356.011 274.395C354.672 278.991 350.741 287.067 349.004 288.818C347.267 290.569 330.191 306.72 330.191 306.72C330.191 306.72 322.858 301.225 321.133 303.264C320.407 304.275 319.401 305.073 318.227 305.568L288.945 283.622L278.091 299.301C278.091 299.301 317.889 334.045 321.218 335.094C324.546 336.142 326.898 335.785 328.08 335.186C329.262 334.587 351.115 318.874 351.115 318.874C351.115 318.874 364.441 277.793 365.587 276.342C366.732 274.89 360.389 271.515 360.389 271.515Z" fill="#D32222" stroke="#263238" stroke-linecap="round" stroke-linejoin="round"/>
<path d="M321.061 306.812C321.061 306.812 326.995 313.356 326.995 321.638L321.061 306.812Z" fill="#D32222"/>
<path d="M321.061 306.812C321.061 306.812 326.995 313.356 326.995 321.638" stroke="#263238" stroke-linecap="round" stroke-linejoin="round"/>
<path d="M330.649 309.427C330.649 309.427 332.47 313.793 329.732 323.378L330.649 309.427Z" fill="#D32222"/>
<path d="M330.649 309.427C330.649 309.427 332.47 313.793 329.732 323.378" stroke="#263238" stroke-linecap="round" stroke-linejoin="round"/>
<path d="M373.438 220.815C373.438 220.815 360.51 212.751 362.041 205.091C363.573 197.43 392.565 191.267 409.232 196.439C425.899 201.611 429.288 225.435 427.093 240.134C424.898 254.834 423.571 288.38 423.571 288.38L367.022 289.97C367.022 289.97 372.292 250.687 373.39 238.268C374.487 225.85 373.438 220.815 373.438 220.815Z" fill="#263238" stroke="#263238" stroke-linecap="round" stroke-linejoin="round"/>
<path d="M344.494 437.103C345.7 448.842 347.991 500.567 349.318 508.228H408.111C407.99 499.404 407.833 439.799 409.16 434.926C410.836 428.832 413.188 408.511 410.595 396.852C408.002 385.194 404.854 379.572 404.854 379.572L343.831 379.515L344.012 384.296C344.012 384.296 342.866 420.48 344.494 437.103Z" fill="#263238" stroke="#263238" stroke-linecap="round" stroke-linejoin="round"/>
<path d="M357.543 401.898C359.955 403.476 362.367 404.605 362.367 406.886C363.573 427.369 368.325 484.9 370.001 505.624" stroke="#4C4C4C" stroke-linecap="round" stroke-linejoin="round"/>
<path d="M375.066 270.72L404.902 271.78C404.902 271.78 380.951 306.996 381.156 326.35C381.361 345.704 385.377 385.816 385.377 385.816C385.377 385.816 372.256 395.735 358.688 393.88C357.217 393.673 356.433 382.061 356.433 382.061C356.433 382.061 355.565 393.339 354.564 393.166C346.966 391.864 344.011 384.365 344.011 384.365L345.591 345.6C345.591 345.6 345.591 320.175 348.558 312.872C351.525 305.568 371.568 273.128 371.568 273.128L375.066 270.72Z" fill="white" stroke="#263238" stroke-linecap="round" stroke-linejoin="round"/>
<path d="M373.86 293.161C373.86 293.161 364.634 311.478 361.257 322.214C357.88 332.951 356.433 382.015 356.433 382.015" stroke="#263238" stroke-linecap="round" stroke-linejoin="round"/>
<path d="M401.308 271.503C401.308 271.503 380.384 301.317 376.344 312.054C372.304 322.79 369.603 363.894 370.133 381.312C370.664 398.73 376.429 417.946 376.429 417.946C393.394 420.533 410.753 419.394 427.189 414.616C427.189 414.616 419.881 383.708 416.335 373.559C414.121 366.908 412.452 360.102 411.342 353.203C411.342 353.203 435.366 280.028 435.366 278.899C435.366 277.77 434.896 276.595 432.496 275.939C430.096 275.282 401.308 271.503 401.308 271.503Z" fill="#D32222" stroke="#263238" stroke-linecap="round" stroke-linejoin="round"/>
<path d="M382.133 385.551L413.188 383.178L413.598 387.924L400.356 389.503" fill="#D32222"/>
<path d="M382.133 385.551L413.188 383.178L413.598 387.924L400.356 389.503" stroke="#263238" stroke-linecap="round" stroke-linejoin="round"/>
<path d="M374.788 274.522C374.788 274.522 349.86 316.604 349.306 324.207C348.751 331.81 345.06 366.831 343.01 377.902C340.96 388.973 332.096 410.469 332.096 410.469C332.096 410.469 329.817 401.046 330.48 396.852C331.143 392.659 340.743 368.859 341.768 363.513C342.793 358.168 344.18 339.149 343.939 330.808C343.698 322.468 343.095 316.408 344.904 310.291C346.713 304.174 360.389 271.515 360.389 271.515L380.227 270.582L374.788 274.522Z" fill="#D32222" stroke="#263238" stroke-linecap="round" stroke-linejoin="round"/>
<path d="M369.385 271.042L365.237 289.186L375.898 281.284L369.385 271.042Z" fill="white" stroke="#263238" stroke-linecap="round" stroke-linejoin="round"/>
<path d="M382.085 262.241L369.386 271.042L374.174 283.012L373.908 293.161L388.308 272.759L382.085 262.241Z" fill="white" stroke="#263238" stroke-linecap="round" stroke-linejoin="round"/>
<path d="M381.349 257.472C381.349 257.472 378.937 274.441 378.177 278.957C377.418 283.473 373.86 293.161 373.86 293.161C373.86 293.161 396.496 272.252 397.618 270.524C398.74 268.796 402.647 252.092 402.647 252.092C402.647 252.092 388.127 257.288 381.349 257.472Z" fill="white" stroke="#263238" stroke-linecap="round" stroke-linejoin="round"/>
<path d="M380.662 262.23C383.749 264.073 386.149 264.073 389.719 263.543C393.288 263.013 398.161 259.811 401.441 257.288C402.165 254.35 402.647 252.092 402.647 252.092C402.647 252.092 388.079 257.288 381.301 257.472C381.349 257.472 381.096 259.453 380.662 262.23Z" fill="#263238" stroke="#263238" stroke-linecap="round" stroke-linejoin="round"/>
<path d="M388.597 206.035L371.894 218.603C371.894 218.603 370.206 230.757 369.578 239.224C369.246 242.708 369.789 246.216 371.163 249.459C372.537 252.701 374.702 255.582 377.478 257.864C382.302 261.953 384.979 262.161 389.67 261.458C394.362 260.755 401.284 255.502 403.865 253.175C406.446 250.848 411.246 243.959 411.246 243.959C411.246 243.959 415.093 244.696 416.227 242.98C416.792 242.174 417.258 241.308 417.613 240.399C417.613 240.399 401.73 231.84 395.206 221.046C388.682 210.251 388.597 206.035 388.597 206.035Z" fill="white" stroke="#263238" stroke-linecap="round" stroke-linejoin="round"/>
<path d="M383.4 228.418C383.156 230.196 382.61 231.924 381.784 233.533C380.662 235.25 376.272 236.217 378.684 238.141C380.518 239.351 382.703 239.979 384.931 239.938" stroke="#263238" stroke-linecap="round" stroke-linejoin="round"/>
<path d="M378.551 243.199C378.551 243.199 387.5 246.885 393.252 241.932" stroke="#263238" stroke-linecap="round" stroke-linejoin="round"/>
<path d="M381.542 244.524C381.542 244.524 382.869 249.27 385.787 248.337C388.706 247.404 391.238 243.729 391.238 243.729C388.029 244.204 384.789 244.469 381.542 244.524Z" stroke="#263238" stroke-linecap="round" stroke-linejoin="round"/>
<path d="M394.663 230.63C394.663 231.874 394.145 232.934 393.457 232.934C392.77 232.934 392.107 231.967 392.071 230.722C392.034 229.478 392.589 228.418 393.277 228.418C393.964 228.418 394.627 229.398 394.663 230.63Z" fill="#263238"/>
<path d="M380.614 229.064C380.614 230.308 380.095 231.368 379.408 231.368C378.72 231.368 378.057 230.4 378.021 229.156C377.985 227.912 378.539 226.852 379.227 226.852C379.914 226.852 380.577 227.819 380.614 229.064Z" fill="#263238"/>
<path d="M375.886 223.845C376.326 223.405 376.857 223.056 377.445 222.82C378.032 222.584 378.665 222.467 379.302 222.476C379.94 222.485 380.568 222.619 381.149 222.87C381.729 223.122 382.249 223.485 382.676 223.937" stroke="#263238" stroke-linecap="round" stroke-linejoin="round"/>
<path d="M389.466 224.64C389.466 224.64 396.171 222.209 398.993 227.75" stroke="#263238" stroke-linecap="round" stroke-linejoin="round"/>
<path d="M385.751 275.938L373.908 293.161L391.311 284.221L385.751 275.938Z" fill="white" stroke="#263238" stroke-linecap="round" stroke-linejoin="round"/>
<path d="M405.626 261.009L385.751 275.938L391.54 291.537L410.631 270.443L405.626 261.009Z" fill="white" stroke="#263238" stroke-linecap="round" stroke-linejoin="round"/>
<path d="M381.47 349.494C378.786 348.779 376.223 347.701 373.86 346.291C369.41 343.757 364.67 344.644 360.703 344.759C356.735 344.874 353.973 345.715 354.419 347.213C354.866 348.71 358.833 348.607 360.027 348.572C361.221 348.538 363.259 350.381 363.259 350.381L353.334 352.685C353.334 352.685 350.223 354.678 352.671 356.878C355.119 359.078 355.565 358.583 355.565 358.583C355.565 358.583 359.316 364.17 363.296 364.435C367.275 364.7 383.448 360.829 383.448 360.829L381.47 349.494Z" fill="white" stroke="#263238" stroke-linecap="round" stroke-linejoin="round"/>
<path d="M409.594 305.948C410.064 308.252 412.633 342.155 412.633 342.155L379.89 349.528L381.639 367.327C381.639 367.327 440.238 360.737 441.324 357.293C442.409 353.848 438.586 294.359 438.912 290.938C439.237 287.516 444.013 275.962 429.71 275.962" fill="#D32222"/>
<path d="M409.594 305.948C410.064 308.252 412.633 342.155 412.633 342.155L379.89 349.528L381.639 367.327C381.639 367.327 440.238 360.737 441.324 357.293C442.409 353.848 438.586 294.359 438.912 290.938C439.237 287.516 444.013 275.962 429.71 275.962" stroke="#263238" stroke-linecap="round" stroke-linejoin="round"/>
<path d="M415.069 300.28C415.069 300.28 424.644 288.507 435.149 288.945L415.069 300.28Z" fill="#D32222"/>
<path d="M415.069 300.28C415.069 300.28 424.644 288.507 435.149 288.945" stroke="#263238" stroke-linecap="round" stroke-linejoin="round"/>
<path d="M415.069 304.635C415.069 304.635 423.282 300.28 431.495 300.28L415.069 304.635Z" fill="#D32222"/>
<path d="M415.069 304.635C415.069 304.635 423.282 300.28 431.495 300.28" stroke="#263238" stroke-linecap="round" stroke-linejoin="round"/>
<path d="M49.0359 508.228V441.573C49.0359 441.048 48.8174 440.544 48.4284 440.172C48.0394 439.8 47.5118 439.592 46.9616 439.592H38.4111C37.8598 439.592 37.331 439.8 36.94 440.171C36.5491 440.543 36.3279 441.047 36.3247 441.573V508.228H49.0359Z" fill="#4C4C4C" stroke="#263238" stroke-linecap="round" stroke-linejoin="round"/>
<path d="M38.3874 508.228V441.573C38.3842 441.047 38.163 440.543 37.772 440.171C37.3811 439.8 36.8522 439.592 36.301 439.592H27.7384C27.1882 439.592 26.6606 439.8 26.2716 440.172C25.8826 440.544 25.6641 441.048 25.6641 441.573V508.228H38.3874Z" fill="#263238" stroke="#263238" stroke-linecap="round" stroke-linejoin="round"/>
<path d="M43.1989 508.228H195.842C194.776 505.652 192.97 503.416 190.632 501.777C183.71 497.606 117.778 487.861 117.778 487.861L49.2892 486.812L46.0089 487.861C46.0089 487.861 42.3909 492.733 42.7406 495.164C42.9215 496.397 43.0059 502.364 43.1989 508.228Z" fill="#263238" stroke="#263238" stroke-linecap="round" stroke-linejoin="round"/>
<path d="M105.392 361.544C105.392 361.544 89.3645 370.241 83.9014 375.114C78.4382 379.987 69.3329 396 68.5972 405.734C67.8616 415.469 59.8537 452.736 59.8537 452.736C59.8537 452.736 43.4159 483.333 46.0088 487.86C48.6017 492.388 115.957 487.86 117.778 487.86C119.599 487.86 115.957 468.726 115.957 468.726C115.957 468.726 141.452 431.136 142.489 421.044C143.526 410.953 135.928 383.466 134.469 377.199C133.01 370.932 108.673 360.15 105.392 361.544Z" fill="white" stroke="#263238" stroke-linecap="round" stroke-linejoin="round"/>
<path d="M92.8623 414.72C92.8623 414.72 105.61 426.24 110.952 430.099" stroke="#263238" stroke-linecap="round" stroke-linejoin="round"/>
<path d="M86.832 423.671C86.832 423.671 110.313 431.355 116.343 432" stroke="#263238" stroke-linecap="round" stroke-linejoin="round"/>
<path d="M155.297 322.56C155.297 322.56 157.118 335.439 156.756 339.264C156.394 343.089 152.752 356.314 151.655 359.101C150.557 361.889 149.472 365.011 145.468 364.666C143.136 364.491 140.884 363.775 138.907 362.581L134.903 375.448L107.165 360.138L110.783 353.226C110.783 353.226 106.779 346.971 105.682 336.522C104.584 326.074 110.783 314.254 118.803 309.738C126.823 305.222 140.656 306.95 144.66 310.084C148.664 313.217 155.297 322.56 155.297 322.56Z" fill="white" stroke="#263238" stroke-linecap="round" stroke-linejoin="round"/>
<path d="M105.754 354.931C107.213 355.288 138.545 368.859 138.907 372.338C139.269 375.817 140.728 386.6 140.728 386.6C134.3 381.322 127.344 376.661 119.961 372.684C114.113 369.737 108.513 366.363 103.209 362.592L105.754 354.931Z" fill="white" stroke="#263238" stroke-linecap="round" stroke-linejoin="round"/>
<path d="M133.444 294.037C133.444 294.037 142.911 290.212 150.557 291.951C158.203 293.691 161.122 302.043 161.122 309.001C161.122 315.959 157.118 324.311 155.658 324.657C154.199 325.002 150.557 308.31 143.598 303.437C139.74 300.806 136.317 297.638 133.444 294.037Z" fill="#D32222" stroke="#263238" stroke-linecap="round" stroke-linejoin="round"/>
<path d="M121.806 296.133C121.806 296.133 136.748 288.472 149.858 299.255C162.967 310.038 158.601 320.832 155.683 324.657C152.764 328.481 152.776 335.797 150.581 337.19C148.386 338.584 148.037 331.626 145.492 330.278C142.947 328.931 143.273 334.08 140.366 340.992C137.46 347.904 124.339 358.042 117.452 357.35C110.566 356.659 102.148 349.286 97.4087 334.034C92.6691 318.781 95.9615 302.365 104.645 297.17C107.191 295.651 110.092 294.76 113.088 294.579C116.084 294.398 119.08 294.932 121.806 296.133Z" fill="#D32222" stroke="#263238" stroke-linecap="round" stroke-linejoin="round"/>
<path d="M150.75 302.688C150.75 302.688 153.644 310.683 146.24 319.588C138.835 328.493 128.873 333.412 121.48 329.115C114.088 324.818 113.75 319.899 113.75 319.899" stroke="#263238" stroke-linecap="round" stroke-linejoin="round"/>
<path d="M101.883 321.408C101.883 321.408 100.267 345.404 115.39 347.904C130.514 350.404 138.871 335.232 138.871 335.232" stroke="#263238" stroke-linecap="round" stroke-linejoin="round"/>
<path d="M106.671 321.88C115.023 321.88 121.794 315.335 121.794 307.261C121.794 299.188 115.023 292.643 106.671 292.643C98.3187 292.643 91.5479 299.188 91.5479 307.261C91.5479 315.335 98.3187 321.88 106.671 321.88Z" fill="#D32222" stroke="#263238" stroke-linecap="round" stroke-linejoin="round"/>
<path d="M103.487 305.153C103.487 305.153 105.416 295.626 110.88 294.394" stroke="#263238" stroke-linecap="round" stroke-linejoin="round"/>
<path d="M102.848 306.432C102.848 306.432 113.774 302.746 118.924 306.743" stroke="#263238" stroke-linecap="round" stroke-linejoin="round"/>
<path d="M102.197 308.218C102.197 308.218 97.3728 311.293 98.9889 318.367" stroke="#263238" stroke-linecap="round" stroke-linejoin="round"/>
<path d="M147.651 338.227C147.651 338.227 146.553 327.79 143.273 328.136C139.993 328.481 141.452 344.149 143.273 346.568C143.433 346.879 143.674 347.147 143.972 347.345C144.271 347.544 144.617 347.667 144.979 347.702C145.34 347.738 145.705 347.685 146.04 347.549C146.374 347.413 146.667 347.198 146.891 346.925" fill="white"/>
<path d="M147.651 338.227C147.651 338.227 146.553 327.79 143.273 328.136C139.993 328.481 141.452 344.149 143.273 346.568C143.433 346.879 143.674 347.147 143.972 347.345C144.271 347.544 144.617 347.667 144.979 347.702C145.34 347.738 145.705 347.685 146.04 347.549C146.374 347.413 146.667 347.198 146.891 346.925" stroke="#263238" stroke-linecap="round" stroke-linejoin="round"/>
<path d="M455.543 494.093H117.26L128.669 466.664H379.432L455.543 494.093Z" fill="#B5B5B5" stroke="#263238" stroke-linecap="round" stroke-linejoin="round"/>
<path d="M450.9 499.576H121.01V508.228H450.9V499.576Z" fill="#263238" stroke="#263238" stroke-linecap="round" stroke-linejoin="round"/>
<path d="M455.543 494.093H117.26V504.277H455.543V494.093Z" fill="#4C4C4C" stroke="#263238" stroke-linecap="round" stroke-linejoin="round"/>
<path d="M244.698 470.177L254.503 484.957H175.087L182.818 470.177H244.698Z" fill="white"/>
<path d="M229.743 474.612L239.548 489.381H160.121L167.863 474.612H229.743Z" fill="white"/>
<path d="M133.082 393.212L148.338 461.065L207.722 469.071C207.722 469.071 225.57 462.159 227.018 462.159C228.465 462.159 231.021 466.33 232.119 467.724C233.216 469.117 235.025 471.18 235.737 472.251C236.448 473.322 236.822 478.506 235.737 479.9C234.652 481.294 232.457 485.119 230.262 484.773C228.067 484.428 230.262 478.863 230.262 478.863C230.262 478.863 217.514 483.725 213.51 483.725C209.506 483.725 201.45 480.269 201.45 480.269C201.45 480.269 133.866 487.515 129.802 486.144C128.145 485.655 126.61 484.846 125.293 483.769C123.976 482.691 122.904 481.366 122.144 479.877C120.697 477.101 97.3726 402.624 97.3726 402.624" fill="white"/>
<path d="M133.082 393.212L148.338 461.065L207.722 469.071C207.722 469.071 225.57 462.159 227.018 462.159C228.465 462.159 231.021 466.33 232.119 467.724C233.216 469.117 235.025 471.18 235.737 472.251C236.448 473.322 236.822 478.506 235.737 479.9C234.652 481.294 232.457 485.119 230.262 484.773C228.067 484.428 230.262 478.863 230.262 478.863C230.262 478.863 217.514 483.725 213.51 483.725C209.506 483.725 201.45 480.269 201.45 480.269C201.45 480.269 133.866 487.515 129.802 486.144C128.145 485.655 126.61 484.846 125.293 483.769C123.976 482.691 122.904 481.366 122.144 479.877C120.697 477.101 97.3726 402.624 97.3726 402.624" stroke="#263238" stroke-linecap="round" stroke-linejoin="round"/>
<path d="M232.167 467.712C231.07 466.318 228.549 462.148 227.066 462.148C225.583 462.148 207.77 469.06 207.77 469.06L173.93 464.452C176.135 470.333 176.697 476.663 175.558 482.815C189.68 481.432 201.571 480.142 201.571 480.142C201.571 480.142 209.591 483.598 213.631 483.598C217.671 483.598 230.346 478.817 230.346 478.817C230.346 478.817 228.164 484.381 230.346 484.727C232.529 485.073 234.724 481.271 235.822 479.854C236.919 478.437 236.545 473.242 235.822 472.205C235.098 471.168 233.253 469.071 232.167 467.712Z" fill="white" stroke="#263238" stroke-linecap="round" stroke-linejoin="round"/>
<path d="M16.5947 508.228H593.352" stroke="#263238" stroke-linecap="round" stroke-linejoin="round"/>
<path d="M333.411 485.418H397.522V483.448L302.079 469.809L304.395 471.779L333.411 485.418Z" fill="white" stroke="#263238" stroke-linecap="round" stroke-linejoin="round"/>
<path d="M333.411 483.448H397.522L363.657 470.131L304.395 469.809L333.411 483.448Z" fill="white" stroke="#263238" stroke-linecap="round" stroke-linejoin="round"/>
<path d="M343.855 472.838H349.861L346.797 471.617L340.912 471.663L343.855 472.838Z" fill="white" stroke="#263238" stroke-width="0.75" stroke-linecap="round" stroke-linejoin="round"/>
<path d="M356.047 477.711L359.123 478.944H365.129L362.053 477.711H356.047Z" fill="white" stroke="#263238" stroke-width="0.75" stroke-linecap="round" stroke-linejoin="round"/>
<path d="M367.179 475.868H360.534L362.294 476.571H368.964L367.179 475.868Z" fill="white" stroke="#263238" stroke-width="0.75" stroke-linecap="round" stroke-linejoin="round"/>
<path d="M353.177 476.571H359.195L357.434 475.868H351.428L353.177 476.571Z" fill="white" stroke="#263238" stroke-width="0.75" stroke-linecap="round" stroke-linejoin="round"/>
<path d="M357.675 474.728H364.272L362.391 473.99H355.83L357.675 474.728Z" fill="white" stroke="#263238" stroke-width="0.75" stroke-linecap="round" stroke-linejoin="round"/>
<path d="M334.737 472.838H340.755L337.873 471.686L331.976 471.744L334.737 472.838Z" fill="white" stroke="#263238" stroke-width="0.75" stroke-linecap="round" stroke-linejoin="round"/>
<path d="M346.713 473.99L348.558 474.728H354.576L352.731 473.99H346.713Z" fill="white" stroke="#263238" stroke-width="0.75" stroke-linecap="round" stroke-linejoin="round"/>
<path d="M376.175 482.124H383.086L377.924 480.096H371.098L376.175 482.124Z" fill="white" stroke="#263238" stroke-width="0.75" stroke-linecap="round" stroke-linejoin="round"/>
<path d="M361.981 480.096L367.058 482.124H373.076L367.999 480.096H361.981Z" fill="white" stroke="#263238" stroke-width="0.75" stroke-linecap="round" stroke-linejoin="round"/>
<path d="M352.864 480.096L357.941 482.124H363.959L358.882 480.096H352.864Z" fill="white" stroke="#263238" stroke-width="0.75" stroke-linecap="round" stroke-linejoin="round"/>
<path d="M349.764 480.096H338.018L342.214 482.124H354.841L349.764 480.096Z" fill="white" stroke="#263238" stroke-width="0.75" stroke-linecap="round" stroke-linejoin="round"/>
<path d="M352.972 472.838H359.472L356.156 471.537L349.836 471.594L352.972 472.838Z" fill="white" stroke="#263238" stroke-width="0.75" stroke-linecap="round" stroke-linejoin="round"/>
<path d="M365.165 477.711L368.24 478.944H375.018L371.882 477.711H365.165Z" fill="white" stroke="#263238" stroke-width="0.75" stroke-linecap="round" stroke-linejoin="round"/>
<path d="M356.023 478.944L352.936 477.711H346.93L350.005 478.944H356.023Z" fill="white" stroke="#263238" stroke-width="0.75" stroke-linecap="round" stroke-linejoin="round"/>
<path d="M331.638 472.838L328.937 471.767L320.941 471.825L323.027 472.838H331.638Z" fill="white" stroke="#263238" stroke-width="0.75" stroke-linecap="round" stroke-linejoin="round"/>
<path d="M348.317 475.868H342.311L344.06 476.571H350.078L348.317 475.868Z" fill="white" stroke="#263238" stroke-width="0.75" stroke-linecap="round" stroke-linejoin="round"/>
<path d="M337.596 473.99L339.441 474.728H345.459L343.614 473.99H337.596Z" fill="white" stroke="#263238" stroke-width="0.75" stroke-linecap="round" stroke-linejoin="round"/>
<path d="M340.96 476.571L339.211 475.868H329.286L330.745 476.571H340.96Z" fill="white" stroke="#263238" stroke-width="0.75" stroke-linecap="round" stroke-linejoin="round"/>
<path d="M326.922 474.728H336.341L334.496 473.99H325.403L326.922 474.728Z" fill="white" stroke="#263238" stroke-width="0.75" stroke-linecap="round" stroke-linejoin="round"/>
<path d="M343.831 477.711H333.109L335.654 478.944H346.906L343.831 477.711Z" fill="white" stroke="#263238" stroke-width="0.75" stroke-linecap="round" stroke-linejoin="round"/>
<path d="M333.411 483.448H331.095L286.75 422.369L288.945 421.736H317.974L333.411 483.448Z" fill="white" stroke="#263238" stroke-linecap="round" stroke-linejoin="round"/>
<path d="M331.095 483.448L302.079 469.809L286.642 421.736H315.658L331.095 483.448Z" fill="white" stroke="#263238" stroke-linecap="round" stroke-linejoin="round"/>
<path d="M584.813 508.228V434.177C584.813 433.649 584.593 433.142 584.202 432.768C583.811 432.394 583.28 432.184 582.727 432.184H554.482C553.929 432.184 553.398 432.394 553.007 432.768C552.616 433.142 552.396 433.649 552.396 434.177V508.228H584.813Z" fill="#263238" stroke="#263238" stroke-linecap="round" stroke-linejoin="round"/>
<path d="M574.599 508.228V434.177C574.6 433.915 574.547 433.655 574.443 433.413C574.339 433.17 574.185 432.95 573.991 432.765C573.797 432.579 573.566 432.433 573.313 432.333C573.059 432.233 572.787 432.183 572.512 432.184H544.28C544.005 432.183 543.733 432.233 543.479 432.333C543.226 432.433 542.995 432.579 542.801 432.765C542.607 432.95 542.453 433.17 542.349 433.413C542.245 433.655 542.192 433.915 542.193 434.177V508.228H574.599Z" fill="#4C4C4C" stroke="#263238" stroke-linecap="round" stroke-linejoin="round"/>
<path d="M461.44 390.171C461.44 390.171 448.994 398.097 447.426 402.97C445.858 407.842 436.572 435.583 435.619 437.714C434.666 439.845 427.008 451.123 427.008 451.123L386.173 452.943C386.173 452.943 367.673 448.992 366.069 448.992C364.465 448.992 348.522 459.049 347.243 461.791C345.965 464.532 343.107 468.495 344.373 469.405C345.639 470.315 347.569 468.795 347.569 468.795C347.569 468.795 348.208 473.057 356.18 471.537C364.151 470.016 372.135 464.532 372.135 464.532C372.135 464.532 382.024 469.14 385.847 468.184L386.173 468.092V472.147C386.173 472.147 440.093 474.889 442.324 474.278C444.556 473.668 456.362 459.959 456.362 459.959L470.074 389.249C470.074 389.249 469.411 382.545 461.44 390.171Z" fill="#D32222" stroke="#263238" stroke-linecap="round" stroke-linejoin="round"/>
<path d="M387.03 454.003L386.258 452.943H386.149C386.149 452.943 367.649 448.992 366.045 448.992C364.441 448.992 348.498 459.049 347.219 461.791C345.941 464.532 343.083 468.495 344.349 469.405C345.615 470.316 347.545 468.795 347.545 468.795C347.545 468.795 348.184 473.057 356.156 471.537C364.128 470.016 372.111 464.532 372.111 464.532C372.111 464.532 382 469.14 385.824 468.184L386.149 468.092V472.147L387.03 454.003Z" fill="#4C4C4C" stroke="#263238" stroke-linecap="round" stroke-linejoin="round"/>
<path d="M462.959 508.228H464.225C463.249 506.016 462.392 503.989 462.043 502.883C461.03 499.634 448.777 457.333 447.402 451.158C446.027 444.983 446.714 436.182 450.127 423.821C453.54 411.46 461.44 390.171 461.44 390.171L450.127 405.285C450.127 405.285 440.588 440.421 440.588 444.972C440.588 449.522 445.352 472.62 450.127 484.013C452.889 490.614 458.63 500.809 462.959 508.228Z" fill="#D32222" stroke="#263238" stroke-linecap="round" stroke-linejoin="round"/>
<path d="M466.541 381.635C466.541 381.635 454.747 399.306 451.551 411.506C448.355 423.706 445.81 434.362 445.81 445.329C445.81 456.296 458.57 487.388 460.487 491.351C462.405 495.314 483.136 496.524 489.515 477.631C495.895 458.738 498.766 404.191 494.942 391.692C491.119 379.192 474.525 373.409 466.541 381.635Z" fill="white" stroke="#263238" stroke-linecap="round" stroke-linejoin="round"/>
<path d="M463.225 379.077C462.441 380.229 451.84 385.828 451.84 385.828L451.442 396.323L454.59 390.701L459.486 404.629L464.756 378.697L463.225 379.077Z" fill="#808080" stroke="#263238" stroke-linecap="round" stroke-linejoin="round"/>
<path d="M464.407 508.228H551.239C548.38 500.924 537.333 472.631 536.996 471.364C536.598 469.855 527.577 403.108 518.146 390.724C508.715 378.34 486.79 373.847 482.038 376.474C482.038 376.474 466.36 406.852 460.439 421.102C454.517 435.352 450.622 463.473 450.622 467.597C450.622 471.721 458.871 497.549 458.871 497.549L464.407 508.228Z" fill="#D32222" stroke="#263238" stroke-linecap="round" stroke-linejoin="round"/>
<path d="M526.95 485.914L489.407 496.593L491.807 501.166L512.574 495.072" stroke="#263238" stroke-linecap="round" stroke-linejoin="round"/>
<path d="M444.664 326.281C444.664 326.281 441.649 335.174 441.577 337.006C441.547 338.371 441.592 339.736 441.71 341.096C441.747 341.825 441.562 342.549 441.179 343.181C440.552 344.148 433.497 350.634 434.329 351.936C435.161 353.238 440.033 358.41 440.033 358.41C440.033 358.41 443.446 373.951 448.017 375.748C452.588 377.545 459.04 376.439 459.04 376.439L461.367 382.51L489.877 373.582L489.443 364.631C489.443 364.631 492.301 348.687 489.021 337.236C485.741 325.786 457.219 313.344 444.664 326.281Z" fill="white" stroke="#263238" stroke-linecap="round" stroke-linejoin="round"/>
<path d="M445.581 344.552C445.243 345.876 444.531 346.856 444.001 346.729C443.47 346.602 443.301 345.427 443.639 344.102C443.977 342.778 444.676 341.798 445.219 341.925C445.762 342.052 445.906 343.227 445.581 344.552Z" fill="#263238"/>
<path d="M443.555 338.515C444.13 338.363 444.732 338.322 445.324 338.392C445.917 338.463 446.489 338.645 447.008 338.928C447.527 339.21 447.982 339.588 448.348 340.039C448.713 340.49 448.982 341.006 449.138 341.557" fill="white"/>
<path d="M443.555 338.515C444.13 338.363 444.732 338.322 445.324 338.392C445.917 338.463 446.489 338.645 447.008 338.928C447.527 339.21 447.982 339.588 448.348 340.039C448.713 340.49 448.982 341.006 449.138 341.557" stroke="#263238" stroke-linecap="round" stroke-linejoin="round"/>
<path d="M440.769 360.576C440.769 360.576 443.953 363.629 449.537 361.728L440.769 360.576Z" fill="white"/>
<path d="M440.769 360.576C440.769 360.576 443.953 363.629 449.537 361.728" stroke="#263238" stroke-linecap="round" stroke-linejoin="round"/>
<path d="M462.139 304.485C461.233 302.36 459.787 300.484 457.932 299.026C456.078 297.568 453.872 296.574 451.514 296.133C443.386 294.636 437.573 305.464 439.611 309.623C441.649 313.782 442.566 314.726 438.658 314.934C434.751 315.141 427.262 324.852 433.834 330.808C440.407 336.764 448.379 328.251 448.777 331.292C449.175 334.333 448.101 337.052 451.924 337.179C455.747 337.306 462.031 336.925 461.042 339.287C460.053 341.649 459.836 347.121 463.454 347.962C467.072 348.803 469.339 344.506 471.896 345.116C474.453 345.727 477.926 353.503 475.646 357.788C473.367 362.074 471.86 362.085 471.594 363.133C471.329 364.182 478.408 371.336 485.68 370.045C492.953 368.755 502.408 366.52 503.517 359.032C504.627 351.544 502.311 349.908 505.326 347.282C508.341 344.655 511.223 343.826 510.367 339.587C509.511 335.347 506.749 333.965 507.642 330.474C508.534 326.984 504.904 311.04 489.274 304.128C473.645 297.216 462.139 304.485 462.139 304.485Z" fill="#263238" stroke="#263238" stroke-linecap="round" stroke-linejoin="round"/>
<path d="M492.88 365.161L456.941 385.079L459.522 404.629L497.873 375.506L492.88 365.161Z" fill="white" stroke="#263238" stroke-linecap="round" stroke-linejoin="round"/>
<path d="M398.848 457.828C398.848 457.828 391.612 455.259 387.029 454.003C379.166 451.849 371.798 448.646 369.048 449.395C366.298 450.144 352.912 458.945 352.912 458.945C352.912 458.945 348.196 469.82 348.594 471.329C348.992 472.838 351.862 470.408 351.862 470.408C351.862 470.408 350.162 472.447 351.73 473.956C353.298 475.465 354.877 472.447 354.877 472.447C354.877 472.447 354.479 476.202 356.831 475.822C357.436 475.799 358.016 475.587 358.482 475.219C358.948 474.85 359.275 474.346 359.412 473.783C359.412 473.783 359.581 475.822 361.547 475.822C363.512 475.822 367.83 467.954 367.83 467.954L375.283 468.323C375.283 468.323 381.18 471.329 384.714 471.698C388.247 472.067 392.565 469.82 392.565 469.82L397.268 470.972L401.2 460.097L398.848 457.828Z" fill="white" stroke="#263238" stroke-linecap="round" stroke-linejoin="round"/>
<path d="M351.862 470.408C351.862 470.408 355.878 461.192 356.517 460.593C357.157 459.994 365.189 455.685 365.189 455.685" stroke="#263238" stroke-linecap="round" stroke-linejoin="round"/>
<path d="M354.877 472.447C354.877 472.447 359.701 463.046 360.22 462.586C360.739 462.125 366.793 459.222 366.793 459.222" stroke="#263238" stroke-linecap="round" stroke-linejoin="round"/>
<path d="M359.388 473.783C359.388 473.783 364.043 465.201 364.851 464.74C365.659 464.279 367.734 463.208 367.734 463.208" stroke="#263238" stroke-linecap="round" stroke-linejoin="round"/>
<path d="M502.902 389.952C502.902 389.952 478.167 405.32 478.565 411.322C478.963 417.324 480.917 417.324 480.917 417.324L468.35 462.321C468.35 462.321 464.431 459.325 464.033 463.081L463.647 466.825L398.076 456.33L391.407 472.078C391.407 472.078 418.494 482.204 437.344 488.575C456.194 494.945 475.815 502.076 477.769 498.701C479.723 495.325 518.58 439.822 520.992 435.698C523.404 431.574 523.404 424.074 523.404 424.074" fill="#D32222"/>
<path d="M502.902 389.952C502.902 389.952 478.167 405.32 478.565 411.322C478.963 417.324 480.917 417.324 480.917 417.324L468.35 462.321C468.35 462.321 464.431 459.325 464.033 463.081L463.647 466.825L398.076 456.33L391.407 472.078C391.407 472.078 418.494 482.204 437.344 488.575C456.194 494.945 475.815 502.076 477.769 498.701C479.723 495.325 518.58 439.822 520.992 435.698C523.404 431.574 523.404 424.074 523.404 424.074" stroke="#263238" stroke-linecap="round" stroke-linejoin="round"/>
<path d="M480.893 417.324C480.893 417.324 488.346 402.705 506.412 401.576" stroke="#263238" stroke-linecap="round" stroke-linejoin="round"/>
</svg>
