<svg width="500" height="500" viewBox="0 0 500 500" fill="none" xmlns="http://www.w3.org/2000/svg">
<path d="M500 382.4H0V382.65H500V382.4Z" fill="#EBEBEB"/>
<path d="M449.9 398.49H428.22V398.74H449.9V398.49Z" fill="#EBEBEB"/>
<path d="M344.67 393.31H310.56V393.56H344.67V393.31Z" fill="#EBEBEB"/>
<path d="M441.12 389.21H396.59V389.46H441.12V389.21Z" fill="#EBEBEB"/>
<path d="M173.02 394.25H161.88V394.5H173.02V394.25Z" fill="#EBEBEB"/>
<path d="M152.97 394.25H114.58V394.5H152.97V394.25Z" fill="#EBEBEB"/>
<path d="M94.0101 390.03H66.3101V390.28H94.0101V390.03Z" fill="#EBEBEB"/>
<path d="M237 337.8H43.91C42.3973 337.797 40.9475 337.195 39.8788 336.124C38.8102 335.053 38.21 333.603 38.21 332.09V60.66C38.2231 59.156 38.8292 57.718 39.8964 56.6582C40.9637 55.5985 42.4059 55.0026 43.91 55H237C238.514 55 239.967 55.6016 241.038 56.6724C242.108 57.7433 242.71 59.1956 242.71 60.71V332.09C242.71 333.604 242.108 335.057 241.038 336.128C239.967 337.198 238.514 337.8 237 337.8ZM43.91 55.2C42.4636 55.2026 41.0774 55.7791 40.0556 56.8027C39.0338 57.8264 38.46 59.2136 38.46 60.66V332.09C38.46 333.536 39.0338 334.924 40.0556 335.947C41.0774 336.971 42.4636 337.547 43.91 337.55H237C238.447 337.547 239.834 336.971 240.858 335.948C241.881 334.924 242.457 333.537 242.46 332.09V60.66C242.457 59.2127 241.881 57.8255 240.858 56.8021C239.834 55.7787 238.447 55.2026 237 55.2H43.91Z" fill="#EBEBEB"/>
<path d="M453.31 337.8H260.21C258.696 337.797 257.246 337.195 256.175 336.125C255.105 335.054 254.503 333.604 254.5 332.09V60.66C254.516 59.1551 255.124 57.7171 256.193 56.6576C257.262 55.5981 258.705 55.0025 260.21 55H453.31C454.812 55.0052 456.252 55.6022 457.317 56.6617C458.382 57.7212 458.987 59.1578 459 60.66V332.09C459 333.601 458.401 335.05 457.335 336.121C456.268 337.191 454.821 337.795 453.31 337.8ZM260.21 55.2C258.763 55.2026 257.375 55.7787 256.352 56.8021C255.329 57.8255 254.753 59.2127 254.75 60.66V332.09C254.753 333.537 255.329 334.924 256.352 335.948C257.375 336.971 258.763 337.547 260.21 337.55H453.31C454.757 337.547 456.145 336.971 457.168 335.948C458.191 334.924 458.767 333.537 458.77 332.09V60.66C458.767 59.2127 458.191 57.8255 457.168 56.8021C456.145 55.7787 454.757 55.2026 453.31 55.2H260.21Z" fill="#EBEBEB"/>
<path d="M115 174.63C120.546 174.63 125.864 172.427 129.786 168.506C133.707 164.584 135.91 159.266 135.91 153.72C135.91 148.174 133.707 142.856 129.786 138.934C125.864 135.013 120.546 132.81 115 132.81H112.43V174.63H115Z" fill="#E0E0E0"/>
<path d="M112.41 174.63C123.958 174.63 133.32 165.268 133.32 153.72C133.32 142.172 123.958 132.81 112.41 132.81C100.862 132.81 91.5 142.172 91.5 153.72C91.5 165.268 100.862 174.63 112.41 174.63Z" fill="#F5F5F5"/>
<path d="M111.45 156.34C104.024 156.34 96.902 153.39 91.651 148.139C86.3999 142.888 83.45 135.766 83.45 128.34V111.63C83.45 110.932 83.727 110.264 84.2203 109.77C84.7135 109.277 85.3824 109 86.08 109C86.7775 109 87.4464 109.277 87.9396 109.77C88.4329 110.264 88.71 110.932 88.71 111.63V128.35C88.7152 134.378 91.1114 140.157 95.3727 144.42C99.6339 148.683 105.412 151.082 111.44 151.09C111.798 151.068 112.157 151.119 112.495 151.241C112.833 151.363 113.142 151.553 113.404 151.799C113.665 152.045 113.874 152.342 114.016 152.671C114.159 153.001 114.232 153.356 114.232 153.715C114.232 154.074 114.159 154.429 114.016 154.759C113.874 155.088 113.665 155.385 113.404 155.631C113.142 155.877 112.833 156.067 112.495 156.189C112.157 156.311 111.798 156.362 111.44 156.34H111.45Z" fill="#E0E0E0"/>
<path d="M62.83 126.35H109.35C110.094 126.35 110.828 126.179 111.496 125.851C112.163 125.523 112.747 125.046 113.201 124.456C113.655 123.867 113.967 123.181 114.115 122.452C114.262 121.723 114.24 120.969 114.05 120.25L110 105C109.727 103.964 109.119 103.047 108.27 102.393C107.422 101.738 106.381 101.382 105.31 101.38H66.87C65.7972 101.382 64.755 101.737 63.9052 102.392C63.0553 103.046 62.4453 103.963 62.17 105L58.17 120.23C57.9753 120.948 57.9482 121.7 58.0907 122.43C58.2332 123.16 58.5416 123.847 58.992 124.438C59.4424 125.03 60.0228 125.51 60.6883 125.841C61.3537 126.173 62.0865 126.347 62.83 126.35Z" fill="#F5F5F5"/>
<path d="M410.28 174.63C415.826 174.63 421.144 172.427 425.066 168.506C428.987 164.584 431.19 159.266 431.19 153.72C431.19 148.174 428.987 142.856 425.066 138.934C421.144 135.013 415.826 132.81 410.28 132.81H407.71V174.63H410.28Z" fill="#E0E0E0"/>
<path d="M407.71 174.63C419.258 174.63 428.62 165.268 428.62 153.72C428.62 142.172 419.258 132.81 407.71 132.81C396.162 132.81 386.8 142.172 386.8 153.72C386.8 165.268 396.162 174.63 407.71 174.63Z" fill="#F5F5F5"/>
<path d="M406.75 156.34C399.324 156.34 392.202 153.39 386.951 148.139C381.7 142.888 378.75 135.766 378.75 128.34V111.63C378.75 110.932 379.027 110.264 379.52 109.77C380.014 109.277 380.682 109 381.38 109C382.078 109 382.746 109.277 383.24 109.77C383.733 110.264 384.01 110.932 384.01 111.63V128.35C384.015 134.378 386.411 140.157 390.673 144.42C394.934 148.683 400.712 151.082 406.74 151.09C407.098 151.068 407.457 151.119 407.795 151.241C408.133 151.363 408.442 151.553 408.704 151.799C408.965 152.045 409.174 152.342 409.316 152.671C409.459 153.001 409.532 153.356 409.532 153.715C409.532 154.074 409.459 154.429 409.316 154.759C409.174 155.088 408.965 155.385 408.704 155.631C408.442 155.877 408.133 156.067 407.795 156.189C407.457 156.311 407.098 156.362 406.74 156.34H406.75Z" fill="#E0E0E0"/>
<path d="M358.13 126.35H404.65C405.394 126.35 406.128 126.179 406.796 125.851C407.463 125.523 408.047 125.046 408.501 124.456C408.955 123.867 409.267 123.181 409.415 122.452C409.562 121.723 409.54 120.969 409.35 120.25L405.35 105.02C405.077 103.984 404.469 103.067 403.62 102.413C402.772 101.758 401.731 101.402 400.66 101.4H362.17C361.097 101.402 360.055 101.757 359.205 102.412C358.355 103.066 357.745 103.983 357.47 105.02L353.47 120.25C353.279 120.966 353.255 121.717 353.399 122.444C353.543 123.171 353.852 123.855 354.302 124.444C354.752 125.033 355.331 125.511 355.995 125.842C356.658 126.172 357.389 126.346 358.13 126.35Z" fill="#F5F5F5"/>
<path d="M133.98 315.86H149.19V256.93H133.98V315.86Z" fill="#E6E6E6"/>
<path d="M92.75 315.85H143.22L150.84 246.88H100.37L92.75 315.85Z" fill="#F0F0F0"/>
<path d="M87.28 315.85H139.42L147.04 246.88H94.91L87.28 315.85Z" fill="#F5F5F5"/>
<path d="M135.65 310.42L142.07 252.32H98.67L92.25 310.42H135.65Z" fill="white"/>
<path d="M126.69 296.33L127 294C128.61 279.42 119.51 266.43 107.69 266.43L107.42 268.8C105.81 283.37 114.91 296.36 126.74 296.36L126.69 296.33Z" fill="#F5F5F5"/>
<path d="M59.0899 382.4H103.93L103.93 315.85H59.0899L59.0899 382.4Z" fill="#E6E6E6"/>
<path d="M63.5901 382.4H59.0801V369.57H68.3201L63.5901 382.4Z" fill="#F0F0F0"/>
<path d="M184.76 382.4H229.6V315.85H184.76V382.4Z" fill="#E6E6E6"/>
<path d="M59.0799 374.53H188.69V315.86H59.0799V374.53Z" fill="#F0F0F0"/>
<path d="M184.18 382.4H188.69V369.57H179.45L184.18 382.4Z" fill="#F0F0F0"/>
<path d="M62.5799 343.2H185.19V319.52H62.5799V343.2Z" fill="#E6E6E6"/>
<path d="M115.71 335H132.06C135.575 335.001 139.054 334.286 142.283 332.896C145.512 331.507 148.424 329.473 150.84 326.92H96.9299C99.3471 329.472 102.259 331.505 105.488 332.894C108.717 334.283 112.195 335 115.71 335Z" fill="#F0F0F0"/>
<path d="M62.5799 370.7H185.19V347.02H62.5799V370.7Z" fill="#E6E6E6"/>
<path d="M115.71 362.46H132.06C135.575 362.461 139.054 361.746 142.283 360.356C145.512 358.967 148.424 356.933 150.84 354.38H96.9299C99.3471 356.932 102.259 358.965 105.488 360.354C108.717 361.743 112.195 362.46 115.71 362.46Z" fill="#F0F0F0"/>
<path d="M180.48 313.14H181.64C181.64 310.75 181.64 304.7 181.76 290.83C181.97 265.68 182.37 264.15 182.37 264.15L179.61 275.76C177.86 288.61 180.12 301.53 180.48 313.14Z" fill="#E6E6E6"/>
<path d="M178.19 274C174.19 269.27 165.74 267.89 157.06 266.71C153.65 266.25 166.01 274.04 172.06 279.57C176.76 283.87 179.76 285.06 181.06 289.34C181.72 284 181.61 278.11 178.19 274Z" fill="#E6E6E6"/>
<path d="M183.46 282.48C187.46 277.75 195.91 276.38 204.59 275.2C208 274.74 195.59 282.53 189.59 288.06C184.89 292.36 181.89 293.55 180.59 297.83C179.93 292.49 180 286.56 183.46 282.48Z" fill="#E6E6E6"/>
<path d="M181.76 263C184.76 257.34 192.22 252 200.63 250C203.93 249.21 192.98 260.44 188.82 267.69C185.59 273.31 181.31 279.93 180.64 284.69C179.64 275.31 178.78 268.69 181.76 263Z" fill="#E6E6E6"/>
<path d="M181.4 315.85C177.86 315.85 174.93 314.08 174.72 311.8L174.13 307.92H188.68L188.08 311.8C187.88 314.08 185 315.85 181.4 315.85Z" fill="#F0F0F0"/>
<path d="M189.62 309.41H173.19L172.72 305.08H190.09L189.62 309.41Z" fill="#F0F0F0"/>
<path d="M169.54 226.72L329.75 226.72V80.59L169.54 80.59L169.54 226.72Z" fill="#E6E6E6"/>
<path d="M165.94 226.72L328.18 226.72V80.59L165.94 80.59L165.94 226.72Z" fill="#F5F5F5"/>
<path d="M321.7 220.18V87.14L172.4 87.14V220.18H321.7Z" fill="#FAFAFA"/>
<path d="M303.39 220.18L244.63 87.14H224.67L283.43 220.18H303.39Z" fill="white"/>
<path d="M277.77 220.18L219.01 87.14H205.27L264.03 220.18H277.77Z" fill="white"/>
<path d="M227.84 220.17V87.13H220.12V220.17H227.84Z" fill="#E6E6E6"/>
<path d="M279.16 220.17V87.13H271.44V220.17H279.16Z" fill="#E6E6E6"/>
<path d="M226.45 224.33V82.27H216.69V224.33H226.45Z" fill="#F5F5F5"/>
<path d="M277.77 224.33V82.27H268.01V224.33H277.77Z" fill="#F5F5F5"/>
<path d="M173.1 220.18V87.14H172.41V220.18H173.1Z" fill="#E6E6E6"/>
<path d="M163.22 72.17H336.78C337.002 72.1726 337.214 72.262 337.371 72.4189C337.528 72.5759 337.617 72.7881 337.62 73.01C337.617 73.2311 337.528 73.4422 337.37 73.5976C337.213 73.7529 337.001 73.8401 336.78 73.84H163.22C162.999 73.8401 162.787 73.7529 162.629 73.5976C162.472 73.4422 162.383 73.2311 162.38 73.01C162.382 72.7881 162.472 72.5759 162.629 72.4189C162.786 72.262 162.998 72.1726 163.22 72.17Z" fill="#E6E6E6"/>
<path d="M329.75 77.68C330.048 77.6774 330.333 77.5571 330.543 77.3455C330.752 77.1339 330.87 76.848 330.87 76.55V74.13C330.871 73.9821 330.843 73.8354 330.788 73.6983C330.732 73.5613 330.65 73.4366 330.546 73.3316C330.441 73.2265 330.318 73.1431 330.181 73.0862C330.045 73.0293 329.898 73 329.75 73C329.452 73 329.166 73.1177 328.955 73.3274C328.743 73.5372 328.623 73.822 328.62 74.12V76.54C328.62 76.8406 328.739 77.1291 328.95 77.3426C329.162 77.5561 329.45 77.6774 329.75 77.68Z" fill="#E6E6E6"/>
<path d="M175.8 77.68C176.099 77.6774 176.385 77.5575 176.596 77.3461C176.807 77.1348 176.927 76.8489 176.93 76.55V74.13C176.93 73.8303 176.811 73.5429 176.599 73.331C176.387 73.1191 176.1 73 175.8 73C175.503 73 175.218 73.118 175.008 73.328C174.798 73.5381 174.68 73.823 174.68 74.12V76.54C174.679 76.6884 174.707 76.8356 174.762 76.9732C174.818 77.1108 174.9 77.2361 175.004 77.342C175.108 77.4478 175.232 77.5322 175.368 77.5902C175.505 77.6482 175.652 77.6787 175.8 77.68Z" fill="#E6E6E6"/>
<path opacity="0.6" d="M163.48 187.44L325.61 187.44V72.9999L163.48 72.9999V187.44Z" fill="#E0E0E0"/>
<path d="M340.29 259.97H312.33C309.359 259.97 306.95 262.379 306.95 265.35V278.29C306.95 281.261 309.359 283.67 312.33 283.67H340.29C343.261 283.67 345.67 281.261 345.67 278.29V265.35C345.67 262.379 343.261 259.97 340.29 259.97Z" fill="#FAFAFA"/>
<path d="M343.86 255.59H308.76C307.76 255.59 306.95 256.4 306.95 257.4V258.86C306.95 259.86 307.76 260.67 308.76 260.67H343.86C344.86 260.67 345.67 259.86 345.67 258.86V257.4C345.67 256.4 344.86 255.59 343.86 255.59Z" fill="#E6E6E6"/>
<path d="M307.52 310C307.52 310 308.03 326.67 327.45 326.67C346.87 326.67 347.38 310 347.38 310H307.52Z" fill="#F0F0F0"/>
<path d="M351.8 310C351.8 310 352.31 326.67 371.73 326.67C391.15 326.67 391.66 310 391.66 310H351.8Z" fill="#F0F0F0"/>
<path d="M382.04 249.24H343.64C339.553 249.24 336.24 252.553 336.24 256.64V276.28C336.24 280.367 339.553 283.68 343.64 283.68H382.04C386.127 283.68 389.44 280.367 389.44 276.28V256.64C389.44 252.553 386.127 249.24 382.04 249.24Z" fill="#F0F0F0"/>
<path d="M386.96 243.22H338.72C337.35 243.22 336.24 244.33 336.24 245.7V247.72C336.24 249.09 337.35 250.2 338.72 250.2H386.96C388.33 250.2 389.44 249.09 389.44 247.72V245.7C389.44 244.33 388.33 243.22 386.96 243.22Z" fill="#F5F5F5"/>
<path d="M292.89 382.4H297.93V299.76H292.89V382.4Z" fill="#E6E6E6"/>
<path d="M438.42 283.67H411.13V299.75H438.42V283.67Z" fill="#E6E6E6"/>
<path d="M275.44 299.76H411.12V283.68H275.44V299.76Z" fill="#F5F5F5"/>
<path d="M438.42 326.62H411.13V342.7H438.42V326.62Z" fill="#E6E6E6"/>
<path d="M275.44 342.7H411.12V326.62H275.44V342.7Z" fill="#F5F5F5"/>
<path d="M428.57 382.4H433.61V299.76H428.57V382.4Z" fill="#E6E6E6"/>
<path d="M406.09 382.4H411.13V299.76H406.09V382.4Z" fill="#F5F5F5"/>
<path d="M275.44 382.4H280.48V299.76H275.44V382.4Z" fill="#F5F5F5"/>
<path d="M250 427.56C357.083 427.56 443.89 422.492 443.89 416.24C443.89 409.988 357.083 404.92 250 404.92C142.918 404.92 56.1101 409.988 56.1101 416.24C56.1101 422.492 142.918 427.56 250 427.56Z" fill="#F5F5F5"/>
<path d="M260.41 365.5H132.84C130.789 365.471 128.824 364.667 127.34 363.25C125.857 361.833 124.963 359.908 124.84 357.86L113.4 136.31C113.337 135.324 113.477 134.337 113.814 133.408C114.15 132.48 114.674 131.631 115.354 130.914C116.034 130.198 116.854 129.63 117.764 129.245C118.673 128.861 119.653 128.668 120.64 128.68H248.21C250.261 128.707 252.225 129.508 253.709 130.923C255.193 132.339 256.086 134.263 256.21 136.31L267.63 357.86C267.693 358.844 267.553 359.831 267.218 360.759C266.883 361.686 266.361 362.535 265.683 363.252C265.006 363.969 264.188 364.538 263.281 364.925C262.374 365.312 261.396 365.507 260.41 365.5Z" fill="#D32222"/>
<path opacity="0.8" d="M260.41 365.5H132.84C130.789 365.471 128.824 364.667 127.34 363.25C125.857 361.833 124.963 359.908 124.84 357.86L113.4 136.31C113.337 135.324 113.477 134.337 113.814 133.408C114.15 132.48 114.674 131.631 115.354 130.914C116.034 130.198 116.854 129.63 117.764 129.245C118.673 128.861 119.653 128.668 120.64 128.68H248.21C250.261 128.707 252.225 129.508 253.709 130.923C255.193 132.339 256.086 134.263 256.21 136.31L267.63 357.86C267.693 358.844 267.553 359.831 267.218 360.759C266.883 361.686 266.361 362.535 265.683 363.252C265.006 363.969 264.188 364.538 263.281 364.925C262.374 365.312 261.396 365.507 260.41 365.5Z" fill="white"/>
<path d="M235.62 121.46H221.51V122.46H235.62V121.46Z" fill="#D32222"/>
<path d="M216.62 121.46H211.45V122.46H216.62V121.46Z" fill="#D32222"/>
<path d="M265.9 351.44H143.9C141.935 351.421 140.051 350.658 138.626 349.306C137.201 347.953 136.341 346.111 136.22 344.15L125.3 132.25C125.239 131.307 125.374 130.361 125.696 129.473C126.018 128.584 126.52 127.772 127.171 127.086C127.821 126.401 128.607 125.857 129.477 125.49C130.348 125.122 131.285 124.938 132.23 124.95H254.23C256.195 124.972 258.078 125.737 259.501 127.091C260.924 128.446 261.781 130.289 261.9 132.25L272.82 344.15C272.881 345.092 272.746 346.036 272.425 346.923C272.103 347.811 271.602 348.622 270.952 349.306C270.303 349.991 269.518 350.534 268.649 350.901C267.78 351.268 266.844 351.452 265.9 351.44Z" fill="#D32222"/>
<path d="M265.9 346.57H143.9C143.185 346.545 142.503 346.259 141.985 345.765C141.467 345.271 141.148 344.604 141.09 343.89L130.16 132C130.135 131.718 130.171 131.434 130.264 131.167C130.357 130.9 130.505 130.655 130.7 130.45C130.895 130.245 131.131 130.084 131.393 129.977C131.655 129.87 131.937 129.82 132.22 129.83H254.22C254.934 129.857 255.613 130.145 256.129 130.638C256.645 131.132 256.962 131.798 257.02 132.51L268 344.4C268.024 344.681 267.989 344.964 267.896 345.23C267.803 345.496 267.655 345.739 267.461 345.944C267.268 346.149 267.033 346.311 266.772 346.419C266.512 346.527 266.232 346.578 265.95 346.57H265.9ZM132.22 130.08C131.971 130.072 131.724 130.116 131.493 130.209C131.262 130.302 131.054 130.442 130.88 130.62C130.713 130.805 130.585 131.021 130.505 131.257C130.424 131.492 130.392 131.742 130.41 131.99L141.33 343.88C141.386 344.529 141.677 345.135 142.148 345.585C142.62 346.034 143.239 346.296 143.89 346.32H265.89C266.137 346.33 266.384 346.287 266.613 346.194C266.843 346.1 267.049 345.959 267.22 345.78C267.391 345.598 267.521 345.382 267.602 345.146C267.684 344.909 267.713 344.659 267.69 344.41L256.78 132.52C256.727 131.872 256.438 131.266 255.968 130.816C255.498 130.367 254.88 130.105 254.23 130.08H132.22Z" fill="white"/>
<path opacity="0.3" d="M223.227 207.056C237.103 192.816 236.199 169.431 221.209 154.822C206.218 140.214 182.817 139.914 168.94 154.154C155.064 168.393 155.968 191.779 170.959 206.387C185.949 220.996 209.351 221.295 223.227 207.056Z" fill="white"/>
<path d="M226 180.61C226.28 185.524 225.292 190.428 223.13 194.85C220.79 199.593 217.158 203.579 212.652 206.348C208.145 209.116 202.949 210.556 197.66 210.5C192.179 210.451 186.805 208.983 182.059 206.241C177.314 203.498 173.359 199.574 170.58 194.85C167.99 190.53 166.5 185.64 166.24 180.61C165.993 176.752 166.546 172.885 167.862 169.251C169.179 165.616 171.232 162.293 173.892 159.488C176.552 156.683 179.763 154.458 183.322 152.951C186.882 151.444 190.715 150.688 194.58 150.73C202.625 150.814 210.34 153.943 216.17 159.487C222 165.032 225.512 172.579 226 180.61Z" fill="white"/>
<path d="M223.1 194.85C220.76 199.593 217.128 203.579 212.622 206.348C208.115 209.116 202.919 210.556 197.63 210.5C192.149 210.451 186.775 208.983 182.029 206.241C177.284 203.498 173.329 199.574 170.55 194.85C178.149 189.602 187.175 186.81 196.41 186.85C205.892 186.886 215.162 189.664 223.1 194.85Z" fill="#D32222"/>
<path d="M205.347 179.915C210.347 174.785 210.019 166.358 204.616 161.093C199.213 155.828 190.78 155.718 185.781 160.848C180.782 165.978 181.109 174.405 186.512 179.67C191.915 184.936 200.348 185.045 205.347 179.915Z" fill="#D32222"/>
<path d="M248.41 269H152.88C152.048 268.991 151.25 268.668 150.647 268.094C150.044 267.521 149.681 266.741 149.63 265.91L148.91 251.91C148.885 251.512 148.943 251.113 149.079 250.738C149.216 250.363 149.428 250.02 149.703 249.731C149.978 249.442 150.31 249.213 150.678 249.058C151.045 248.903 151.441 248.825 151.84 248.83H247.37C248.201 248.838 248.997 249.16 249.6 249.732C250.203 250.303 250.567 251.081 250.62 251.91L251.34 265.91C251.366 266.309 251.31 266.709 251.174 267.085C251.038 267.461 250.826 267.805 250.551 268.096C250.276 268.386 249.943 268.616 249.575 268.772C249.207 268.927 248.81 269.005 248.41 269Z" fill="white"/>
<path opacity="0.3" d="M219.16 241.1H179.26C178.425 241.094 177.623 240.77 177.017 240.194C176.412 239.619 176.048 238.834 176 238L175.85 235C175.824 234.601 175.88 234.201 176.016 233.825C176.152 233.449 176.364 233.105 176.639 232.814C176.915 232.524 177.247 232.294 177.615 232.138C177.984 231.983 178.38 231.905 178.78 231.91H218.67C219.502 231.919 220.3 232.242 220.903 232.816C221.506 233.389 221.869 234.169 221.92 235L222.08 238C222.105 238.398 222.047 238.797 221.912 239.173C221.776 239.548 221.565 239.892 221.291 240.182C221.017 240.473 220.687 240.704 220.321 240.862C219.954 241.02 219.559 241.101 219.16 241.1Z" fill="black"/>
<path opacity="0.3" d="M234 336.31H174.23C172.815 336.293 171.458 335.741 170.433 334.765C169.407 333.79 168.788 332.463 168.7 331.05L168.35 324.15C168.315 323.472 168.418 322.794 168.653 322.157C168.889 321.52 169.251 320.937 169.719 320.445C170.187 319.953 170.75 319.561 171.375 319.294C171.999 319.027 172.671 318.889 173.35 318.89H233.1C234.515 318.907 235.872 319.459 236.897 320.435C237.923 321.41 238.542 322.737 238.63 324.15L238.98 331.05C239.015 331.726 238.913 332.403 238.678 333.039C238.444 333.674 238.083 334.256 237.618 334.748C237.152 335.239 236.591 335.632 235.969 335.9C235.347 336.169 234.677 336.308 234 336.31Z" fill="black"/>
<path d="M250.16 302.86H154.62C153.789 302.849 152.992 302.525 152.39 301.952C151.787 301.379 151.423 300.6 151.37 299.77L150.65 285.77C150.625 285.371 150.683 284.972 150.819 284.596C150.956 284.221 151.168 283.877 151.443 283.588C151.718 283.298 152.049 283.067 152.417 282.911C152.785 282.755 153.181 282.676 153.58 282.68H249.11C249.942 282.689 250.74 283.012 251.343 283.585C251.946 284.159 252.31 284.939 252.36 285.77L253.09 299.77C253.113 300.168 253.055 300.567 252.918 300.942C252.781 301.317 252.569 301.66 252.294 301.949C252.019 302.239 251.688 302.469 251.321 302.626C250.954 302.782 250.559 302.862 250.16 302.86Z" fill="white"/>
<path d="M165 258.91C165.027 259.352 164.964 259.795 164.812 260.211C164.661 260.627 164.425 261.007 164.12 261.328C163.815 261.649 163.447 261.904 163.04 262.076C162.632 262.249 162.193 262.335 161.75 262.33C160.83 262.319 159.949 261.96 159.283 261.326C158.617 260.691 158.215 259.828 158.16 258.91C158.131 258.469 158.194 258.026 158.344 257.61C158.494 257.194 158.729 256.813 159.033 256.492C159.337 256.171 159.704 255.916 160.112 255.744C160.519 255.571 160.958 255.485 161.4 255.49C162.321 255.501 163.203 255.859 163.871 256.493C164.539 257.128 164.942 257.991 165 258.91Z" fill="#263238"/>
<path d="M175.53 258.91C175.559 259.351 175.496 259.794 175.346 260.21C175.196 260.626 174.961 261.007 174.657 261.328C174.353 261.649 173.986 261.904 173.578 262.076C173.171 262.249 172.732 262.335 172.29 262.33C171.369 262.321 170.487 261.963 169.82 261.328C169.154 260.693 168.753 259.829 168.7 258.91C168.671 258.469 168.734 258.026 168.884 257.61C169.034 257.194 169.269 256.813 169.573 256.492C169.877 256.171 170.244 255.916 170.652 255.744C171.059 255.571 171.498 255.485 171.94 255.49C172.861 255.499 173.743 255.857 174.41 256.492C175.076 257.126 175.477 257.991 175.53 258.91Z" fill="#263238"/>
<path d="M186 258.91C186.029 259.351 185.966 259.794 185.816 260.21C185.666 260.626 185.431 261.007 185.127 261.328C184.823 261.649 184.456 261.904 184.048 262.076C183.641 262.249 183.202 262.335 182.76 262.33C181.839 262.319 180.957 261.961 180.289 261.326C179.621 260.692 179.218 259.829 179.16 258.91C179.133 258.468 179.196 258.025 179.348 257.609C179.499 257.193 179.735 256.813 180.04 256.492C180.345 256.171 180.713 255.916 181.12 255.744C181.528 255.571 181.967 255.485 182.41 255.49C183.33 255.501 184.211 255.86 184.877 256.494C185.543 257.129 185.945 257.992 186 258.91Z" fill="#263238"/>
<path d="M196.55 258.91C196.578 259.351 196.514 259.793 196.363 260.208C196.212 260.624 195.978 261.004 195.674 261.325C195.37 261.645 195.003 261.9 194.597 262.073C194.19 262.246 193.752 262.334 193.31 262.33C192.389 262.319 191.507 261.961 190.839 261.326C190.171 260.692 189.768 259.829 189.71 258.91C189.683 258.469 189.746 258.027 189.897 257.611C190.048 257.196 190.282 256.816 190.586 256.495C190.89 256.175 191.257 255.92 191.664 255.747C192.07 255.574 192.508 255.486 192.95 255.49C193.871 255.501 194.754 255.859 195.421 256.493C196.089 257.128 196.492 257.991 196.55 258.91Z" fill="#263238"/>
<path d="M166.77 292.75C166.799 293.191 166.736 293.634 166.586 294.05C166.436 294.466 166.201 294.847 165.897 295.168C165.593 295.489 165.226 295.744 164.818 295.916C164.411 296.089 163.972 296.175 163.53 296.17C162.609 296.159 161.727 295.801 161.059 295.166C160.391 294.532 159.988 293.669 159.93 292.75C159.903 292.308 159.966 291.865 160.118 291.449C160.269 291.033 160.505 290.653 160.81 290.332C161.115 290.011 161.483 289.756 161.89 289.584C162.298 289.411 162.737 289.325 163.18 289.33C164.1 289.341 164.981 289.7 165.647 290.334C166.313 290.969 166.715 291.832 166.77 292.75Z" fill="#263238"/>
<path d="M177.28 292.75C177.307 293.191 177.244 293.633 177.093 294.048C176.942 294.464 176.708 294.844 176.404 295.165C176.1 295.485 175.733 295.74 175.326 295.913C174.92 296.086 174.482 296.174 174.04 296.17C173.119 296.159 172.236 295.801 171.569 295.166C170.901 294.532 170.498 293.669 170.44 292.75C170.411 292.309 170.474 291.866 170.624 291.45C170.774 291.034 171.009 290.653 171.313 290.332C171.617 290.011 171.984 289.756 172.392 289.584C172.799 289.411 173.238 289.325 173.68 289.33C174.601 289.341 175.484 289.699 176.151 290.333C176.819 290.968 177.222 291.831 177.28 292.75Z" fill="#263238"/>
<path d="M187.79 292.75C187.818 293.192 187.754 293.635 187.602 294.051C187.451 294.467 187.215 294.847 186.91 295.168C186.605 295.489 186.237 295.744 185.83 295.916C185.422 296.089 184.983 296.175 184.54 296.17C183.619 296.161 182.737 295.803 182.07 295.168C181.404 294.533 181.003 293.669 180.95 292.75C180.921 292.309 180.984 291.866 181.134 291.45C181.284 291.034 181.519 290.653 181.823 290.332C182.127 290.011 182.494 289.756 182.902 289.584C183.309 289.411 183.748 289.325 184.19 289.33C185.111 289.341 185.994 289.699 186.661 290.333C187.329 290.968 187.732 291.831 187.79 292.75Z" fill="#263238"/>
<path d="M198.29 292.75C198.319 293.191 198.256 293.634 198.106 294.05C197.956 294.466 197.722 294.847 197.417 295.168C197.113 295.489 196.746 295.744 196.338 295.916C195.931 296.089 195.492 296.175 195.05 296.17C194.129 296.159 193.247 295.801 192.579 295.166C191.911 294.532 191.508 293.669 191.45 292.75C191.423 292.308 191.486 291.865 191.638 291.449C191.789 291.033 192.025 290.653 192.33 290.332C192.635 290.011 193.003 289.756 193.41 289.584C193.818 289.411 194.257 289.325 194.7 289.33C195.621 289.339 196.503 289.697 197.17 290.332C197.836 290.966 198.237 291.831 198.29 292.75Z" fill="#263238"/>
<path d="M208.8 292.75C208.829 293.191 208.766 293.634 208.616 294.05C208.466 294.466 208.232 294.847 207.927 295.168C207.623 295.489 207.256 295.744 206.848 295.916C206.441 296.089 206.002 296.175 205.56 296.17C204.639 296.159 203.757 295.801 203.089 295.166C202.421 294.532 202.018 293.669 201.96 292.75C201.933 292.309 201.996 291.867 202.147 291.451C202.298 291.036 202.532 290.656 202.836 290.335C203.14 290.014 203.507 289.76 203.914 289.587C204.32 289.414 204.758 289.326 205.2 289.33C206.121 289.341 207.004 289.699 207.671 290.333C208.339 290.968 208.742 291.831 208.8 292.75Z" fill="#263238"/>
<path d="M219.31 292.75C219.338 293.192 219.274 293.635 219.122 294.051C218.971 294.467 218.735 294.847 218.43 295.168C218.125 295.489 217.757 295.744 217.35 295.916C216.942 296.089 216.503 296.175 216.06 296.17C215.14 296.159 214.259 295.8 213.593 295.166C212.927 294.531 212.526 293.668 212.47 292.75C212.441 292.309 212.504 291.866 212.654 291.45C212.804 291.034 213.039 290.653 213.343 290.332C213.647 290.011 214.014 289.756 214.422 289.584C214.829 289.411 215.268 289.325 215.71 289.33C216.631 289.341 217.514 289.699 218.181 290.333C218.849 290.968 219.252 291.831 219.31 292.75Z" fill="#263238"/>
<path d="M333 176.62C333.25 177 333.38 177.2 333.54 177.47L333.99 178.21C334.28 178.71 334.54 179.21 334.79 179.7C335.29 180.7 335.79 181.7 336.19 182.7C337.028 184.686 337.75 186.72 338.35 188.79C339.561 192.88 340.358 197.081 340.73 201.33L340.8 202.12C340.809 202.28 340.809 202.44 340.8 202.6V203.13C340.817 203.825 340.777 204.521 340.68 205.21C340.488 206.487 340.153 207.738 339.68 208.94C338.802 211.086 337.638 213.105 336.22 214.94C333.576 218.326 330.437 221.296 326.91 223.75L324.15 220.52C326.662 217.684 328.886 214.605 330.79 211.33C331.647 209.844 332.319 208.259 332.79 206.61C332.981 205.912 333.092 205.194 333.12 204.47C333.151 204.161 333.151 203.849 333.12 203.54V203.33C333.13 203.237 333.13 203.143 333.12 203.05L333 202.35C332.357 198.623 331.448 194.947 330.28 191.35C329.7 189.56 328.99 187.83 328.28 186.14C327.93 185.29 327.53 184.46 327.13 183.66L326.51 182.48L326.2 181.93L325.94 181.49L333 176.62Z" fill="#803E3C"/>
<path d="M323.7 223.77L327.32 231.42L330.19 224.95C330.19 224.95 327.64 219.35 324.19 219.87L323.7 223.77Z" fill="#7F3E3B"/>
<path d="M329.91 231.8L332.79 227.08L330.19 224.95L327.32 231.42L329.91 231.8Z" fill="#7F3E3B"/>
<path d="M313.63 408.22C314.379 408.201 315.123 408.101 315.85 407.92C315.887 407.909 315.92 407.888 315.946 407.86C315.973 407.832 315.991 407.797 316 407.76C316.006 407.721 316.001 407.682 315.985 407.647C315.969 407.611 315.943 407.581 315.91 407.56C315.62 407.37 313.08 405.73 312.1 406.17C311.992 406.221 311.898 406.299 311.83 406.397C311.761 406.496 311.72 406.611 311.71 406.73C311.68 406.911 311.694 407.096 311.752 407.271C311.809 407.445 311.908 407.603 312.04 407.73C312.493 408.08 313.058 408.254 313.63 408.22ZM315.28 407.63C313.83 407.93 312.73 407.88 312.28 407.49C312.188 407.399 312.121 407.286 312.084 407.162C312.047 407.038 312.043 406.906 312.07 406.78C312.07 406.61 312.17 406.56 312.24 406.53C312.78 406.29 314.25 407 315.28 407.63Z" fill="#D32222"/>
<path d="M315.8 407.92H315.9C315.93 407.9 315.955 407.874 315.973 407.842C315.99 407.811 316 407.776 316 407.74C316 407.64 316 405.23 315.08 404.42C314.967 404.318 314.834 404.243 314.689 404.198C314.544 404.153 314.391 404.14 314.24 404.16C314.082 404.161 313.93 404.217 313.808 404.317C313.686 404.417 313.602 404.555 313.57 404.71C313.38 405.66 314.9 407.46 315.7 407.92H315.8ZM314.37 404.53C314.451 404.528 314.532 404.541 314.607 404.571C314.683 404.6 314.752 404.644 314.81 404.7C315.338 405.478 315.61 406.4 315.59 407.34C314.79 406.7 313.84 405.34 313.96 404.77C313.96 404.68 314.03 404.56 314.28 404.53H314.37Z" fill="#D32222"/>
<path d="M304.19 404.14C304.214 404.111 304.229 404.076 304.234 404.038C304.24 404.001 304.235 403.963 304.221 403.929C304.206 403.894 304.183 403.864 304.153 403.841C304.123 403.818 304.088 403.804 304.05 403.8C303.64 403.8 300.05 403.63 299.23 404.51V404.57C299.162 404.656 299.119 404.759 299.103 404.868C299.087 404.977 299.1 405.088 299.14 405.19C299.194 405.362 299.288 405.518 299.415 405.645C299.542 405.772 299.699 405.867 299.87 405.92C301.03 406.28 303.08 404.97 304.2 404.16L304.19 404.14ZM299.53 404.77C299.98 404.29 301.96 404.16 303.44 404.18C301.89 405.24 300.6 405.74 299.95 405.54C299.837 405.506 299.734 405.444 299.65 405.36C299.566 405.276 299.505 405.173 299.47 405.06C299.45 405.021 299.44 404.978 299.44 404.935C299.44 404.891 299.45 404.849 299.47 404.81L299.53 404.77Z" fill="#D32222"/>
<path d="M304.19 404.14C304.205 404.109 304.213 404.075 304.213 404.04C304.213 404.005 304.205 403.971 304.19 403.94C304.14 403.86 303.02 401.94 301.7 401.54C301.511 401.484 301.312 401.468 301.116 401.492C300.92 401.516 300.731 401.58 300.56 401.68C300.08 401.96 300.05 402.29 300.11 402.5C300.37 403.43 302.92 404.25 304.02 404.24C304.055 404.239 304.089 404.23 304.118 404.212C304.148 404.195 304.173 404.17 304.19 404.14ZM300.6 402.14C300.657 402.085 300.721 402.037 300.79 402C300.914 401.921 301.053 401.871 301.198 401.852C301.343 401.833 301.491 401.846 301.63 401.89C302.5 402.12 303.31 403.24 303.68 403.79C302.49 403.66 300.68 402.93 300.53 402.37C300.517 402.327 300.517 402.282 300.53 402.24C300.542 402.197 300.567 402.159 300.6 402.13V402.14Z" fill="#D32222"/>
<path d="M315.2 147.33C314.2 152.33 312.04 163.14 315.51 166.46C315.51 166.46 314.15 171.46 304.92 171.46C294.76 171.46 300.07 166.46 300.07 166.46C305.61 165.14 305.47 161.02 304.5 157.16L315.2 147.33Z" fill="#7F3E3B"/>
<path d="M298.28 135.61C298.336 135.619 298.394 135.619 298.45 135.61C298.498 135.587 298.54 135.554 298.575 135.514C298.61 135.474 298.636 135.428 298.653 135.378C298.67 135.327 298.676 135.274 298.672 135.221C298.669 135.169 298.654 135.117 298.63 135.07C298.361 134.5 297.959 134.002 297.458 133.619C296.957 133.236 296.371 132.979 295.75 132.87C295.646 132.861 295.543 132.893 295.461 132.958C295.379 133.023 295.325 133.117 295.31 133.22C295.299 133.325 295.329 133.429 295.395 133.512C295.46 133.594 295.556 133.647 295.66 133.66C296.15 133.754 296.611 133.964 297.004 134.272C297.397 134.579 297.711 134.977 297.92 135.43C297.959 135.489 298.013 135.537 298.076 135.569C298.139 135.6 298.21 135.614 298.28 135.61Z" fill="#263238"/>
<path d="M295.25 140C294.463 141.46 293.481 142.805 292.33 144C292.642 144.285 293.011 144.499 293.414 144.627C293.816 144.754 294.241 144.793 294.66 144.74L295.25 140Z" fill="#630F0F"/>
<path d="M296 138.87C295.92 139.54 295.49 140.04 295.06 139.99C294.63 139.94 294.33 139.35 294.41 138.68C294.49 138.01 294.92 137.51 295.41 137.56C295.9 137.61 296.07 138.2 296 138.87Z" fill="#263238"/>
<path d="M295.54 137.62L294 137C294 137 294.65 138.32 295.54 137.62Z" fill="#263238"/>
<path d="M313.02 402.24L304.86 404.14L299.9 385.38L308.06 383.48L313.02 402.24Z" fill="#7F3E3B"/>
<path d="M325.54 407.72H317.17L317.82 388.33H326.2L325.54 407.72Z" fill="#7F3E3B"/>
<path d="M316.5 406.75H325.91C326.073 406.748 326.231 406.807 326.355 406.913C326.478 407.02 326.558 407.168 326.58 407.33L327.65 414.77C327.671 414.958 327.652 415.149 327.595 415.329C327.537 415.509 327.441 415.675 327.315 415.816C327.188 415.957 327.033 416.069 326.86 416.146C326.687 416.222 326.499 416.261 326.31 416.26C323.03 416.21 321.45 416.01 317.31 416.01C314.76 416.01 311.04 416.28 307.53 416.28C304.02 416.28 303.82 412.8 305.29 412.49C311.85 411.07 312.89 409.13 315.1 407.27C315.49 406.936 315.987 406.752 316.5 406.75Z" fill="#263238"/>
<path d="M304.14 402.89L312.69 398.96C312.835 398.891 313.001 398.877 313.156 398.921C313.31 398.965 313.443 399.064 313.53 399.2L317.62 405.52C317.716 405.683 317.776 405.863 317.797 406.051C317.819 406.238 317.8 406.428 317.744 406.608C317.687 406.788 317.594 406.954 317.469 407.096C317.344 407.237 317.192 407.351 317.02 407.43C314.02 408.75 312.5 409.24 308.74 410.97C306.43 412.03 301.74 414.47 298.56 415.97C295.38 417.47 293.74 414.36 294.94 413.46C300.31 409.46 301.85 406.59 303.08 403.98C303.288 403.499 303.665 403.111 304.14 402.89Z" fill="#263238"/>
<path opacity="0.2" d="M299.9 385.38L302.56 395.44L310.62 393.15L308.07 383.48L299.9 385.38Z" fill="black"/>
<path opacity="0.2" d="M326.2 388.33H317.82L317.49 398.33H325.87L326.2 388.33Z" fill="black"/>
<path d="M330 168.36C333.48 169.13 337.2 181.64 337.2 181.64L327.36 192.11C327.36 192.11 319.19 180.35 320.86 176.03C322.55 171.52 325.85 167.46 330 168.36Z" fill="#263238"/>
<path opacity="0.4" d="M324.44 176.33C322.68 174.72 321.49 175.2 320.68 176.48C319.88 180.2 324.62 187.99 326.53 190.94C327.41 187.42 328.42 180 324.44 176.33Z" fill="black"/>
<path d="M285.91 168.61C285.91 168.61 281.91 170.01 289.91 219.16H323.91C323.34 205.32 323.32 196.78 329.91 168.36C325.146 167.377 320.317 166.742 315.46 166.46C310.32 166.09 305.16 166.09 300.02 166.46C293.43 167.07 285.91 168.61 285.91 168.61Z" fill="#263238"/>
<path opacity="0.4" d="M285.6 187.47C285.82 189.86 286.11 192.55 286.49 195.59C289.28 193.08 291.56 185.94 290.72 181.78C288.727 183.398 286.999 185.318 285.6 187.47Z" fill="black"/>
<path d="M289.24 180C287.405 184.618 285.34 189.14 283.05 193.55C280.787 198.119 278.109 202.471 275.05 206.55L274.41 207.34L274.09 207.73C273.98 207.86 273.89 207.98 273.72 208.16C273.118 208.816 272.448 209.407 271.72 209.92C270.434 210.81 269.026 211.511 267.54 212C264.949 212.828 262.258 213.305 259.54 213.42C254.45 213.622 249.355 213.169 244.38 212.07L244.93 207.87C247.23 207.87 249.64 207.87 251.93 207.68C254.23 207.567 256.521 207.313 258.79 206.92C260.898 206.591 262.959 206.014 264.93 205.2C265.726 204.86 266.47 204.409 267.14 203.86C267.396 203.646 267.627 203.404 267.83 203.14C267.83 203.14 267.95 202.98 268.03 202.87L268.26 202.54L268.73 201.88C271.239 198.004 273.475 193.957 275.42 189.77C277.42 185.52 279.42 181.11 281.25 176.77L289.24 180Z" fill="#803E3C"/>
<path d="M285.91 168.61C281.74 169.61 276.62 181.05 276.62 181.05L285.26 193.75C285.26 193.75 296.77 179.26 295.4 174.84C294 170.23 291 167.37 285.91 168.61Z" fill="#263238"/>
<path d="M247.33 208.51L240.12 205.18L239.4 212.35C239.4 212.35 245.4 214.12 248.4 212.35L247.33 208.51Z" fill="#7F3E3B"/>
<path d="M235.81 204.46L235.12 209.92L239.4 212.35L240.12 205.18L235.81 204.46Z" fill="#7F3E3B"/>
<path d="M318.82 139.36C317.29 147.53 316.82 151.03 312.14 154.74C305.14 160.32 295.39 156.66 294.45 148.2C293.59 140.58 296.23 128.5 304.7 126.2C306.566 125.685 308.532 125.657 310.412 126.118C312.292 126.579 314.022 127.514 315.438 128.834C316.854 130.153 317.908 131.813 318.5 133.656C319.092 135.499 319.202 137.463 318.82 139.36Z" fill="#7F3E3B"/>
<path d="M300.87 141.08C300.4 145.25 300.22 156.08 309.38 156.42C320.59 156.83 323.95 147.25 322.95 143.42C328.79 138.67 329.63 130.5 323.07 124.25C316.51 118 302.07 121.49 298.07 127.58C293 135.13 300.87 141.08 300.87 141.08Z" fill="#263238"/>
<path d="M312.1 126.68C311.56 122.28 311.98 119.25 316.1 119.25C320.22 119.25 325.84 120.74 327.9 124.95C329.96 129.16 330.13 135.75 324.38 135.08C318.63 134.41 312.75 131.94 312.1 126.68Z" fill="#D32222"/>
<path d="M318.48 125.62C317.48 120.38 322.17 105.62 333.56 104.62C338.84 104.17 341.28 109.85 338.56 110.79C343.56 110.73 346.76 117.34 342.1 118.33C345.78 120.69 344.87 125.53 339.62 127.91C335.71 129.71 319.83 132.88 318.48 125.62Z" fill="#263238"/>
<path d="M330.65 131.25C326.98 131.25 323.15 130.71 320.77 129.12C320.105 128.719 319.544 128.165 319.136 127.504C318.727 126.843 318.482 126.094 318.42 125.32C318.417 125.254 318.439 125.19 318.482 125.14C318.525 125.089 318.585 125.057 318.65 125.05C318.683 125.046 318.717 125.048 318.749 125.058C318.781 125.068 318.811 125.084 318.836 125.105C318.861 125.127 318.882 125.154 318.896 125.184C318.911 125.214 318.919 125.247 318.92 125.28C318.98 125.979 319.205 126.654 319.575 127.25C319.945 127.846 320.45 128.346 321.05 128.71C325.58 131.71 336.05 130.71 339.31 129.71C342.13 128.79 344.04 127 344.42 124.94C344.539 124.184 344.445 123.41 344.151 122.704C343.856 121.998 343.371 121.387 342.75 120.94C342.726 120.917 342.707 120.89 342.694 120.86C342.681 120.83 342.674 120.798 342.674 120.765C342.674 120.732 342.681 120.7 342.694 120.67C342.707 120.639 342.726 120.612 342.75 120.59C342.797 120.544 342.86 120.518 342.925 120.518C342.991 120.518 343.053 120.544 343.1 120.59C343.798 121.099 344.341 121.793 344.668 122.593C344.994 123.392 345.092 124.268 344.95 125.12C344.54 127.37 342.51 129.29 339.51 130.27C336.615 131 333.634 131.329 330.65 131.25Z" fill="#263238"/>
<path d="M298.32 140C297.389 141.306 297.005 142.925 297.25 144.51C297.58 146.61 299.62 146.75 301.1 145.41C302.58 144.07 303.87 141.65 302.78 139.91C302.538 139.534 302.203 139.226 301.809 139.016C301.414 138.806 300.972 138.701 300.525 138.71C300.078 138.719 299.641 138.842 299.255 139.068C298.869 139.294 298.547 139.615 298.32 140Z" fill="#7F3E3B"/>
<path d="M298.89 219.16C298.89 219.16 303.75 276.65 308.8 309.05C312.87 335.22 316.09 396.39 316.09 396.39H327.51C327.51 396.39 331.57 337.05 329.51 311.17C324.28 245.67 335.95 240.33 323.94 219.17L298.89 219.16Z" fill="#D32222"/>
<path opacity="0.4" d="M313.27 240.89C308.744 245.64 305.092 251.151 302.48 257.17C303.81 270.09 305.39 284.43 307.07 296.99C313.964 279.143 316.1 259.811 313.27 240.89Z" fill="black"/>
<path d="M290.9 218.8C290.9 218.8 280.35 281.59 278.69 309.89C282.83 336.06 299.77 391.38 299.77 391.38L310.16 387.61C310.16 387.61 304.41 327.29 298.16 310.78C312.23 263.41 322.57 251.43 319.56 219.16C312.35 219.16 290.9 218.8 290.9 218.8Z" fill="#D32222"/>
<path d="M298.38 394.14L312.42 390.33L311.62 384.73L296.59 388.8L298.38 394.14Z" fill="#263238"/>
<path d="M314.52 396.62H329.07L329.83 391.52L314.44 391L314.52 396.62Z" fill="#263238"/>
<path d="M324.44 217.16L325.97 220.21C326.09 220.45 325.81 220.69 325.42 220.69H289.74C289.44 220.69 289.18 220.54 289.16 220.34L288.85 217.34C288.85 217.13 289.1 216.95 289.43 216.95H323.88C323.984 216.936 324.089 216.948 324.187 216.984C324.284 217.021 324.371 217.081 324.44 217.16Z" fill="#D32222"/>
<path opacity="0.5" d="M324.44 217.16L325.97 220.21C326.09 220.45 325.81 220.69 325.42 220.69H289.74C289.44 220.69 289.18 220.54 289.16 220.34L288.85 217.34C288.85 217.13 289.1 216.95 289.43 216.95H323.88C323.984 216.936 324.089 216.948 324.187 216.984C324.284 217.021 324.371 217.081 324.44 217.16Z" fill="black"/>
<path d="M319.81 221H320.73C320.92 221 321.06 220.9 321.05 220.79L320.61 216.79C320.61 216.67 320.44 216.58 320.26 216.58H319.33C319.15 216.58 319.01 216.67 319.02 216.79L319.45 220.79C319.47 220.92 319.63 221 319.81 221Z" fill="#D32222"/>
<path d="M307.43 191.88C307.32 191.878 307.213 191.841 307.125 191.775C307.037 191.708 306.972 191.616 306.94 191.51C303.68 179.45 296.94 169.51 293.67 168.01C293.416 167.854 293.111 167.804 292.82 167.87C292.76 167.902 292.693 167.921 292.625 167.926C292.557 167.931 292.489 167.923 292.424 167.9C292.36 167.878 292.3 167.843 292.25 167.797C292.2 167.751 292.159 167.695 292.131 167.633C292.103 167.571 292.088 167.503 292.087 167.435C292.086 167.367 292.099 167.299 292.125 167.236C292.151 167.173 292.19 167.116 292.239 167.069C292.288 167.021 292.346 166.984 292.41 166.96C292.683 166.86 292.975 166.82 293.265 166.844C293.556 166.868 293.837 166.956 294.09 167.1C297.55 168.74 304.39 178.54 307.81 190.87C310.26 190.87 314.04 190.54 314.96 190.46C316.1 189.1 324.48 178.62 321.35 167.15C321.332 167.087 321.327 167.021 321.335 166.956C321.342 166.891 321.363 166.828 321.396 166.771C321.429 166.714 321.472 166.664 321.525 166.625C321.577 166.585 321.636 166.556 321.7 166.54C321.827 166.506 321.963 166.524 322.077 166.59C322.191 166.655 322.275 166.763 322.31 166.89C325.8 179.65 315.68 191.16 315.57 191.27C315.531 191.318 315.482 191.358 315.427 191.388C315.372 191.417 315.312 191.435 315.25 191.44C315.2 191.44 310.21 191.88 307.43 191.88Z" fill="#D32222"/>
<path d="M324 198.94C318.55 188.73 316.32 188.01 315.35 184.73C316.085 182.896 317.134 181.204 318.45 179.73C317.79 179.54 316.37 179.26 315.45 179.09C315.55 178.64 315.66 178.2 315.76 177.77C314.759 177.658 313.746 177.705 312.76 177.91V176.91C311.49 176.634 310.185 176.549 308.89 176.66C309.003 177.133 309.113 177.613 309.22 178.1C308.22 178.29 306.7 178.6 305.97 178.81C307.389 180.417 308.431 182.319 309.02 184.38C306.08 189.43 294.66 221.89 313.24 224.38C331.82 226.87 329.44 209.16 324 198.94Z" fill="#D32222"/>
<path opacity="0.4" d="M324 198.94C318.55 188.73 316.32 188.01 315.35 184.73C316.085 182.896 317.134 181.204 318.45 179.73C317.79 179.54 316.37 179.26 315.45 179.09C315.55 178.64 315.66 178.2 315.76 177.77C314.759 177.658 313.746 177.705 312.76 177.91V176.91C311.49 176.634 310.185 176.549 308.89 176.66C309.003 177.133 309.113 177.613 309.22 178.1C308.22 178.29 306.7 178.6 305.97 178.81C307.389 180.417 308.431 182.319 309.02 184.38C306.08 189.43 294.66 221.89 313.24 224.38C331.82 226.87 329.44 209.16 324 198.94Z" fill="white"/>
<path d="M308.26 183.41C308.144 183.925 308.094 184.452 308.11 184.98C308.11 185.35 309.11 185.6 310.22 185.71C311.33 185.82 315.99 186 315.84 185.48C315.69 184.96 316.07 184.25 316.09 183.81C316.11 183.37 314.24 183.35 312.67 183.41C311.1 183.47 308.57 182.85 308.26 183.41Z" fill="#D32222"/>
<path d="M297.45 221H298.37C298.55 221 298.69 220.9 298.68 220.79L298.25 216.79C298.25 216.67 298.08 216.58 297.89 216.58H297C296.82 216.58 296.68 216.67 296.69 216.79L297.12 220.79C297.1 220.92 297.26 221 297.45 221Z" fill="#D32222"/>
</svg>
