<svg width="582" height="650" viewBox="0 0 582 650" fill="none" xmlns="http://www.w3.org/2000/svg">
<path d="M412.038 162.422C412.038 162.422 367.019 118.222 302.11 130.039C237.201 141.856 205.715 193.947 166 228.098C145.2 245.973 116.444 250.64 92.4721 263.679C15.8111 305.357 16.5001 414.947 68.5001 461.032C113.454 500.929 173.332 510.172 254.114 491.192C334.896 472.212 392.434 461.656 447.918 391.183C503.402 320.71 467.028 221.871 412.038 162.422Z" fill="#D32222"/>
<path opacity="0.7" d="M412.038 162.422C412.038 162.422 367.019 118.222 302.11 130.039C237.201 141.856 205.715 193.947 166 228.098C145.2 245.973 116.444 250.64 92.4721 263.679C15.8111 305.357 16.5001 414.947 68.5001 461.032C113.454 500.929 173.332 510.172 254.114 491.192C334.896 472.212 392.434 461.656 447.918 391.183C503.402 320.71 467.028 221.871 412.038 162.422Z" fill="white"/>
<mask id="mask0_401_10" style="mask-type:luminance" maskUnits="userSpaceOnUse" x="37" y="324" width="75" height="144">
<path d="M111.127 324.168H37.4824V467.792H111.127V324.168Z" fill="white"/>
</mask>
<g mask="url(#mask0_401_10)">
<path d="M56.8007 472.043H98.9077C99.7145 472.043 100.488 471.722 101.059 471.152C101.629 470.582 101.95 469.808 101.95 469.001C101.95 468.194 101.629 467.42 101.059 466.85C100.488 466.279 99.7145 465.959 98.9077 465.959H56.8007C55.6935 465.958 54.6014 465.702 53.6092 465.211C52.6171 464.719 51.7516 464.005 51.0801 463.125C50.4085 462.245 49.949 461.222 49.7372 460.135C49.5253 459.048 49.5669 457.927 49.8587 456.859L64.7957 403.325C64.9024 402.939 64.9321 402.536 64.883 402.139C64.8339 401.742 64.7071 401.358 64.5097 401.01C64.3124 400.661 64.0483 400.355 63.7327 400.109C63.4171 399.863 63.056 399.681 62.6702 399.574C62.2844 399.468 61.8813 399.438 61.4841 399.487C61.0868 399.536 60.703 399.663 60.3548 399.86C60.0065 400.058 59.7005 400.322 59.4543 400.638C59.2081 400.953 59.0264 401.314 58.9197 401.7L43.9827 455.182C43.4209 457.16 43.3262 459.241 43.706 461.261C44.0858 463.282 44.9298 465.186 46.1713 466.825C47.4129 468.463 49.0181 469.791 50.8605 470.704C52.7028 471.616 54.7319 472.088 56.7877 472.082L56.8007 472.043Z" fill="white" stroke="#263238" stroke-linecap="round" stroke-linejoin="round"/>
<path d="M76.7563 456.158L86.2949 455.014L71.509 331.748L61.9704 332.892L76.7563 456.158Z" fill="white" stroke="#263238" stroke-linecap="round" stroke-linejoin="round"/>
<path d="M62.0009 332.891C62.0009 332.891 45.1009 393.315 76.7819 456.157L62.0009 332.891Z" fill="#263238" stroke="#263238" stroke-linecap="round" stroke-linejoin="round"/>
</g>
<path d="M464.376 382.954C464.441 382.954 465.676 378.469 465.676 378.183C466.144 374.79 465.065 367.952 461.607 366.275C461.026 366.014 460.395 365.878 459.758 365.877C459.12 365.876 458.49 366.009 457.907 366.268C457.325 366.527 456.803 366.905 456.377 367.379C455.95 367.853 455.628 368.411 455.432 369.018C454.496 371.618 455.679 374.686 457.07 376.818C458.669 379.353 464.376 382.954 464.376 382.954Z" fill="#D32222"/>
<path d="M396.229 381.472C398.985 382.668 405.719 382.525 405.719 382.525C405.719 382.525 404.276 378.105 404.146 377.845C402.664 374.751 397.997 369.642 394.188 370.162C393.558 370.263 392.956 370.496 392.423 370.846C391.889 371.196 391.435 371.655 391.091 372.193C390.747 372.73 390.521 373.335 390.428 373.966C390.334 374.598 390.375 375.242 390.548 375.856C391.172 378.482 393.876 380.445 396.229 381.472Z" fill="#D32222"/>
<path d="M393.825 463.125C393.7 463.565 393.669 464.026 393.735 464.479C393.801 464.931 393.962 465.364 394.208 465.75C394.454 466.136 394.778 466.465 395.16 466.716C395.542 466.967 395.973 467.135 396.425 467.207C397.408 467.289 398.398 467.156 399.326 466.817C400.253 466.478 401.095 465.941 401.794 465.244C403.193 463.622 404.333 461.793 405.174 459.823C406.084 460.135 407.007 460.447 407.878 460.798C408.463 461.045 409.048 461.24 409.633 461.526L411.349 462.319C412.415 462.878 413.533 463.437 414.56 463.996C415.288 464.373 415.964 464.75 416.653 465.14C415.743 464.867 413.936 464.399 413.78 464.373C411.362 464.022 406.461 464.763 405.252 467.22C405.14 467.456 405.057 467.705 405.005 467.961H415.275C416.211 466.791 416.965 465.634 417.121 465.361C418.265 465.998 419.357 466.661 420.384 467.233L421.554 467.935H424.843C423.725 467.272 422.516 466.57 421.19 465.829C419.864 465.088 418.798 464.529 417.524 463.84C417.958 462.525 418.323 461.189 418.616 459.836C420.768 459.504 422.864 458.873 424.843 457.964C425.441 459.121 426.013 460.252 426.533 461.318C427.755 463.814 428.769 466.063 429.588 467.935H431.551C430.628 465.92 429.445 463.424 427.989 460.59C427.391 459.42 426.689 458.185 426.026 456.911C426.247 456.729 427.326 455.858 428.47 454.831L429.419 454.714C429.77 456.495 430.108 458.237 430.394 459.914C430.914 462.878 431.33 465.582 431.694 467.974H434.177C433.774 465.478 433.28 462.631 432.656 459.498C432.292 457.691 431.876 455.754 431.434 453.778C433.213 453.055 434.949 452.23 436.634 451.308C438.597 453.44 443.628 455.923 444.278 456.248C443.602 457.925 442.913 459.563 442.25 461.097C441.145 463.632 440.092 465.933 439.117 467.974H441.795C442.601 466.154 443.459 464.152 444.395 461.981C445.097 460.265 445.812 458.432 446.527 456.534C447.255 456.69 453.157 457.834 455.913 457.262C458.409 456.703 461.438 455.286 462.556 452.816C462.839 452.244 462.999 451.619 463.025 450.982C463.051 450.344 462.942 449.708 462.705 449.116C462.468 448.523 462.109 447.987 461.651 447.543C461.193 447.098 460.646 446.756 460.047 446.537C456.407 445.315 450.856 449.449 448.815 452.205C448.698 452.374 447.593 454.285 446.917 455.494C447.203 454.727 447.502 453.973 447.788 453.167C448.36 451.594 448.893 449.995 449.478 448.279C449.725 447.434 449.985 446.589 450.232 445.679C450.479 444.769 450.687 443.911 450.921 443.079C451.415 440.999 451.818 438.867 452.221 436.709C453.612 437.216 458.565 438.945 461.126 438.763C463.687 438.581 466.885 437.645 468.367 435.37C468.733 434.849 468.984 434.256 469.106 433.631C469.228 433.006 469.217 432.362 469.073 431.742C468.93 431.121 468.657 430.538 468.274 430.03C467.89 429.522 467.403 429.1 466.846 428.792C463.427 427.024 457.317 430.274 454.886 432.692C454.73 432.835 453.183 434.772 452.351 435.851C452.559 434.551 452.767 433.251 452.936 431.951C453.404 428.142 453.768 424.281 454.132 420.42C454.249 419.237 454.379 418.067 454.509 416.884C455.003 417.066 460.84 419.25 463.713 419.042C466.313 418.86 469.472 417.924 470.954 415.662C471.319 415.139 471.571 414.545 471.691 413.918C471.812 413.291 471.8 412.646 471.655 412.025C471.511 411.403 471.237 410.819 470.852 410.31C470.467 409.801 469.979 409.379 469.42 409.071C466.014 407.316 459.891 410.553 457.46 412.971C457.278 413.153 455.055 415.935 454.522 416.676C454.795 414.076 455.094 411.476 455.497 408.967C456.007 405.542 456.745 402.154 457.707 398.827C457.941 398.918 464.025 401.206 466.963 400.998C469.563 400.829 472.722 399.88 474.204 397.618C474.57 397.096 474.822 396.502 474.944 395.876C475.066 395.25 475.054 394.605 474.911 393.984C474.768 393.362 474.495 392.778 474.111 392.269C473.727 391.759 473.241 391.336 472.683 391.027C469.264 389.272 463.154 392.509 460.723 394.927C460.554 395.096 458.864 397.202 458.123 398.229L457.928 398.138C458.978 394.814 460.322 391.59 461.945 388.505C462.829 386.802 463.752 385.216 464.688 383.695C465.78 384.241 470.798 386.672 473.463 386.776C476.128 386.88 479.313 386.295 481.029 384.176C481.45 383.698 481.766 383.136 481.955 382.528C482.145 381.919 482.204 381.278 482.129 380.645C482.054 380.012 481.847 379.402 481.521 378.855C481.195 378.307 480.757 377.835 480.236 377.468C477.038 375.336 470.603 377.897 467.925 380.068C467.769 380.185 466.417 381.524 465.455 382.525C465.884 381.836 466.326 381.134 466.755 380.484C468.354 378.066 469.979 375.96 471.422 374.088C472.254 373.035 473.034 372.112 473.762 371.241C475.062 371.241 480.548 371.046 482.927 369.941C485.306 368.836 487.893 366.821 488.452 364.169C488.605 363.55 488.627 362.905 488.515 362.276C488.403 361.648 488.16 361.05 487.802 360.521C487.444 359.993 486.979 359.546 486.437 359.209C485.895 358.872 485.288 358.653 484.656 358.566C480.834 358.163 476.297 363.389 474.906 366.522C474.789 366.795 473.385 371.241 473.45 371.241H473.541C472.813 372.06 472.046 372.944 471.227 373.932C469.745 375.765 468.068 377.832 466.404 380.25C464.586 382.809 462.915 385.47 461.399 388.219C459.692 391.298 458.261 394.521 457.122 397.852V397.969C457.122 396.851 457.122 393.705 457.122 393.458C456.68 390.065 453.833 383.747 450.05 383.058C449.423 382.965 448.784 383.004 448.173 383.172C447.563 383.341 446.994 383.636 446.504 384.037C446.015 384.439 445.614 384.939 445.329 385.504C445.044 386.07 444.881 386.689 444.85 387.322C444.629 390.026 446.592 392.73 448.503 394.433C450.648 396.357 456.628 398.216 457.109 398.333C456.038 401.74 455.195 405.214 454.587 408.733C454.21 410.787 453.911 412.867 453.625 414.96C453.625 413.985 453.625 413.114 453.625 412.997C453.183 409.591 450.323 403.286 446.553 402.597C445.925 402.504 445.285 402.543 444.673 402.712C444.062 402.882 443.493 403.178 443.003 403.581C442.513 403.984 442.113 404.485 441.828 405.052C441.544 405.62 441.382 406.24 441.353 406.874C441.132 409.565 443.095 412.269 444.993 413.985C446.891 415.701 452 417.404 453.352 417.885L453.04 420.29C452.585 424.19 452.143 427.986 451.597 431.743C451.402 433.043 451.155 434.343 450.921 435.643C450.921 434.785 450.921 434.057 450.921 433.94C450.479 430.547 447.632 424.229 443.849 423.54C443.222 423.447 442.583 423.486 441.972 423.654C441.362 423.823 440.793 424.117 440.303 424.519C439.814 424.921 439.413 425.421 439.128 425.986C438.843 426.552 438.68 427.171 438.649 427.804C438.428 430.508 440.391 433.212 442.302 434.915C444.213 436.618 448.802 438.165 450.401 438.685C450.128 439.985 449.842 441.285 449.517 442.585C449.27 443.443 449.088 444.288 448.802 445.185L447.983 447.707C447.411 449.293 446.826 450.931 446.228 452.465C445.812 453.531 445.396 454.545 444.928 455.559C445.136 454.259 445.487 451.659 445.487 451.438C445.445 448.423 444.631 445.468 443.121 442.858C443.138 442.523 443.117 442.187 443.056 441.857C442.983 441.22 442.776 440.606 442.449 440.055C442.121 439.504 441.681 439.029 441.156 438.66C440.632 438.292 440.035 438.038 439.406 437.917C438.776 437.796 438.129 437.81 437.505 437.957C434.593 438.737 432.526 442.91 431.681 446.329C431.456 445.898 431.141 445.521 430.757 445.223C430.374 444.925 429.93 444.712 429.458 444.6L428.873 442.702C428.639 441.844 428.275 440.973 427.989 440.102C427.248 438.1 426.403 436.098 425.519 434.109C426.949 433.771 432.019 432.471 434.073 430.898C436.127 429.325 438.259 426.79 438.246 424.086C438.262 423.448 438.145 422.813 437.9 422.224C437.655 421.634 437.289 421.103 436.826 420.664C436.363 420.225 435.812 419.888 435.21 419.676C434.608 419.464 433.968 419.381 433.332 419.432C429.523 419.848 426.208 425.932 425.532 429.286C425.532 429.494 425.272 431.964 425.168 433.316C424.622 432.12 424.089 430.924 423.491 429.741C421.788 426.296 419.955 422.877 418.148 419.458C417.589 418.405 417.043 417.352 416.497 416.299C417.017 416.182 423.088 414.778 425.376 413.023C427.404 411.463 429.549 408.915 429.536 406.211C429.554 405.574 429.438 404.939 429.195 404.35C428.952 403.76 428.587 403.228 428.125 402.789C427.662 402.35 427.113 402.013 426.511 401.801C425.91 401.589 425.27 401.506 424.635 401.557C420.813 401.973 417.498 408.057 416.835 411.411C416.835 411.658 416.458 415.207 416.419 416.117C415.223 413.803 414.04 411.476 412.974 409.149C411.521 406.008 410.271 402.777 409.23 399.477C409.477 399.477 415.821 397.982 418.161 396.175C420.189 394.628 422.347 392.067 422.321 389.363C422.339 388.726 422.223 388.091 421.98 387.502C421.737 386.912 421.372 386.38 420.91 385.941C420.447 385.502 419.897 385.165 419.296 384.953C418.695 384.741 418.055 384.658 417.42 384.709C413.598 385.125 410.283 391.209 409.62 394.563C409.62 394.784 409.334 397.488 409.243 398.775H409.022C408.07 395.42 407.417 391.988 407.072 388.518C406.864 386.62 406.76 384.774 406.708 382.993C407.917 382.85 413.429 382.109 415.717 380.731C418.005 379.353 420.332 377.104 420.605 374.413C420.695 373.779 420.65 373.133 420.473 372.517C420.297 371.901 419.993 371.329 419.581 370.839C419.169 370.348 418.658 369.95 418.082 369.67C417.506 369.39 416.877 369.234 416.237 369.213C412.402 369.213 408.437 374.894 407.384 378.157C407.384 378.326 406.942 380.198 406.682 381.563C406.682 380.757 406.682 379.925 406.682 379.145C406.682 376.246 406.877 373.594 407.059 371.241C407.176 369.941 407.306 368.641 407.436 367.562C408.541 366.795 412.987 363.662 414.352 361.426C415.717 359.19 416.77 356.083 415.782 353.561C415.572 352.957 415.237 352.404 414.798 351.939C414.36 351.473 413.828 351.106 413.238 350.86C412.647 350.615 412.012 350.497 411.372 350.514C410.733 350.531 410.105 350.684 409.529 350.961C406.11 352.716 405.213 359.58 405.785 362.96C405.785 363.259 407.085 367.744 407.176 367.705H407.241C407.098 368.784 406.942 369.954 406.812 371.228C406.578 373.581 406.331 376.233 406.266 379.158C406.156 382.297 406.23 385.44 406.487 388.57C406.76 392.081 407.343 395.561 408.229 398.97V399.087C407.631 398.138 405.85 395.538 405.629 395.356C403.497 392.899 398.115 389.454 394.54 390.39C393.958 390.036 393.276 389.881 392.598 389.949C391.92 390.017 391.283 390.304 390.783 390.767C388.781 392.652 389.483 397.54 390.575 399.75C390.666 399.945 392.434 402.766 392.473 402.727C392.577 403.49 392.707 404.322 392.863 405.223C393.162 406.887 393.526 408.772 394.059 410.787C394.601 412.96 395.269 415.1 396.061 417.196C396.943 419.553 398.031 421.828 399.311 423.995V424.06C398.7 423.527 396.971 422.097 396.828 422.006C394.774 420.706 390.029 419.289 387.897 421.018C387.552 421.314 387.273 421.68 387.079 422.091C386.884 422.502 386.778 422.949 386.767 423.404C386.756 423.858 386.84 424.31 387.015 424.73C387.189 425.15 387.45 425.528 387.78 425.841C388.557 426.449 389.457 426.881 390.418 427.105C391.379 427.33 392.378 427.342 393.344 427.141C395.385 426.855 399.168 424.541 399.467 424.281C400.83 426.447 402.333 428.523 403.965 430.495C404.914 431.652 405.902 432.783 406.903 433.901L405.811 433.017C403.757 431.717 399.012 430.3 396.88 432.029C396.534 432.325 396.255 432.691 396.06 433.103C395.865 433.514 395.759 433.962 395.75 434.417C395.74 434.872 395.826 435.325 396.003 435.744C396.18 436.164 396.443 436.541 396.776 436.852C397.55 437.46 398.449 437.891 399.407 438.116C400.366 438.34 401.363 438.353 402.327 438.152C404.444 437.542 406.456 436.612 408.294 435.396L409.464 436.696C411.336 438.724 413.221 440.752 415.015 442.793C415.379 443.209 415.717 443.638 416.068 444.093L415.847 444.223C413.78 442.923 409.074 441.545 406.955 443.261C406.609 443.558 406.329 443.925 406.134 444.338C405.94 444.751 405.834 445.2 405.824 445.656C405.814 446.112 405.9 446.565 406.077 446.986C406.254 447.406 406.518 447.785 406.851 448.097C407.627 448.703 408.525 449.132 409.483 449.357C410.442 449.581 411.438 449.595 412.402 449.397C412.869 449.321 413.327 449.194 413.767 449.02C413.818 449.293 413.887 449.562 413.975 449.826C414.231 450.51 414.62 451.138 415.119 451.672C414.465 451.581 413.8 451.698 413.217 452.006C412.634 452.314 412.162 452.797 411.869 453.388C410.686 455.858 413.169 460.161 414.911 461.851L417.082 463.489L415.509 462.67C414.43 462.111 413.351 461.604 412.181 461.032L410.452 460.278C409.867 460.005 409.23 459.797 408.619 459.563C407.189 459.03 405.72 458.562 404.212 458.12C405.269 456.202 406.023 454.132 406.448 451.984C406.539 450.151 406.162 447.798 404.68 446.55C404.34 446.246 403.941 446.017 403.507 445.877C403.073 445.737 402.615 445.689 402.162 445.737C401.709 445.785 401.271 445.927 400.876 446.154C400.481 446.382 400.139 446.689 399.87 447.057C398.323 449.332 400.091 453.947 401.599 455.884C401.69 456.001 402.899 457.275 403.614 457.951C402.717 457.691 401.82 457.431 400.897 457.197C398.297 456.534 395.528 455.897 392.824 455.338L390.354 454.766C390.523 454.441 392.577 450.489 392.681 448.422C392.8 447.444 392.703 446.452 392.398 445.516C392.092 444.579 391.585 443.721 390.913 443.001C390.573 442.697 390.174 442.468 389.74 442.328C389.307 442.188 388.848 442.14 388.395 442.188C387.942 442.236 387.504 442.378 387.109 442.605C386.714 442.833 386.372 443.14 386.103 443.508C384.556 445.77 386.324 450.398 387.832 452.335C387.949 452.478 389.717 454.298 390.198 454.74C388.378 454.311 386.584 453.882 384.816 453.375C382.432 452.713 380.096 451.892 377.822 450.918C377.9 450.762 380.058 446.654 380.175 444.548C380.266 442.715 379.889 440.362 378.407 439.114C378.067 438.81 377.668 438.581 377.234 438.441C376.801 438.301 376.342 438.253 375.889 438.301C375.436 438.349 374.998 438.491 374.603 438.718C374.208 438.946 373.866 439.253 373.597 439.621C372.05 441.896 373.818 446.511 375.326 448.448C375.417 448.578 376.769 449.969 377.432 450.606L377.341 450.736C375.071 449.696 372.896 448.461 370.841 447.044C369.71 446.277 368.67 445.471 367.669 444.678C368.948 442.854 369.943 440.847 370.62 438.724C370.844 437.763 370.856 436.765 370.654 435.799C370.452 434.834 370.041 433.924 369.45 433.134C369.146 432.795 368.774 432.524 368.359 432.338C367.943 432.152 367.493 432.056 367.038 432.056C366.583 432.056 366.133 432.152 365.718 432.338C365.302 432.524 364.93 432.795 364.627 433.134C362.846 435.214 364.094 439.998 365.368 442.091C365.446 442.195 366.278 443.274 366.902 444.054L365.602 442.949C364.029 441.649 362.677 440.271 361.481 439.049C360.805 438.373 360.181 437.749 359.661 437.138C359.957 434.943 359.913 432.716 359.531 430.534C358.959 428.792 357.75 426.738 355.93 426.114C355.503 425.953 355.048 425.884 354.593 425.91C354.138 425.936 353.693 426.057 353.288 426.265C352.883 426.473 352.525 426.764 352.239 427.118C351.953 427.473 351.745 427.884 351.627 428.324C351.003 430.989 354.318 434.668 356.411 435.929C356.593 436.033 359.635 437.411 359.635 437.359C360.142 437.944 360.714 438.555 361.338 439.231C362.508 440.44 363.847 441.831 365.394 443.131C367.045 444.645 368.781 446.065 370.594 447.382C372.639 448.874 374.815 450.179 377.094 451.282H377.172C376.379 451.178 374.143 450.931 373.974 450.944C371.517 450.944 366.798 452.426 365.979 455.039C365.854 455.48 365.823 455.942 365.889 456.395C365.955 456.848 366.116 457.282 366.361 457.669C366.607 458.056 366.931 458.386 367.313 458.638C367.696 458.891 368.127 459.06 368.579 459.134C369.563 459.214 370.554 459.078 371.481 458.737C372.408 458.396 373.25 457.857 373.948 457.158C375.495 455.858 377.341 451.724 377.484 451.399C379.812 452.461 382.21 453.364 384.66 454.103C386.09 454.545 387.533 454.935 388.989 455.325L387.598 455.182C385.141 455.182 380.422 456.677 379.603 459.29C379.478 459.73 379.447 460.191 379.513 460.644C379.579 461.096 379.74 461.529 379.986 461.915C380.232 462.301 380.556 462.63 380.938 462.881C381.32 463.132 381.751 463.299 382.203 463.372C383.186 463.454 384.176 463.321 385.104 462.982C386.031 462.643 386.873 462.106 387.572 461.409C389.001 459.731 390.167 457.847 391.03 455.819L392.707 456.248C395.398 456.911 398.089 457.548 400.702 458.276C401.625 458.536 402.522 458.809 403.432 459.095L402.223 458.978C399.363 459.03 394.644 460.499 393.825 463.125ZM422.581 455.325L422.36 455.143H423.296L423.452 455.416C423.842 456.131 424.193 456.82 424.557 457.522C423.946 456.794 422.698 455.403 422.581 455.299V455.325ZM424.973 455.143H425.194C425.324 455.533 425.48 455.949 425.597 456.287L424.973 455.143ZM424.7 437.463C425.129 438.555 425.558 439.634 425.922 440.713C426.195 441.571 426.52 442.364 426.741 443.248C426.884 443.781 427.04 444.301 427.183 444.821L426.897 444.951C426.031 445.56 425.406 446.452 425.129 447.473C423.498 445.815 421.491 444.576 419.279 443.859C420.728 443.041 422.043 442.007 423.179 440.791C423.91 439.799 424.428 438.665 424.7 437.463ZM394.059 410.709C393.487 408.707 393.084 406.809 392.759 405.197C392.577 404.261 392.434 403.403 392.304 402.597C392.655 402.168 393.604 400.946 394.475 399.659C395.778 400.323 397.185 400.763 398.635 400.959C401.482 401.375 407.501 399.659 407.982 399.49C408.971 402.929 410.187 406.299 411.622 409.578C412.454 411.502 413.351 413.4 414.222 415.298C413.676 414.492 413.182 413.777 413.104 413.686C410.855 411.086 405.005 407.407 401.469 408.902L401.365 408.967C402.342 407.752 402.808 406.204 402.665 404.651C402.601 404.2 402.442 403.767 402.199 403.382C401.956 402.996 401.635 402.666 401.255 402.413C400.876 402.16 400.448 401.99 399.999 401.915C399.549 401.839 399.089 401.859 398.648 401.973C396.048 402.714 394.41 407.394 394.332 409.851C394.332 409.981 394.436 411.333 394.514 412.321C394.332 411.801 394.137 411.242 393.994 410.709H394.059ZM399.129 420.667C399.129 420.823 399.506 422.734 399.701 423.631L399.558 423.696C398.209 421.585 397.052 419.357 396.1 417.04C395.58 415.74 395.151 414.531 394.8 413.309C396.354 412.657 397.853 411.884 399.285 410.995C398.959 411.686 398.802 412.445 398.826 413.209C398.851 413.973 399.057 414.72 399.428 415.389C399.538 415.574 399.66 415.752 399.792 415.922C399.257 417.445 399.01 419.054 399.064 420.667H399.129ZM404.329 430.014C402.707 428.146 401.209 426.175 399.844 424.112C400 424.021 404.082 421.785 405.33 420.095C405.525 419.822 405.72 419.523 405.902 419.211L406.448 419.302C409.048 419.679 414.17 418.301 415.548 417.911C415.899 418.639 416.263 419.367 416.614 420.082C418.356 423.553 420.111 427.011 421.723 430.482C422.152 431.392 422.542 432.302 422.932 433.212L422.62 433.082L422.36 432.731C420.312 430.536 417.74 428.899 414.885 427.973C415.317 426.959 415.408 425.832 415.145 424.762C415.038 424.309 414.834 423.883 414.548 423.516C414.262 423.148 413.9 422.847 413.486 422.632C413.073 422.417 412.618 422.294 412.152 422.271C411.687 422.249 411.222 422.327 410.79 422.5C408.19 423.54 407.176 428.363 407.358 430.807C407.358 430.989 407.852 433.485 408.008 434.122C406.721 432.77 405.46 431.405 404.264 430.014H404.329ZM415.626 442.078C413.78 440.05 411.843 438.061 409.932 436.072C409.334 435.461 408.762 434.85 408.177 434.226L408.554 434.018C408.554 434.135 408.645 434.252 408.697 434.356C409.997 436.735 413.13 437.905 415.665 438.256C416.179 438.303 416.697 438.303 417.212 438.256C416.992 439.254 416.9 440.277 416.939 441.298C416.939 441.428 417.186 442.598 417.381 443.586H417.056C416.523 443.157 416.055 442.611 415.6 442.078H415.626Z" fill="#D32222"/>
<path d="M430.914 451.802C430.914 451.724 431.005 451.633 431.044 451.542C431.044 451.945 431.044 452.348 431.122 452.686C431.057 452.4 430.979 452.101 430.914 451.802Z" fill="#D32222"/>
<path d="M387.597 414.219C389.729 414.505 394.318 413.062 394.318 413.062C394.318 413.062 392.459 410.319 392.316 410.163C390.691 408.33 386.479 405.743 383.97 406.848C383.558 407.042 383.192 407.321 382.894 407.666C382.597 408.012 382.375 408.416 382.244 408.852C382.113 409.289 382.075 409.748 382.133 410.2C382.19 410.652 382.343 411.087 382.579 411.476C383.167 412.27 383.92 412.926 384.787 413.4C385.653 413.873 386.612 414.153 387.597 414.219Z" fill="#D32222"/>
<path d="M363.6 443.417C361.234 442.793 356.294 442.962 354.812 445.263C354.575 445.652 354.423 446.087 354.365 446.539C354.307 446.991 354.345 447.45 354.476 447.887C354.608 448.323 354.829 448.727 355.127 449.073C355.424 449.418 355.791 449.697 356.203 449.891C357.932 450.775 360.246 450.203 361.897 449.41C363.834 448.474 366.876 444.743 366.876 444.743C366.876 444.743 363.808 443.482 363.6 443.417Z" fill="#D32222"/>
<path d="M32.1133 468.208H466.599" stroke="#263238" stroke-linecap="round" stroke-linejoin="round"/>
<path d="M209.589 475.592L159.162 506.142L256.142 511.485L286.692 476.567L209.589 475.592Z" fill="white" stroke="#263238" stroke-linecap="round" stroke-linejoin="round"/>
<path d="M262.2 482.17C262.2 482.17 242.44 486.33 252.151 489.112C261.862 491.894 275.031 485.29 269.48 485.29C263.929 485.29 257.351 484.601 254.92 486.33" stroke="#263238" stroke-linecap="round" stroke-linejoin="round"/>
<path d="M249.669 491.192C249.669 491.192 244.469 497.081 230.598 500.89" stroke="#263238" stroke-linecap="round" stroke-linejoin="round"/>
<path d="M234.758 497.432L228.18 501.592H239.958" stroke="#263238" stroke-linecap="round" stroke-linejoin="round"/>
<path d="M216.7 496.392C216.7 496.392 192.767 497.432 202.478 503.321C212.189 509.21 224.318 503.672 222.94 500.89C221.562 498.108 204.22 495.69 206.3 500.552C208.38 505.414 215.998 502.281 215.998 502.281" stroke="#263238" stroke-linecap="round" stroke-linejoin="round"/>
<path d="M199.397 492.57L205.286 490.152L192.117 500.201" stroke="#263238" stroke-linecap="round" stroke-linejoin="round"/>
<path d="M205.299 490.152L204.259 493.61" stroke="#263238" stroke-linecap="round" stroke-linejoin="round"/>
<path d="M218.117 484.952L235.108 485.641" stroke="#263238" stroke-linecap="round" stroke-linejoin="round"/>
<path d="M219.157 481.481L237.877 482.521" stroke="#263238" stroke-linecap="round" stroke-linejoin="round"/>
<path d="M386.272 489.203L375.3 501.553L388.339 511.147L405.473 502.242L402.054 490.581L386.272 489.203Z" stroke="#263238" stroke-linecap="round" stroke-linejoin="round"/>
<path d="M386.272 489.203L396.568 502.242L388.339 511.147" stroke="#263238" stroke-linecap="round" stroke-linejoin="round"/>
<path d="M396.568 502.242L401.365 497.432L397.933 491.946L391.082 494.013" stroke="#263238" stroke-linecap="round" stroke-linejoin="round"/>
<path d="M375.3 501.553L375.677 483.821H390.575L400.65 490.841L386.194 503.1L375.3 501.553Z" fill="white" stroke="#263238" stroke-linecap="round" stroke-linejoin="round"/>
<path d="M426.274 511.16L416.394 522.275L428.133 530.92L443.564 522.886L440.483 512.395L426.274 511.16Z" stroke="#263238" stroke-linecap="round" stroke-linejoin="round"/>
<path d="M426.273 511.16L435.542 522.886L428.132 530.92" stroke="#263238" stroke-linecap="round" stroke-linejoin="round"/>
<path d="M435.543 522.886L439.859 518.57L436.778 513.63L430.603 515.476" stroke="#263238" stroke-linecap="round" stroke-linejoin="round"/>
<path d="M416.394 522.275L416.732 506.311H430.148L439.222 512.629L426.196 523.666L416.394 522.275Z" fill="white" stroke="#263238" stroke-linecap="round" stroke-linejoin="round"/>
<path d="M448.906 489.216L447.983 472.732L431.967 475.098L426.091 493.519L436.751 499.369L448.906 489.216Z" stroke="#263238" stroke-linecap="round" stroke-linejoin="round"/>
<path d="M448.906 489.216L432.422 487.227L431.967 475.098" stroke="#263238" stroke-linecap="round" stroke-linejoin="round"/>
<path d="M432.422 487.227L432.396 494.013L438.701 495.495L442.107 489.203" stroke="#263238" stroke-linecap="round" stroke-linejoin="round"/>
<path d="M447.984 472.732L460.217 485.563L449.648 496.067L437.558 498.199L439.157 479.297L447.984 472.732Z" fill="white" stroke="#263238" stroke-linecap="round" stroke-linejoin="round"/>
<path d="M204.104 365.69H321.845C327.82 365.69 333.55 368.064 337.775 372.289C342 376.514 344.374 382.244 344.374 388.219V468.195H181.601V388.219C181.601 382.248 183.971 376.522 188.19 372.298C192.409 368.074 198.133 365.697 204.104 365.69Z" fill="#263238"/>
<path d="M404.654 424.918C404.654 424.918 371.92 409.643 339.55 397.618C307.18 385.593 274.81 375.791 236.993 378.339C236.993 378.339 213.346 384.527 180.612 401.258C147.878 417.989 129.34 432.9 118.784 444.6C108.228 456.3 107.084 468.234 107.084 468.234H145.2L181.704 454.428L186.02 468.234H338.458L334.818 447.148L364.64 459.147L404.654 424.918Z" fill="#D32222"/>
<mask id="mask1_401_10" style="mask-type:luminance" maskUnits="userSpaceOnUse" x="107" y="377" width="298" height="92">
<path d="M404.654 424.918C404.654 424.918 371.92 409.643 339.55 397.618C307.18 385.593 274.81 375.791 236.993 378.339C236.993 378.339 213.346 384.527 180.612 401.258C147.878 417.989 129.34 432.9 118.784 444.6C108.228 456.3 107.084 468.234 107.084 468.234H145.2L181.704 454.428L186.02 468.234H338.458L334.818 447.148L364.64 459.147L404.654 424.918Z" fill="white"/>
</mask>
<g mask="url(#mask1_401_10)">
<path opacity="0.2" d="M379.642 446.29L375.105 427.7C375.105 427.7 339.108 416.975 324.535 411.411C309.962 405.847 298.821 397.267 298.821 401.986C298.821 406.705 304.398 417.833 300.121 414.843C295.844 411.853 288.551 391.261 286.406 395.122C284.261 398.983 238.839 391.69 225.124 395.551C211.409 399.412 197.278 407.121 184.421 416.117C171.564 425.113 158.278 418.717 159.136 422.552C159.994 426.387 165.987 433.264 165.987 433.264C165.987 433.264 150.14 425.984 150.14 432.406C150.14 438.828 138.141 449.553 138.141 449.553L143.978 468.208H145.2L181.704 454.402L186.02 468.208H338.458L334.818 447.122L364.64 459.121L379.642 446.29Z" fill="black"/>
</g>
<path d="M404.654 424.918C404.654 424.918 371.92 409.643 339.55 397.618C307.18 385.593 274.81 375.791 236.993 378.339C236.993 378.339 213.346 384.527 180.612 401.258C147.878 417.989 129.34 432.9 118.784 444.6C108.228 456.3 107.084 468.234 107.084 468.234H145.2L181.704 454.428L186.02 468.234H338.458L334.818 447.148L364.64 459.147L404.654 424.918Z" stroke="#263238" stroke-linecap="round" stroke-linejoin="round"/>
<path d="M221.354 395.096C221.354 395.096 213.983 402.623 214.633 416.182" stroke="#263238" stroke-linecap="round" stroke-linejoin="round"/>
<path d="M220.444 411.658C220.444 411.658 220.444 427.154 225.644 439.413" stroke="#263238" stroke-linecap="round" stroke-linejoin="round"/>
<path d="M278.541 400.686C278.541 400.686 287.576 417.469 288.226 432.965" stroke="#263238" stroke-linecap="round" stroke-linejoin="round"/>
<path d="M282.415 421.993C285.453 430.863 284.988 440.559 281.115 449.098" stroke="#263238" stroke-linecap="round" stroke-linejoin="round"/>
<path d="M172.617 436.241L181.691 454.389L161.411 433.043" stroke="#263238" stroke-linecap="round" stroke-linejoin="round"/>
<path d="M333.674 447.161L309.689 443.924" stroke="#263238" stroke-linecap="round" stroke-linejoin="round"/>
<path d="M334.819 447.109L311.64 440.037" stroke="#263238" stroke-linecap="round" stroke-linejoin="round"/>
<path d="M221.354 395.096C221.354 395.096 223.954 416.559 227.165 428.194C230.376 439.829 233.665 442.741 233.665 442.741L243.48 434.382L246.08 442.013L257.78 446.745L266.881 436.917L264.696 429.286L280.297 436.917C280.297 436.917 278.84 414.011 274.108 397.28C269.376 380.549 254.088 374.4 240.62 379.457C232.661 382.423 225.893 387.916 221.354 395.096Z" fill="white"/>
<mask id="mask2_401_10" style="mask-type:luminance" maskUnits="userSpaceOnUse" x="221" y="377" width="60" height="70">
<path d="M221.354 395.096C221.354 395.096 223.954 416.559 227.165 428.194C230.376 439.829 233.665 442.741 233.665 442.741L243.48 434.382L246.08 442.013L257.78 446.745L266.881 436.917L264.696 429.286L280.297 436.917C280.297 436.917 278.84 414.011 274.108 397.28C269.376 380.549 254.088 374.4 240.62 379.457C232.661 382.423 225.893 387.916 221.354 395.096Z" fill="white"/>
</mask>
<g mask="url(#mask2_401_10)">
<path opacity="0.2" d="M221.354 395.096C221.354 395.096 223.954 416.559 227.165 428.194C230.376 439.829 233.665 442.741 233.665 442.741L243.48 434.382L246.08 442.013L257.78 446.745L266.881 436.917L264.696 429.286L280.297 436.917C280.297 436.917 278.84 414.011 274.108 397.28C269.376 380.549 254.088 374.4 240.62 379.457C232.661 382.423 225.893 387.916 221.354 395.096Z" fill="black"/>
</g>
<path d="M221.354 395.096C221.354 395.096 223.954 416.559 227.165 428.194C230.376 439.829 233.665 442.741 233.665 442.741L243.48 434.382L246.08 442.013L257.78 446.745L266.881 436.917L264.696 429.286L280.297 436.917C280.297 436.917 278.84 414.011 274.108 397.28C269.376 380.549 254.088 374.4 240.62 379.457C232.661 382.423 225.893 387.916 221.354 395.096Z" stroke="#263238" stroke-linecap="round" stroke-linejoin="round"/>
<mask id="mask3_401_10" style="mask-type:luminance" maskUnits="userSpaceOnUse" x="241" y="422" width="23" height="25">
<path d="M241.4 426.01C241.4 426.01 253.412 448.565 257.767 446.745C262.122 444.925 263.955 422.045 263.955 422.045C256.798 424.932 249.113 426.283 241.4 426.01Z" fill="white"/>
</mask>
<g mask="url(#mask3_401_10)">
<path d="M241.4 426.01C241.4 426.01 253.412 448.565 257.767 446.745C262.122 444.925 263.955 422.045 263.955 422.045C256.798 424.932 249.113 426.283 241.4 426.01Z" fill="#D32222"/>
<path opacity="0.5" d="M241.4 426.01C241.4 426.01 253.412 448.565 257.767 446.745C262.122 444.925 263.955 422.045 263.955 422.045C256.798 424.932 249.113 426.283 241.4 426.01Z" fill="white"/>
</g>
<path d="M241.4 426.01C241.4 426.01 253.412 448.565 257.767 446.745C262.122 444.925 263.955 422.045 263.955 422.045C256.798 424.932 249.113 426.283 241.4 426.01Z" stroke="#263238" stroke-linecap="round" stroke-linejoin="round"/>
<path d="M362.404 456.027C361 453.7 365.251 442.182 366.096 439.4C369.918 426.959 375.469 413.231 389.197 409.955C402.925 406.679 415.119 421.408 416.848 429.611C418.577 437.814 405.616 449.488 399.948 453.375C394.28 457.262 371.049 469.846 362.404 456.027Z" fill="white" stroke="#263238" stroke-linecap="round" stroke-linejoin="round"/>
<path opacity="0.2" d="M414.3 430.729C414.3 430.729 403.094 417.638 396.1 417.04C389.106 416.442 381.345 422.929 372.245 436.8C363.145 450.671 362.833 461.136 368.189 459.173C373.545 457.21 413.871 442.429 414.3 430.729Z" fill="black"/>
<path d="M152.753 457.34C152.753 457.34 143.731 438.698 137.517 432.276C131.303 425.854 124.517 431.275 110.854 442.299C97.1912 453.323 96.2162 464.555 97.6202 467.766C99.0242 470.977 100.831 471.38 102.027 471.172C103.223 470.964 111.049 455.338 121.28 453.726C131.511 452.114 149.555 463.957 152.558 461.955C155.561 459.953 152.753 457.34 152.753 457.34Z" fill="white" stroke="#263238" stroke-linecap="round" stroke-linejoin="round"/>
<path opacity="0.2" d="M101 463.671C101 463.671 100.129 459.329 104.9 451.529C109.671 443.729 121.8 436.8 127.871 436.8C133.942 436.8 143.9 448.071 145.2 453.271C146.5 458.471 122.931 466.479 117.029 467.129C111.127 467.779 101.871 469.729 101 463.671Z" fill="black"/>
<path d="M188.685 464.1C188.685 464.1 132.304 448.5 124.894 444.899C117.484 441.298 110.451 447.499 104.432 455.728C98.4131 463.957 98.3871 477.828 100.025 480.181C106.304 489.164 173.605 481.988 173.605 481.988L188.685 464.1Z" fill="white" stroke="#263238" stroke-linecap="round" stroke-linejoin="round"/>
<path d="M182.458 465.075C182.458 465.075 135.229 454.675 121.566 456.794C107.903 458.913 99.596 479.583 111.166 481.234C122.736 482.885 178.285 479.583 178.285 479.583L182.458 465.075Z" fill="#D32222"/>
<path opacity="0.5" d="M182.458 465.075C182.458 465.075 135.229 454.675 121.566 456.794C107.903 458.913 99.596 479.583 111.166 481.234C122.736 482.885 178.285 479.583 178.285 479.583L182.458 465.075Z" fill="white"/>
<path d="M215.764 383.721C215.764 383.721 220.795 403.026 224.227 409.643C227.659 416.26 242.427 431.587 246.977 433.706C251.527 435.825 258.872 433.173 261.524 428.675C264.176 424.177 273.679 409.11 273.9 403C274.121 396.89 274.693 385.021 274.693 385.021C274.693 385.021 277.592 387.14 279.451 385.281C281.31 383.422 282.623 370.981 280.244 365.443C277.865 359.905 275.486 360.958 274.693 363.337C274.202 364.798 273.58 366.212 272.834 367.562C272.834 367.562 269.922 357.253 262.785 356.46C255.648 355.667 214.399 372.32 214.399 372.32L215.764 383.721Z" fill="white" stroke="#263238" stroke-linecap="round" stroke-linejoin="round"/>
<path d="M220.405 381.394C220.405 381.394 223.408 398.97 225.969 403.247C228.53 407.524 239.255 426.829 244.832 429.819C250.409 432.809 255.115 435.019 258.976 428.103C262.837 421.187 268.83 410.54 270.975 402.831C273.12 395.122 271.404 382.681 271.404 382.681C271.404 382.681 268.401 364.689 267.972 359.112C267.543 353.535 216.973 347.971 220.405 381.394Z" fill="#D32222"/>
<path opacity="0.5" d="M220.405 381.394C220.405 381.394 223.408 398.97 225.969 403.247C228.53 407.524 239.255 426.829 244.832 429.819C250.409 432.809 255.115 435.019 258.976 428.103C262.837 421.187 268.83 410.54 270.975 402.831C273.12 395.122 271.404 382.681 271.404 382.681C271.404 382.681 268.401 364.689 267.972 359.112C267.543 353.535 216.973 347.971 220.405 381.394Z" fill="white"/>
<path d="M240.101 392.444C240.101 392.444 242.22 403.559 239.308 410.163C239.308 410.163 244.599 413.335 248.291 406.991" stroke="#263238" stroke-linecap="round" stroke-linejoin="round"/>
<path d="M249.617 392.444C247.199 387.777 251.723 376.961 264.957 387.686C264.957 387.686 251.203 382.2 249.617 392.444Z" fill="#263238"/>
<path d="M240.36 394.563C240.36 394.563 239.307 390.338 233.756 387.686C228.205 385.034 226.086 384.774 226.086 384.774C226.086 384.774 241.4 381.602 240.36 394.563Z" fill="#263238"/>
<path d="M250.942 416.247C250.942 416.247 257.819 415.454 262.317 407.264" stroke="#263238" stroke-linecap="round" stroke-linejoin="round"/>
<path d="M257.819 412.542C257.819 412.542 256.753 402.233 259.665 401.973C262.577 401.713 261.069 409.253 261.069 409.253L257.819 412.542Z" fill="#D32222" stroke="#263238" stroke-linecap="round" stroke-linejoin="round"/>
<path d="M256.701 394.797C256.701 396.266 256.051 397.462 255.258 397.462C254.465 397.462 253.828 396.266 253.828 394.797C253.828 393.328 254.465 392.132 255.258 392.132C256.051 392.132 256.701 393.328 256.701 394.797Z" fill="#263238"/>
<path d="M236.2 395.824C236.2 397.293 235.55 398.424 234.757 398.424C233.964 398.424 233.327 397.228 233.327 395.824C233.327 394.42 233.964 393.159 234.757 393.159C235.55 393.159 236.2 394.342 236.2 395.824Z" fill="#263238"/>
<path d="M253.217 397.462C255.059 397.504 256.863 396.927 258.339 395.824" stroke="#263238" stroke-width="0.75" stroke-linecap="round" stroke-linejoin="round"/>
<path d="M232.157 398.177C233.924 398.708 235.818 398.635 237.539 397.969" stroke="#263238" stroke-width="0.75" stroke-linecap="round" stroke-linejoin="round"/>
<path d="M191.675 454.623C191.675 454.623 202.595 452.023 206.222 454.259C209.849 456.495 207.678 470.99 205.871 473.174C204.064 475.358 200.411 475.358 200.411 471.354C200.48 468.537 200.846 465.735 201.503 462.995H195.679L191.675 454.623Z" fill="white"/>
<mask id="mask4_401_10" style="mask-type:luminance" maskUnits="userSpaceOnUse" x="191" y="453" width="18" height="22">
<path d="M191.675 454.623C191.675 454.623 202.595 452.023 206.222 454.259C209.849 456.495 207.678 470.99 205.871 473.174C204.064 475.358 200.411 475.358 200.411 471.354C200.48 468.537 200.846 465.735 201.503 462.995H195.679L191.675 454.623Z" fill="white"/>
</mask>
<g mask="url(#mask4_401_10)">
<path d="M206.404 470.847C206.599 467.194 207.366 462.41 204.87 458.77C202.374 455.13 195.666 457.041 195.666 457.041L197.057 462.995H201.503C200.846 465.735 200.48 468.537 200.411 471.354C200.404 471.792 200.452 472.228 200.554 472.654C202.868 473.603 206.3 473.772 206.404 470.847Z" fill="#D32222"/>
<path opacity="0.5" d="M206.404 470.847C206.599 467.194 207.366 462.41 204.87 458.77C202.374 455.13 195.666 457.041 195.666 457.041L197.057 462.995H201.503C200.846 465.735 200.48 468.537 200.411 471.354C200.404 471.792 200.452 472.228 200.554 472.654C202.868 473.603 206.3 473.772 206.404 470.847Z" fill="white"/>
</g>
<path d="M191.675 454.623C191.675 454.623 202.595 452.023 206.222 454.259C209.849 456.495 207.678 470.99 205.871 473.174C204.064 475.358 200.411 475.358 200.411 471.354C200.48 468.537 200.846 465.735 201.503 462.995H195.679L191.675 454.623Z" stroke="#263238" stroke-linecap="round" stroke-linejoin="round"/>
<path d="M209.433 482.82L210.343 487.513L206.768 484.107L180.651 429.845L183.329 428.571L209.433 482.82Z" fill="white" stroke="#263238" stroke-linecap="round" stroke-linejoin="round"/>
<path d="M206.768 484.107L210.343 487.513L209.433 482.82L209.277 482.482L206.742 484.042L206.768 484.107Z" fill="white" stroke="#263238" stroke-linecap="round" stroke-linejoin="round"/>
<path d="M183.329 428.571L180.651 429.845L183.004 434.72L185.617 433.329L183.329 428.571Z" fill="white" stroke="#263238" stroke-linecap="round" stroke-linejoin="round"/>
<path d="M185.501 458.991C184.033 462.148 182.329 465.19 180.405 468.091C178.221 471.003 172.046 475.735 171.305 480.831C170.564 485.927 181.12 491.374 185.852 492.102C190.584 492.83 198.579 486.642 200.399 485.914C202.219 485.186 204.403 484.094 201.855 478.647C199.307 473.2 185.501 458.991 185.501 458.991Z" fill="white"/>
<mask id="mask5_401_10" style="mask-type:luminance" maskUnits="userSpaceOnUse" x="171" y="458" width="33" height="35">
<path d="M185.501 458.991C184.033 462.148 182.329 465.19 180.405 468.091C178.221 471.003 172.046 475.735 171.305 480.831C170.564 485.927 181.12 491.374 185.852 492.102C190.584 492.83 198.579 486.642 200.399 485.914C202.219 485.186 204.403 484.094 201.855 478.647C199.307 473.2 185.501 458.991 185.501 458.991Z" fill="white"/>
</mask>
<g mask="url(#mask5_401_10)">
<path d="M201.868 478.634C200.568 475.735 195.979 470.366 192.014 465.972L189.921 466.323C189.921 466.323 184.955 471.289 184.955 474.604C184.955 477.919 189.921 482.482 189.921 482.482C189.921 482.482 182.459 480.818 180.821 483.314C180.585 483.636 180.418 484.003 180.33 484.392C180.242 484.78 180.234 485.183 180.307 485.575C180.38 485.967 180.532 486.34 180.755 486.671C180.977 487.002 181.265 487.284 181.601 487.5C179.053 486.639 176.405 486.106 173.723 485.914C177.155 488.995 181.323 491.14 185.826 492.141C190.558 492.869 198.553 486.681 200.373 485.953C202.193 485.225 204.416 484.081 201.868 478.634Z" fill="#D32222"/>
<path opacity="0.5" d="M201.868 478.634C200.568 475.735 195.979 470.366 192.014 465.972L189.921 466.323C189.921 466.323 184.955 471.289 184.955 474.604C184.955 477.919 189.921 482.482 189.921 482.482C189.921 482.482 182.459 480.818 180.821 483.314C180.585 483.636 180.418 484.003 180.33 484.392C180.242 484.78 180.234 485.183 180.307 485.575C180.38 485.967 180.532 486.34 180.755 486.671C180.977 487.002 181.265 487.284 181.601 487.5C179.053 486.639 176.405 486.106 173.723 485.914C177.155 488.995 181.323 491.14 185.826 492.141C190.558 492.869 198.553 486.681 200.373 485.953C202.193 485.225 204.416 484.081 201.868 478.634Z" fill="white"/>
</g>
<path d="M185.501 458.991C184.033 462.148 182.329 465.19 180.405 468.091C178.221 471.003 172.046 475.735 171.305 480.831C170.564 485.927 181.12 491.374 185.852 492.102C190.584 492.83 198.579 486.642 200.399 485.914C202.219 485.186 204.403 484.094 201.855 478.647C199.307 473.2 185.501 458.991 185.501 458.991Z" stroke="#263238" stroke-linecap="round" stroke-linejoin="round"/>
<path d="M185.5 452.79C186.106 452.277 186.822 451.909 187.593 451.715C188.363 451.522 189.168 451.507 189.945 451.673C190.722 451.839 191.45 452.18 192.075 452.671C192.699 453.162 193.203 453.79 193.547 454.506C196.979 461.175 204.09 475.163 204.09 476.814C204.09 478.998 204.454 482.261 200.45 479.726C196.446 477.191 188.087 465.907 185.903 462.631C184.317 460.304 182.588 455.429 185.5 452.79Z" fill="white"/>
<mask id="mask6_401_10" style="mask-type:luminance" maskUnits="userSpaceOnUse" x="183" y="451" width="22" height="30">
<path d="M185.5 452.79C186.106 452.277 186.822 451.909 187.593 451.715C188.363 451.522 189.168 451.507 189.945 451.673C190.722 451.839 191.45 452.18 192.075 452.671C192.699 453.162 193.203 453.79 193.547 454.506C196.979 461.175 204.09 475.163 204.09 476.814C204.09 478.998 204.454 482.261 200.45 479.726C196.446 477.191 188.087 465.907 185.903 462.631C184.317 460.304 182.588 455.429 185.5 452.79Z" fill="white"/>
</mask>
<g mask="url(#mask6_401_10)">
<path d="M198.162 464.1C198.162 464.1 194.899 458.9 191.259 460.642C187.619 462.384 197.59 477.126 199.306 479.232C201.022 481.338 203.141 480.961 203.726 479.427C204.311 477.893 203.908 475.982 202.959 472.342C202.01 468.702 198.162 464.1 198.162 464.1Z" fill="#D32222"/>
<path opacity="0.5" d="M198.162 464.1C198.162 464.1 194.899 458.9 191.259 460.642C187.619 462.384 197.59 477.126 199.306 479.232C201.022 481.338 203.141 480.961 203.726 479.427C204.311 477.893 203.908 475.982 202.959 472.342C202.01 468.702 198.162 464.1 198.162 464.1Z" fill="white"/>
</g>
<path d="M185.5 452.79C186.106 452.277 186.822 451.909 187.593 451.715C188.363 451.522 189.168 451.507 189.945 451.673C190.722 451.839 191.45 452.18 192.075 452.671C192.699 453.162 193.203 453.79 193.547 454.506C196.979 461.175 204.09 475.163 204.09 476.814C204.09 478.998 204.454 482.261 200.45 479.726C196.446 477.191 188.087 465.907 185.903 462.631C184.317 460.304 182.588 455.429 185.5 452.79Z" stroke="#263238" stroke-linecap="round" stroke-linejoin="round"/>
<path d="M180.769 471.354C182.885 475.212 185.338 478.875 188.101 482.3C191.364 485.94 203.012 484.12 203.012 484.12" stroke="#263238" stroke-linecap="round" stroke-linejoin="round"/>
<path d="M174.957 478.634C174.957 478.634 181.132 488.085 184.408 489.905C187.684 491.725 196.407 487.721 196.407 487.721" stroke="#263238" stroke-linecap="round" stroke-linejoin="round"/>
<path d="M315.5 473.954C315.5 473.954 304.697 472.225 302.747 472.875C300.797 473.525 298.002 476.775 290.436 478.92C282.87 481.065 280.712 482.599 283.52 483.899C287.508 485.302 291.856 485.302 295.844 483.899C299.744 482.378 303.189 479.999 304.047 479.791C305.729 479.893 307.394 480.181 309.013 480.649C309.013 480.649 314.876 477.841 315.5 473.954Z" fill="white" stroke="#263238" stroke-linecap="round" stroke-linejoin="round"/>
<path d="M404.966 424.047C380.071 420.394 375.443 441.857 360.974 459.355C349.911 472.719 340.33 478.088 336.417 479.882C331.672 476.502 326.017 472.888 322.65 472.017C315.955 470.288 314.018 473.746 311.21 476.554C308.402 479.362 288.954 490.854 287.875 492.973C286.796 495.092 289.383 495.573 291.112 495.781C292.841 495.989 298.678 493.831 298.678 493.831C298.678 493.831 293.478 496.21 294.778 497.939C296.078 499.668 307.947 496.418 312.055 494.91C312.055 494.91 301.252 499.876 301.902 501.605C302.552 503.334 306.439 502.684 309.026 502.034C311.613 501.384 325.666 496.418 325.666 496.418C325.666 496.418 315.266 501.176 312.666 502.684C310.066 504.192 313.966 505.284 315.903 505.284C317.84 505.284 327.135 500.955 331.243 499.668C335.351 498.381 344.1 497.9 349.872 494.91C351.938 493.88 353.85 492.567 355.553 491.01C367.331 484.718 402.145 465.075 410.569 450.593C419.851 434.616 417.849 425.945 404.966 424.047Z" fill="white"/>
<mask id="mask7_401_10" style="mask-type:luminance" maskUnits="userSpaceOnUse" x="287" y="423" width="130" height="83">
<path d="M404.966 424.047C380.071 420.394 375.443 441.857 360.974 459.355C349.911 472.719 340.33 478.088 336.417 479.882C331.672 476.502 326.017 472.888 322.65 472.017C315.955 470.288 314.018 473.746 311.21 476.554C308.402 479.362 288.954 490.854 287.875 492.973C286.796 495.092 289.383 495.573 291.112 495.781C292.841 495.989 298.678 493.831 298.678 493.831C298.678 493.831 293.478 496.21 294.778 497.939C296.078 499.668 307.947 496.418 312.055 494.91C312.055 494.91 301.252 499.876 301.902 501.605C302.552 503.334 306.439 502.684 309.026 502.034C311.613 501.384 325.666 496.418 325.666 496.418C325.666 496.418 315.266 501.176 312.666 502.684C310.066 504.192 313.966 505.284 315.903 505.284C317.84 505.284 327.135 500.955 331.243 499.668C335.351 498.381 344.1 497.9 349.872 494.91C351.938 493.88 353.85 492.567 355.553 491.01C367.331 484.718 402.145 465.075 410.569 450.593C419.851 434.616 417.849 425.945 404.966 424.047Z" fill="white"/>
</mask>
<g mask="url(#mask7_401_10)">
<path d="M404.966 424.047C403.209 423.789 401.437 423.659 399.662 423.657C399.974 423.904 404.238 427.557 401.729 435.5C399.129 443.729 354.071 484.471 349.3 486.2C344.529 487.929 333.271 480.571 333.7 483.171C334.129 485.771 338.9 490.529 338.029 492.271C337.158 494.013 324.171 500.5 319.4 503.529C318.75 503.95 318.133 504.419 317.554 504.933C320.934 503.88 327.889 500.734 331.295 499.668C335.403 498.368 344.048 497.939 349.872 494.91C351.937 493.88 353.849 492.567 355.553 491.01C367.331 484.718 402.145 465.075 410.569 450.593C419.851 434.616 417.849 425.945 404.966 424.047Z" fill="#D32222"/>
<path opacity="0.5" d="M404.966 424.047C403.209 423.789 401.437 423.659 399.662 423.657C399.974 423.904 404.238 427.557 401.729 435.5C399.129 443.729 354.071 484.471 349.3 486.2C344.529 487.929 333.271 480.571 333.7 483.171C334.129 485.771 338.9 490.529 338.029 492.271C337.158 494.013 324.171 500.5 319.4 503.529C318.75 503.95 318.133 504.419 317.554 504.933C320.934 503.88 327.889 500.734 331.295 499.668C335.403 498.368 344.048 497.939 349.872 494.91C351.937 493.88 353.849 492.567 355.553 491.01C367.331 484.718 402.145 465.075 410.569 450.593C419.851 434.616 417.849 425.945 404.966 424.047Z" fill="white"/>
</g>
<path d="M404.966 424.047C380.071 420.394 375.443 441.857 360.974 459.355C349.911 472.719 340.33 478.088 336.417 479.882C331.672 476.502 326.017 472.888 322.65 472.017C315.955 470.288 314.018 473.746 311.21 476.554C308.402 479.362 288.954 490.854 287.875 492.973C286.796 495.092 289.383 495.573 291.112 495.781C292.841 495.989 298.678 493.831 298.678 493.831C298.678 493.831 293.478 496.21 294.778 497.939C296.078 499.668 307.947 496.418 312.055 494.91C312.055 494.91 301.252 499.876 301.902 501.605C302.552 503.334 306.439 502.684 309.026 502.034C311.613 501.384 325.666 496.418 325.666 496.418C325.666 496.418 315.266 501.176 312.666 502.684C310.066 504.192 313.966 505.284 315.903 505.284C317.84 505.284 327.135 500.955 331.243 499.668C335.351 498.381 344.1 497.9 349.872 494.91C351.938 493.88 353.85 492.567 355.553 491.01C367.331 484.718 402.145 465.075 410.569 450.593C419.851 434.616 417.849 425.945 404.966 424.047Z" stroke="#263238" stroke-linecap="round" stroke-linejoin="round"/>
<path d="M298.679 493.831C298.679 493.831 318.556 482.807 321.793 478.712" stroke="#263238" stroke-linecap="round" stroke-linejoin="round"/>
<path d="M312.068 494.91C312.068 494.91 323.768 489.944 327.837 486.915" stroke="#263238" stroke-linecap="round" stroke-linejoin="round"/>
<path d="M325.68 496.418C325.68 496.418 333.246 493.818 335.404 492.102" stroke="#263238" stroke-linecap="round" stroke-linejoin="round"/>
<path d="M336.417 479.882L341.071 483.6" stroke="#263238" stroke-linecap="round" stroke-linejoin="round"/>
<path d="M263.37 363.09C263.37 363.09 262.577 369.174 244.065 378.963C225.553 388.752 212.072 386.36 210.265 385.047C208.458 383.734 202.595 367.055 207.093 348.816C211.591 330.577 231.104 322.4 248.03 322.4C264.956 322.4 273.952 334.828 277.124 344.604C280.296 354.38 275.265 381.108 275.265 381.108C275.265 381.108 264.956 378.43 263.37 363.09Z" fill="#263238" stroke="#263238" stroke-linecap="round" stroke-linejoin="round"/>
<path d="M262.525 364.767C262.525 364.767 258.56 383.279 221.9 390.546" stroke="#263238" stroke-linecap="round" stroke-linejoin="round"/>
<path d="M263.501 327.106C263.501 327.106 253.257 310.921 223.851 324.506" stroke="#263238" stroke-linecap="round" stroke-linejoin="round"/>
<path d="M265.502 329.095C267.518 328.812 269.573 329.093 271.439 329.908C273.305 330.723 274.908 332.039 276.071 333.71" stroke="#263238" stroke-linecap="round" stroke-linejoin="round"/>
<path d="M262.798 346.697C262.798 346.697 260.822 368.42 223.291 375.297" stroke="white" stroke-linecap="round" stroke-linejoin="round"/>
<path d="M214.413 362.44C213.113 362.349 211.813 362.206 210.513 361.998" stroke="white" stroke-linecap="round" stroke-linejoin="round"/>
<path d="M261.316 340.769C261.316 340.769 244 360.737 220.327 362.414" stroke="white" stroke-linecap="round" stroke-linejoin="round"/>
<path d="M377.743 265.954C377.886 266.201 381.084 263.692 381.227 263.939C381.565 264.511 367.993 275.795 368.318 276.367C369.059 277.667 394.786 259.467 395.475 260.689C396.294 262.106 364.405 281.593 365.237 283.036C366.303 284.869 401.988 259.857 402.846 261.326C403.704 262.795 363.209 285.207 364.132 286.819C365.055 288.431 405.732 260.533 406.694 262.249C407.656 263.965 362.494 287.846 363.534 289.757C364.574 291.668 408.449 261.417 409.489 263.211C410.529 265.005 362.221 294.502 363.235 296.244C364.535 298.636 414.117 264.108 415.313 266.175C416.509 268.242 362.208 295.737 363.313 297.726C364.418 299.715 415.196 264.732 416.509 267.007C417.627 268.944 362.156 297.739 363.495 300.066C364.678 302.107 417.081 265.993 418.433 268.346C419.629 270.413 363.534 303.446 364.704 305.5C366.095 307.918 421.15 269.789 422.502 272.129C423.854 274.469 364.47 306.319 365.978 308.932C367.278 311.246 423.308 272.194 424.881 274.911C426.181 277.186 365.081 307.671 366.381 309.777C367.824 312.26 424.088 273.169 425.518 275.639C426.948 278.109 365.484 308.529 366.862 310.908C368.448 313.638 424.764 274.261 426.168 276.679C427.377 278.772 366.121 309.803 367.447 312.091C368.916 314.691 425.492 275.431 426.857 277.784C428.339 280.384 368.773 313.976 370.281 316.589C371.581 318.825 427.845 279.916 429.327 282.503C430.718 284.895 370.723 316.368 372.062 318.669C373.544 321.269 429.093 282.763 430.38 284.999C431.667 287.235 372.153 318.084 373.362 320.19C374.857 322.79 429.665 284.726 430.939 286.949C432.213 289.172 376.04 321.503 377.366 323.804C378.692 326.105 430.536 289.64 432.044 292.24C433.227 294.307 376.313 321.659 377.678 324.012C379.16 326.612 430.731 290.303 432.07 292.617C433.409 294.931 376.599 322.023 377.899 324.142C379.199 326.261 430.757 290.446 432.122 292.825C433.318 294.879 382.163 325.325 383.359 327.444C384.555 329.563 431.004 296.933 432.304 299.182C433.279 300.872 386.804 327.444 387.896 329.316C388.988 331.188 430.692 302.354 431.667 304.044C432.642 305.734 387.662 327.834 388.676 329.589C389.69 331.344 430.276 302.835 431.498 304.889C432.473 306.579 396.19 329.745 396.983 331.136C397.776 332.527 427.819 311.298 428.703 312.832C429.327 313.898 405.043 329.732 405.628 330.759C406.096 331.578 423.373 319.267 423.906 320.203C424.153 320.619 412.778 328.003 413.051 328.549C413.233 328.848 418.355 325.013 418.563 325.364C418.771 325.715 414.273 327.834 414.364 327.964C414.455 328.094 417.679 325.663 417.848 325.962" stroke="#263238" stroke-width="0.72" stroke-linecap="round" stroke-linejoin="round"/>
<path d="M392.356 309.764C393.319 309.574 394.232 309.184 395.036 308.62C395.84 308.056 396.517 307.33 397.023 306.488C397.782 305.273 398.175 303.865 398.154 302.432C398.191 301.123 397.848 299.832 397.166 298.714C396.467 297.655 395.432 296.863 394.228 296.465C394.966 296.123 395.626 295.632 396.165 295.022C396.988 293.953 397.408 292.626 397.348 291.278C397.391 289.885 396.98 288.517 396.178 287.378C394.878 285.61 392.694 284.713 389.587 284.661H377.302V310.076H388.755C389.963 310.097 391.17 309.993 392.356 309.764ZM382.372 289.107H387.91C388.925 289.08 389.938 289.212 390.913 289.497C391.361 289.693 391.735 290.027 391.98 290.45C392.226 290.873 392.33 291.364 392.278 291.85C392.321 292.282 392.247 292.717 392.064 293.111C391.881 293.504 391.596 293.841 391.238 294.086C390.413 294.533 389.484 294.748 388.547 294.71H382.372V289.107ZM382.372 305.695V298.922H388.625C389.511 298.888 390.396 299.034 391.225 299.351C391.743 299.579 392.177 299.964 392.466 300.451C392.755 300.938 392.885 301.504 392.837 302.068C392.911 302.703 392.792 303.345 392.495 303.911C392.198 304.477 391.737 304.94 391.173 305.24C390.351 305.584 389.463 305.739 388.573 305.695H382.372Z" fill="white"/>
<path d="M402.457 308.438C404.338 309.948 406.689 310.748 409.1 310.7C410.406 310.78 411.714 310.578 412.934 310.106C414.154 309.635 415.259 308.907 416.172 307.97C417.127 307.058 417.765 305.865 417.992 304.564H413C412.759 305.065 412.413 305.508 411.986 305.864C411.211 306.464 410.248 306.768 409.269 306.722C408.315 306.75 407.373 306.507 406.552 306.02C405.913 305.582 405.397 304.988 405.053 304.294C404.709 303.6 404.549 302.829 404.589 302.055H418.2C418.244 300.809 418.192 299.562 418.044 298.324C417.851 296.925 417.335 295.589 416.536 294.424C415.745 293.202 414.616 292.235 413.286 291.642C411.892 291.036 410.386 290.735 408.866 290.758C407.63 290.708 406.396 290.913 405.242 291.36C404.088 291.808 403.038 292.488 402.158 293.358C401.244 294.368 400.543 295.551 400.096 296.837C399.649 298.124 399.466 299.487 399.558 300.846C399.575 304.356 400.542 306.887 402.457 308.438ZM405.967 295.945C406.356 295.572 406.818 295.284 407.323 295.098C407.829 294.912 408.367 294.833 408.905 294.866C409.968 294.831 411.006 295.193 411.817 295.88C412.223 296.261 412.547 296.72 412.77 297.229C412.994 297.738 413.112 298.288 413.117 298.844H404.641C404.769 297.763 405.233 296.749 405.967 295.945Z" fill="white"/>
<path d="M414.105 286.156H403.055V288.717H414.105V286.156Z" fill="white"/>
<path d="M341.825 186.069C341.981 186.329 345.166 183.807 345.309 184.054C345.647 184.639 331.451 196.82 331.828 197.47C332.491 198.614 360.025 179.517 360.753 180.778C361.481 182.039 330.45 197.691 331.1 198.9C331.75 200.109 361.507 179.582 362.3 180.908C363.093 182.234 328.903 201.019 329.631 202.267C330.619 203.97 365.173 179.842 366.031 181.272C366.889 182.702 326.667 208 327.642 209.703C328.617 211.406 372.193 181.103 373.415 183.274C374.377 184.925 326.303 210.015 327.421 211.965C328.539 213.915 374.286 182.065 375.521 184.184C376.574 186.004 326.303 214.708 327.317 216.463C328.448 218.426 378.29 184.262 379.486 186.342C380.786 188.708 326.186 215.891 327.486 217.945C328.786 219.999 379.369 184.73 380.786 187.187C382.203 189.644 326.498 217.685 327.629 219.622C328.929 221.91 380.929 185.991 382.229 188.123C383.529 190.255 326.446 218.296 327.746 220.558C329.046 222.82 381.631 186.446 382.931 188.695C384.361 191.152 326.355 218.53 327.785 221.013C329.215 223.496 381.904 186.81 383.1 188.981C384.296 191.152 326.875 220.961 328.175 223.223C329.475 225.485 383.568 188.305 384.842 190.502C386.298 193.102 327.031 221.507 328.292 223.704C329.852 226.408 383.958 188.604 385.219 190.84C386.48 193.076 327.824 224.64 329.085 226.785C330.554 229.385 385.856 190.58 387.338 193.141C388.638 195.351 329.566 228.813 330.983 231.257C332.569 234.013 388.911 194.571 390.315 197.002C391.719 199.433 332.283 233.402 333.531 235.534C334.922 237.952 391.316 198.757 392.798 201.318C394.28 203.879 332.4 233.389 333.817 235.911C335.39 238.654 391.706 199.433 393.019 201.721C394.332 204.009 334.168 235.82 335.377 237.9C336.781 240.331 392.668 201.734 394.007 204.1C395.346 206.466 335.91 237.783 337.301 240.201C338.692 242.619 393.617 204.594 394.956 206.908C396.438 209.508 337.223 239.083 338.653 241.54C340.083 243.997 393.929 206.193 395.411 208.767C396.789 211.146 341.643 242.645 343.021 245.037C344.23 247.143 395.099 212.277 396.256 214.292C397.413 216.307 345.998 245.492 347.155 247.481C348.312 249.47 395.125 216.983 396.347 219.089C397.4 220.909 347.168 246.181 348.247 248.027C349.326 249.873 395.125 218.309 396.269 220.298C397.413 222.287 350.938 247.728 351.952 249.483C353.161 251.589 394.514 222.183 395.697 224.224C396.698 225.94 356.424 249.353 357.282 250.848C358.14 252.343 393.214 227.786 394.215 229.528C394.943 230.828 359.011 249.652 359.908 251.199C360.805 252.746 392.408 230.399 393.253 231.946C393.89 233.038 367.357 249.873 368.046 251.069C368.618 252.057 388.625 237.952 389.158 238.875C389.418 239.317 377.952 247.754 378.212 248.209C378.472 248.664 381.839 245.778 381.982 246.025C382.125 246.272 378.316 247.988 378.394 248.131C378.472 248.274 381.709 245.817 381.878 246.116" stroke="#263238" stroke-width="0.72" stroke-linecap="round" stroke-linejoin="round"/>
<path d="M356.099 238.004H364.9V215.904H371.062L371.725 208.494H364.9V204.269C364.9 202.527 365.251 201.838 366.941 201.838H371.725V194.142H365.602C359.037 194.142 356.073 197.041 356.073 202.592V208.494H351.471V215.995H356.073L356.099 238.004Z" fill="white"/>
<path d="M244.234 148.2C244.377 148.447 247.562 145.899 247.718 146.185C247.874 146.471 236.538 155.194 236.811 155.649C237.396 156.689 257.767 142.246 258.339 143.221C259.015 144.404 232.625 160.537 233.249 161.603C234.029 162.903 264.449 141.518 265.359 143.065C266.269 144.612 229.7 167.206 230.662 168.883C231.767 170.794 271.95 142.688 272.964 144.469C273.978 146.25 228.647 173.576 229.7 175.5C230.753 177.424 277.943 145.067 279.1 147.004C280.4 149.201 228.66 174.304 229.7 176.15C231 178.464 278.346 144.95 279.685 147.29C280.751 149.123 228.478 175.604 229.648 177.619C230.948 179.946 279.607 145.548 281.011 147.966C282.194 150.033 228.946 180.752 230.051 182.676C231.351 184.925 283.975 148.785 285.171 150.852C286.367 152.919 230.116 186.238 231.364 188.396C232.742 190.762 287.953 152.399 289.396 154.895C290.605 156.988 230.831 188.188 232.196 190.632C233.808 193.414 289.617 154.466 290.93 156.728C292.243 158.99 231.13 189.085 232.638 191.685C234.146 194.285 290.163 154.973 291.671 157.599C292.906 159.731 231.637 190.216 233.08 192.699C234.38 194.961 290.969 156.221 292.295 158.509C293.621 160.797 232.638 192.309 233.977 194.571C235.511 197.171 292.009 157.898 293.387 160.264C294.765 162.63 232.898 192.673 234.302 195.104C235.875 197.821 292.269 158.288 293.712 160.81C295.155 163.332 236.2 197.457 237.422 199.667C238.644 201.877 294.895 163.462 296.195 165.724C297.703 168.324 237.214 198.588 238.683 201.136C239.983 203.476 295.493 164.983 296.949 167.492C298.171 169.611 239.853 201.37 241.309 203.892C242.765 206.414 296.377 168.584 297.911 171.223C299.211 173.498 241.309 202.774 242.635 205.023C243.961 207.272 296.936 170.495 298.327 172.874C299.718 175.253 243.389 204.399 244.676 206.674C245.963 208.949 297.3 173.212 298.6 175.5C299.64 177.307 248.693 207.818 249.772 209.703C250.851 211.588 297.391 179.088 298.743 181.428C299.926 183.482 250.097 208.416 251.267 210.444C252.437 212.472 297.534 181.22 298.626 183.144C299.718 185.068 254.751 210.301 255.804 212.134C256.857 213.967 296.65 185.926 297.794 187.902C298.73 189.514 255.414 210.6 256.415 212.329C257.416 214.058 296.715 186.94 297.664 188.513C298.613 190.086 257 210.977 257.988 212.628C258.976 214.279 296.208 188.292 297.196 189.995C297.963 191.295 259.418 211.536 260.315 213.109C261.212 214.682 295.415 190.515 296.403 192.309C297.17 193.609 268.414 212.082 269.103 213.33C269.792 214.578 291.671 198.9 292.282 199.94C292.62 200.525 278.736 210.444 279.061 211.003C279.386 211.562 285.015 207.038 285.236 207.428C285.457 207.818 279.308 210.587 279.451 210.834C279.594 211.081 284.807 207.246 285.028 207.61C285.249 207.974 280.712 210.106 280.79 210.21C280.868 210.314 284.118 207.922 284.274 208.195" stroke="#263238" stroke-width="0.72" stroke-linecap="round" stroke-linejoin="round"/>
<path d="M244.923 190.398C248.549 192.727 252.768 193.963 257.078 193.96C271.82 193.96 280.14 181.519 279.633 170.365C281.165 169.237 282.486 167.846 283.533 166.257C282.084 166.911 280.546 167.349 278.97 167.557C280.628 166.562 281.87 165.002 282.467 163.163C280.908 164.089 279.202 164.74 277.423 165.087C276.226 163.816 274.643 162.975 272.92 162.693C271.197 162.412 269.429 162.706 267.89 163.53C266.351 164.355 265.126 165.663 264.406 167.254C263.685 168.844 263.508 170.627 263.903 172.328C260.747 172.173 257.66 171.354 254.842 169.925C252.024 168.495 249.539 166.488 247.549 164.034C246.534 165.781 246.223 167.85 246.68 169.818C247.136 171.786 248.325 173.507 250.006 174.629C248.744 174.588 247.511 174.25 246.405 173.641C246.383 175.49 247.008 177.289 248.171 178.727C249.334 180.166 250.962 181.153 252.775 181.519C251.605 181.837 250.377 181.881 249.187 181.649C249.693 183.225 250.68 184.604 252.008 185.593C253.337 186.581 254.941 187.129 256.597 187.161C253.285 189.738 249.089 190.902 244.923 190.398Z" fill="white"/>
<path d="M147.332 186.069C147.475 186.303 150.647 183.768 150.816 184.054C151.206 184.73 136.854 196.976 137.244 197.665C137.959 198.9 165.688 179.465 166.468 180.765C167.248 182.065 135.476 198.809 136.1 199.914C136.867 201.214 168.002 179.335 168.938 180.96C169.744 182.338 134.683 200.005 135.45 201.318C136.217 202.631 169.549 179.361 170.55 181.064C171.395 182.533 132.46 207.22 133.344 208.741C134.384 210.548 176.894 181.025 178.012 182.949C179.13 184.873 131.537 212.849 132.733 214.877C133.929 216.905 182.341 183.248 183.641 185.497C184.941 187.746 131.914 218.634 133.175 220.818C134.644 223.418 187.086 186.368 188.529 188.851C189.972 191.334 131.914 219.05 133.292 221.429C134.67 223.808 187.723 187.083 188.997 189.267C190.128 191.23 131.94 219.167 133.357 221.676C134.774 224.185 187.658 186.797 189.257 189.449C190.44 191.49 133.149 223.951 134.657 226.486C136.165 229.021 191.285 190.268 192.819 192.907C194.119 195.169 133.903 225.68 135.398 228.293C136.893 230.906 192.598 191.815 194.106 194.402C195.406 196.612 135.177 228.683 136.633 231.218C137.933 233.415 194.431 194.311 195.965 196.963C197.265 199.134 136.087 230.347 137.465 232.726C138.843 235.105 195.354 195.793 196.875 198.419C198.175 200.603 136.542 231.101 137.751 233.194C139.311 235.898 195.835 196.586 197.161 198.887C198.487 201.188 139.519 235.495 140.715 237.575C142.015 239.85 198.006 201.175 199.462 203.658C200.762 205.92 141.378 237.614 142.665 239.85C144.134 242.385 198.942 203.788 200.489 206.466C201.789 208.728 141.547 237.848 142.769 239.967C143.991 242.086 199.072 204.1 200.528 206.609C201.984 209.118 143.328 239.434 144.771 241.93C145.98 244.023 199.761 206.83 201.191 209.352C202.621 211.874 144.589 240.552 145.993 242.996C147.176 245.063 200.125 208.377 201.581 210.899C202.751 212.94 144.849 240.799 146.253 243.23C147.449 245.297 200.125 208.611 201.646 211.25C202.829 213.317 147.748 243.126 148.931 245.18C150.361 247.65 200.58 212.264 201.906 214.578C202.972 216.424 149.542 244.374 150.699 246.363C152.09 248.781 200.827 214.526 202.075 216.697C203.323 218.868 155.769 247.403 156.783 249.197C157.797 250.991 200.281 221.325 201.477 223.405C202.491 225.147 157.758 248.196 158.72 249.873C159.903 251.901 199.904 223.431 201.061 225.433C202.049 227.136 162.061 249.184 162.997 250.848C163.933 252.512 198.851 227.981 199.787 229.606C200.58 230.906 169.133 250.12 169.887 251.355C170.641 252.59 196.16 234.455 196.914 235.755C197.499 236.795 172.435 250.055 173.033 251.108C173.631 252.161 194.613 237.341 195.133 238.329C195.458 238.888 183.745 247.65 184.005 248.118C184.265 248.586 187.333 245.817 187.489 246.103" stroke="#263238" stroke-width="0.72" stroke-linecap="round" stroke-linejoin="round"/>
<path d="M157.394 207.116H149.88V231.387H157.394V207.116Z" fill="white"/>
<path d="M153.598 203.944C154.487 203.954 155.359 203.7 156.104 203.214C156.848 202.727 157.431 202.03 157.779 201.212C158.126 200.393 158.222 199.49 158.055 198.616C157.888 197.743 157.465 196.939 156.84 196.306C156.215 195.674 155.416 195.242 154.544 195.064C153.673 194.887 152.769 194.973 151.946 195.311C151.123 195.649 150.42 196.223 149.925 196.962C149.43 197.701 149.165 198.57 149.165 199.459C149.162 200.641 149.626 201.776 150.456 202.616C151.287 203.456 152.417 203.934 153.598 203.944Z" fill="white"/>
<path d="M169.406 218.647C169.406 215.228 170.966 213.2 173.982 213.2C176.738 213.2 178.064 215.15 178.064 218.647V231.4H185.5V216.021C185.5 209.521 181.821 206.375 176.673 206.375C175.213 206.353 173.772 206.71 172.492 207.412C171.211 208.114 170.134 209.136 169.367 210.379V207.116H162.152V231.4H169.367L169.406 218.647Z" fill="white"/>
<path d="M95.3709 265.954C95.5269 266.24 98.7119 263.692 98.8549 263.939C98.9979 264.186 90.5739 269.646 90.7949 270.036C91.1849 270.712 104.64 261.079 105.095 261.807C105.55 262.535 85.5949 275.21 86.1669 276.107C86.7389 277.004 112.037 259.415 112.804 260.728C113.571 262.041 82.3969 280.761 83.2029 282.178C84.1779 283.855 118.654 259.506 119.603 261.157C120.422 262.561 82.0329 281.957 82.8129 283.257C83.8399 285.038 119.811 259.727 120.76 261.352C121.709 262.977 81.3049 282.932 82.3059 284.7C83.3069 286.468 121.085 259.909 122.125 261.703C123.165 263.497 79.9529 289.757 80.9929 291.603C82.2929 293.852 127.663 262.08 128.781 264.004C129.899 265.928 79.8099 291.954 80.8369 293.8C82.0329 295.854 129.457 262.717 130.757 264.979C131.875 266.916 79.9269 296.088 80.9799 297.908C82.0329 299.728 133.045 264.979 134.28 267.137C135.684 269.568 80.3299 300.417 81.6429 302.679C83.1639 305.279 136.62 267.657 138.05 270.179C139.272 272.311 81.2659 304.109 82.5009 306.254C83.7359 308.399 139.311 270.4 140.572 272.61C141.833 274.82 82.1889 306.41 83.5539 308.724C84.9189 311.038 140.936 272.207 142.405 274.742C143.874 277.277 83.5669 309.543 84.7889 311.649C86.4139 314.457 142.873 275.054 144.186 277.342C145.499 279.63 84.6069 311.22 85.8549 313.391C87.3629 315.991 143.939 276.783 145.278 279.084C146.617 281.385 87.0249 314.821 88.3769 317.2C89.9759 319.982 145.954 281.008 147.228 283.231C148.723 285.831 89.4689 317.642 90.9379 320.19C92.2379 322.478 146.981 284.232 148.541 286.936C149.841 289.12 92.4329 320.658 93.5899 322.647C94.9809 325.039 148.021 288.041 149.399 290.433C150.699 292.63 92.9399 320.996 94.2009 323.193C95.4619 325.39 148.19 288.808 149.568 291.2C150.738 293.241 95.1239 322.491 96.4889 324.831C97.6849 326.911 148.645 292.071 149.789 294.047C150.933 296.023 99.3229 325.078 100.597 327.288C101.871 329.498 148.814 296.985 149.88 298.844C150.946 300.703 105.186 327.717 106.291 329.628C107.396 331.539 147.891 302.9 149.048 304.928C150.049 306.683 110.75 329.212 111.725 330.928C112.7 332.644 146.617 308.906 147.423 310.31C148.229 311.714 112.674 329.81 113.428 331.11C114.182 332.41 145.928 310.31 146.773 311.857C147.306 312.78 125.284 329.108 125.882 330.148C126.324 330.902 139.493 321.399 139.883 322.062C140.052 322.374 131.719 327.717 131.914 328.042C132.109 328.367 135.242 325.754 135.398 326.04" stroke="#263238" stroke-width="0.72" stroke-linecap="round" stroke-linejoin="round"/>
<path d="M115.391 279.643C120.708 279.643 121.332 279.643 123.438 279.76C124.698 279.781 125.945 280.01 127.13 280.436C127.994 280.759 128.775 281.27 129.418 281.931C130.08 282.571 130.587 283.353 130.9 284.219C131.339 285.401 131.572 286.65 131.589 287.911C131.693 290.017 131.706 290.641 131.706 295.958C131.706 301.275 131.706 301.899 131.589 303.992C131.573 305.257 131.34 306.51 130.9 307.697C130.587 308.563 130.08 309.345 129.418 309.985C128.771 310.638 127.991 311.144 127.13 311.467C125.948 311.906 124.699 312.139 123.438 312.156C121.332 312.247 120.708 312.273 115.391 312.273C110.074 312.273 109.45 312.273 107.344 312.156C106.083 312.139 104.835 311.906 103.652 311.467C102.792 311.144 102.011 310.638 101.364 309.985C100.707 309.341 100.201 308.56 99.8823 307.697C99.4424 306.51 99.2094 305.257 99.1933 303.992C99.1023 301.899 99.0763 301.275 99.0763 295.958C99.0763 290.641 99.0763 290.017 99.1933 287.911C99.2103 286.65 99.4434 285.401 99.8823 284.219C100.212 283.36 100.718 282.58 101.367 281.929C102.016 281.277 102.795 280.769 103.652 280.436C104.838 280.01 106.085 279.781 107.344 279.76C109.45 279.656 110.074 279.643 115.391 279.643ZM115.391 276.055C109.983 276.055 109.307 276.055 107.188 276.172C105.537 276.215 103.903 276.526 102.352 277.095C101.026 277.599 99.8237 278.384 98.8293 279.396C97.8177 280.389 97.0366 281.591 96.5413 282.919C95.9598 284.467 95.6434 286.102 95.6053 287.755C95.5143 289.874 95.4883 290.55 95.4883 295.958C95.4883 301.366 95.4883 302.042 95.6053 304.161C95.6448 305.814 95.9612 307.449 96.5413 308.997C97.0486 310.319 97.828 311.519 98.8291 312.52C99.8302 313.521 101.031 314.301 102.352 314.808C103.901 315.388 105.535 315.704 107.188 315.744C109.307 315.835 109.983 315.861 115.391 315.861C120.799 315.861 121.475 315.861 123.594 315.744C125.247 315.704 126.882 315.388 128.43 314.808C129.756 314.309 130.958 313.529 131.953 312.52C132.962 311.522 133.746 310.321 134.254 308.997C134.823 307.446 135.135 305.812 135.177 304.161C135.268 302.042 135.294 301.366 135.294 295.958C135.294 290.55 135.294 289.874 135.177 287.755C135.136 286.103 134.824 284.47 134.254 282.919C133.739 281.598 132.956 280.398 131.953 279.396C130.951 278.393 129.751 277.61 128.43 277.095C126.879 276.526 125.246 276.215 123.594 276.172C121.475 276.081 120.799 276.055 115.391 276.055Z" fill="white"/>
<path d="M115.391 285.74C113.37 285.74 111.394 286.339 109.714 287.462C108.034 288.585 106.724 290.181 105.951 292.048C105.177 293.915 104.975 295.969 105.369 297.951C105.763 299.934 106.737 301.754 108.166 303.183C109.595 304.612 111.415 305.585 113.397 305.98C115.38 306.374 117.434 306.172 119.301 305.398C121.168 304.625 122.764 303.315 123.887 301.635C125.01 299.954 125.609 297.979 125.609 295.958C125.609 294.616 125.345 293.287 124.831 292.048C124.318 290.808 123.565 289.682 122.616 288.733C121.667 287.784 120.541 287.031 119.301 286.518C118.061 286.004 116.733 285.74 115.391 285.74ZM115.391 302.64C114.08 302.64 112.798 302.251 111.707 301.523C110.617 300.794 109.767 299.759 109.266 298.547C108.764 297.336 108.632 296.003 108.888 294.717C109.144 293.43 109.776 292.249 110.703 291.322C111.63 290.395 112.811 289.763 114.097 289.507C115.384 289.252 116.717 289.383 117.928 289.885C119.14 290.386 120.175 291.236 120.904 292.327C121.632 293.417 122.021 294.699 122.021 296.01C122.021 297.768 121.322 299.455 120.079 300.698C118.836 301.941 117.149 302.64 115.391 302.64Z" fill="white"/>
<path d="M128.404 285.337C128.404 285.81 128.264 286.273 128.001 286.666C127.738 287.059 127.365 287.366 126.928 287.547C126.49 287.728 126.009 287.775 125.545 287.683C125.081 287.591 124.655 287.363 124.321 287.028C123.986 286.694 123.758 286.268 123.666 285.804C123.574 285.34 123.621 284.859 123.802 284.422C123.983 283.985 124.29 283.611 124.683 283.348C125.077 283.085 125.539 282.945 126.012 282.945C126.327 282.943 126.639 283.004 126.93 283.124C127.221 283.243 127.485 283.419 127.707 283.642C127.93 283.864 128.106 284.129 128.226 284.42C128.345 284.711 128.406 285.022 128.404 285.337Z" fill="white"/>
</svg>
