<svg width="600" height="600" viewBox="0 0 600 600" fill="none" xmlns="http://www.w3.org/2000/svg">
<path d="M557.16 84.132C558.36 92.604 552.012 98.532 538.848 100.356L512.376 103.956L505.608 54.936L530.688 51.48C543.576 49.704 550.596 54.084 551.64 61.644C551.985 63.8576 551.687 66.1236 550.781 68.1724C549.874 70.2212 548.398 71.9663 546.528 73.2C552.324 74.4 556.344 78.18 557.16 84.132ZM520.716 63.108L522 72.564L531.528 71.244C536.148 70.608 538.308 68.664 537.876 65.52C537.444 62.376 534.84 61.152 530.22 61.788L520.716 63.108ZM542.94 84.516C542.484 81.156 539.736 79.896 534.972 80.556L523.344 82.152L524.724 92.1L536.4 90.492C541.104 89.844 543.408 87.876 542.94 84.516Z" fill="#E0E0E0"/>
<path d="M98.9282 366.66H45.6602V375.096H98.9282V366.66Z" fill="#EBEBEB"/>
<path d="M98.9282 397.38H45.6602V405.816H98.9282V397.38Z" fill="#EBEBEB"/>
<path d="M72.2882 382.56H45.6602V390.996H72.2882V382.56Z" fill="#EBEBEB"/>
<path d="M239.941 438.18H199.057V404.604H220.237V411.684H206.149V431.1H232.861V424.044H239.941V438.18Z" fill="#EBEBEB"/>
<path d="M263.521 438.18H246.097V431.1H256.441V411.684H229.717V420.732H222.637V404.604H263.521V438.18Z" fill="#EBEBEB"/>
<path d="M562.644 153.6H569.712L559.812 203.088H552.744L562.644 153.6Z" fill="#EBEBEB"/>
<path d="M30.0127 95.3521H140.293V255.24H30.7687L30.0127 95.3521Z" fill="#E0E0E0"/>
<path d="M21.7319 254.484H131.004L131.004 96.096H21.7319L21.7319 254.484Z" fill="white"/>
<path d="M131.76 95.3521V255.24H20.9883V95.3521H131.76ZM130.26 253.752V96.8521H22.4883V253.74L130.26 253.752Z" fill="#E0E0E0"/>
<path d="M117.432 113.256H35.3164V237.336H117.432V113.256Z" fill="white"/>
<path d="M35.3166 113.256C35.3166 113.256 35.3166 113.472 35.3166 113.868C35.3166 114.264 35.3166 114.876 35.3166 115.632C35.3166 117.204 35.3166 119.496 35.3166 122.448C35.3166 128.448 35.3766 137.076 35.4126 148.02C35.4126 169.896 35.5206 200.82 35.5926 237.336L35.2326 236.976H117.337L116.953 237.372C116.953 190.572 116.953 147.372 117.025 113.292L117.337 113.604L57.5886 113.448L41.1606 113.328H36.8286H35.3166C35.3166 113.328 35.7966 113.328 36.7566 113.328H41.0406L57.4926 113.244L117.493 113.076H117.805V113.388C117.805 147.516 117.805 190.668 117.889 237.468V237.864H117.481H35.3766H35.0166V237.504C35.0886 200.94 35.1486 169.884 35.1966 147.948C35.1966 137.04 35.2686 128.4 35.2926 122.46C35.2926 119.532 35.2926 117.276 35.2926 115.716C35.2926 114.984 35.2926 114.408 35.2926 114C35.2926 113.592 35.3166 113.256 35.3166 113.256Z" fill="#E0E0E0"/>
<path d="M21.4326 254.484C21.9161 253.513 22.5079 252.599 23.1966 251.76C24.3966 250.14 26.0286 247.944 27.9966 245.556C29.9646 243.168 31.7046 241.08 33.0606 239.556C33.7299 238.702 34.5086 237.939 35.3766 237.288C35.5446 237.432 32.4006 241.248 28.6086 246C24.8166 250.752 21.6006 254.628 21.4326 254.484Z" fill="#E0E0E0"/>
<path d="M21.7444 96.108C21.9124 95.976 25.0924 99.708 28.8364 104.436C32.5804 109.164 35.4844 113.124 35.3164 113.256C35.1484 113.388 31.9684 109.656 28.2244 104.928C24.4804 100.2 21.6004 96.24 21.7444 96.108Z" fill="#E0E0E0"/>
<path d="M131.028 96.228L116.712 113.892Z" fill="white"/>
<path d="M116.713 113.892C116.545 113.76 119.617 109.692 123.565 104.82C127.513 99.948 130.861 96.096 131.029 96.228C131.197 96.36 128.125 100.428 124.177 105.312C120.229 110.196 116.881 114 116.713 113.892Z" fill="#E0E0E0"/>
<path d="M131.016 254.484C130.836 254.628 127.692 250.884 123.996 246.24C120.3 241.596 117.408 237.6 117.6 237.516C117.792 237.432 120.912 241.116 124.62 245.76C128.328 250.404 131.184 254.4 131.016 254.484Z" fill="#E0E0E0"/>
<path d="M81.6724 177.108H67.2004L65.4724 181.092C64.9816 182.123 64.6963 183.24 64.6324 184.38C64.5999 184.888 64.7109 185.395 64.9528 185.842C65.1947 186.29 65.5578 186.661 66.0004 186.912C67.2827 187.389 68.6401 187.633 70.0084 187.632V188.748H56.4004V187.632C57.773 187.451 59.0429 186.808 60.0004 185.808C61.5022 183.944 62.7157 181.865 63.6004 179.64L78.2404 147H78.8164L93.5644 180.6C94.3738 182.781 95.5463 184.81 97.0324 186.6C97.847 187.276 98.8662 187.657 99.9244 187.68V188.796H80.1004V187.68H80.9164C82.0721 187.777 83.232 187.549 84.2644 187.02C84.4821 186.862 84.6566 186.651 84.7719 186.408C84.8873 186.165 84.9397 185.897 84.9244 185.628C84.9214 185.249 84.8607 184.873 84.7444 184.512C84.7444 184.332 84.4084 183.576 83.8444 182.256L81.6724 177.108ZM80.6404 174.876L74.5564 160.8L68.2804 174.876H80.6404Z" fill="#E0E0E0"/>
<path d="M258.492 563.256C256.548 561.588 252.204 556.296 255.552 550.14C256.752 547.884 259.392 546.768 261.744 545.772C264.179 544.951 266.474 543.761 268.548 542.244C272.232 539.112 273.252 533.904 275.748 529.716C278.556 524.916 283.788 521.316 289.332 521.58C295.668 521.868 300.96 527.04 303.36 532.944C305.76 538.848 305.832 545.412 305.892 551.784C305.892 555.312 305.76 559.284 303.168 561.672C300.768 563.868 297.168 563.892 293.952 563.796L259.2 562.728" fill="#F5F5F5"/>
<path d="M324.769 468H233.641L250.057 565.884C250.398 567.922 251.309 569.822 252.686 571.364C254.062 572.906 255.846 574.026 257.833 574.596L258.157 574.692C258.433 574.752 258.685 574.848 258.973 574.896C259.582 575.017 260.2 575.09 260.821 575.112V575.208L261.265 575.136H301.885C302.634 575.134 303.382 575.058 304.117 574.908C306.494 574.54 308.685 573.401 310.352 571.667C312.019 569.932 313.071 567.698 313.345 565.308L321.253 497.856L321.613 495.18L324.745 468.468L324.769 468ZM307.585 530.4H298.225L299.173 501.996H309.973L307.585 530.4ZM310.921 501.996H319.873L316.537 530.4H308.485L310.921 501.996ZM284.197 561.888L283.633 537.216H297.097L296.281 561.888H284.197ZM269.641 537.216H282.721L283.297 561.888H271.561L269.641 537.216ZM270.649 561.888H259.681C258.637 555.228 257.281 546.576 255.805 537.216H268.729L270.649 561.888ZM269.113 530.4L266.905 501.996H281.917L282.565 530.4H269.113ZM283.513 530.4L282.853 501.996H298.309L297.325 530.4H283.513ZM282.697 495.18L282.001 468.864H299.317L298.441 495.18H282.697ZM281.797 495.18H266.401L264.361 468.864H281.161L281.797 495.18ZM265.501 495.18H249.181C248.605 491.58 248.065 488.1 247.573 485.016C245.869 474.372 245.233 470.376 244.873 468.864H263.413L265.501 495.18ZM266.029 501.996L268.201 530.4H254.737C254.281 527.52 253.825 524.604 253.369 521.688C252.313 514.98 251.257 508.272 250.261 501.996H266.029ZM253.825 530.4H245.029L240.229 501.996H249.313C250.801 510.768 252.277 520.548 253.825 530.4ZM254.893 537.216C256.237 545.748 257.557 554.172 258.757 561.888H250.357L246.217 537.216H254.893ZM297.181 561.888L297.997 537.216H306.997L304.897 561.888H297.181ZM299.401 495.18L300.277 468.864H312.841L310.597 495.18H299.401ZM244.021 468.864C244.381 470.772 246.037 481.128 248.269 495.18H239.125L234.709 468.864H244.021ZM312.841 561.888H305.797L307.909 537.216H315.733L312.841 561.888ZM320.665 495.18H311.497L313.741 468.864H323.761L320.665 495.18Z" fill="#E0E0E0"/>
<path d="M571.98 577.98C571.98 578.16 449.124 578.292 297.612 578.292C146.1 578.292 23.2197 578.16 23.2197 577.98C23.2197 577.8 146.04 577.668 297.612 577.668C449.184 577.668 571.98 577.812 571.98 577.98Z" fill="#263238"/>
<path d="M480.6 45.804H86.2676V349.944H480.6V45.804Z" fill="white"/>
<path d="M448.176 238.2H109.439V248.4H448.176V238.2Z" fill="#EBEBEB"/>
<path d="M448.007 224.676H109.271V234.876H448.007V224.676Z" fill="#EBEBEB"/>
<path d="M448.007 210.972H109.271V221.172H448.007V210.972Z" fill="#EBEBEB"/>
<path d="M448.007 197.268H109.271V207.468H448.007V197.268Z" fill="#EBEBEB"/>
<path d="M448.176 252.204H109.439V262.404H448.176V252.204Z" fill="#EBEBEB"/>
<path d="M448.176 265.416H109.439V275.616H448.176V265.416Z" fill="#EBEBEB"/>
<path d="M448.176 279.168H109.439V289.368H448.176V279.168Z" fill="#EBEBEB"/>
<path d="M448.176 292.236H109.439V302.436H448.176V292.236Z" fill="#EBEBEB"/>
<path d="M448.176 304.8H109.439V315H448.176V304.8Z" fill="#EBEBEB"/>
<path d="M448.176 319.08H109.439V329.28H448.176V319.08Z" fill="#EBEBEB"/>
<path d="M480.996 45.5039H86.2676V68.1359H480.996V45.5039Z" fill="#D32222"/>
<path d="M113.856 91.56H111.456V90.672H117.348V91.56H114.948V97.8H113.94L113.856 91.56Z" fill="#263238"/>
<path d="M117.216 95.1C117.206 94.5427 117.363 93.9952 117.666 93.5271C117.968 93.0591 118.403 92.6917 118.916 92.4718C119.428 92.2519 119.994 92.1894 120.542 92.2923C121.09 92.3951 121.594 92.6587 121.992 93.0494C122.389 93.4401 122.662 93.9403 122.774 94.4863C122.886 95.0323 122.833 95.5993 122.622 96.1152C122.411 96.6311 122.052 97.0725 121.589 97.3832C121.126 97.694 120.581 97.8599 120.024 97.86C119.655 97.8767 119.286 97.817 118.941 97.6848C118.596 97.5527 118.282 97.3508 118.019 97.0918C117.755 96.8328 117.548 96.5222 117.41 96.1795C117.272 95.8368 117.206 95.4694 117.216 95.1ZM121.836 95.1C121.822 94.7432 121.703 94.3983 121.495 94.1083C121.287 93.8182 120.998 93.5956 120.664 93.4682C120.331 93.3407 119.967 93.314 119.618 93.3914C119.27 93.4687 118.951 93.6467 118.703 93.9032C118.455 94.1597 118.287 94.4836 118.221 94.8345C118.155 95.1855 118.193 95.5481 118.331 95.8774C118.469 96.2068 118.701 96.4883 118.998 96.6871C119.294 96.886 119.643 96.9934 120 96.996C120.249 97.005 120.496 96.9616 120.727 96.8687C120.958 96.7758 121.167 96.6354 121.34 96.4566C121.513 96.2779 121.647 96.0647 121.732 95.831C121.817 95.5973 121.853 95.3483 121.836 95.1Z" fill="#263238"/>
<path d="M126.443 93.0479C126.442 92.9571 126.458 92.8669 126.492 92.7825C126.526 92.6981 126.576 92.6213 126.64 92.5565C126.703 92.4917 126.779 92.4402 126.863 92.4051C126.947 92.37 127.037 92.3519 127.127 92.3519C127.312 92.3519 127.489 92.4253 127.62 92.5558C127.75 92.6863 127.823 92.8633 127.823 93.0479C127.823 93.2325 127.75 93.4095 127.62 93.5401C127.489 93.6706 127.312 93.7439 127.127 93.7439C127.037 93.7439 126.947 93.7259 126.863 93.6907C126.779 93.6556 126.703 93.6042 126.64 93.5394C126.576 93.4746 126.526 93.3977 126.492 93.3134C126.458 93.229 126.442 93.1388 126.443 93.0479ZM126.443 97.1519C126.442 97.0611 126.458 96.9709 126.492 96.8865C126.526 96.8021 126.576 96.7253 126.64 96.6605C126.703 96.5957 126.779 96.5442 126.863 96.5091C126.947 96.474 127.037 96.4559 127.127 96.4559C127.218 96.4559 127.307 96.474 127.39 96.5093C127.473 96.5445 127.549 96.5962 127.611 96.6612C127.674 96.7261 127.723 96.8031 127.755 96.8874C127.788 96.9717 127.803 97.0617 127.799 97.1519C127.803 97.2428 127.788 97.3333 127.756 97.4183C127.723 97.5033 127.675 97.581 127.612 97.6469C127.549 97.7128 127.474 97.7656 127.391 97.8022C127.308 97.8388 127.218 97.8584 127.127 97.8599C126.95 97.86 126.78 97.7913 126.652 97.6681C126.524 97.545 126.45 97.3771 126.443 97.1999V97.1519Z" fill="#263238"/>
<path d="M109.439 133.332L109.811 132.552C110.471 133.083 111.293 133.372 112.139 133.368C113.339 133.368 113.879 132.888 113.879 132.276C113.879 130.56 109.619 131.64 109.619 129.024C109.619 127.944 110.459 127.008 112.307 127.008C113.107 126.996 113.894 127.213 114.575 127.632L114.239 128.448C113.663 128.076 112.993 127.876 112.307 127.872C111.107 127.872 110.603 128.376 110.603 128.988C110.603 130.704 114.863 129.636 114.863 132.216C114.863 133.296 113.999 134.22 112.139 134.22C111.163 134.25 110.207 133.936 109.439 133.332Z" fill="#263238"/>
<path d="M121.2 128.808V134.136H120.288V133.332C120.077 133.611 119.803 133.835 119.487 133.986C119.172 134.136 118.825 134.208 118.476 134.196C118.164 134.228 117.849 134.19 117.554 134.085C117.259 133.98 116.991 133.81 116.77 133.588C116.55 133.366 116.381 133.098 116.277 132.802C116.174 132.506 116.138 132.191 116.172 131.88V128.808H117.144V131.76C117.144 132.816 117.672 133.332 118.584 133.332C118.814 133.346 119.044 133.31 119.258 133.224C119.473 133.139 119.665 133.007 119.823 132.839C119.98 132.67 120.098 132.468 120.168 132.249C120.238 132.029 120.258 131.797 120.228 131.568V128.808H121.2Z" fill="#263238"/>
<path d="M128.52 131.472C128.539 131.832 128.482 132.191 128.354 132.528C128.226 132.864 128.029 133.17 127.776 133.427C127.524 133.683 127.22 133.884 126.885 134.016C126.55 134.149 126.192 134.21 125.832 134.196C125.465 134.213 125.099 134.14 124.766 133.983C124.434 133.826 124.145 133.59 123.924 133.296V134.136H123V126.672H123.96V129.6C124.183 129.321 124.469 129.099 124.794 128.951C125.12 128.803 125.475 128.733 125.832 128.748C126.192 128.732 126.552 128.792 126.887 128.924C127.223 129.056 127.527 129.257 127.781 129.513C128.034 129.77 128.231 130.077 128.358 130.414C128.485 130.752 128.54 131.112 128.52 131.472ZM127.548 131.472C127.532 131.12 127.412 130.781 127.205 130.496C126.997 130.211 126.711 129.994 126.381 129.87C126.051 129.747 125.692 129.723 125.348 129.801C125.005 129.88 124.692 130.058 124.448 130.313C124.205 130.567 124.042 130.888 123.979 131.235C123.916 131.581 123.956 131.939 124.095 132.263C124.233 132.587 124.463 132.863 124.757 133.058C125.051 133.252 125.396 133.356 125.748 133.356C125.994 133.363 126.238 133.319 126.465 133.226C126.693 133.133 126.898 132.993 127.068 132.815C127.238 132.637 127.368 132.426 127.451 132.195C127.534 131.963 127.567 131.717 127.548 131.472Z" fill="#263238"/>
<path d="M128.016 135.828L128.328 135.084C128.55 135.257 128.826 135.346 129.108 135.336C129.624 135.336 129.912 135.012 129.912 134.4V128.808H130.872V134.4C130.899 134.633 130.874 134.869 130.799 135.092C130.724 135.314 130.601 135.517 130.438 135.686C130.275 135.855 130.076 135.985 129.856 136.068C129.637 136.151 129.402 136.183 129.168 136.164C128.757 136.183 128.352 136.065 128.016 135.828ZM129.732 127.152C129.733 127.067 129.751 126.983 129.786 126.905C129.82 126.827 129.869 126.756 129.93 126.697C129.991 126.638 130.063 126.592 130.143 126.561C130.222 126.53 130.307 126.514 130.392 126.516C130.516 126.521 130.637 126.562 130.738 126.635C130.84 126.707 130.917 126.808 130.962 126.925C131.006 127.041 131.016 127.168 130.988 127.29C130.961 127.412 130.899 127.523 130.809 127.609C130.719 127.696 130.606 127.754 130.483 127.777C130.36 127.8 130.234 127.786 130.119 127.737C130.004 127.688 129.906 127.607 129.837 127.503C129.768 127.399 129.732 127.277 129.732 127.152Z" fill="#263238"/>
<path d="M137.52 131.796H133.2C133.263 132.253 133.498 132.669 133.857 132.959C134.216 133.249 134.672 133.391 135.132 133.356C135.42 133.366 135.706 133.313 135.971 133.202C136.237 133.09 136.474 132.921 136.668 132.708L137.208 133.332C136.94 133.621 136.612 133.849 136.248 133.998C135.883 134.147 135.49 134.215 135.096 134.196C134.724 134.225 134.351 134.175 133.999 134.05C133.648 133.925 133.327 133.728 133.056 133.471C132.786 133.215 132.573 132.904 132.43 132.56C132.287 132.215 132.218 131.845 132.228 131.472C132.213 131.115 132.272 130.759 132.4 130.425C132.529 130.092 132.725 129.788 132.976 129.534C133.227 129.28 133.528 129.08 133.859 128.946C134.191 128.813 134.547 128.75 134.904 128.76C135.263 128.749 135.62 128.813 135.953 128.949C136.285 129.085 136.585 129.289 136.834 129.548C137.083 129.807 137.275 130.115 137.397 130.453C137.519 130.79 137.569 131.15 137.544 131.508C137.532 131.58 137.52 131.7 137.52 131.796ZM133.188 131.1H136.608C136.572 130.671 136.376 130.272 136.059 129.98C135.743 129.689 135.328 129.527 134.898 129.527C134.468 129.527 134.053 129.689 133.736 129.98C133.42 130.272 133.224 130.671 133.188 131.1Z" fill="#263238"/>
<path d="M138.372 131.472C138.363 131.104 138.431 130.738 138.571 130.398C138.71 130.058 138.92 129.75 139.185 129.495C139.45 129.24 139.766 129.043 140.111 128.916C140.457 128.79 140.825 128.737 141.192 128.76C141.622 128.736 142.051 128.828 142.433 129.026C142.815 129.225 143.137 129.522 143.364 129.888L142.632 130.368C142.479 130.124 142.264 129.924 142.009 129.79C141.754 129.655 141.468 129.589 141.18 129.6C140.708 129.638 140.267 129.852 139.946 130.2C139.625 130.548 139.446 131.004 139.446 131.478C139.446 131.952 139.625 132.408 139.946 132.756C140.267 133.104 140.708 133.318 141.18 133.356C141.468 133.367 141.754 133.301 142.009 133.166C142.264 133.032 142.479 132.832 142.632 132.588L143.364 133.056C143.146 133.435 142.828 133.747 142.445 133.959C142.062 134.17 141.629 134.273 141.192 134.256C140.819 134.278 140.445 134.222 140.096 134.09C139.746 133.959 139.428 133.755 139.162 133.493C138.896 133.23 138.688 132.914 138.552 132.566C138.416 132.218 138.355 131.845 138.372 131.472Z" fill="#263238"/>
<path d="M147.684 133.824C147.339 134.083 146.915 134.215 146.484 134.196C146.257 134.222 146.028 134.197 145.812 134.123C145.596 134.049 145.4 133.927 145.238 133.767C145.076 133.607 144.951 133.413 144.874 133.198C144.797 132.984 144.769 132.755 144.792 132.528V129.6H143.892V128.808H144.792V127.608H145.764V128.808H147.288V129.6H145.764V132.492C145.747 132.608 145.757 132.727 145.792 132.839C145.828 132.951 145.888 133.054 145.969 133.139C146.05 133.224 146.149 133.29 146.259 133.332C146.369 133.374 146.486 133.39 146.604 133.38C146.877 133.384 147.144 133.296 147.36 133.128L147.684 133.824Z" fill="#263238"/>
<path d="M150.984 129.468C150.982 129.378 150.998 129.288 151.032 129.204C151.066 129.121 151.116 129.044 151.18 128.981C151.244 128.917 151.32 128.866 151.404 128.833C151.488 128.799 151.577 128.782 151.668 128.784C151.756 128.784 151.844 128.802 151.926 128.836C152.007 128.871 152.081 128.922 152.143 128.986C152.205 129.049 152.253 129.125 152.284 129.208C152.316 129.291 152.331 129.379 152.328 129.468C152.331 129.557 152.316 129.646 152.285 129.73C152.253 129.813 152.205 129.89 152.144 129.954C152.082 130.019 152.008 130.071 151.927 130.107C151.845 130.143 151.757 130.162 151.668 130.164C151.577 130.164 151.487 130.146 151.403 130.111C151.319 130.076 151.243 130.024 151.18 129.959C151.116 129.895 151.066 129.818 151.032 129.733C150.998 129.649 150.982 129.559 150.984 129.468ZM150.984 133.536C150.982 133.446 150.998 133.356 151.032 133.272C151.066 133.189 151.116 133.112 151.18 133.049C151.244 132.985 151.32 132.934 151.404 132.901C151.488 132.867 151.577 132.85 151.668 132.852C151.756 132.852 151.844 132.87 151.926 132.904C152.007 132.939 152.081 132.99 152.143 133.054C152.205 133.117 152.253 133.193 152.284 133.276C152.316 133.359 152.331 133.447 152.328 133.536C152.331 133.625 152.316 133.713 152.284 133.796C152.253 133.879 152.205 133.954 152.143 134.018C152.081 134.082 152.007 134.133 151.926 134.167C151.844 134.202 151.756 134.22 151.668 134.22C151.577 134.222 151.488 134.205 151.404 134.171C151.32 134.137 151.244 134.087 151.18 134.023C151.116 133.959 151.066 133.883 151.032 133.8C150.998 133.716 150.982 133.626 150.984 133.536Z" fill="#263238"/>
<path d="M100.152 56.8199C100.152 57.2946 100.011 57.7586 99.7471 58.1533C99.4834 58.548 99.1085 58.8556 98.67 59.0372C98.2315 59.2189 97.7489 59.2664 97.2833 59.1738C96.8178 59.0812 96.3902 58.8526 96.0545 58.517C95.7189 58.1813 95.4903 57.7537 95.3977 57.2881C95.3051 56.8226 95.3526 56.34 95.5343 55.9015C95.7159 55.4629 96.0235 55.0881 96.4182 54.8244C96.8129 54.5607 97.2769 54.4199 97.7516 54.4199C98.3881 54.4199 98.9985 54.6728 99.4486 55.1229C99.8987 55.573 100.152 56.1834 100.152 56.8199Z" fill="white"/>
<path d="M108.876 56.8199C108.876 57.2946 108.735 57.7586 108.472 58.1533C108.208 58.548 107.833 58.8556 107.395 59.0372C106.956 59.2189 106.474 59.2664 106.008 59.1738C105.542 59.0812 105.115 58.8526 104.779 58.517C104.443 58.1813 104.215 57.7537 104.122 57.2881C104.03 56.8226 104.077 56.34 104.259 55.9015C104.441 55.4629 104.748 55.0881 105.143 54.8244C105.537 54.5607 106.001 54.4199 106.476 54.4199C107.113 54.4199 107.723 54.6728 108.173 55.1229C108.623 55.573 108.876 56.1834 108.876 56.8199Z" fill="white"/>
<path d="M117.6 56.8199C117.6 57.2946 117.459 57.7586 117.195 58.1533C116.932 58.548 116.557 58.8556 116.118 59.0372C115.68 59.2189 115.197 59.2664 114.732 59.1738C114.266 59.0812 113.838 58.8526 113.503 58.517C113.167 58.1813 112.939 57.7537 112.846 57.2881C112.753 56.8226 112.801 56.34 112.982 55.9015C113.164 55.4629 113.472 55.0881 113.866 54.8244C114.261 54.5607 114.725 54.4199 115.2 54.4199C115.836 54.4199 116.447 54.6728 116.897 55.1229C117.347 55.573 117.6 56.1834 117.6 56.8199Z" fill="white"/>
<path d="M178.392 176.7C178.392 176.7 178.392 176.592 178.392 176.412V175.608C178.392 174.864 178.392 173.832 178.392 172.512C178.392 169.8 178.392 165.9 178.284 160.98L178.464 161.148L107.664 161.292L107.976 160.98V168.936C107.976 171.552 107.976 174.144 107.976 176.676L107.64 176.4L158.04 176.544L172.956 176.628H176.988H178.044H178.416H178.08H177.072H173.1L158.256 176.712L107.664 176.844H107.352V161.004L107.664 160.692L178.464 160.824H178.644V161.004C178.644 165.96 178.572 169.908 178.548 172.644C178.548 173.952 178.548 174.972 178.548 175.692V176.4C178.513 176.508 178.46 176.609 178.392 176.7Z" fill="#263238"/>
<path d="M222.072 176.7C222.055 176.601 222.055 176.499 222.072 176.4C222.072 176.172 222.072 175.896 222.072 175.572C222.072 174.792 222.072 173.748 222.012 172.416C222.012 169.668 221.952 165.768 221.892 160.98L222.12 161.196L183.384 161.292L183.696 160.98V169.032C183.696 171.672 183.696 174.216 183.696 176.676L183.396 176.376L211.08 176.52L219.168 176.604H221.352H222.132C221.896 176.621 221.659 176.621 221.424 176.604H219.3L211.284 176.688L183.396 176.832H183.096V168.888C183.096 167.58 183.096 166.248 183.096 164.892V160.836L183.408 160.524L222.144 160.608H222.36V160.836C222.36 165.636 222.264 169.62 222.24 172.404C222.24 173.712 222.24 174.804 222.24 175.512C222.24 176.22 222.084 176.712 222.072 176.7Z" fill="#263238"/>
<path d="M114.899 166.8H112.355V165.876H118.499V166.8H115.955V173.292H114.899V166.8Z" fill="#263238"/>
<path d="M119.184 165.948C119.184 165.858 119.202 165.768 119.237 165.685C119.272 165.602 119.324 165.527 119.389 165.464C119.454 165.401 119.531 165.352 119.615 165.32C119.699 165.288 119.789 165.273 119.88 165.276C119.967 165.273 120.055 165.287 120.137 165.318C120.219 165.349 120.294 165.396 120.358 165.456C120.421 165.517 120.472 165.589 120.508 165.669C120.543 165.75 120.562 165.836 120.564 165.924C120.541 166.091 120.459 166.245 120.332 166.356C120.205 166.467 120.042 166.529 119.874 166.529C119.705 166.529 119.542 166.467 119.415 166.356C119.288 166.245 119.206 166.091 119.184 165.924V165.948ZM119.364 167.688H120.384V173.304H119.364V167.688Z" fill="#263238"/>
<path d="M125.484 172.98C125.139 173.242 124.717 173.381 124.284 173.376C124.044 173.404 123.801 173.378 123.573 173.3C123.345 173.222 123.138 173.093 122.966 172.924C122.794 172.754 122.663 172.549 122.581 172.321C122.5 172.094 122.471 171.852 122.496 171.612V168.528H121.548V167.688H122.496V166.488H123.516V167.688H125.124V168.528H123.516V171.6C123.516 172.212 123.828 172.548 124.392 172.548C124.682 172.551 124.964 172.458 125.196 172.284L125.484 172.98Z" fill="#263238"/>
<path d="M126.708 165.444H127.728V173.304H126.708V165.444Z" fill="#263238"/>
<path d="M134.724 170.832H130.164C130.227 171.316 130.474 171.757 130.854 172.063C131.234 172.369 131.718 172.517 132.204 172.476C132.507 172.489 132.809 172.436 133.088 172.319C133.368 172.203 133.619 172.027 133.824 171.804L134.388 172.464C134.107 172.769 133.763 173.009 133.379 173.167C132.996 173.324 132.582 173.396 132.168 173.376C131.776 173.405 131.383 173.351 131.013 173.218C130.644 173.085 130.306 172.876 130.022 172.605C129.738 172.334 129.515 172.006 129.365 171.642C129.216 171.279 129.145 170.889 129.156 170.496C129.139 170.119 129.201 169.743 129.336 169.39C129.471 169.038 129.677 168.717 129.942 168.448C130.206 168.179 130.524 167.968 130.874 167.826C131.224 167.685 131.599 167.618 131.976 167.628C132.354 167.619 132.73 167.688 133.079 167.833C133.428 167.977 133.744 168.193 134.005 168.467C134.266 168.74 134.467 169.065 134.595 169.421C134.723 169.776 134.775 170.155 134.748 170.532C134.745 170.632 134.737 170.732 134.724 170.832ZM130.164 170.1H133.764C133.694 169.673 133.475 169.285 133.145 169.005C132.815 168.725 132.397 168.571 131.964 168.571C131.531 168.571 131.113 168.725 130.783 169.005C130.453 169.285 130.234 169.673 130.164 170.1Z" fill="#263238"/>
<path d="M167.124 168.156H173.856L170.496 171.528L167.124 168.156Z" fill="#263238"/>
<path d="M209.892 168.156H216.624L213.252 171.528L209.892 168.156Z" fill="#263238"/>
<path d="M467.784 336.216C467.784 334.38 467.688 266.136 467.544 153.528L467.784 153.756L100.728 153.84L101.04 153.528C101.04 217.92 101.04 279.732 101.04 336.216L100.74 335.916L467.82 336.216L100.74 336.504H100.452V336.216C100.452 279.732 100.452 217.92 100.452 153.528V153.216H100.788L467.844 153.3H468V153.528C467.868 266.136 467.784 334.38 467.784 336.216Z" fill="#E0E0E0"/>
<path d="M467.784 146.556C467.784 146.556 467.784 145.836 467.784 144.48C467.784 143.124 467.784 141.096 467.784 138.48C467.784 133.188 467.784 125.388 467.712 115.344L467.844 115.464L100.224 115.656L100.536 115.344V146.544L100.224 146.232L361.176 146.364L439.296 146.448H460.464H465.96C467.16 146.448 467.856 146.448 467.856 146.448H466.008H460.548H439.452L361.452 146.544L100.272 146.676H99.8398V114.996H100.164L467.784 115.2H467.904V115.32C467.904 125.4 467.844 133.212 467.832 138.528C467.832 141.156 467.832 143.172 467.832 144.528C467.832 145.884 467.784 146.556 467.784 146.556Z" fill="#E0E0E0"/>
<path d="M467.784 108.708C467.784 108.708 467.784 108 467.784 106.632C467.784 105.264 467.784 103.248 467.784 100.632C467.784 95.3399 467.784 87.5519 467.712 77.5079L467.844 77.628L100.224 77.8199L100.536 77.5079V108.708L100.224 108.396L361.176 108.528L439.296 108.624H460.464H465.96H467.856H466.008H460.548H439.452L361.452 108.72L100.272 108.852H99.8398V77.1479H100.164L467.784 77.3399H467.904V77.4719C467.904 87.5399 467.844 95.3639 467.832 100.668C467.832 103.308 467.832 105.312 467.832 106.668C467.832 108.024 467.784 108.708 467.784 108.708Z" fill="#E0E0E0"/>
<path d="M372.215 162.372C371.636 162.352 371.071 162.557 370.639 162.944C370.208 163.331 369.942 163.87 369.899 164.448V172.584C370.031 173.345 370.427 174.034 371.018 174.531C371.608 175.029 372.355 175.301 373.127 175.301C373.899 175.301 374.647 175.029 375.237 174.531C375.828 174.034 376.224 173.345 376.355 172.584V166.02H375.719V172.308C375.657 172.959 375.354 173.563 374.871 174.002C374.387 174.442 373.757 174.685 373.103 174.685C372.45 174.685 371.82 174.442 371.336 174.002C370.852 173.563 370.55 172.959 370.487 172.308V164.52C370.487 164.071 370.666 163.641 370.983 163.324C371.3 163.006 371.731 162.828 372.179 162.828C372.628 162.828 373.059 163.006 373.376 163.324C373.693 163.641 373.871 164.071 373.871 164.52V171.12C373.81 171.322 373.686 171.5 373.516 171.626C373.346 171.752 373.141 171.82 372.929 171.82C372.718 171.82 372.512 171.752 372.343 171.626C372.173 171.5 372.048 171.322 371.987 171.12V166.032H371.363V170.892V171.12C371.44 171.474 371.636 171.79 371.917 172.017C372.199 172.244 372.55 172.368 372.911 172.368C373.273 172.368 373.624 172.244 373.906 172.017C374.187 171.79 374.383 171.474 374.459 171.12V170.988C374.459 170.988 374.459 170.916 374.459 170.88V164.4C374.403 163.844 374.142 163.329 373.728 162.954C373.313 162.58 372.774 162.372 372.215 162.372Z" fill="#263238"/>
<path d="M286.571 165.96H277.319V167.424H286.571V165.96Z" fill="#263238"/>
<path d="M286.571 171.3H277.319V172.764H286.571V171.3Z" fill="#263238"/>
<path d="M281.951 168.72H277.319V170.184H281.951V168.72Z" fill="#263238"/>
<path d="M321.312 165.96H312.06V167.424H321.312V165.96Z" fill="#263238"/>
<path d="M321.312 171.3H312.06V172.764H321.312V171.3Z" fill="#263238"/>
<path d="M321.312 168.72H316.68V170.184H321.312V168.72Z" fill="#263238"/>
<path d="M304.176 165.96H294.924V167.424H304.176V165.96Z" fill="#263238"/>
<path d="M304.176 171.3H294.924V172.764H304.176V171.3Z" fill="#263238"/>
<path d="M304.176 168.72H294.924V170.184H304.176V168.72Z" fill="#263238"/>
<path d="M344.484 172.284H336.912V166.068H340.836V167.376H338.232V170.964H343.176V169.668H344.484V172.284Z" fill="#263238"/>
<path d="M348.839 172.284H345.623V170.964H347.531V167.376H342.587V169.056H341.279V166.068H348.839V172.284Z" fill="#263238"/>
<path d="M351.912 168.684H355.944L353.928 170.556L351.912 168.684Z" fill="#263238"/>
<path d="M260.784 169.32V165.828H261.984V169.272C261.984 170.544 262.56 171.096 263.556 171.096C264.552 171.096 265.116 170.544 265.116 169.272V165.828H266.244V169.32C266.269 169.691 266.217 170.062 266.092 170.412C265.968 170.762 265.772 171.082 265.519 171.353C265.265 171.624 264.958 171.84 264.618 171.988C264.277 172.136 263.91 172.212 263.538 172.212C263.167 172.212 262.799 172.136 262.459 171.988C262.118 171.84 261.811 171.624 261.558 171.353C261.304 171.082 261.109 170.762 260.984 170.412C260.859 170.062 260.807 169.691 260.832 169.32H260.784Z" fill="#263238"/>
<path d="M250.404 165.132H251.436L249.984 172.332H248.952L250.404 165.132Z" fill="#263238"/>
<path d="M240.696 170.4C240.696 171.6 239.664 172.38 237.72 172.38H233.832V165.18H237.516C239.412 165.18 240.348 165.96 240.348 167.076C240.352 167.402 240.263 167.722 240.09 167.998C239.918 168.275 239.67 168.496 239.376 168.636C239.758 168.746 240.094 168.978 240.332 169.296C240.571 169.615 240.698 170.002 240.696 170.4ZM235.896 166.632V168H237.3C237.984 168 238.332 167.772 238.332 167.304C238.332 166.836 237.984 166.608 237.3 166.608L235.896 166.632ZM238.68 170.172C238.68 169.68 238.308 169.44 237.612 169.44H235.896V170.904H237.6C238.26 170.88 238.632 170.64 238.632 170.148L238.68 170.172Z" fill="#263238"/>
<path d="M271.715 177.132C271.407 174.379 271.303 171.608 271.403 168.84C271.303 166.068 271.407 163.293 271.715 160.536C272.031 163.292 272.135 166.068 272.027 168.84C272.135 171.608 272.031 174.38 271.715 177.132Z" fill="#E0E0E0"/>
<path d="M326.712 177.132C326.396 174.38 326.292 171.608 326.4 168.84C326.292 166.068 326.396 163.292 326.712 160.536C327.02 163.293 327.125 166.068 327.024 168.84C327.124 171.608 327.02 174.379 326.712 177.132Z" fill="#E0E0E0"/>
<path d="M360 177.468C359.691 174.716 359.587 171.944 359.688 169.176C359.587 166.408 359.691 163.637 360 160.884C360.309 163.637 360.413 166.408 360.312 169.176C360.412 171.944 360.308 174.716 360 177.468Z" fill="#E0E0E0"/>
<path d="M385.2 176.976C384.891 174.223 384.787 171.452 384.888 168.684C384.787 165.912 384.891 163.137 385.2 160.38C385.524 163.135 385.632 165.912 385.524 168.684C385.632 171.452 385.523 174.225 385.2 176.976Z" fill="#E0E0E0"/>
<path d="M267.456 172.932C264.993 173.348 262.478 173.348 260.016 172.932C262.478 172.516 264.993 172.516 267.456 172.932Z" fill="#263238"/>
<path d="M194.712 165.132V172.332H193.692V166.008H192.06V165.108L194.712 165.132Z" fill="#263238"/>
<path d="M201.36 171.456V172.356H196.176V171.6L199.116 168.768C199.884 168.024 200.028 167.568 200.028 167.124C200.028 166.38 199.5 165.924 198.492 165.924C198.145 165.905 197.798 165.966 197.478 166.101C197.158 166.236 196.872 166.442 196.644 166.704L195.936 166.104C196.267 165.738 196.676 165.45 197.133 165.261C197.589 165.072 198.082 164.987 198.576 165.012C200.088 165.012 201.048 165.78 201.048 167.016C201.034 167.461 200.918 167.896 200.71 168.289C200.502 168.682 200.207 169.023 199.848 169.284L197.64 171.408L201.36 171.456Z" fill="#263238"/>
<path d="M467.784 184.932C467.784 185.1 385.464 185.244 283.944 185.244C182.424 185.244 100.092 185.1 100.092 184.932C100.092 184.764 182.388 184.62 283.944 184.62C385.5 184.62 467.784 184.8 467.784 184.932Z" fill="#E0E0E0"/>
<path d="M445.104 203.136C445.104 203.304 370.356 203.448 278.16 203.448C185.964 203.448 111.204 203.304 111.204 203.136C111.204 202.968 186 202.8 278.16 202.8C370.32 202.8 445.104 202.956 445.104 203.136Z" fill="#263238"/>
<path d="M445.104 216.66C445.104 216.84 370.356 216.972 278.16 216.972C185.964 216.972 111.204 216.84 111.204 216.66C111.204 216.48 185.94 216.348 278.16 216.348C370.38 216.348 445.104 216.492 445.104 216.66Z" fill="#263238"/>
<path d="M445.104 230.196C445.104 230.364 370.356 230.508 278.16 230.508C185.964 230.508 111.204 230.4 111.204 230.196C111.204 229.992 185.94 229.884 278.16 229.884C370.38 229.884 445.104 230.016 445.104 230.196Z" fill="#263238"/>
<path d="M445.104 243.72C445.104 243.9 370.356 244.032 278.16 244.032C185.964 244.032 111.204 243.9 111.204 243.72C111.204 243.54 185.94 243.408 278.16 243.408C370.38 243.408 445.104 243.6 445.104 243.72Z" fill="#263238"/>
<path d="M445.104 257.256C445.104 257.424 370.356 257.568 278.16 257.568C185.964 257.568 111.204 257.424 111.204 257.256C111.204 257.088 185.94 256.944 278.16 256.944C370.38 256.944 445.104 257.076 445.104 257.256Z" fill="#263238"/>
<path d="M445.104 270.78C445.104 270.96 370.356 271.092 278.16 271.092C185.964 271.092 111.204 270.96 111.204 270.78C111.204 270.6 185.94 270.468 278.16 270.468C370.38 270.468 445.104 270.612 445.104 270.78Z" fill="#263238"/>
<path d="M445.104 284.316C445.104 284.484 370.356 284.628 278.16 284.628C185.964 284.628 111.204 284.484 111.204 284.316C111.204 284.148 185.94 284.004 278.16 284.004C370.38 284.004 445.104 284.136 445.104 284.316Z" fill="#263238"/>
<path d="M445.343 297.36C445.343 297.528 370.595 297.672 278.399 297.672C186.203 297.672 111.443 297.528 111.443 297.36C111.443 297.192 186.179 297.048 278.399 297.048C370.619 297.048 445.343 297.192 445.343 297.36Z" fill="#263238"/>
<path d="M445.584 310.404C445.584 310.584 370.836 310.716 278.652 310.716C186.468 310.716 111.684 310.584 111.684 310.404C111.684 310.224 186.42 310.092 278.652 310.092C370.884 310.092 445.584 310.236 445.584 310.404Z" fill="#263238"/>
<path d="M111.936 323.448C111.936 323.28 186.684 323.136 278.868 323.136C371.052 323.136 445.824 323.28 445.824 323.448C445.824 323.616 371.088 323.76 278.868 323.76C186.648 323.76 111.936 323.628 111.936 323.448Z" fill="#263238"/>
<path d="M480.6 349.944C480.6 347.808 480.504 229.524 480.348 45.804L480.6 46.068H86.3038L86.6158 45.756C86.6158 155.316 86.6158 258.972 86.6158 349.896L86.3398 349.62L480.672 349.896L86.3398 350.184H86.0518V349.896C86.0518 258.972 86.0518 155.316 86.0518 45.756V45.444H86.3998L480.6 45.6H480.864V45.852C480.708 229.524 480.6 347.808 480.6 349.944Z" fill="#263238"/>
<path d="M326.399 140.244V166.404C326.399 168.721 327.32 170.943 328.958 172.581C330.596 174.22 332.818 175.14 335.135 175.14H367.199C367.665 175.14 368.124 175.248 368.541 175.457C368.958 175.665 369.32 175.967 369.599 176.34L377.447 193.44L386.903 176.64C387.189 176.321 387.538 176.065 387.929 175.889C388.32 175.713 388.743 175.622 389.171 175.62H422.771C425.084 175.591 427.291 174.647 428.909 172.994C430.526 171.34 431.422 169.113 431.399 166.8V140.076C431.399 138.928 431.173 137.792 430.733 136.732C430.293 135.672 429.648 134.709 428.836 133.899C428.023 133.088 427.059 132.446 425.997 132.009C424.936 131.572 423.799 131.349 422.651 131.352L335.171 131.508C334.021 131.503 332.881 131.726 331.817 132.163C330.753 132.599 329.786 133.242 328.971 134.054C328.156 134.866 327.509 135.83 327.068 136.893C326.627 137.955 326.399 139.094 326.399 140.244Z" fill="#D32222"/>
<path d="M348.408 162.84H342.936V157.68L355.536 143.916L355.788 143.856C356.458 143.585 357.189 143.496 357.905 143.597C358.621 143.698 359.298 143.986 359.868 144.432C361.464 145.896 361.068 148.572 360.972 148.872V149.136L348.408 162.84ZM344.808 161.028H347.664L359.292 148.308C359.372 147.866 359.362 147.413 359.261 146.975C359.16 146.538 358.97 146.125 358.704 145.764C358.392 145.556 358.036 145.427 357.664 145.387C357.292 145.348 356.916 145.399 356.568 145.536L344.808 158.376V161.028Z" fill="white"/>
<path d="M384 159.36V161.148H373.596V146.82H383.712V148.596H375.648V153H382.848V154.8H375.648V159.42L384 159.36Z" fill="white"/>
<path d="M397.2 145.956V161.148H395.316V159.42C394.873 160.021 394.288 160.504 393.615 160.826C392.941 161.148 392.198 161.3 391.452 161.268C390.028 161.202 388.684 160.589 387.7 159.558C386.715 158.527 386.166 157.156 386.166 155.73C386.166 154.304 386.715 152.933 387.7 151.902C388.684 150.871 390.028 150.258 391.452 150.192C392.176 150.166 392.896 150.31 393.555 150.612C394.213 150.914 394.792 151.366 395.244 151.932V145.932L397.2 145.956ZM395.256 155.724C395.212 155.023 394.963 154.351 394.542 153.79C394.12 153.229 393.544 152.803 392.883 152.565C392.223 152.327 391.507 152.288 390.824 152.451C390.142 152.615 389.522 152.974 389.041 153.486C388.56 153.997 388.239 154.638 388.118 155.329C387.996 156.021 388.08 156.733 388.358 157.377C388.635 158.022 389.096 158.571 389.682 158.958C390.268 159.344 390.954 159.551 391.656 159.552C392.147 159.55 392.632 159.447 393.081 159.251C393.531 159.054 393.935 158.768 394.27 158.41C394.605 158.051 394.863 157.628 395.029 157.166C395.194 156.704 395.263 156.214 395.232 155.724H395.256Z" fill="white"/>
<path d="M400.571 146.94C400.57 146.767 400.603 146.596 400.669 146.436C400.735 146.277 400.832 146.132 400.956 146.011C401.079 145.89 401.225 145.795 401.386 145.732C401.547 145.669 401.719 145.639 401.891 145.644C402.227 145.628 402.555 145.745 402.805 145.969C403.054 146.194 403.205 146.509 403.223 146.844C403.228 147.02 403.197 147.195 403.132 147.358C403.067 147.521 402.969 147.669 402.844 147.793C402.719 147.917 402.57 148.013 402.406 148.077C402.242 148.141 402.067 148.171 401.891 148.164C401.724 148.17 401.558 148.144 401.401 148.086C401.244 148.028 401.1 147.939 400.978 147.826C400.855 147.712 400.756 147.575 400.686 147.423C400.617 147.271 400.578 147.107 400.571 146.94ZM400.919 150.288H402.875V161.088H400.919V150.288Z" fill="white"/>
<path d="M412.728 160.512C412.039 161.034 411.191 161.301 410.328 161.268C409.867 161.321 409.401 161.269 408.963 161.118C408.525 160.967 408.127 160.719 407.798 160.393C407.468 160.067 407.216 159.671 407.06 159.235C406.904 158.799 406.848 158.333 406.896 157.872V151.872H405.048V150.252H406.896V147.852H408.852V150.252H411.972V151.872H408.852V157.752C408.819 157.989 408.84 158.23 408.912 158.458C408.984 158.686 409.106 158.895 409.27 159.069C409.433 159.244 409.633 159.38 409.856 159.468C410.078 159.556 410.317 159.592 410.556 159.576C411.111 159.58 411.651 159.398 412.092 159.06L412.728 160.512Z" fill="white"/>
<path d="M137.184 544.44C134.04 544.284 133.116 539.856 134.292 536.94C135.468 534.024 137.76 531.432 137.796 528.288C137.796 525.564 136.092 523.092 135.924 520.368C135.624 515.46 140.376 511.452 140.58 506.544C140.736 502.704 138.072 499.056 138.72 495.276C139.404 491.22 143.64 488.568 144.612 484.56C145.644 480.312 142.692 475.8 143.82 471.576C144.948 467.352 149.916 464.256 149.208 459.96C148.791 458.578 148.298 457.22 147.732 455.892C146.844 452.688 148.596 449.328 150.72 446.76C152.844 444.192 155.448 441.96 156.72 438.852C158.748 434.148 157.344 428.412 159.72 423.876C161.712 420.108 166.128 417.564 166.68 413.34C168.912 417.144 166.68 421.98 167.232 426.372C167.568 429.228 169.056 431.808 169.956 434.544C170.871 437.341 171.196 440.298 170.909 443.227C170.622 446.156 169.729 448.994 168.288 451.56C166.368 454.932 163.416 458.124 163.56 462C163.74 466.692 168.444 470.1 169.272 474.72C170.472 481.332 163.416 487.284 164.388 493.92C164.64 495.636 165.42 497.256 165.588 498.984C166.08 504.864 159.42 509.016 158.388 514.836C157.644 519.108 160.116 523.524 159.096 527.748C158.304 531 155.496 533.916 156.18 537.192C156.654 538.562 157.256 539.884 157.98 541.14C158.519 542.424 158.692 543.833 158.481 545.209C158.269 546.586 157.68 547.877 156.78 548.94C155.845 549.97 154.606 550.677 153.243 550.957C151.879 551.238 150.462 551.078 149.196 550.5" fill="#D32222"/>
<g opacity="0.5">
<path d="M158.016 541.2C157.292 539.944 156.69 538.622 156.216 537.252C155.532 533.976 158.34 531.06 159.132 527.808C160.152 523.584 157.68 519.168 158.424 514.896C159.444 509.076 166.104 504.924 165.624 499.044C165.468 497.316 164.688 495.696 164.424 493.98C163.452 487.332 170.496 481.38 169.308 474.78C168.48 470.16 163.788 466.752 163.596 462.06C163.452 458.184 166.404 454.992 168.324 451.62C169.765 449.054 170.658 446.216 170.945 443.287C171.232 440.358 170.908 437.401 169.992 434.604C169.092 431.868 167.592 429.288 167.268 426.432C166.764 422.04 168.948 417.204 166.716 413.4C166.164 417.624 161.748 420.168 159.756 423.936C157.356 428.472 158.784 434.208 156.756 438.912C155.448 441.972 152.844 444.252 150.756 446.82C148.668 449.388 146.88 452.748 147.768 455.952C148.335 457.28 148.827 458.638 149.244 460.02C149.952 464.316 144.984 467.412 143.856 471.636C142.728 475.86 145.68 480.372 144.648 484.62C143.676 488.628 139.44 491.28 138.756 495.336C138.108 499.116 140.772 502.764 140.616 506.604C140.412 511.512 135.66 515.52 135.96 520.428C136.128 523.152 137.856 525.624 137.832 528.348C137.832 531.492 135.432 534.084 134.328 537C133.224 539.916 134.076 544.344 137.22 544.5L149.292 550.572C150.558 551.15 151.976 551.31 153.339 551.029C154.702 550.749 155.941 550.042 156.876 549.012C157.769 547.942 158.348 546.646 158.549 545.267C158.75 543.888 158.566 542.48 158.016 541.2Z" fill="white"/>
</g>
<path d="M153.925 538.284C153.093 536.881 152.676 535.27 152.725 533.64C153.049 531.84 156.085 530.268 156.841 527.22C157.813 523.26 156.049 516.276 156.841 512.28C157.861 506.868 163.465 503.304 163.237 497.88C163.165 496.296 163.393 492.072 163.237 490.512C162.637 484.452 167.965 480.384 167.185 474.36C166.645 470.16 162.289 465.228 162.277 460.92C162.277 457.32 164.833 454.236 166.525 451.008C169.089 446.165 169.773 440.545 168.445 435.228C167.785 432.768 166.633 430.428 166.453 427.884C166.165 423.876 168.133 419.268 166.453 415.884C165.865 419.82 162.121 422.448 160.357 426.048C158.245 430.38 159.229 435.564 157.405 440.028C156.205 442.932 153.997 445.2 152.149 447.708C150.301 450.216 148.753 453.408 149.389 456.312C149.818 457.491 150.183 458.693 150.481 459.912C150.937 463.836 146.725 467.004 145.681 470.964C144.637 474.924 146.881 478.884 145.921 482.868C144.997 486.612 141.325 491.7 140.629 495.48C139.969 499.008 143.161 501.3 142.909 504.828C142.597 509.376 138.109 514.86 138.109 519.36C138.109 521.856 140.257 522.66 140.149 525.168C140.017 528.06 137.593 533.82 136.549 536.58C135.982 537.827 135.754 539.2 135.886 540.563C136.019 541.926 136.508 543.23 137.305 544.344L150.793 551.04C156.685 548.268 156.421 542.4 153.925 538.284Z" fill="#D32222"/>
<path d="M162.985 436.452C163.002 436.551 163.002 436.653 162.985 436.752C162.985 436.98 162.985 437.268 162.985 437.628C162.985 438.408 162.985 439.536 162.841 441C162.729 442.79 162.323 444.549 161.641 446.208C160.849 448.188 159.169 449.964 157.585 452.004C156.727 453.045 156.072 454.238 155.653 455.52C155.229 456.918 155.066 458.383 155.173 459.84C155.317 462.888 156.253 466.056 156.697 469.512C156.966 471.296 156.905 473.114 156.517 474.876C156.29 475.789 155.934 476.666 155.461 477.48C154.943 478.252 154.471 479.054 154.045 479.88C153.44 481.649 153.411 483.565 153.961 485.352C154.153 486.3 154.369 487.26 154.489 488.256C154.593 489.267 154.565 490.288 154.405 491.292C154.031 493.252 153.406 495.156 152.545 496.956C151.744 498.684 151.051 500.459 150.469 502.272C149.964 504 149.805 505.81 150.001 507.6C150.262 509.371 150.327 511.166 150.193 512.952C149.875 514.63 149.3 516.249 148.489 517.752C147.739 519.134 147.166 520.606 146.785 522.132C146.221 525.108 147.061 527.964 147.001 530.604C146.845 532.974 146.322 535.306 145.453 537.516C144.828 539.171 144.385 540.889 144.133 542.64C143.993 543.747 144.108 544.872 144.469 545.928C144.745 546.636 144.961 546.984 144.925 547.008C144.709 546.678 144.524 546.328 144.373 545.964C143.958 544.9 143.801 543.752 143.917 542.616C144.123 540.845 144.525 539.102 145.117 537.42C145.95 535.236 146.439 532.937 146.569 530.604C146.569 529.308 146.389 527.964 146.245 526.536C146.024 525.044 146.024 523.528 146.245 522.036C146.833 518.916 149.125 516.24 149.593 512.868C149.714 511.118 149.646 509.359 149.389 507.624C149.175 505.755 149.334 503.863 149.857 502.056C150.889 498.372 153.133 495.024 153.781 491.136C153.931 490.179 153.955 489.207 153.853 488.244C153.745 487.284 153.529 486.336 153.337 485.388C152.762 483.487 152.808 481.453 153.469 479.58C153.904 478.752 154.389 477.95 154.921 477.18C155.366 476.409 155.705 475.581 155.929 474.72C156.3 473.017 156.361 471.261 156.109 469.536C155.689 466.14 154.753 462.936 154.621 459.828C154.523 458.315 154.706 456.798 155.161 455.352C155.607 454.039 156.29 452.818 157.177 451.752C158.821 449.7 160.477 447.984 161.269 446.076C161.96 444.449 162.393 442.724 162.553 440.964C162.709 439.524 162.745 438.384 162.793 437.616C162.793 437.256 162.793 436.968 162.793 436.74C162.793 436.512 162.985 436.452 162.985 436.452Z" fill="#263238"/>
<path d="M117.913 546C113.521 546.636 111.025 540.756 111.853 536.4C112.681 532.044 115.165 527.82 114.349 523.452C113.641 519.672 110.557 516.72 109.549 512.988C107.785 506.268 113.269 499.428 112.201 492.588C111.373 487.236 106.681 482.904 106.537 477.492C106.429 471.6 111.601 466.8 111.805 460.992C112.069 454.8 106.741 449.376 107.161 443.208C107.581 437.04 113.593 431.4 111.433 425.628C110.725 423.72 109.189 422.232 108.277 420.408C106.165 416.208 107.677 411.084 109.921 406.944C112.165 402.804 115.141 398.928 116.125 394.32C117.625 387.252 114.109 379.692 116.125 372.72C117.841 366.948 123.325 362.22 122.869 356.208C127.021 360.876 125.269 368.208 127.213 374.124C128.413 377.988 131.221 381.156 133.213 384.696C135.252 388.313 136.518 392.313 136.931 396.444C137.344 400.575 136.895 404.747 135.613 408.696C133.873 413.892 130.657 419.112 131.917 424.452C133.465 430.896 140.905 434.328 143.317 440.508C146.773 449.352 138.637 459.528 141.817 468.48C142.633 470.784 144.217 472.8 144.841 475.164C147.145 483.168 139.045 490.764 139.225 499.08C139.369 505.212 144.025 510.66 143.737 516.78C143.545 521.508 140.449 526.38 142.297 530.664C143.101 532.548 144.697 533.952 145.897 535.656C146.999 537.281 147.629 539.179 147.718 541.141C147.807 543.102 147.351 545.05 146.401 546.768C145.389 548.453 143.866 549.773 142.054 550.534C140.241 551.296 138.233 551.461 136.321 551.004" fill="#D32222"/>
<g opacity="0.5">
<path d="M145.885 535.728C144.685 534.024 143.113 532.62 142.285 530.736C140.437 526.392 143.485 521.58 143.725 516.852C143.989 510.732 139.357 505.284 139.213 499.152C139.033 490.824 147.133 483.24 144.829 475.236C144.145 472.836 142.621 470.856 141.805 468.552C138.625 459.6 146.761 449.424 143.305 440.58C140.905 434.4 133.453 430.98 131.905 424.524C130.705 419.184 133.873 413.964 135.601 408.768C136.883 404.819 137.332 400.647 136.919 396.516C136.506 392.385 135.239 388.385 133.201 384.768C131.197 381.228 128.401 378.06 127.201 374.196C125.305 368.256 127.009 360.996 122.857 356.28C123.253 362.28 117.829 367.02 116.113 372.792C114.049 379.728 117.565 387.288 116.113 394.392C115.129 399 112.141 402.876 109.909 407.016C107.677 411.156 106.153 416.28 108.265 420.48C109.177 422.304 110.665 423.792 111.421 425.7C113.581 431.472 107.545 437.124 107.149 443.28C106.753 449.436 112.057 454.872 111.793 461.064C111.601 466.8 106.429 471.6 106.585 477.444C106.717 482.856 111.385 487.188 112.237 492.54C113.305 499.404 107.821 506.244 109.585 512.94C110.557 516.672 113.641 519.624 114.385 523.404C115.201 527.772 112.705 531.996 111.889 536.352C111.073 540.708 113.557 546.6 117.949 545.952L136.345 551.04C138.257 551.496 140.265 551.332 142.077 550.57C143.89 549.809 145.412 548.489 146.425 546.804C147.362 545.087 147.808 543.144 147.713 541.19C147.618 539.236 146.985 537.346 145.885 535.728Z" fill="white"/>
</g>
<path d="M139.416 532.86C138.216 531.54 136.5 528.6 136.464 526.764C136.464 524.184 140.196 521.16 140.412 516.732C140.688 510.984 136.32 501.78 136.272 496.056C136.272 488.268 142.992 481.788 141.204 474.396C140.676 472.224 139.824 466.308 139.188 464.184C136.692 455.952 142.956 448.86 140.232 440.736C138.336 435.06 130.944 429.42 129.756 423.456C128.772 418.524 131.46 413.496 132.924 408.552C135.149 401.138 134.555 393.163 131.256 386.16C129.66 382.944 127.452 380.1 126.456 376.56C124.956 371.088 126.456 364.164 123.096 359.988C123.348 365.604 118.896 370.26 117.444 375.732C115.692 382.32 118.476 389.232 117.18 395.916C116.328 400.272 113.868 404.016 111.996 407.988C110.124 411.96 108.852 416.82 110.52 420.672C111.252 422.328 112.476 423.66 113.04 425.412C114.744 430.716 109.776 436.272 109.44 442.044C109.104 447.816 113.316 452.688 113.04 458.472C112.776 463.92 109.092 471.972 109.152 477.396C109.152 482.46 114.264 484.752 114.888 489.732C115.68 496.104 110.88 504.96 112.248 511.164C113.004 514.608 116.112 515.148 116.652 518.652C117.264 522.696 115.452 531.336 114.78 535.452C114.108 539.568 114.78 542.496 117.948 546.012L138.468 551.58C145.992 546 144 537.9 139.416 532.86Z" fill="#D32222"/>
<path d="M124.092 389.304C124.575 391.392 124.927 393.508 125.148 395.64C125.453 398.147 125.359 400.686 124.872 403.164C124.519 404.706 123.975 406.197 123.252 407.604C122.52 409.116 121.632 410.628 120.852 412.272C119.941 413.959 119.358 415.804 119.136 417.708C118.932 419.77 119.102 421.851 119.64 423.852C120.672 428.052 122.844 432.252 124.44 436.848C125.292 439.238 125.699 441.764 125.64 444.3C125.569 445.616 125.319 446.916 124.896 448.164C124.387 449.363 123.942 450.589 123.564 451.836C122.952 454.392 123.912 457.032 124.968 459.516C125.496 460.776 126.048 462.048 126.48 463.392C126.9 464.755 127.142 466.167 127.2 467.592C127.204 470.399 126.861 473.197 126.18 475.92C125.537 478.536 125.056 481.189 124.74 483.864C124.614 485.157 124.614 486.459 124.74 487.752C124.898 489.021 125.167 490.274 125.544 491.496C126.392 493.868 126.972 496.327 127.272 498.828C127.309 501.24 126.96 503.642 126.24 505.944C125.563 508.068 125.16 510.27 125.04 512.496C125.104 514.57 125.472 516.624 126.132 518.592C126.739 520.433 127.252 522.303 127.668 524.196C127.987 525.941 128.072 527.721 127.92 529.488C127.812 531.156 127.62 532.716 127.428 534.168C127.018 536.637 126.885 539.145 127.032 541.644C127.145 543.22 127.621 544.748 128.424 546.108C129 547.02 129.396 547.44 129.372 547.464C128.984 547.066 128.635 546.632 128.328 546.168C127.48 544.807 126.962 543.266 126.816 541.668C126.642 539.152 126.746 536.625 127.128 534.132C127.296 532.68 127.488 531.12 127.584 529.476C127.711 527.735 127.615 525.985 127.296 524.268C126.871 522.391 126.35 520.536 125.736 518.712C125.028 516.712 124.623 514.616 124.536 512.496C124.661 510.231 125.064 507.99 125.736 505.824C126.437 503.572 126.773 501.222 126.732 498.864C126.42 496.409 125.845 493.995 125.016 491.664C124.623 490.416 124.346 489.135 124.188 487.836C124.056 486.507 124.056 485.169 124.188 483.84C124.499 481.144 124.98 478.471 125.628 475.836C126.3 473.156 126.638 470.403 126.636 467.64C126.58 466.264 126.346 464.9 125.94 463.584C125.52 462.276 124.968 461.016 124.44 459.744C123.878 458.486 123.428 457.181 123.096 455.844C122.755 454.5 122.73 453.095 123.024 451.74C123.407 450.472 123.86 449.226 124.38 448.008C124.79 446.807 125.032 445.555 125.1 444.288C125.147 441.815 124.74 439.354 123.9 437.028C122.376 432.42 120.216 428.256 119.184 423.984C118.635 421.932 118.472 419.796 118.704 417.684C118.939 415.736 119.542 413.851 120.48 412.128C121.32 410.472 122.22 408.96 122.964 407.484C123.682 406.105 124.226 404.641 124.584 403.128C125.094 400.678 125.216 398.164 124.944 395.676C124.764 393.624 124.5 392.076 124.332 390.972C124.26 390.452 124.2 390.052 124.152 389.772C124.109 389.62 124.089 389.462 124.092 389.304Z" fill="#263238"/>
<path d="M115.2 548.88C112.692 550.08 110.064 547.068 109.716 544.296C109.368 541.524 110.04 538.524 108.708 536.064C107.508 533.94 105.108 532.764 103.836 530.724C101.436 527.04 103.44 521.892 101.436 517.98C99.9005 514.944 96.2645 513.252 95.1365 510.048C93.9365 506.604 96.0485 502.704 95.1365 499.188C94.1045 495.432 89.8685 493.188 88.9205 489.444C87.9725 485.7 90.4925 481.128 88.0805 478.092C87.1611 477.206 86.1958 476.369 85.1885 475.584C83.1125 473.472 83.0165 470.112 83.5685 467.184C84.1205 464.256 85.1405 461.376 84.8405 458.424C84.3725 453.9 80.8085 450.024 80.7005 445.512C80.6165 441.72 82.9445 437.844 81.5525 434.328C84.9245 436.308 85.3205 441.024 87.5525 444.204C89.0405 446.28 91.3085 447.636 93.1925 449.364C95.1015 451.148 96.6202 453.308 97.6529 455.708C98.6856 458.108 99.2098 460.695 99.1925 463.308C99.1925 466.752 98.2445 470.508 100.032 473.448C102.192 477.048 107.316 477.624 109.956 480.852C113.736 485.484 110.832 493.14 114.456 497.88C115.392 499.08 116.7 500.016 117.564 501.3C120.492 505.644 117.108 511.752 118.764 516.696C120.036 520.296 123.864 522.696 124.896 526.428C125.688 529.284 124.764 532.764 126.708 535.008C127.67 535.869 128.71 536.636 129.816 537.3C130.779 538.07 131.512 539.089 131.935 540.246C132.358 541.404 132.456 542.655 132.216 543.864C131.955 545.048 131.332 546.12 130.433 546.933C129.534 547.746 128.404 548.259 127.2 548.4" fill="#D32222"/>
<g opacity="0.5">
<path d="M129.925 537.324C128.819 536.66 127.778 535.893 126.817 535.032C124.873 532.788 125.797 529.308 125.005 526.452C123.973 522.732 120.205 520.368 118.873 516.72C117.157 511.776 120.541 505.668 117.673 501.324C116.809 500.04 115.501 499.128 114.565 497.904C110.965 493.164 113.845 485.508 110.065 480.876C107.425 477.648 102.301 477.036 100.141 473.472C98.3529 470.52 99.2649 466.776 99.3009 463.332C99.3182 460.719 98.794 458.131 97.7613 455.732C96.7286 453.332 95.2099 451.172 93.3009 449.388C91.4169 447.66 89.1489 446.304 87.6609 444.228C85.3689 441.048 84.9729 436.332 81.6609 434.352C83.0529 437.868 80.7249 441.744 80.8089 445.536C80.9169 450.084 84.4809 453.936 84.9489 458.448C85.2489 461.4 84.2169 464.292 83.6769 467.208C83.1369 470.124 83.2209 473.472 85.2969 475.608C86.3042 476.393 87.2695 477.23 88.1889 478.116C90.5889 481.152 88.0809 485.7 89.0289 489.468C89.9769 493.236 94.2129 495.468 95.2449 499.212C96.2169 502.728 94.0449 506.628 95.2449 510.072C96.3729 513.276 100.045 514.968 101.545 518.004C103.513 521.916 101.545 527.064 103.945 530.748C105.241 532.788 107.653 533.964 108.817 536.088C110.149 538.488 109.465 541.56 109.825 544.32C110.185 547.08 112.801 550.128 115.309 548.904L127.309 548.388C128.541 548.291 129.711 547.806 130.649 547.001C131.587 546.197 132.245 545.115 132.529 543.912C132.75 542.68 132.623 541.411 132.163 540.248C131.704 539.084 130.928 538.072 129.925 537.324Z" fill="white"/>
</g>
<path d="M125.497 536.868C124.247 536.136 123.228 535.067 122.557 533.784C122.029 532.248 123.757 529.716 122.977 527.016C122.029 523.524 117.637 518.868 116.497 515.448C114.961 510.792 117.769 505.608 115.297 501.528C114.553 500.328 112.897 496.956 112.105 495.804C109.033 491.364 111.409 485.904 108.205 481.572C105.973 478.536 100.453 476.592 98.6048 473.256C97.0688 470.484 97.6928 466.968 97.6208 463.716C97.5176 458.848 95.6202 454.19 92.2928 450.636C90.7208 449.028 88.8488 447.744 87.5768 445.836C85.6208 442.848 85.1768 438.432 82.3688 436.572C83.5688 439.884 81.8288 443.532 82.0208 447.084C82.2488 451.368 85.2488 454.968 85.7648 459.216C86.1008 461.988 85.3448 464.712 84.9968 467.448C84.6488 470.184 84.8168 473.34 86.5688 475.32C87.3248 476.172 88.3088 476.736 88.9688 477.72C91.0088 480.564 89.1008 484.848 89.9888 488.376C90.8768 491.904 94.3688 494.004 95.3168 497.52C96.2168 500.832 95.5688 506.364 96.6488 509.592C97.6688 512.616 101.137 513.012 102.469 515.868C104.173 519.528 103.009 525.756 105.025 529.212C106.153 531.12 108.109 530.844 109.117 532.812C110.317 535.116 110.869 540.624 111.241 543.228C111.349 544.434 111.772 545.591 112.466 546.583C113.161 547.574 114.104 548.366 115.201 548.88L128.557 548.244C132.001 543.42 129.229 538.992 125.497 536.868Z" fill="#D32222"/>
<path d="M88.5723 453.912C88.5723 453.912 88.5723 453.972 88.7283 454.128L89.1123 454.8C89.4483 455.4 89.9403 456.288 90.4683 457.476C91.1388 458.906 91.5802 460.433 91.7763 462C91.8331 464.103 91.6152 466.205 91.1283 468.252C90.9013 469.441 90.9013 470.663 91.1283 471.852C91.402 473.132 91.9062 474.352 92.6163 475.452C94.0443 477.756 96.1443 479.808 97.9803 482.304C98.9628 483.574 99.7032 485.014 100.164 486.552C100.383 487.361 100.488 488.198 100.476 489.036C100.397 489.833 100.369 490.635 100.392 491.436C100.687 493.066 101.489 494.561 102.684 495.708C103.248 496.356 103.884 497.016 104.352 497.748C104.855 498.492 105.259 499.299 105.552 500.148C106.107 501.834 106.445 503.584 106.56 505.356C106.675 507.041 106.9 508.716 107.232 510.372C107.6 511.971 108.29 513.477 109.26 514.8C110.208 516.067 111.013 517.436 111.66 518.88C112.152 520.321 112.407 521.833 112.416 523.356C112.436 524.751 112.63 526.137 112.992 527.484C113.832 530.028 115.716 531.888 116.808 533.976C117.709 535.872 118.308 537.896 118.584 539.976C118.815 541.532 119.218 543.057 119.784 544.524C120.155 545.438 120.725 546.258 121.452 546.924C121.738 547.123 122.01 547.339 122.268 547.572C121.959 547.412 121.666 547.223 121.392 547.008C120.612 546.361 119.995 545.538 119.592 544.608C119.007 543.123 118.588 541.577 118.344 540C118.051 537.946 117.439 535.95 116.532 534.084C115.464 532.068 113.532 530.232 112.62 527.544C111.708 524.856 112.344 521.796 111.252 518.988C110.599 517.581 109.795 516.249 108.852 515.016C107.874 513.655 107.177 512.113 106.8 510.48C106.02 507.18 106.308 503.616 105.132 500.328C104.834 499.522 104.431 498.76 103.932 498.06C103.44 497.364 102.864 496.716 102.3 496.056C101.032 494.828 100.191 493.225 99.9003 491.484C99.8789 490.647 99.9069 489.81 99.9843 488.976C100.007 488.167 99.9141 487.359 99.7083 486.576C99.26 485.097 98.5486 483.711 97.6083 482.484C95.8203 480.084 93.7203 477.948 92.2683 475.584C91.5436 474.45 91.0313 473.193 90.7563 471.876C90.5282 470.655 90.5282 469.401 90.7563 468.18C91.2682 466.165 91.5142 464.091 91.4883 462.012C91.3211 460.456 90.9164 458.934 90.2883 457.5C89.7843 456.3 89.3283 455.412 89.0883 454.788C88.9563 454.512 88.8363 454.284 88.7523 454.092C88.6868 454.038 88.6265 453.977 88.5723 453.912Z" fill="#263238"/>
<path d="M169.752 524.196H89.6885V538.392H169.752V524.196Z" fill="#455A64"/>
<path d="M95.6641 535.572L105.396 577.98H153.12L163.776 535.572H95.6641Z" fill="#455A64"/>
<path d="M169.704 538.404C169.704 538.56 151.704 538.692 129.372 538.692C107.04 538.692 89.04 538.56 89.04 538.404C89.04 538.248 107.04 538.128 129.372 538.128C151.704 538.128 169.704 538.248 169.704 538.404Z" fill="#263238"/>
<path d="M532.644 454.164C532.644 454.164 505.548 466.524 479.196 466.524C454.8 466.524 427.5 454.236 427.5 454.236L532.644 454.164Z" fill="#E0E0E0"/>
<path d="M476.436 564.804H486.888V455.34H476.436V564.804Z" fill="#E0E0E0"/>
<path d="M434.807 566.688H527.567V560.268H434.807V566.688Z" fill="#E0E0E0"/>
<path d="M516.695 569.448C516.693 570.849 517.106 572.219 517.883 573.385C518.659 574.551 519.764 575.46 521.058 575.998C522.351 576.535 523.775 576.677 525.149 576.405C526.523 576.134 527.786 575.46 528.777 574.471C529.769 573.481 530.444 572.219 530.718 570.846C530.993 569.472 530.853 568.048 530.318 566.753C529.782 565.459 528.875 564.353 527.71 563.574C526.545 562.796 525.176 562.38 523.775 562.38C521.9 562.38 520.101 563.124 518.773 564.449C517.446 565.775 516.699 567.572 516.695 569.448Z" fill="#263238"/>
<path d="M475.476 569.448C475.473 570.849 475.886 572.219 476.663 573.385C477.439 574.551 478.544 575.46 479.838 575.998C481.131 576.535 482.555 576.677 483.929 576.405C485.304 576.134 486.566 575.46 487.558 574.471C488.549 573.481 489.224 572.219 489.499 570.846C489.773 569.472 489.633 568.048 489.098 566.753C488.562 565.459 487.655 564.353 486.49 563.574C485.326 562.796 483.956 562.38 482.556 562.38C480.68 562.38 478.881 563.124 477.554 564.449C476.226 565.775 475.479 567.572 475.476 569.448Z" fill="#263238"/>
<path d="M427.74 569.448C427.738 570.849 428.151 572.219 428.928 573.385C429.704 574.551 430.809 575.46 432.103 575.998C433.396 576.535 434.82 576.677 436.194 576.405C437.568 576.134 438.831 575.46 439.822 574.471C440.814 573.481 441.489 572.219 441.763 570.846C442.037 569.472 441.898 568.048 441.362 566.753C440.827 565.459 439.919 564.353 438.755 563.574C437.59 562.796 436.221 562.38 434.82 562.38C432.945 562.38 431.146 563.124 429.818 564.449C428.491 565.775 427.743 567.572 427.74 569.448Z" fill="#263238"/>
<path d="M479.208 500.616H493.428V494.736H479.208V500.616Z" fill="#E0E0E0"/>
<path d="M490.836 504.732H496.008V490.608H490.836V504.732Z" fill="#E0E0E0"/>
<path d="M422.843 454.164H541.199C543.284 454.164 545.283 453.336 546.757 451.862C548.231 450.388 549.059 448.389 549.059 446.304C549.059 444.219 548.231 442.22 546.757 440.746C545.283 439.272 543.284 438.444 541.199 438.444H422.843C420.759 438.444 418.76 439.272 417.286 440.746C415.812 442.22 414.983 444.219 414.983 446.304C414.983 448.389 415.812 450.388 417.286 451.862C418.76 453.336 420.759 454.164 422.843 454.164Z" fill="#455A64"/>
<path d="M531.888 247.284C531.888 247.284 541.416 243.564 541.02 235.44C540.624 227.316 529.68 219.276 530.328 207.084C530.94 195.636 514.548 161.64 491.136 173.484C487.21 172.975 483.223 173.195 479.376 174.132C471.828 176.292 469.476 183.516 464.976 190.668C458.1 201.708 453.408 210.408 456.732 218.1C460.056 225.792 461.448 228.048 458.868 234.612C455.508 243.18 452.064 240.696 453.192 248.184L473.592 248.508L475.524 243.516L475.74 248.916L487.74 248.76L531.888 247.284Z" fill="#263238"/>
<path d="M473.651 185.496C473.903 188.652 471.839 191.496 469.751 193.896C467.663 196.296 465.347 198.696 464.951 201.876C464.183 207.42 469.631 212.544 468.551 218.04C467.975 220.98 465.575 223.356 465.155 226.332C464.735 229.308 466.355 232.008 468.239 234.192C470.123 236.376 472.487 238.176 474.239 240.54C474.239 240.54 477.779 246.288 488.639 242.544" fill="#263238"/>
<path d="M482.94 181.488L509.856 187.2C511.113 187.281 512.293 187.832 513.163 188.744C514.032 189.655 514.526 190.861 514.548 192.12L514.224 250.38C514.202 254.361 512.869 258.224 510.432 261.372L507.864 264.684C502.008 272.232 490.152 271.464 485.676 263.028C485.403 262.551 485.197 262.038 485.064 261.504C484.953 261.07 484.869 260.629 484.812 260.184L484.296 254.508C484.032 249.324 483.996 244.044 483.996 244.092C483.996 244.14 472.98 242.7 470.148 228.492C468.744 221.436 468.66 209.772 468.888 200.232C469.092 191.64 474.36 180.912 482.94 181.488Z" fill="#FFBE9D"/>
<path d="M472.98 211.2C472.995 211.678 473.195 212.131 473.537 212.464C473.88 212.797 474.338 212.985 474.816 212.988C475.054 212.996 475.292 212.956 475.515 212.869C475.737 212.783 475.94 212.652 476.111 212.485C476.281 212.318 476.416 212.118 476.507 211.897C476.598 211.676 476.643 211.439 476.64 211.2C476.624 210.722 476.424 210.269 476.082 209.936C475.74 209.603 475.282 209.415 474.804 209.412C474.565 209.404 474.327 209.444 474.105 209.531C473.882 209.617 473.679 209.748 473.509 209.915C473.338 210.082 473.203 210.283 473.112 210.503C473.021 210.724 472.976 210.961 472.98 211.2Z" fill="#263238"/>
<path d="M471.6 206.196C471.84 206.424 473.184 205.344 475.2 205.272C477.216 205.2 478.656 206.136 478.86 205.884C479.064 205.632 478.716 205.344 478.068 204.912C477.191 204.358 476.165 204.085 475.128 204.132C474.101 204.161 473.111 204.523 472.308 205.164C471.72 205.656 471.528 206.088 471.6 206.196Z" fill="#263238"/>
<path d="M490.644 210.72C490.659 211.198 490.859 211.651 491.201 211.984C491.544 212.317 492.002 212.505 492.48 212.508C492.714 212.518 492.948 212.48 493.168 212.398C493.388 212.316 493.59 212.191 493.761 212.03C493.932 211.869 494.069 211.676 494.164 211.461C494.26 211.246 494.311 211.015 494.316 210.78C494.3 210.302 494.098 209.848 493.753 209.516C493.408 209.184 492.946 209.001 492.468 209.004C492.235 208.994 492.002 209.031 491.783 209.113C491.565 209.194 491.365 209.319 491.195 209.479C491.025 209.638 490.889 209.83 490.794 210.044C490.699 210.257 490.648 210.487 490.644 210.72Z" fill="#263238"/>
<path d="M490.368 205.716C490.596 205.944 491.952 204.864 493.968 204.792C495.984 204.72 497.424 205.656 497.568 205.404C497.712 205.152 497.424 204.864 496.776 204.432C495.9 203.874 494.873 203.602 493.836 203.652C492.809 203.68 491.819 204.043 491.016 204.684C490.44 205.2 490.248 205.608 490.368 205.716Z" fill="#263238"/>
<path d="M484.452 220.704C483.398 220.423 482.314 220.27 481.224 220.248C480.72 220.248 480.24 220.14 480.144 219.804C480.084 219.284 480.18 218.758 480.42 218.292C480.852 217.092 481.296 215.76 481.764 214.404C483.612 208.86 484.932 204.324 484.716 204.252C484.5 204.18 482.808 208.608 480.948 214.14L479.676 218.052C479.385 218.674 479.317 219.378 479.484 220.044C479.568 220.216 479.689 220.368 479.839 220.488C479.988 220.609 480.162 220.694 480.348 220.74C480.627 220.806 480.914 220.834 481.2 220.824C482.285 220.93 483.378 220.889 484.452 220.704Z" fill="#263238"/>
<path d="M483.996 244.08C490.724 243.925 497.276 241.902 502.92 238.236C502.92 238.236 498.504 248.316 484.152 247.536L483.996 244.08Z" fill="#EB996E"/>
<path d="M485.472 225.42C485.832 224.937 486.307 224.552 486.855 224.301C487.402 224.049 488.003 223.939 488.604 223.98C489.04 224.004 489.466 224.115 489.857 224.306C490.249 224.498 490.598 224.767 490.884 225.096C491.161 225.413 491.334 225.808 491.379 226.226C491.424 226.645 491.339 227.067 491.136 227.436C490.832 227.801 490.428 228.067 489.973 228.202C489.518 228.336 489.033 228.333 488.58 228.192C487.635 227.906 486.758 227.433 486 226.8C485.773 226.647 485.575 226.456 485.412 226.236C485.338 226.128 485.299 226.001 485.299 225.87C485.299 225.739 485.338 225.612 485.412 225.504" fill="#EB996E"/>
<path d="M490.308 221.844C489.984 221.844 490.056 223.98 488.292 225.564C486.528 227.148 484.236 227.016 484.224 227.304C484.212 227.592 484.752 227.712 485.712 227.7C486.966 227.662 488.167 227.187 489.108 226.356C490.007 225.558 490.565 224.446 490.668 223.248C490.704 222.348 490.452 221.832 490.308 221.844Z" fill="#263238"/>
<path d="M490.475 199.86C490.691 200.388 492.647 200.064 494.975 200.244C497.303 200.424 499.187 201 499.475 200.508C499.607 200.268 499.259 199.776 498.491 199.308C497.461 198.702 496.301 198.348 495.107 198.276C493.92 198.177 492.726 198.366 491.627 198.828C490.799 199.2 490.379 199.608 490.475 199.86Z" fill="#263238"/>
<path d="M471.888 197.556C472.248 197.988 473.592 197.472 475.224 197.388C476.856 197.304 478.248 197.568 478.548 197.088C478.68 196.86 478.44 196.416 477.828 196.008C476.997 195.527 476.04 195.306 475.081 195.374C474.123 195.443 473.207 195.797 472.452 196.392C471.888 196.872 471.72 197.34 471.888 197.556Z" fill="#263238"/>
<path d="M521.76 187.2C519.768 181.332 511.728 174.9 504.156 172.008C502.02 171.214 499.726 170.938 497.463 171.203C495.199 171.467 493.031 172.266 491.136 173.532L481.536 179.892C482.035 182.235 483.157 184.4 484.783 186.159C486.409 187.919 488.479 189.207 490.776 189.888C493.176 190.584 496.164 190.728 497.652 192.804C499.14 194.88 498.372 198.048 499.8 200.232C501.768 203.256 507 203.004 508.488 206.232C509.148 207.672 508.848 209.4 509.532 210.828C510.432 212.724 515.328 215.052 517.32 214.428C519.312 213.804 519.24 210.336 519.864 208.536C520.645 206.506 520.705 204.269 520.032 202.2C519.06 198.144 523.092 191.076 521.76 187.2Z" fill="#263238"/>
<path d="M511.428 216.192C511.428 215.124 512.52 212.592 513.564 212.364C516.36 211.824 521.424 211.848 521.748 218.976C522.192 228.708 512.316 227.148 512.292 226.872C512.268 226.596 511.56 219.864 511.428 216.192Z" fill="#FFBE9D"/>
<path d="M515.1 223.044C515.1 223.044 515.268 223.152 515.568 223.272C515.975 223.44 516.433 223.44 516.84 223.272C517.848 222.852 518.64 221.184 518.604 219.42C518.593 218.586 518.392 217.765 518.016 217.02C517.906 216.728 517.727 216.467 517.496 216.258C517.264 216.05 516.986 215.899 516.684 215.82C516.486 215.777 516.278 215.805 516.098 215.899C515.918 215.993 515.777 216.148 515.7 216.336C515.592 216.612 515.7 216.804 515.604 216.816C515.508 216.828 515.388 216.672 515.448 216.264C515.494 216.018 515.621 215.794 515.808 215.628C516.069 215.419 516.399 215.316 516.732 215.34C517.134 215.403 517.513 215.567 517.835 215.817C518.156 216.067 518.408 216.394 518.568 216.768C519.025 217.591 519.272 218.515 519.288 219.456C519.288 221.424 518.388 223.308 516.996 223.776C516.738 223.862 516.464 223.889 516.195 223.855C515.925 223.822 515.666 223.73 515.436 223.584C515.124 223.284 515.064 223.068 515.1 223.044Z" fill="#EB996E"/>
<path d="M448.404 289.668L431.184 334.584L398.784 336.648L393.78 350.724L436.548 359.016C436.548 359.016 449.412 362.76 456.744 346.428L469.284 301.752L448.404 289.668Z" fill="#FFBE9D"/>
<path d="M368.028 343.668C368.215 344.05 368.511 344.368 368.878 344.581C369.245 344.795 369.668 344.895 370.092 344.868C370.272 344.854 370.449 344.818 370.62 344.76C371.82 344.364 371.736 341.868 371.736 341.868L377.604 340.908C377.604 340.908 385.236 345.828 387.96 349.092C390.684 352.356 397.56 349.716 397.56 349.716L399.96 337.2L389.16 327.432C389.16 327.432 389.832 328.008 389.076 326.232C388.32 324.456 384.936 325.092 384.936 325.092C384.408 324.192 382.188 323.892 382.188 323.892L372.72 324.984C371.746 325.087 370.808 325.409 369.977 325.927C369.146 326.444 368.442 327.144 367.92 327.972L363.912 334.308C363.912 334.308 361.788 338.88 362.136 339.948C362.296 340.382 362.609 340.742 363.015 340.963C363.421 341.184 363.893 341.249 364.344 341.148C364.344 341.148 364.812 344.148 365.544 344.256C366.372 344.218 367.186 344.027 367.944 343.692L368.028 343.668Z" fill="#FFBE9D"/>
<path d="M385.884 347.076C385.682 346.951 385.493 346.806 385.32 346.644L383.736 345.372C381.743 343.824 379.663 342.39 377.508 341.076H377.64L371.772 342.072L371.976 341.82C371.994 342.303 371.957 342.786 371.868 343.26C371.791 343.785 371.557 344.275 371.196 344.664C370.978 344.86 370.707 344.985 370.416 345.024C370.148 345.084 369.869 345.084 369.6 345.024C369.032 344.94 368.512 344.655 368.136 344.22C368.042 344.112 367.957 343.996 367.884 343.872L367.824 343.776C367.752 343.776 368.472 344.016 368.172 343.896L367.98 343.968C367.74 344.064 367.488 344.16 367.224 344.244C366.96 344.323 366.692 344.388 366.42 344.436C366.276 344.449 366.132 344.449 365.988 344.436C365.803 344.457 365.615 344.423 365.448 344.34C365.184 344.142 364.984 343.871 364.872 343.56C364.756 343.298 364.656 343.03 364.572 342.756C364.417 342.207 364.293 341.651 364.2 341.088L364.548 341.328C364.149 341.416 363.734 341.393 363.347 341.262C362.96 341.131 362.616 340.896 362.352 340.584C362.081 340.244 361.941 339.818 361.956 339.384C361.979 339.001 362.047 338.623 362.16 338.256C362.599 336.811 363.141 335.4 363.78 334.032C364.452 332.952 365.184 331.812 365.916 330.648C366.372 329.928 366.816 329.208 367.272 328.5C367.689 327.758 368.184 327.062 368.748 326.424C369.359 325.815 370.085 325.334 370.884 325.008C371.655 324.723 372.464 324.553 373.284 324.504L382.224 323.508H382.296C382.828 323.594 383.35 323.731 383.856 323.916C384.403 324.081 384.883 324.418 385.224 324.876L384.888 324.768C385.372 324.548 385.902 324.448 386.433 324.477C386.964 324.506 387.48 324.664 387.936 324.936C388.727 325.515 389.268 326.373 389.448 327.336L389.376 327.216L396.816 333.912L398.82 335.76C399.064 335.964 399.289 336.188 399.492 336.432C399.221 336.267 398.967 336.074 398.736 335.856L396.648 334.104L389.052 327.6V327.528C388.888 326.689 388.412 325.943 387.72 325.44C387.333 325.215 386.897 325.088 386.45 325.069C386.002 325.05 385.557 325.14 385.152 325.332L384.948 325.416L384.828 325.224C384.539 324.881 384.155 324.63 383.724 324.504C383.249 324.335 382.759 324.211 382.26 324.132H382.332L373.404 325.188C372.629 325.231 371.865 325.389 371.136 325.656C370.417 325.953 369.765 326.389 369.216 326.94C368.682 327.55 368.211 328.214 367.812 328.92L366.456 331.068L364.32 334.452C363.699 335.79 363.17 337.17 362.736 338.58C362.634 338.904 362.57 339.238 362.544 339.576C362.535 339.869 362.633 340.155 362.82 340.38C363.015 340.607 363.267 340.777 363.55 340.872C363.833 340.967 364.136 340.983 364.428 340.92H364.716V341.208C364.804 341.743 364.924 342.272 365.076 342.792C365.163 343.263 365.374 343.702 365.688 344.064C365.767 344.084 365.849 344.084 365.928 344.064H366.288C366.536 344.021 366.781 343.961 367.02 343.884L367.74 343.632L367.92 343.572L368.268 343.704V343.788C368.325 343.888 368.394 343.98 368.472 344.064C368.76 344.404 369.16 344.63 369.6 344.7C369.814 344.742 370.034 344.742 370.248 344.7C370.444 344.682 370.629 344.602 370.776 344.472C371.27 343.774 371.5 342.924 371.424 342.072V341.856H371.628L377.508 340.944H377.58H377.64C379.79 342.292 381.847 343.784 383.796 345.408C384.48 345.984 384.996 346.44 385.32 346.764C385.517 346.851 385.706 346.955 385.884 347.076Z" fill="#EB996E"/>
<path d="M383.364 328.392C382.397 328.827 381.376 329.13 380.328 329.292C377.756 329.818 375.126 330.008 372.504 329.856L372.816 329.652C372.66 330.12 372.492 330.612 372.288 331.092C371.178 333.863 369.549 336.396 367.488 338.556C366.866 339.201 366.2 339.802 365.496 340.356C364.98 340.74 364.692 340.932 364.656 340.896C364.62 340.86 365.688 339.936 367.164 338.256C369.084 336.062 370.625 333.564 371.724 330.864C371.916 330.384 372.084 329.904 372.24 329.46L372.324 329.232H372.552C375.13 329.387 377.716 329.267 380.268 328.872C382.188 328.596 383.34 328.296 383.364 328.392Z" fill="#EB996E"/>
<path d="M374.4 333.912C374.045 335.853 373.221 337.678 372 339.228C370.971 340.903 369.534 342.291 367.824 343.26C367.704 343.116 369.696 341.46 371.496 338.868C373.296 336.276 374.196 333.852 374.4 333.912Z" fill="#EB996E"/>
<path d="M399.468 345.912C399.468 345.912 399.372 345.984 399.168 346.08C398.867 346.226 398.554 346.346 398.232 346.44C397.026 346.817 395.76 346.963 394.5 346.872C392.561 346.743 390.697 346.069 389.124 344.928C387.122 343.454 385.689 341.335 385.068 338.928L385.416 339.156C383.158 339.581 380.852 339.691 378.564 339.48C377.714 339.397 376.869 339.269 376.032 339.096C375.195 338.963 374.384 338.696 373.632 338.304C373.215 338.079 372.892 337.714 372.72 337.272C372.652 337.043 372.631 336.803 372.658 336.566C372.685 336.329 372.759 336.1 372.876 335.892C373.111 335.488 373.494 335.191 373.944 335.064L375.036 334.8C377.916 334.104 380.544 333.6 382.752 333.252C384.96 332.904 386.76 332.7 388.008 332.592C388.652 332.507 389.303 332.474 389.952 332.496C389.327 332.663 388.689 332.776 388.044 332.832C386.844 333.012 385.02 333.288 382.824 333.684C380.628 334.08 378.024 334.632 375.18 335.352L374.1 335.64C373.951 335.677 373.812 335.745 373.692 335.84C373.572 335.935 373.474 336.055 373.404 336.192C373.325 336.324 373.275 336.472 373.256 336.625C373.238 336.778 373.251 336.933 373.296 337.08C373.421 337.387 373.657 337.635 373.956 337.776C374.654 338.129 375.403 338.368 376.176 338.484C376.993 338.652 377.818 338.776 378.648 338.856C380.879 339.062 383.128 338.961 385.332 338.556H385.608L385.68 338.832C386.192 340.869 387.319 342.7 388.908 344.074C390.497 345.448 392.47 346.299 394.56 346.512C395.766 346.625 396.982 346.54 398.16 346.26C398.589 346.12 399.026 346.004 399.468 345.912Z" fill="#EB996E"/>
<path d="M388.344 506.544C388.264 506.193 388.264 505.828 388.344 505.476C388.505 504.498 388.873 503.565 389.424 502.74C389.607 502.454 389.825 502.192 390.072 501.96C390.229 501.81 390.423 501.705 390.634 501.656C390.845 501.608 391.066 501.617 391.272 501.684C391.397 501.728 391.51 501.8 391.603 501.893C391.697 501.986 391.768 502.1 391.812 502.224C391.888 502.462 391.888 502.718 391.812 502.956C391.649 503.332 391.46 503.697 391.248 504.048C390.828 504.756 390.48 505.464 389.94 506.256C389.78 506.482 389.561 506.662 389.308 506.776C389.055 506.89 388.776 506.934 388.5 506.904C387.993 506.818 387.515 506.607 387.108 506.292C386.353 505.747 385.664 505.114 385.056 504.408C384.768 504.06 384.504 503.712 384.252 503.352C383.972 502.997 383.768 502.589 383.652 502.152C383.596 501.895 383.625 501.627 383.735 501.389C383.846 501.15 384.032 500.955 384.264 500.832C384.488 500.769 384.724 500.763 384.951 500.816C385.177 500.868 385.387 500.977 385.56 501.132C386.079 501.589 386.538 502.109 386.928 502.68C387.496 503.475 387.945 504.348 388.26 505.272C388.41 505.6 388.492 505.955 388.5 506.316C387.962 505.132 387.311 504.003 386.556 502.944C386.175 502.435 385.736 501.972 385.248 501.564C385.145 501.472 385.022 501.405 384.889 501.37C384.755 501.335 384.615 501.331 384.48 501.36C384.367 501.425 384.28 501.528 384.234 501.651C384.188 501.773 384.186 501.908 384.228 502.032C384.338 502.388 384.517 502.718 384.756 503.004C384.999 503.345 385.259 503.674 385.536 503.988C386.114 504.653 386.766 505.249 387.48 505.764C387.793 506.026 388.17 506.2 388.572 506.268C388.741 506.29 388.912 506.265 389.067 506.195C389.221 506.125 389.354 506.013 389.448 505.872C389.892 505.224 390.324 504.42 390.732 503.748C390.941 503.441 391.121 503.115 391.272 502.776C391.38 502.464 391.272 502.272 391.104 502.176C390.624 501.984 390.144 502.536 389.808 503.004C389.108 504.085 388.612 505.284 388.344 506.544Z" fill="#263238"/>
<path d="M416.16 507.504L429.972 537.432L452.256 527.136L437.964 490.092L416.16 507.504Z" fill="#FFBE9D"/>
<path d="M427.356 535.428L435.42 550.8C435.42 550.8 414.768 572.16 416.712 576.936L465.264 553.656L451.92 522.804L427.356 535.428Z" fill="#455A64"/>
<path d="M449.436 541.512C449.963 541.444 450.496 541.57 450.938 541.866C451.379 542.162 451.698 542.607 451.836 543.12C451.924 543.645 451.812 544.183 451.52 544.628C451.229 545.073 450.78 545.391 450.264 545.52C449.696 545.606 449.116 545.479 448.637 545.161C448.158 544.844 447.814 544.361 447.672 543.804C447.618 543.233 447.788 542.663 448.146 542.215C448.504 541.767 449.023 541.476 449.592 541.404" fill="#E0E0E0"/>
<g opacity="0.6">
<path d="M465.264 553.668L463.2 549.792L417.444 573.6C417.444 573.6 415.74 575.58 416.712 576.984L465.264 553.668Z" fill="white"/>
</g>
<path d="M434.52 550.944C434.64 551.184 435.876 550.716 437.412 550.944C438.948 551.172 440.04 551.844 440.22 551.652C440.4 551.46 439.38 550.248 437.52 550.032C435.66 549.816 434.4 550.8 434.52 550.944Z" fill="#263238"/>
<path d="M430.44 555.492C430.44 555.744 431.712 555.66 432.996 556.272C434.28 556.884 435.024 557.844 435.252 557.724C435.48 557.604 435 556.188 433.38 555.444C431.76 554.7 430.332 555.264 430.44 555.492Z" fill="#263238"/>
<path d="M430.464 562.98C430.704 562.98 430.464 561.576 429.264 560.58C428.064 559.584 426.672 559.596 426.672 559.836C426.672 560.076 427.68 560.448 428.676 561.288C429.672 562.128 430.224 563.064 430.464 562.98Z" fill="#263238"/>
<path d="M432.204 545.016C432.408 545.184 433.343 544.344 434.723 543.816C436.103 543.288 437.352 543.18 437.376 542.916C437.4 542.652 435.996 542.292 434.376 542.916C432.756 543.54 432 544.884 432.204 545.016Z" fill="#263238"/>
<path d="M422.807 531.432L386.399 440.4C386.399 440.4 387.215 424.8 390.071 419.94C392.927 415.08 479.663 386.4 479.663 386.4C479.663 386.4 501.755 381.084 516.479 386.4C531.203 391.716 546.623 397.068 544.979 407.364C542.555 422.4 529.523 438 529.523 438L465.755 439.896L430.955 452.568L454.355 519.648L422.807 531.432Z" fill="#263238"/>
<path d="M390.432 469.188L389.616 502.14L414.156 502.74L417.684 463.188L390.432 469.188Z" fill="#FFBE9D"/>
<path d="M388.151 499.2L388.595 516.576C388.595 516.576 360.635 526.62 360.275 531.756L414.107 532.296L415.763 498.696L388.151 499.2Z" fill="#455A64"/>
<path d="M405.264 514.392C405.782 514.556 406.221 514.905 406.497 515.372C406.774 515.839 406.869 516.391 406.764 516.924C406.615 517.44 406.275 517.879 405.814 518.153C405.353 518.427 404.804 518.516 404.28 518.4C403.731 518.228 403.266 517.857 402.975 517.36C402.684 516.863 402.589 516.275 402.708 515.712C402.915 515.185 403.318 514.759 403.833 514.521C404.347 514.284 404.933 514.255 405.468 514.44" fill="#E0E0E0"/>
<g opacity="0.6">
<path d="M414.108 532.284L414.012 527.928L362.412 529.032C362.412 529.032 360.012 530.052 360.264 531.744L414.108 532.284Z" fill="white"/>
</g>
<path d="M387.732 516.276C387.732 516.54 389.052 516.672 390.336 517.476C391.62 518.28 392.292 519.456 392.544 519.348C392.796 519.24 392.4 517.728 390.828 516.72C389.256 515.712 387.672 516 387.732 516.276Z" fill="#263238"/>
<path d="M382.056 518.556C381.996 518.808 383.124 519.264 384.012 520.392C384.9 521.52 385.14 522.684 385.404 522.684C385.668 522.684 385.848 521.184 384.72 519.816C383.592 518.448 382.068 518.304 382.056 518.556Z" fill="#263238"/>
<path d="M378.779 525.276C379.019 525.276 379.403 524.076 378.779 522.588C378.155 521.1 376.895 520.548 376.775 520.764C376.655 520.98 377.411 521.76 377.975 522.96C378.539 524.16 378.515 525.252 378.779 525.276Z" fill="#263238"/>
<path d="M388.271 510C388.379 510.24 389.579 509.88 391.067 510C392.555 510.12 393.707 510.6 393.851 510.372C393.995 510.144 392.879 509.172 391.127 509.088C389.375 509.004 388.139 509.724 388.271 510Z" fill="#263238"/>
<path d="M404.76 377.7C404.76 377.7 390.06 376.5 388.428 392.484C386.796 408.468 385.2 482.88 385.2 482.88L419.568 485.736L424.884 409.656L479.664 386.4C479.664 386.4 414.576 375.66 404.76 377.7Z" fill="#263238"/>
<path d="M465.36 356.172C465.36 356.172 456.444 381.192 458.16 383.976C459.876 386.76 482.808 398.244 482.808 398.244L540.228 420.288C540.228 420.288 546.12 410.916 546.12 396.504C546.12 382.092 526.152 356.172 526.152 356.172H465.36Z" fill="#263238"/>
<path d="M482.4 385.068L482.124 385.212L481.308 385.596L478.128 387L466.2 392.208L424.992 409.944L425.172 409.68C424.656 417.192 424.092 425.28 423.504 433.68C422.112 453.312 420.828 471.408 419.808 485.736V485.988H419.556L394.524 483.792L387.636 483.156L385.824 482.964C385.618 482.948 385.414 482.92 385.212 482.88C385.42 482.861 385.628 482.861 385.836 482.88L387.648 482.988L394.548 483.492L419.592 485.472L419.316 485.712C420.3 471.384 421.548 453.312 422.916 433.656C423.504 425.256 424.116 417.144 424.608 409.656V409.476L424.788 409.404L466.08 391.872L478.08 386.832L481.308 385.512L482.136 385.188C482.218 385.136 482.307 385.095 482.4 385.068Z" fill="#455A64"/>
<path d="M528 387.6C527.452 387.502 526.913 387.353 526.392 387.156L522.06 385.764C517.365 384.164 512.549 382.941 507.66 382.104C502.747 381.3 497.731 381.365 492.84 382.296C490.835 382.763 488.857 383.336 486.912 384.012C487.376 383.701 487.875 383.447 488.4 383.256C489.806 382.667 491.259 382.198 492.744 381.852C497.678 380.772 502.773 380.641 507.756 381.468C512.702 382.3 517.559 383.594 522.264 385.332C524.076 385.968 525.528 386.532 526.536 386.916C527.047 387.091 527.538 387.32 528 387.6Z" fill="#455A64"/>
<path d="M519.936 374.4C518.262 374.295 516.582 374.295 514.908 374.4C513.36 374.508 511.524 374.748 509.472 374.988C507.42 375.228 505.188 375.504 502.86 375.948C498.871 376.585 495.047 377.999 491.604 380.112C490.236 381.073 488.933 382.123 487.704 383.256C487.93 382.857 488.213 382.493 488.544 382.176C489.391 381.277 490.332 380.472 491.352 379.776C494.79 377.506 498.672 375.996 502.74 375.348C505.14 374.904 507.36 374.64 509.412 374.436C511.464 374.232 513.312 374.04 514.884 373.98C516.127 373.928 517.371 373.985 518.604 374.148C519.059 374.156 519.51 374.241 519.936 374.4Z" fill="#455A64"/>
<path d="M444.107 285.048C444.107 285.048 454.367 267.924 457.223 264.456C459.512 261.782 462.387 259.671 465.623 258.288C466.902 257.729 468.244 257.326 469.619 257.088L484.391 253.824C484.391 253.824 484.391 263.904 494.987 264.528C505.583 265.152 514.439 250.44 514.439 250.44C514.439 250.44 531.503 253.08 535.583 255.18C539.663 257.28 546.083 259.98 549.623 277.62L552.095 294.924L522.683 297.6L519.863 341.328L505.271 351.6C505.271 351.6 464.819 362.112 462.239 362.808C459.659 363.504 458.795 297.6 458.795 297.6C458.795 297.6 448.403 290.94 444.107 285.048Z" fill="#D32222"/>
<path d="M463.464 277.692C463.235 278.093 463.046 278.515 462.9 278.952C462.564 279.78 462.132 280.992 461.7 282.552C459.225 290.496 458.204 298.821 458.688 307.128C458.784 308.724 458.904 310.008 459.036 310.884C459.07 311.343 459.15 311.797 459.276 312.24C459.334 311.782 459.334 311.318 459.276 310.86C459.216 309.972 459.156 308.7 459.12 307.116C458.87 298.864 459.878 290.621 462.108 282.672C462.528 281.148 462.9 279.924 463.164 279.072C463.326 278.628 463.426 278.163 463.464 277.692Z" fill="#263238"/>
<path d="M523.752 276.648C523.808 277.094 523.808 277.546 523.752 277.992C523.752 278.976 523.668 280.188 523.608 281.592C523.464 284.796 523.26 288.96 523.044 293.592C522.828 298.224 522.588 302.496 522.348 305.592C522.24 307.116 522.132 308.352 522.036 309.192C522.021 309.639 521.952 310.082 521.832 310.512C521.77 310.07 521.77 309.622 521.832 309.18C521.832 308.184 521.904 306.972 521.952 305.58C522.084 302.364 522.264 298.212 522.456 293.58C522.648 288.948 522.948 284.676 523.2 281.58C523.332 280.044 523.452 278.808 523.548 277.98C523.565 277.53 523.633 277.083 523.752 276.648Z" fill="#263238"/>
<path d="M464.724 349.308L520.128 337.308L522.684 297.708L547.32 295.44C547.32 295.44 545.592 322.452 545.46 330.552C545.1 353.904 537.252 357.924 533.256 361.08C529.26 364.236 462.24 362.808 462.24 362.808L464.724 349.308Z" fill="#FFBE9D"/>
<path d="M433.272 356.484C433.459 356.866 433.755 357.184 434.122 357.397C434.49 357.611 434.912 357.711 435.336 357.684C435.52 357.661 435.7 357.621 435.876 357.564C437.076 357.18 436.992 354.684 436.992 354.684L442.86 353.724C442.86 353.724 450.492 358.644 453.204 361.908C455.916 365.172 462.804 362.532 462.804 362.532L465.204 350.016L454.404 340.248C454.404 340.248 455.064 340.824 454.32 339.048C453.576 337.272 450.18 337.908 450.18 337.908C449.652 337.008 447.432 336.708 447.432 336.708L437.952 337.8C436.98 337.902 436.043 338.223 435.212 338.739C434.38 339.254 433.676 339.95 433.152 340.776L429.144 347.124C429.144 347.124 427.032 351.696 427.368 352.752C427.526 353.187 427.838 353.549 428.245 353.77C428.652 353.991 429.125 354.056 429.576 353.952C429.576 353.952 430.044 356.964 430.836 357.06C431.645 357.023 432.439 356.832 433.176 356.496L433.272 356.484Z" fill="#FFBE9D"/>
<path d="M453.455 347.496C453.455 347.604 452.183 347.496 450.155 347.568C447.521 347.694 444.916 348.183 442.415 349.02C441.044 349.481 439.712 350.051 438.431 350.724C437.291 351.372 436.091 351.924 435.719 352.728C435.641 352.912 435.61 353.113 435.629 353.312C435.648 353.511 435.716 353.702 435.827 353.868C436.001 354.136 436.252 354.345 436.547 354.468C436.815 354.553 437.095 354.594 437.375 354.588C437.375 354.588 437.075 354.852 436.463 354.684C436.1 354.579 435.781 354.36 435.551 354.06C435.39 353.852 435.284 353.606 435.244 353.346C435.205 353.085 435.232 352.819 435.323 352.572C435.583 352.019 436 351.555 436.523 351.24C437.039 350.904 437.579 350.556 438.179 350.232C441.853 348.202 445.982 347.14 450.179 347.148C451.283 347.101 452.387 347.218 453.455 347.496Z" fill="#EB996E"/>
<path d="M454.116 353.544C454.116 353.724 450.252 353.544 445.512 353.844C440.772 354.144 436.956 354.696 436.92 354.516C437.715 354.212 438.546 354.011 439.392 353.916C441.406 353.581 443.437 353.352 445.476 353.232C447.514 353.117 449.558 353.117 451.596 353.232C452.446 353.223 453.294 353.328 454.116 353.544Z" fill="#EB996E"/>
<path d="M433.332 356.244C433.249 355.914 433.209 355.576 433.212 355.236C433.151 354.313 433.151 353.387 433.212 352.464C433.241 351.817 433.33 351.175 433.476 350.544C433.645 349.802 433.959 349.1 434.4 348.48C435.35 347.053 436.573 345.83 438 344.88C439.4 343.911 440.926 343.14 442.536 342.588C443.868 342.21 445.243 342.004 446.628 341.976C447.828 341.976 448.752 341.976 449.4 341.976C449.74 341.96 450.08 341.996 450.408 342.084C449.163 342.265 447.909 342.369 446.652 342.396C445.313 342.49 443.988 342.736 442.704 343.128C441.158 343.683 439.693 344.441 438.348 345.384C436.991 346.306 435.822 347.479 434.904 348.84C434.171 349.942 433.755 351.225 433.704 352.548C433.404 354.792 433.464 356.256 433.332 356.244Z" fill="#EB996E"/>
<path d="M447.024 339.048C447.024 339.144 445.608 339.18 443.34 339.444C441.072 339.708 437.664 339.936 435.684 342.936C433.75 345.184 432.134 347.687 430.884 350.376C430.472 351.545 430.17 352.751 429.984 353.976C429.925 353.643 429.925 353.301 429.984 352.968C430.035 352.05 430.221 351.144 430.536 350.28C431.678 347.486 433.267 344.897 435.24 342.612C435.775 341.917 436.396 341.292 437.088 340.752C437.76 340.266 438.517 339.908 439.32 339.696C440.635 339.352 441.982 339.139 443.34 339.06C444.562 338.9 445.8 338.896 447.024 339.048Z" fill="#EB996E"/>
<path d="M451.2 359.904C450.998 359.779 450.809 359.634 450.636 359.472L449.04 358.2C447.049 356.649 444.969 355.215 442.812 353.904H442.956L437.088 354.912L437.292 354.66C437.306 355.139 437.266 355.618 437.172 356.088C437.102 356.616 436.872 357.111 436.512 357.504C436.293 357.698 436.022 357.823 435.732 357.864C435.459 357.918 435.177 357.918 434.904 357.864C434.34 357.777 433.825 357.492 433.452 357.06C433.357 356.949 433.269 356.833 433.188 356.712V356.616L433.536 356.736L433.344 356.808C433.092 356.904 432.84 357 432.588 357.072C432.325 357.158 432.056 357.226 431.784 357.276C431.64 357.288 431.496 357.288 431.352 357.276C431.161 357.298 430.969 357.26 430.8 357.168C430.544 356.967 430.345 356.702 430.224 356.4C430.116 356.124 430.02 355.86 429.936 355.584C429.781 355.04 429.657 354.487 429.564 353.928L429.9 354.168C429.503 354.255 429.089 354.231 428.704 354.1C428.32 353.969 427.978 353.735 427.716 353.424C427.443 353.085 427.298 352.66 427.308 352.224C427.342 351.838 427.414 351.456 427.524 351.084C427.956 349.641 428.498 348.233 429.144 346.872L431.28 343.488L432.636 341.34C433.054 340.595 433.553 339.899 434.124 339.264C434.73 338.654 435.452 338.173 436.248 337.848C437.019 337.565 437.828 337.395 438.648 337.344L447.576 336.336H447.648C448.185 336.415 448.712 336.552 449.22 336.744C449.763 336.905 450.239 337.238 450.576 337.692L450.252 337.596C450.735 337.372 451.266 337.271 451.797 337.3C452.328 337.329 452.845 337.489 453.3 337.764C454.089 338.342 454.626 339.201 454.8 340.164L454.728 340.044L462 346.8L464.004 348.648C464.247 348.852 464.472 349.077 464.676 349.32C464.405 349.155 464.151 348.962 463.92 348.744L461.832 346.98C459.984 345.396 457.416 343.164 454.26 340.44V340.356C454.092 339.522 453.617 338.781 452.928 338.28C452.541 338.056 452.106 337.928 451.659 337.907C451.212 337.887 450.766 337.973 450.36 338.16L450.156 338.256L450.036 338.064C449.748 337.72 449.364 337.469 448.932 337.344C448.456 337.178 447.966 337.053 447.468 336.972H447.54L438.6 338.028C437.828 338.065 437.067 338.223 436.344 338.496C435.623 338.788 434.97 339.225 434.424 339.78C433.879 340.382 433.408 341.047 433.02 341.76C432.564 342.468 432.12 343.188 431.664 343.908C430.932 345.108 430.2 346.212 429.528 347.292C428.903 348.626 428.37 350.001 427.932 351.408C427.837 351.737 427.772 352.075 427.74 352.416C427.734 352.71 427.837 352.996 428.028 353.22C428.22 353.447 428.47 353.617 428.751 353.712C429.032 353.807 429.334 353.824 429.624 353.76H429.924V354.048C430.01 354.582 430.126 355.111 430.272 355.632C430.375 356.098 430.584 356.533 430.884 356.904C430.964 356.916 431.044 356.916 431.124 356.904H431.484C431.736 356.904 431.976 356.796 432.228 356.724L432.948 356.472L433.116 356.4C432.816 356.28 433.548 356.556 433.476 356.52V356.592C433.533 356.689 433.597 356.781 433.668 356.868C433.961 357.21 434.364 357.44 434.808 357.516C435.018 357.557 435.234 357.557 435.444 357.516C435.643 357.495 435.83 357.415 435.984 357.288C436.471 356.587 436.7 355.739 436.632 354.888V354.672H436.824L442.704 353.76H442.776H442.836C444.991 355.106 447.052 356.597 449.004 358.224C449.688 358.8 450.204 359.256 450.528 359.58C450.763 359.664 450.988 359.773 451.2 359.904Z" fill="#EB996E"/>
<path d="M503.616 376.98H494.304V379.032L514.704 578.028H525.588L503.616 376.98Z" fill="#455A64"/>
<path d="M503.615 376.98C503.615 376.98 503.615 377.34 503.711 378.024C503.807 378.708 503.891 379.74 504.023 381.072C504.299 383.748 504.719 387.672 505.223 392.724C506.303 402.84 507.875 417.48 509.819 435.624C513.743 471.864 519.179 522.096 525.251 578.064L525.563 577.716H514.679L514.991 577.992C505.391 484.332 497.171 405.084 494.375 379.032C494.375 378.084 494.375 377.52 494.375 376.98L494.291 377.064H501.323H503.039H503.603H503.063H501.371L494.291 377.004H494.195V379.152C496.739 405.24 504.779 484.5 514.379 578.16V578.448H525.887V578.1C519.719 522.06 514.187 471.768 510.191 435.468C508.163 417.372 506.591 402.768 505.391 392.664C504.827 387.636 504.383 383.748 504.083 381.084C503.927 379.776 503.807 378.78 503.735 378.084C503.663 377.388 503.615 376.98 503.615 376.98Z" fill="#263238"/>
<path d="M338.94 376.98H329.616V379.08L349.044 577.98H358.608L338.94 376.98Z" fill="#263238"/>
<path d="M542.556 379.032L210.336 379.392L210.216 370.62H542.556V379.032Z" fill="#455A64"/>
<path d="M257.064 376.98H266.388V379.08L246.972 577.98H237.396L257.064 376.98Z" fill="#455A64"/>
<path d="M256.644 379.584C256.644 379.584 256.644 379.932 256.572 380.616C256.5 381.3 256.416 382.296 256.296 383.604C256.044 386.244 255.684 390.108 255.204 395.088C254.256 405.06 252.864 419.496 251.148 437.376C247.68 473.1 242.88 522.576 237.528 577.776L237.264 577.488H246.864L246.6 577.716C255.672 485.628 263.4 407.616 265.92 381.708V379.596L265.992 379.668H258.96H257.22H258.924H265.992H266.064V379.74C266.064 380.292 266.064 380.868 266.064 381.852C263.556 407.772 256.02 485.796 247.104 577.908V578.136H237V577.848C242.436 522.648 247.32 473.088 250.848 437.316C252.624 419.472 254.064 405.06 255.06 395.112C255.564 390.156 255.948 386.304 256.26 383.688C256.392 382.392 256.5 381.408 256.572 380.736L256.644 379.584Z" fill="#263238"/>
<path d="M391.692 377.736H382.368V379.848L401.796 577.98H411.372L391.692 377.736Z" fill="#455A64"/>
<path d="M392.112 380.4C392.112 380.4 392.112 380.748 392.196 381.42C392.28 382.092 392.352 383.1 392.472 384.408C392.724 387.024 393.084 390.876 393.552 395.844C394.512 405.78 395.952 420.156 397.608 437.964C401.076 473.556 405.888 522.876 411.24 577.812L411.504 577.524H401.904L402.156 577.752C393.084 486.012 385.356 408.3 382.848 382.488V380.4H382.8H389.844H392.124H391.584H389.88H382.8H382.728V382.584C385.2 408.264 392.76 486 401.664 577.752V577.98H411.756V577.692C406.32 522.708 401.436 473.292 397.908 437.7C396.12 419.916 394.692 405.564 393.696 395.7C393.192 390.756 392.808 386.928 392.496 384.324C392.352 383.028 392.256 382.044 392.184 381.372C392.112 380.7 392.112 380.4 392.112 380.4Z" fill="#263238"/>
<path d="M541.32 379.092C541.32 378.924 474.336 378.792 391.728 378.792C309.12 378.792 242.124 378.924 242.124 379.092C242.124 379.26 309.096 379.392 391.728 379.392C474.36 379.392 541.32 379.26 541.32 379.092Z" fill="#263238"/>
<path d="M333.204 309.012L406.176 309.6C408.576 309.6 410.808 310.74 411.168 313.08L419.136 366.264H456.72C457.303 366.264 457.861 366.495 458.273 366.907C458.685 367.319 458.916 367.878 458.916 368.46C458.916 369.042 458.685 369.601 458.273 370.013C457.861 370.425 457.303 370.656 456.72 370.656H336.72L328.524 314.52C328.423 313.843 328.468 313.152 328.656 312.494C328.844 311.836 329.171 311.225 329.614 310.704C330.057 310.182 330.607 309.761 331.226 309.469C331.845 309.178 332.52 309.022 333.204 309.012Z" fill="#E0E0E0"/>
<path d="M333.204 309.012C332.801 308.987 332.396 309.023 332.004 309.12C330.884 309.383 329.897 310.038 329.22 310.968C328.72 311.651 328.409 312.454 328.32 313.296C328.294 314.303 328.383 315.309 328.584 316.296C328.896 318.444 329.244 320.928 329.64 323.7L336.408 370.68V370.872H336.6L453.072 370.944H456.204C456.774 370.996 457.348 370.888 457.86 370.632C458.38 370.339 458.779 369.871 458.988 369.312C459.19 368.755 459.186 368.144 458.977 367.589C458.768 367.035 458.367 366.573 457.848 366.288C457.342 366.025 456.771 365.916 456.204 365.976H419.004L419.292 366.216C416.412 347.172 413.736 329.4 411.336 313.416C411.266 312.346 410.779 311.347 409.98 310.632C409.186 309.973 408.22 309.557 407.196 309.432C406.219 309.335 405.237 309.303 404.256 309.336H401.388L390.396 309.264L370.872 309.144L343.2 309H333.852H335.76L343.2 309.108L370.992 309.42L390.516 309.612L401.508 309.708H404.376C405.333 309.679 406.291 309.712 407.244 309.804C408.18 309.935 409.062 310.326 409.788 310.932C410.143 311.248 410.431 311.632 410.637 312.06C410.843 312.488 410.962 312.953 410.988 313.428L418.86 366.228V366.468H456.24C456.708 366.415 457.182 366.494 457.608 366.696C457.906 366.859 458.154 367.1 458.327 367.392C458.5 367.685 458.591 368.018 458.591 368.358C458.591 368.698 458.5 369.031 458.327 369.324C458.154 369.616 457.906 369.857 457.608 370.02C457.183 370.227 456.709 370.31 456.24 370.26H453.108L336.636 370.332L336.864 370.524C333.936 350.772 331.56 334.716 329.904 323.568L328.788 316.176C328.585 315.205 328.484 314.216 328.488 313.224C328.593 312.249 328.994 311.329 329.638 310.589C330.282 309.849 331.137 309.324 332.088 309.084C332.458 309.038 332.831 309.014 333.204 309.012Z" fill="#263238"/>
<path d="M377.352 339.156C377.352 340.061 377.084 340.945 376.581 341.697C376.078 342.449 375.363 343.035 374.527 343.381C373.691 343.727 372.771 343.817 371.884 343.639C370.996 343.462 370.182 343.025 369.543 342.385C368.904 341.744 368.469 340.928 368.294 340.041C368.119 339.153 368.212 338.233 368.559 337.398C368.907 336.563 369.495 335.85 370.249 335.349C371.002 334.848 371.887 334.582 372.792 334.584C374.003 334.587 375.162 335.07 376.017 335.927C376.872 336.784 377.352 337.946 377.352 339.156Z" fill="white"/>
<path d="M416.184 370.164C416.076 370.164 413.784 356.628 410.988 339.912C408.192 323.196 406.08 309.624 406.188 309.6C406.296 309.576 408.588 323.124 411.384 339.852C414.18 356.58 416.28 370.14 416.184 370.164Z" fill="#263238"/>
</svg>
