<svg width="552" height="524" viewBox="0 0 552 524" fill="none" xmlns="http://www.w3.org/2000/svg">
<g clip-path="url(#clip0_209_95)">
<path d="M519.327 144.626C514.159 135.52 508.425 126.731 502.158 118.31C497.766 112.401 493.126 106.69 488.237 101.176H488.225C479.378 91.194 469.758 81.8926 459.448 73.3546C457.337 71.6042 455.199 69.8897 453.032 68.211C433.469 53.01 411.776 40.6287 388.613 31.4453L388.819 64.5049L391.035 441.365H198.934L188.131 65.2159L188.935 32.6843C94.7542 71.3738 28.6251 162.34 28.6251 268.397C28.6075 290.288 31.4669 312.091 37.1329 333.27C39.5262 342.224 42.4236 351.041 45.812 359.682C47.0353 362.818 48.3258 365.927 49.6836 369.008C50.3381 370.507 51.0048 371.995 51.6959 373.476C52.5828 375.412 53.5063 377.341 54.4544 379.247C55.1883 380.747 55.9427 382.236 56.7174 383.716C57.7144 385.657 58.744 387.583 59.8062 389.493C60.6257 390.992 61.4698 392.48 62.3261 393.961C76.1408 417.829 93.7817 439.38 114.578 457.795C120.505 463.046 126.672 468.025 133.08 472.73C178.42 506.007 233.599 524 290.313 524C347.026 524 402.205 506.007 447.545 472.73C451.031 470.173 454.446 467.531 457.79 464.802C460.01 462.998 462.194 461.16 464.341 459.288C464.909 458.793 465.478 458.297 466.041 457.795C485.214 440.818 501.715 421.168 515.008 399.482C519.89 391.531 524.317 383.322 528.269 374.892C529.314 372.67 530.328 370.427 531.308 368.165C535.822 357.793 539.619 347.137 542.673 336.269C543.144 334.591 543.598 332.906 544.036 331.215V331.209C544.11 330.917 544.189 330.618 544.263 330.325C544.715 328.545 545.15 326.753 545.566 324.96V324.954C546.911 319.178 548.047 313.331 548.972 307.414C549.089 306.656 549.205 305.897 549.315 305.138C549.358 304.864 549.401 304.589 549.431 304.314V304.308C550.092 299.738 550.628 295.134 551.04 290.496C551.676 283.213 551.996 275.847 552 268.398C552.069 225.097 540.823 182.495 519.327 144.626Z" fill="#F2F2F2"/>
<path d="M493.627 422.69C509.116 402.248 515.073 373.455 503.024 350.91C491.725 376.268 471.606 396.905 446.228 409.17C436.424 413.865 425.018 418.09 420.479 427.791C417.655 433.827 418.193 440.954 420.463 447.209C422.734 453.465 426.595 459.03 430.415 464.519L430.616 466.164C454.668 456.423 478.138 443.132 493.627 422.69Z" fill="#E6E6E6"/>
<path d="M502.511 351.091C501.817 372.13 494.353 392.421 481.181 409.081C478.41 412.717 475.07 415.903 471.284 418.523C467.511 420.959 463.139 422.363 458.622 422.59C454.415 422.885 450.077 422.71 446.017 423.998C443.949 424.688 442.053 425.796 440.454 427.252C438.855 428.707 437.589 430.476 436.74 432.443C434.492 437.29 434.161 442.636 434.023 447.876C433.87 453.693 433.806 459.738 430.996 465.026C430.656 465.667 431.694 466.145 432.034 465.505C436.921 456.305 433.748 445.545 436.66 435.873C438.02 431.36 440.779 427.22 445.392 425.411C449.426 423.829 453.9 424.006 458.162 423.744C462.571 423.585 466.874 422.374 470.694 420.217C474.604 417.794 478.065 414.739 480.926 411.182C487.498 403.274 492.757 394.407 496.509 384.904C500.853 374.081 503.269 362.612 503.654 350.994C503.677 350.275 502.534 350.377 502.511 351.091Z" fill="white"/>
<path d="M485.745 403.961C488.907 405.74 492.613 406.363 496.202 405.72C499.791 405.076 503.029 403.208 505.338 400.448C505.803 399.888 504.934 399.155 504.468 399.716C502.323 402.29 499.307 404.03 495.964 404.623C492.62 405.216 489.17 404.621 486.236 402.947C485.598 402.584 485.111 403.6 485.745 403.961Z" fill="white"/>
<path d="M460.775 422.715C458.774 415.697 459.554 408.199 462.961 401.718C463.299 401.076 462.261 400.597 461.923 401.238C458.391 407.99 457.595 415.794 459.695 423.093C459.895 423.788 460.975 423.407 460.775 422.715Z" fill="white"/>
<path d="M499.332 374.133C497.962 373.694 496.725 372.929 495.732 371.907C494.739 370.885 494.022 369.638 493.644 368.279C493.453 367.581 492.374 367.963 492.564 368.656C492.988 370.157 493.782 371.532 494.876 372.664C495.971 373.795 497.332 374.647 498.841 375.146C498.98 375.205 499.135 375.21 499.277 375.16C499.419 375.111 499.537 375.01 499.605 374.879C499.67 374.745 499.677 374.591 499.626 374.451C499.575 374.312 499.469 374.197 499.332 374.133Z" fill="white"/>
<path d="M416.804 332.969C416.911 333.408 417.018 333.847 417.118 334.293C418.524 340.203 419.435 346.214 419.844 352.267C419.883 352.734 419.916 353.209 419.941 353.677C420.767 368.271 418.811 382.888 414.174 396.785C412.324 402.313 410.045 407.696 407.359 412.887C403.648 420.055 399.04 427.539 398.001 435.259C397.884 436.063 397.817 436.874 397.802 437.686L428.546 466.276C428.649 466.307 428.746 466.344 428.85 466.375L430.024 467.572C430.182 467.313 430.34 467.042 430.497 466.784C430.589 466.635 430.675 466.479 430.767 466.329C430.826 466.228 430.885 466.126 430.944 466.037C430.964 466.004 430.984 465.969 430.997 465.943C431.056 465.854 431.102 465.766 431.155 465.684C432.041 464.171 432.919 462.649 433.787 461.118C433.794 461.111 433.794 461.111 433.793 461.098C440.378 449.418 446.021 437.098 449.571 424.334C449.677 423.949 449.791 423.559 449.884 423.162C451.451 417.399 452.534 411.521 453.121 405.587C453.431 402.336 453.573 399.072 453.546 395.807C453.459 387.372 452.014 379.003 449.265 371.006C443.781 355.065 433.139 341.015 417.969 333.53C417.58 333.339 417.199 333.154 416.804 332.969Z" fill="#E6E6E6"/>
<path d="M416.502 333.415C428.916 350.621 435.464 371.211 435.216 392.26C435.245 396.792 434.542 401.3 433.134 405.619C431.623 409.782 428.998 413.474 425.531 416.312C422.354 419.021 418.783 421.433 416.335 424.849C415.108 426.616 414.278 428.616 413.899 430.718C413.519 432.82 413.599 434.977 414.133 437.047C415.325 442.239 418.357 446.703 421.476 450.967C424.94 455.702 428.615 460.566 429.631 466.441C429.754 467.152 430.878 466.924 430.755 466.213C428.986 455.993 419.82 449.268 416.184 439.833C414.487 435.43 414.139 430.501 416.707 426.344C418.953 422.709 422.633 420.219 425.875 417.503C429.298 414.784 431.987 411.287 433.707 407.318C435.336 403.084 436.215 398.61 436.307 394.087C436.681 383.908 435.414 373.735 432.552 363.941C429.349 352.745 424.209 342.167 417.355 332.665C416.93 332.077 416.08 332.831 416.502 333.415Z" fill="white"/>
<path d="M435.704 385.487C439.325 385.048 442.669 383.366 445.138 380.742C447.607 378.118 449.04 374.722 449.182 371.16C449.208 370.439 448.063 370.366 448.037 371.087C447.911 374.404 446.575 377.568 444.271 380.007C441.967 382.446 438.846 384 435.471 384.389C434.738 384.475 434.975 385.572 435.704 385.487Z" fill="white"/>
<path d="M427.328 415.146C421.403 410.719 417.405 404.273 416.13 397.095C416.004 396.384 414.88 396.612 415.006 397.322C416.347 404.79 420.522 411.489 426.698 416.082C427.287 416.52 427.913 415.581 427.328 415.146Z" fill="white"/>
<path d="M428.167 353.681C426.802 354.136 425.343 354.253 423.92 354.021C422.498 353.789 421.157 353.215 420.017 352.352C419.434 351.907 418.808 352.847 419.387 353.289C420.651 354.237 422.133 354.869 423.704 355.128C425.275 355.388 426.887 355.268 428.4 354.779C428.546 354.744 428.674 354.657 428.757 354.534C428.839 354.411 428.871 354.262 428.845 354.117C428.814 353.971 428.725 353.844 428.598 353.763C428.471 353.681 428.316 353.652 428.167 353.681Z" fill="white"/>
<path d="M12.2166 308.201C-1.52043 286.597 -5.06191 257.425 8.82257 235.912C17.9751 262.083 36.31 284.249 60.5835 298.487C69.9651 303.945 80.9816 309.061 84.6978 319.091C87.0102 325.331 85.8812 332.392 83.0982 338.446C80.315 344.5 76.0036 349.741 71.7392 354.908L71.4018 356.532C48.2403 344.915 25.9536 329.804 12.2166 308.201Z" fill="#E6E6E6"/>
<path d="M9.31992 236.133C8.26113 257.158 14.0116 277.974 25.7545 295.624C28.2134 299.468 31.2772 302.909 34.8332 305.821C38.3909 308.548 42.6315 310.295 47.1141 310.879C51.2826 311.507 55.6208 311.677 59.5605 313.283C61.5646 314.135 63.3619 315.39 64.8344 316.968C66.3069 318.545 67.4213 320.409 68.1047 322.437C69.942 327.446 69.827 332.801 69.5283 338.034C69.1966 343.844 68.7579 349.874 71.1179 355.368C71.4038 356.034 70.3297 356.428 70.0441 355.763C65.9381 346.205 69.9966 335.733 67.8982 325.862C66.919 321.256 64.5128 316.91 60.0656 314.741C56.1767 312.845 51.7032 312.665 47.4769 312.066C43.0954 311.558 38.9079 310.009 35.2801 307.556C31.5839 304.831 28.3894 301.511 25.8336 297.738C19.9409 289.335 15.4375 280.08 12.4884 270.31C9.0593 259.179 7.60502 247.556 8.18846 235.946C8.22487 235.227 9.3561 235.419 9.31992 236.133Z" fill="white"/>
<path d="M21.6305 290.158C18.3311 291.681 14.5852 292.008 11.0616 291.082C7.53805 290.155 4.46629 288.036 2.39493 285.102C1.9779 284.507 2.9051 283.846 3.32268 284.442C5.24637 287.177 8.10792 289.151 11.3909 290.007C14.6738 290.863 18.1619 290.545 21.2256 289.11C21.8918 288.798 22.2928 289.849 21.6305 290.158Z" fill="white"/>
<path d="M44.9573 310.833C47.5362 303.997 47.3823 296.462 44.5262 289.731C44.2427 289.065 45.3168 288.67 45.6 289.336C48.5587 296.345 48.7026 304.187 46.0029 311.295C45.7451 311.973 44.7009 311.507 44.9573 310.833Z" fill="white"/>
<path d="M10.5702 259.351C11.9725 259.022 13.2691 258.358 14.3435 257.418C15.418 256.478 16.2367 255.293 16.7262 253.968C16.975 253.288 18.019 253.754 17.7717 254.43C17.224 255.891 16.3182 257.2 15.1334 258.24C13.9486 259.281 12.5209 260.022 10.9751 260.4C10.8324 260.447 10.6766 260.44 10.5393 260.379C10.402 260.319 10.2934 260.209 10.2358 260.073C10.1829 259.934 10.1883 259.78 10.251 259.645C10.3136 259.51 10.4283 259.404 10.5702 259.351Z" fill="white"/>
<path d="M96.2507 224.875C96.1077 225.304 95.9646 225.733 95.8273 226.169C93.9349 231.947 92.5261 237.866 91.615 243.867C91.537 244.33 91.4652 244.8 91.401 245.264C89.3637 259.745 90.0965 274.469 93.5622 288.688C94.9466 294.345 96.7697 299.891 99.0155 305.277C102.118 312.717 106.087 320.541 106.48 328.318C106.531 329.129 106.529 329.942 106.477 330.753L73.4559 356.808C73.3505 356.83 73.2507 356.86 73.1449 356.883L71.8751 357.982C71.7394 357.712 71.6046 357.43 71.4689 357.16C71.3895 357.003 71.3175 356.841 71.2381 356.685C71.1876 356.579 71.1373 356.473 71.0854 356.38C71.0684 356.345 71.0518 356.309 71.0409 356.281C70.9891 356.189 70.951 356.097 70.9052 356.011C70.1473 354.433 69.3994 352.846 68.6615 351.251C68.6554 351.244 68.6554 351.244 68.6567 351.231C63.0663 339.067 58.4665 326.34 55.9905 313.336C55.9162 312.944 55.8353 312.546 55.7761 312.143C54.6933 306.275 54.1034 300.331 54.0122 294.369C53.973 291.105 54.103 287.84 54.4018 284.588C55.1902 276.188 57.3265 267.961 60.7324 260.209C67.5244 244.756 79.3004 231.597 95.0432 225.341C95.4459 225.181 95.8418 225.027 96.2507 224.875Z" fill="#E6E6E6"/>
<path d="M96.5152 225.342C82.7103 241.507 74.4707 261.509 72.9669 282.507C72.561 287.022 72.8862 291.571 73.9307 295.987C75.0904 300.257 77.3995 304.145 80.6181 307.249C83.5596 310.201 86.9185 312.888 89.0741 316.487C90.1494 318.346 90.8105 320.405 91.0138 322.531C91.2172 324.656 90.9583 326.799 90.254 328.82C88.6334 333.9 85.2407 338.108 81.7766 342.111C77.9302 346.555 73.863 351.112 72.361 356.886C72.179 357.586 71.0782 357.269 71.2599 356.57C73.8732 346.524 83.5685 340.549 87.9778 331.434C90.0353 327.18 90.7928 322.295 88.5788 317.948C86.6428 314.147 83.1815 311.373 80.1767 308.409C76.9914 305.427 74.6022 301.728 73.2178 297.636C71.9465 293.286 71.4424 288.757 71.727 284.242C72.2016 274.067 74.3112 264.029 77.9784 254.494C82.102 243.589 88.105 233.454 95.7276 224.527C96.1996 223.975 96.9842 224.794 96.5152 225.342Z" fill="white"/>
<path d="M73.0436 275.718C69.4708 274.993 66.2782 273.052 64.0358 270.24C61.7933 267.428 60.6472 263.93 60.8019 260.369C60.8096 260.223 60.8747 260.087 60.9834 259.988C61.0922 259.888 61.2361 259.834 61.3849 259.837C61.5337 259.839 61.6758 259.898 61.7811 260.001C61.8864 260.103 61.9469 260.242 61.9496 260.387C61.7992 263.703 62.8672 266.962 64.9608 269.576C67.0544 272.19 70.0358 273.987 73.3667 274.642C74.0904 274.786 73.7631 275.86 73.0436 275.718Z" fill="white"/>
<path d="M78.9246 305.944C85.1977 302.002 89.7192 295.895 91.5875 288.842C91.772 288.143 92.8729 288.459 92.6886 289.157C90.7304 296.494 86.0118 302.839 79.4746 306.927C78.8513 307.317 78.3046 306.331 78.9246 305.944Z" fill="white"/>
<path d="M83.2023 244.616C84.5248 245.178 85.9695 245.41 87.4066 245.291C88.8437 245.173 90.2282 244.708 91.4357 243.938C92.0537 243.541 92.5998 244.527 91.9858 244.921C90.6476 245.766 89.1179 246.278 87.5305 246.412C85.943 246.547 84.346 246.299 82.8791 245.691C82.7359 245.645 82.616 245.548 82.5438 245.419C82.4715 245.29 82.4523 245.138 82.4901 244.996C82.5337 244.854 82.6329 244.734 82.7662 244.663C82.8996 244.592 83.0563 244.575 83.2023 244.616Z" fill="white"/>
<path d="M267.219 87.6756C287.298 87.6756 303.576 71.7766 303.576 52.1643C303.576 32.552 287.298 16.6531 267.219 16.6531C247.14 16.6531 230.862 32.552 230.862 52.1643C230.862 71.7766 247.14 87.6756 267.219 87.6756Z" fill="#FF6584"/>
<path d="M378.535 50.3112C375.259 46.9309 371.801 43.7242 368.174 40.7048C361.091 34.8383 353.25 29.8499 344.51 26.7075C341.219 25.5205 337.819 24.6463 334.357 24.0968C333.941 24.0311 333.531 23.9654 333.115 23.9116C333.085 23.9086 333.054 23.9086 333.024 23.9116C332.96 23.8939 332.894 23.8819 332.828 23.8757C331.978 23.7682 331.127 23.6846 330.271 23.6248C325.66 23.3254 321.029 23.7326 316.546 24.8316C313.945 25.4726 311.407 26.3362 308.962 27.4124C306.512 28.584 304.137 29.8987 301.849 31.3494C300.62 32.0783 299.354 32.7463 298.056 33.3507C294.268 35.1041 290.257 36.3578 286.13 37.0786C283.342 37.5669 280.52 37.8386 277.689 37.891C275.23 37.9388 272.912 38.0224 270.582 38.8887C268.095 39.8014 265.861 41.2698 264.059 43.1764C262.256 45.083 260.936 47.375 260.202 49.8691C260.145 50.0906 260.161 50.3244 260.249 50.5361C260.337 50.7479 260.492 50.9266 260.692 51.046C261.322 51.4881 261.933 51.9899 262.6 52.3842C263.188 52.6465 263.816 52.8139 264.459 52.8801C265.511 53.0952 266.565 53.3043 267.622 53.5074C271.505 54.2601 275.406 54.9272 279.322 55.5087C287.2 56.6737 295.123 57.4941 303.09 57.97C303.139 57.977 303.188 57.981 303.237 57.982C312.238 58.5126 321.261 58.5984 330.271 58.2389C331.635 58.1851 332.993 58.1194 334.357 58.0417C340.039 57.731 345.707 57.2412 351.36 56.5721C356.59 55.9508 361.799 55.1801 366.988 54.2601C370.694 53.603 374.386 52.8701 378.064 52.0616C378.243 52.01 378.405 51.9143 378.535 51.7836C378.664 51.653 378.757 51.492 378.805 51.316C378.852 51.14 378.852 50.9551 378.805 50.7791C378.758 50.6031 378.665 50.4419 378.535 50.3112Z" fill="#E6E6E6"/>
<path d="M302.968 97.662C297.704 92.1624 291.905 87.1764 285.652 82.7745C283.579 81.3527 281.444 80.0145 279.249 78.7897C276.556 77.2719 273.761 75.9366 270.881 74.7931C270.239 74.5362 269.591 74.2913 268.942 74.0583C265.259 72.7258 261.438 71.7883 257.548 71.2624C257.517 71.2564 257.487 71.2624 257.456 71.2564C257.395 71.2445 257.328 71.2325 257.266 71.2206C255.38 70.9817 253.48 70.8679 251.578 70.88C250.214 70.88 248.844 70.9517 247.486 71.0832C245.293 71.2943 243.118 71.6616 240.979 72.1824C239.92 72.4393 238.868 72.738 237.835 73.0785C236.327 73.5631 234.847 74.1255 233.4 74.7632C233.376 74.7752 233.358 74.7811 233.333 74.7931C230.905 75.9534 228.552 77.2582 226.287 78.7002C226.238 78.73 226.183 78.7599 226.134 78.7897C223.562 80.2927 220.841 81.5377 218.012 82.5057C215.584 83.3351 213.093 83.9783 210.562 84.4293C207.775 84.919 204.953 85.1887 202.122 85.2358C199.663 85.2836 197.345 85.3673 195.02 86.2395C192.533 87.152 190.298 88.6202 188.495 90.5268C186.691 92.4334 185.37 94.7254 184.635 97.2199C184.578 97.4414 184.595 97.6748 184.683 97.8863C184.771 98.0978 184.926 98.2766 185.124 98.3968C185.754 98.8389 186.372 99.3347 187.033 99.7291C187.62 99.9933 188.248 100.161 188.892 100.225C189.944 100.44 190.996 100.655 192.054 100.858C195.938 101.611 199.84 102.276 203.761 102.854C209.137 103.648 214.536 104.283 219.957 104.759C222.526 104.992 225.097 105.183 227.669 105.333C234.269 105.721 240.875 105.872 247.486 105.787C248.85 105.769 250.214 105.739 251.578 105.697C259.676 105.464 267.75 104.871 275.799 103.917C284.771 102.857 293.682 101.351 302.497 99.4064C302.675 99.3554 302.837 99.2602 302.966 99.1302C303.096 99.0001 303.189 98.8395 303.236 98.6641C303.284 98.4886 303.284 98.3041 303.237 98.1285C303.19 97.953 303.097 97.7923 302.968 97.662Z" fill="#E6E6E6"/>
<path d="M212.346 2.35764L244.375 434.68L180.316 440.233V7.858C187.95 2.03416 198.907 1.123 212.346 2.35764Z" fill="#B8B8B8"/>
<path d="M370.448 2.35764L338.419 434.68L402.478 440.233V7.858C394.844 2.03416 383.887 1.123 370.448 2.35764Z" fill="#B8B8B8"/>
<path d="M403.984 8.04671C401.997 3.28638 397.77 0 392.883 0H189.228C182.432 0 176.909 6.36825 176.909 14.2034V443.896C176.85 447.871 178.372 451.714 181.154 454.616C182.61 456.109 184.453 457.189 186.488 457.74C187.38 457.981 188.302 458.102 189.228 458.1H392.883C393.809 458.102 394.731 457.981 395.623 457.74C401.104 456.301 405.202 450.645 405.202 443.896V14.2034C405.207 12.0936 404.794 10.0028 403.984 8.04671ZM401.116 443.896C401.116 449.129 397.422 453.389 392.883 453.389H189.228C185.466 453.389 182.28 450.462 181.307 446.477C181.099 445.632 180.995 444.766 180.995 443.896V14.2034C180.995 8.97059 184.689 4.71804 189.228 4.71804H392.883C393.719 4.7174 394.547 4.8631 395.33 5.14823C398.676 6.34714 401.116 9.95088 401.116 14.2034V443.896Z" fill="#B8B8B8"/>
<path d="M403.159 130.612H178.954V134.605H403.159V130.612Z" fill="#B8B8B8"/>
<path d="M403.159 48.1689H178.954V52.1627H403.159V48.1689Z" fill="#B8B8B8"/>
<path d="M403.159 197.175H178.954V201.168H403.159V197.175Z" fill="#B8B8B8"/>
<path d="M251.71 1.79224H247.622V253.753H251.71V1.79224Z" fill="#B8B8B8"/>
<path d="M334.491 1.79224H330.402V253.753H334.491V1.79224Z" fill="#B8B8B8"/>
<path d="M428.713 433.14H160.212C155.334 433.145 150.658 435.04 147.209 438.409C143.76 441.778 141.82 446.346 141.814 451.11C141.812 453.401 142.262 455.671 143.141 457.795C144.507 461.127 146.863 463.983 149.905 465.995C152.948 468.007 156.538 469.084 160.212 469.086H428.713C431.925 469.085 435.08 468.263 437.866 466.701C440.651 465.139 442.97 462.893 444.591 460.184C445.053 459.419 445.453 458.62 445.79 457.795C446.669 455.671 447.119 453.401 447.117 451.11C447.11 446.345 445.168 441.777 441.718 438.409C438.268 435.04 433.591 433.145 428.713 433.14Z" fill="#B8B8B8"/>
<path d="M403.159 244.434H180.316V257.747H403.159V244.434Z" fill="#B8B8B8"/>
<path d="M289.693 240.44H293.782C295.77 240.44 297.677 241.212 299.082 242.585C300.488 243.958 301.278 245.82 301.278 247.762H282.197C282.197 246.801 282.391 245.849 282.767 244.96C283.144 244.072 283.696 243.265 284.392 242.585C285.088 241.905 285.915 241.366 286.824 240.998C287.734 240.63 288.709 240.44 289.693 240.44Z" fill="#B8B8B8"/>
<path d="M295.669 281.979C318.993 281.979 337.901 263.511 337.901 240.729C337.901 217.947 318.993 199.479 295.669 199.479C272.345 199.479 253.437 217.947 253.437 240.729C253.437 263.511 272.345 281.979 295.669 281.979Z" fill="#FFB8B8"/>
<path d="M248.558 201.046C248.877 196.309 252.084 191.462 262.274 188.929C262.274 188.929 279.761 167.087 303.525 178.541C303.525 178.541 315.045 176.605 323.588 188.28C323.588 188.28 332.057 183.401 335.631 192.049C335.631 192.049 345.564 209.689 341.907 227.682C338.25 245.675 336.378 247.921 336.378 247.921C336.378 247.921 341.04 210.703 314.191 213.283C287.343 215.864 265.727 206.642 259.647 226.834C254.598 243.6 255.234 252.308 255.234 252.308C255.234 252.308 238.351 235.582 244.091 222.411C247.027 215.675 248.065 208.352 248.558 201.046Z" fill="#2F2E41"/>
<path d="M180.824 466.159H414.42C412.859 448.754 411.838 382.225 411.838 377.846C411.838 358.534 395.659 337.458 395.659 337.458L389.868 334.331L341.506 319.593L328.99 303.714C327.679 302.046 325.991 300.698 324.057 299.776C322.122 298.853 319.996 298.382 317.843 298.398L278.307 298.688C274.828 298.714 271.485 300.008 268.931 302.317L244.449 324.5L208.542 341.248L208.481 341.189L208.106 341.461L202.777 345.21L199.349 347.629C199.349 347.629 190.357 358.167 183.17 389.773C182.088 394.526 181.33 456.063 180.824 466.159Z" fill="#D32222"/>
<path d="M468.487 457.795C467.925 458.297 467.356 458.793 466.787 459.288C464.634 461.158 462.451 462.996 460.236 464.803C456.891 467.527 453.476 470.169 449.992 472.73H135.526C129.122 468.035 122.955 463.056 117.024 457.795H468.487Z" fill="#B8B8B8"/>
<path d="M353.219 461.379H237.621L240.067 450.029H350.772L353.219 461.379Z" fill="#2F2E41"/>
<path d="M457.802 412.392H427.722C427.043 412.39 426.372 412.533 425.756 412.812C425.14 413.09 424.594 413.498 424.157 414.005C423.737 413.926 423.311 413.886 422.884 413.885C421.947 413.884 421.018 414.064 420.152 414.414C419.285 414.763 418.498 415.277 417.835 415.924C417.172 416.571 416.645 417.34 416.286 418.186C415.927 419.031 415.743 419.938 415.743 420.854C415.743 421.77 415.927 422.676 416.286 423.522C416.645 424.368 417.172 425.137 417.835 425.784C418.498 426.431 419.285 426.944 420.152 427.294C421.018 427.644 421.947 427.824 422.884 427.823C423.962 427.823 425.024 427.581 425.991 427.118L426.493 433.14L428.487 456.941C428.582 457.238 428.709 457.524 428.866 457.795C429.269 458.518 429.864 459.121 430.588 459.542C431.313 459.962 432.14 460.184 432.982 460.185H452.542C453.386 460.184 454.213 459.961 454.938 459.541C455.664 459.12 456.26 458.517 456.665 457.795C456.818 457.523 456.943 457.237 457.038 456.941L462.298 418.336C462.514 417.649 462.563 416.922 462.439 416.213C462.315 415.505 462.023 414.834 461.586 414.256C461.148 413.678 460.578 413.208 459.921 412.884C459.264 412.56 458.538 412.392 457.802 412.392ZM422.884 425.833C421.533 425.832 420.238 425.307 419.283 424.373C418.329 423.439 417.792 422.174 417.792 420.854C417.792 419.534 418.329 418.269 419.283 417.335C420.238 416.401 421.533 415.876 422.884 415.875C422.976 415.875 423.062 415.898 423.153 415.904C422.952 416.706 422.978 417.547 423.227 418.336L425.38 425.17C424.622 425.601 423.761 425.829 422.884 425.833Z" fill="#3F3D56"/>
<path d="M389.862 286.081H199.448C197.812 286.084 196.244 286.719 195.087 287.849C193.931 288.979 193.279 290.511 193.277 292.109V417.613C193.278 419.211 193.929 420.744 195.086 421.874C196.243 423.004 197.812 423.639 199.448 423.641H389.862C391.498 423.639 393.067 423.004 394.224 421.874C395.381 420.744 396.032 419.211 396.033 417.613V292.109C396.031 290.511 395.38 288.979 394.223 287.849C393.066 286.719 391.498 286.084 389.862 286.081Z" fill="#3F3D56"/>
<path d="M316.099 386.643H271.554C270.924 386.644 270.32 386.889 269.875 387.325C269.43 387.761 269.18 388.351 269.181 388.967V457.699H318.478V388.967C318.479 388.662 318.417 388.36 318.298 388.077C318.178 387.795 318.003 387.539 317.782 387.323C317.561 387.108 317.299 386.936 317.01 386.82C316.721 386.703 316.412 386.643 316.099 386.643ZM293.976 425.696C292.583 425.69 291.249 425.146 290.264 424.184C289.279 423.222 288.723 421.919 288.716 420.558V412.63C288.718 411.269 289.273 409.964 290.259 409.001C291.245 408.039 292.582 407.499 293.976 407.499C295.37 407.499 296.707 408.039 297.694 409.001C298.68 409.964 299.235 411.269 299.236 412.63V420.558C299.23 421.919 298.674 423.222 297.689 424.184C296.704 425.146 295.369 425.69 293.976 425.696Z" fill="#2F2E41"/>
<path d="M269.028 455.501V462.132C269.029 462.476 269.169 462.805 269.417 463.048C269.666 463.291 270.003 463.428 270.355 463.429H317.304C317.656 463.427 317.992 463.29 318.241 463.047C318.489 462.804 318.63 462.475 318.631 462.132V455.501H269.028Z" fill="#3F3D56"/>
<path d="M385.813 416.301C387.473 416.301 388.819 414.986 388.819 413.365C388.819 411.743 387.473 410.429 385.813 410.429C384.153 410.429 382.807 411.743 382.807 413.365C382.807 414.986 384.153 416.301 385.813 416.301Z" fill="#2F2E41"/>
<path d="M223.486 409.106C223.347 409.106 223.211 409.133 223.083 409.184C222.955 409.236 222.839 409.311 222.742 409.407C222.644 409.502 222.567 409.616 222.514 409.74C222.461 409.865 222.434 409.999 222.434 410.133V415.421C222.434 415.693 222.545 415.953 222.743 416.145C222.94 416.338 223.207 416.446 223.486 416.446C223.764 416.446 224.031 416.338 224.229 416.145C224.426 415.953 224.537 415.693 224.538 415.421V410.133C224.538 409.999 224.51 409.865 224.458 409.74C224.405 409.616 224.327 409.502 224.23 409.407C224.132 409.311 224.016 409.236 223.888 409.184C223.761 409.132 223.624 409.106 223.486 409.106Z" fill="#2F2E41"/>
<path d="M229.198 409.106C229.06 409.106 228.923 409.133 228.795 409.184C228.668 409.236 228.552 409.311 228.454 409.407C228.356 409.502 228.279 409.616 228.226 409.74C228.173 409.865 228.146 409.999 228.146 410.133V415.421C228.146 415.693 228.257 415.954 228.454 416.147C228.651 416.34 228.919 416.448 229.198 416.448C229.477 416.448 229.745 416.34 229.942 416.147C230.139 415.954 230.25 415.693 230.25 415.421V410.133C230.25 409.999 230.223 409.865 230.17 409.74C230.117 409.616 230.04 409.502 229.942 409.407C229.844 409.311 229.728 409.236 229.601 409.184C229.473 409.133 229.336 409.106 229.198 409.106Z" fill="#2F2E41"/>
<path d="M234.911 409.106C234.773 409.106 234.636 409.133 234.508 409.184C234.381 409.236 234.265 409.311 234.167 409.407C234.069 409.502 233.992 409.616 233.939 409.74C233.886 409.865 233.859 409.999 233.859 410.133V415.421C233.86 415.693 233.971 415.953 234.168 416.145C234.365 416.338 234.632 416.446 234.911 416.446C235.189 416.446 235.457 416.338 235.654 416.145C235.851 415.953 235.962 415.693 235.963 415.421V410.133C235.963 409.999 235.936 409.865 235.883 409.74C235.83 409.616 235.753 409.502 235.655 409.407C235.557 409.311 235.441 409.236 235.314 409.184C235.186 409.132 235.049 409.106 234.911 409.106Z" fill="#2F2E41"/>
<path d="M240.623 409.106C240.485 409.106 240.348 409.133 240.221 409.184C240.093 409.236 239.977 409.311 239.879 409.407C239.782 409.502 239.704 409.616 239.651 409.74C239.598 409.865 239.571 409.999 239.571 410.133V415.421C239.572 415.693 239.683 415.953 239.88 416.145C240.078 416.338 240.345 416.446 240.623 416.446C240.902 416.446 241.169 416.338 241.366 416.145C241.563 415.953 241.675 415.693 241.675 415.421V410.133C241.675 409.999 241.648 409.865 241.595 409.74C241.542 409.616 241.465 409.502 241.367 409.407C241.27 409.311 241.154 409.236 241.026 409.184C240.898 409.133 240.761 409.106 240.623 409.106Z" fill="#2F2E41"/>
<path d="M245.181 458.392C253.964 458.392 261.084 451.438 261.084 442.86C261.084 434.281 253.964 427.327 245.181 427.327C236.399 427.327 229.279 434.281 229.279 442.86C229.279 451.438 236.399 458.392 245.181 458.392Z" fill="#FFB8B8"/>
<path d="M356.277 461.379C365.06 461.379 372.18 454.425 372.18 445.847C372.18 437.268 365.06 430.314 356.277 430.314C347.495 430.314 340.375 437.268 340.375 445.847C340.375 454.425 347.495 461.379 356.277 461.379Z" fill="#FFB8B8"/>
<path d="M520.419 258.362C518.848 255.824 516.986 253.113 514.07 252.284C510.693 251.324 507.223 253.231 504.281 255.113C495.48 260.741 487.006 266.84 478.895 273.382L478.904 273.481C485.218 273.055 490.459 289.455 496.773 289.029C501.335 288.722 507.128 271.548 511.16 269.44C512.69 268.64 514.181 267.571 515.915 267.497C518.068 267.404 519.946 268.874 521.422 270.409C530.153 279.489 532.679 293.375 542.473 301.353C536.297 286.476 528.923 272.1 520.419 258.362Z" fill="#3F3D56"/>
<path d="M537.223 280.417C541.828 288.542 546.713 296.506 551.878 304.308V304.314C551.847 304.589 551.804 304.864 551.761 305.138C551.138 304.206 550.52 303.27 549.908 302.33C545.272 295.227 540.866 287.989 536.691 280.615C534.709 277.108 532.776 273.573 530.892 270.011C529.437 267.251 528.012 264.475 526.617 261.683C526.22 260.882 525.834 260.082 525.449 259.275C524.544 257.387 523.651 255.487 522.697 253.624C521.608 251.497 520.281 249.274 518.281 247.847C517.371 247.169 516.283 246.759 515.143 246.664C513.537 246.673 511.965 247.113 510.598 247.936C500.252 253.248 490.595 259.753 481.833 267.31C473.061 274.838 465.22 283.341 458.469 292.646C458.261 292.933 457.772 292.658 457.98 292.366C458.805 291.231 459.637 290.113 460.493 289.002C471.106 275.218 484.118 263.364 498.935 253.982C501.424 252.405 503.962 250.901 506.549 249.472C507.852 248.749 509.161 248.038 510.494 247.369C511.771 246.638 513.202 246.204 514.678 246.102C519.755 246.024 522.385 251.64 524.189 255.416C524.752 256.605 525.325 257.791 525.908 258.976C528.103 263.457 530.385 267.902 532.752 272.311C534.208 275.029 535.698 277.731 537.223 280.417Z" fill="#3F3D56"/>
<path d="M481.334 264.537C481.039 264.215 480.746 263.894 480.45 263.573C478.109 261.045 475.598 258.546 472.384 257.097C470.851 256.384 469.179 256.005 467.481 255.987C465.73 256.034 464.003 256.402 462.391 257.071C461.625 257.37 460.875 257.71 460.137 258.071C459.293 258.486 458.465 258.928 457.641 259.374C456.093 260.21 454.565 261.084 453.057 261.994C450.058 263.805 447.152 265.754 444.34 267.841C442.882 268.923 441.455 270.041 440.057 271.195C438.757 272.266 437.484 273.366 436.236 274.495C435.97 274.736 435.571 274.347 435.838 274.106C436.167 273.807 436.499 273.51 436.832 273.217C437.771 272.387 438.725 271.574 439.695 270.776C441.462 269.32 443.275 267.919 445.134 266.575C448.025 264.483 451.016 262.534 454.105 260.726C455.649 259.823 457.215 258.958 458.801 258.132C459.28 257.882 459.765 257.638 460.255 257.407C461.368 256.859 462.523 256.399 463.711 256.033C465.394 255.501 467.175 255.33 468.931 255.532C470.628 255.773 472.262 256.325 473.748 257.159C476.903 258.882 479.351 261.546 481.733 264.146C481.973 264.41 481.577 264.801 481.334 264.537Z" fill="#3F3D56"/>
<path d="M458.242 276.701C457.44 276.74 456.647 276.518 455.988 276.07C454.241 274.778 454.287 271.674 456.128 266.581C456.629 265.201 457.414 263.936 458.435 262.864C459.456 261.792 460.691 260.936 462.064 260.349C463.351 259.787 464.743 259.493 466.152 259.485C467.561 259.476 468.956 259.754 470.249 260.301C470.475 260.397 470.697 260.5 470.917 260.61C472.414 261.428 473.817 262.401 475.102 263.51C476.195 264.436 477.36 265.277 478.588 266.025L478.998 266.26L478.609 266.527C468.701 273.34 461.984 276.701 458.242 276.701Z" fill="#3F3D56"/>
<path d="M496.341 236.155C493.083 236.155 489.926 235.05 487.409 233.03C484.892 231.009 483.171 228.198 482.54 225.076C479.816 225.615 477.316 226.93 475.356 228.855C473.396 230.78 472.064 233.229 471.528 235.892C470.992 238.556 471.275 241.315 472.343 243.822C473.411 246.328 475.214 248.47 477.527 249.976C479.839 251.482 482.557 252.285 485.336 252.284C488.115 252.283 490.832 251.478 493.144 249.971C495.455 248.463 497.258 246.321 498.324 243.814C499.39 241.306 499.671 238.547 499.133 235.884C498.214 236.064 497.279 236.156 496.341 236.155Z" fill="#3F3D56"/>
<path opacity="0.74" d="M119.772 258.259C131.366 258.259 140.765 249.079 140.765 237.755C140.765 226.43 131.366 217.25 119.772 217.25C108.178 217.25 98.7793 226.43 98.7793 237.755C98.7793 249.079 108.178 258.259 119.772 258.259Z" fill="#3F3D56"/>
<path opacity="0.74" d="M140.765 258.259C152.359 258.259 161.758 249.079 161.758 237.755C161.758 226.43 152.359 217.25 140.765 217.25C129.171 217.25 119.772 226.43 119.772 237.755C119.772 249.079 129.171 258.259 140.765 258.259Z" fill="#D32222"/>
<path opacity="0.74" d="M130.446 241.917C142.04 241.917 151.439 232.737 151.439 221.413C151.439 210.088 142.04 200.908 130.446 200.908C118.852 200.908 109.454 210.088 109.454 221.413C109.454 232.737 118.852 241.917 130.446 241.917Z" fill="#FF6584"/>
<path d="M185.34 215.537L131.418 232.083L131.785 233.223L185.707 216.677L185.34 215.537Z" fill="#3F3D56"/>
<path d="M185.683 218.305C187.035 218.305 188.13 217.236 188.13 215.916C188.13 214.596 187.035 213.526 185.683 213.526C184.332 213.526 183.237 214.596 183.237 215.916C183.237 217.236 184.332 218.305 185.683 218.305Z" fill="#3F3D56"/>
<path d="M535.743 323.443C539.327 325.91 542.771 328.425 546.709 330.325C546.636 330.618 546.556 330.917 546.483 331.209C546 330.988 545.529 330.755 545.058 330.516C541.064 328.473 537.627 325.695 533.877 323.282C532.019 322.027 529.988 321.033 527.847 320.33C525.614 319.675 523.281 319.408 520.954 319.542C511.247 320.008 502.929 325.665 493.907 328.515C489.491 329.913 484.794 330.66 480.188 329.781C475.583 328.903 471.491 326.514 467.423 324.351C463.411 322.212 459.038 320.062 454.353 320.062C450.536 320.068 446.524 321.561 444.481 324.859C444.418 324.957 444.317 325.028 444.201 325.055C444.086 325.083 443.963 325.065 443.861 325.006C443.758 324.947 443.683 324.851 443.652 324.739C443.62 324.627 443.635 324.507 443.692 324.405C444.149 323.653 444.711 322.968 445.362 322.368C448.028 319.9 451.949 318.927 455.552 319.213C460.212 319.584 464.463 321.734 468.494 323.897C472.769 326.191 477.148 328.658 482.09 329.16C486.971 329.662 491.803 328.413 496.329 326.735C505.094 323.479 513.742 318.054 523.492 318.658C528.091 318.944 532.03 320.892 535.743 323.443Z" fill="#3F3D56"/>
<path d="M152.102 150.666V151.878C151.691 151.799 151.273 151.759 150.854 151.759H144.456V165.177C144.455 167.163 143.646 169.068 142.208 170.473C140.77 171.878 138.82 172.667 136.786 172.668H127.33V174.735C127.33 175.564 127.499 176.384 127.826 177.149H126.517C126.243 176.372 126.105 175.557 126.107 174.735V172.668H120.908V171.473H126.107V158.056C126.108 156.069 126.917 154.164 128.355 152.76C129.793 151.355 131.743 150.565 133.777 150.564H143.233V148.473H144.456V150.564H150.854C151.272 150.565 151.689 150.598 152.102 150.666Z" fill="#D32222"/>
<path d="M136.786 141.006H119.709C117.676 141.007 115.725 141.796 114.287 143.201C112.849 144.606 112.041 146.511 112.04 148.497V165.177C112.041 167.163 112.849 169.068 114.287 170.473C115.725 171.878 117.676 172.667 119.709 172.668H136.786C138.82 172.667 140.77 171.878 142.208 170.473C143.647 169.068 144.455 167.163 144.456 165.177V148.473C144.449 146.491 143.638 144.592 142.2 143.192C140.763 141.793 138.816 141.006 136.786 141.006ZM143.233 165.177C143.231 166.846 142.551 168.446 141.342 169.627C140.134 170.807 138.495 171.471 136.786 171.474H119.709C118 171.471 116.362 170.807 115.154 169.627C113.945 168.446 113.265 166.846 113.263 165.177V148.497C113.265 146.828 113.945 145.228 115.154 144.047C116.362 142.867 118 142.203 119.709 142.2H136.786C138.491 142.202 140.126 142.863 141.334 144.038C142.542 145.214 143.224 146.808 143.233 148.473V165.177Z" fill="#3F3D56"/>
<path d="M126.107 171.474V172.668H127.331V171.474H126.107ZM126.107 171.474V172.668H127.331V171.474H126.107ZM152.102 150.666C151.69 150.599 151.272 150.565 150.854 150.564H133.777C131.744 150.565 129.793 151.355 128.355 152.76C126.917 154.164 126.109 156.069 126.107 158.056V174.735C126.105 175.557 126.244 176.372 126.517 177.149C127.034 178.63 128.011 179.915 129.313 180.826C130.615 181.736 132.176 182.226 133.777 182.227H150.854C152.888 182.226 154.838 181.436 156.276 180.032C157.714 178.627 158.523 176.722 158.524 174.735V158.056C158.524 156.28 157.878 154.563 156.701 153.21C155.525 151.856 153.895 150.955 152.102 150.666ZM157.301 174.735C157.298 176.405 156.619 178.005 155.41 179.185C154.202 180.366 152.563 181.03 150.854 181.032H133.777C132.068 181.03 130.43 180.366 129.222 179.185C128.013 178.005 127.333 176.405 127.331 174.735V158.056C127.333 156.386 128.013 154.786 129.221 153.606C130.43 152.425 132.068 151.761 133.777 151.759H150.854C152.564 151.76 154.203 152.423 155.412 153.604C156.621 154.785 157.3 156.386 157.301 158.056V174.735ZM126.107 171.474V172.668H127.331V171.474H126.107Z" fill="#3F3D56"/>
<path d="M114.028 327.213H41.4879C40.9829 327.213 40.4986 327.409 40.141 327.757C39.7834 328.105 39.5815 328.577 39.5796 329.071V333.27C41.9728 342.224 44.8703 351.041 48.2587 359.682H114.028C114.277 359.682 114.525 359.634 114.756 359.541C114.987 359.448 115.197 359.311 115.373 359.138C115.55 358.966 115.69 358.761 115.786 358.535C115.881 358.31 115.93 358.068 115.93 357.824V329.071C115.929 328.578 115.729 328.106 115.372 327.757C115.015 327.409 114.532 327.213 114.028 327.213Z" fill="#D32222"/>
<path d="M107.116 369.008H52.1304C52.7848 370.507 53.4515 371.995 54.1427 373.476H107.116C110.101 373.518 110.07 368.966 107.116 369.008Z" fill="#E4E4E4"/>
<path d="M107.116 379.247H56.9009C57.6348 380.747 58.3891 382.236 59.1639 383.716H107.116C110.101 383.758 110.07 379.211 107.116 379.247Z" fill="#E4E4E4"/>
<path d="M107.116 389.493H62.2529C63.0725 390.992 63.9165 392.48 64.7728 393.962H107.116C110.101 394.003 110.07 389.451 107.116 389.493Z" fill="#E4E4E4"/>
<path d="M483.18 114.107H482.831C483.916 114.108 484.986 114.355 485.956 114.829H484.37C482.661 114.831 481.023 115.495 479.814 116.675C478.606 117.856 477.926 119.456 477.924 121.125V137.806C477.926 139.475 478.606 141.075 479.814 142.256C481.023 143.436 482.661 144.1 484.37 144.102H485.381C484.569 144.413 483.704 144.574 482.831 144.575H483.18C485.051 144.573 486.845 143.846 488.168 142.553C489.491 141.261 490.236 139.509 490.238 137.681V121.001C490.236 119.173 489.491 117.421 488.168 116.128C486.845 114.836 485.051 114.109 483.18 114.107Z" fill="#3F3D56"/>
<path opacity="0.21" d="M483.18 114.107H482.831C483.916 114.108 484.986 114.355 485.956 114.829H484.37C482.661 114.831 481.023 115.495 479.814 116.675C478.606 117.856 477.926 119.456 477.924 121.125V137.806C477.926 139.475 478.606 141.075 479.814 142.256C481.023 143.436 482.661 144.1 484.37 144.102H485.381C484.569 144.413 483.704 144.574 482.831 144.575H483.18C485.051 144.573 486.845 143.846 488.168 142.553C489.491 141.261 490.236 139.509 490.238 137.681V121.001C490.236 119.173 489.491 117.421 488.168 116.128C486.845 114.836 485.051 114.109 483.18 114.107Z" fill="black"/>
<path d="M437.919 114.107H437.57C438.655 114.108 439.725 114.355 440.696 114.829H439.109C437.4 114.831 435.762 115.495 434.553 116.675C433.345 117.856 432.665 119.456 432.663 121.125V137.806C432.665 139.475 433.345 141.075 434.553 142.256C435.762 143.436 437.4 144.1 439.109 144.102H440.121C439.308 144.413 438.443 144.574 437.57 144.575H437.919C439.79 144.573 441.584 143.846 442.907 142.553C444.231 141.261 444.975 139.509 444.977 137.681V121.001C444.975 119.173 444.231 117.421 442.907 116.128C441.584 114.836 439.79 114.109 437.919 114.107Z" fill="#D32222"/>
<path opacity="0.21" d="M437.919 114.107H437.57C438.655 114.108 439.725 114.355 440.696 114.829H439.109C437.4 114.831 435.762 115.495 434.553 116.675C433.345 117.856 432.665 119.456 432.663 121.125V137.806C432.665 139.475 433.345 141.075 434.553 142.256C435.762 143.436 437.4 144.1 439.109 144.102H440.121C439.308 144.413 438.443 144.574 437.57 144.575H437.919C439.79 144.573 441.584 143.846 442.907 142.553C444.231 141.261 444.975 139.509 444.977 137.681V121.001C444.975 119.173 444.231 117.421 442.907 116.128C441.584 114.836 439.79 114.109 437.919 114.107Z" fill="black"/>
<path d="M439.178 144.154C437.469 144.152 435.83 143.488 434.622 142.308C433.413 141.127 432.733 139.527 432.731 137.858V121.177C432.733 119.508 433.413 117.908 434.622 116.727C435.83 115.547 437.469 114.883 439.178 114.881H440.764C439.793 114.407 438.724 114.16 437.639 114.159H420.561C418.69 114.161 416.896 114.888 415.573 116.18C414.25 117.473 413.506 119.225 413.503 121.053V137.733C413.506 139.561 414.25 141.313 415.573 142.605C416.896 143.898 418.69 144.625 420.561 144.627H437.639C438.512 144.626 439.376 144.465 440.189 144.154L439.178 144.154Z" fill="#D32222"/>
<path d="M484.439 144.154C482.73 144.152 481.091 143.488 479.883 142.308C478.674 141.127 477.994 139.527 477.993 137.858V121.177C477.994 119.508 478.674 117.908 479.883 116.727C481.091 115.547 482.73 114.883 484.439 114.881H486.025C485.055 114.407 483.985 114.16 482.9 114.159H465.823C463.951 114.161 462.157 114.888 460.834 116.18C459.511 117.473 458.767 119.225 458.765 121.053V137.733C458.767 139.561 459.511 141.313 460.834 142.605C462.157 143.898 463.951 144.625 465.823 144.627H482.9C483.773 144.626 484.638 144.465 485.45 144.154L484.439 144.154Z" fill="#3F3D56"/>
<path d="M504.605 118.31C510.872 126.731 516.605 135.52 521.773 144.626H511.082C509.211 144.623 507.417 143.896 506.094 142.604C504.771 141.311 504.026 139.559 504.023 137.732V121.052C504.023 120.109 504.221 119.175 504.605 118.31Z" fill="#FF6584"/>
<path d="M483.167 153.378L477.185 144.626L472.812 138.227C472.557 137.854 472.199 137.558 471.778 137.375C471.358 137.192 470.894 137.13 470.439 137.194C469.984 137.258 469.556 137.447 469.207 137.739C468.857 138.031 468.599 138.414 468.463 138.843L466.622 144.626L462.916 156.245C462.769 156.708 462.771 157.204 462.92 157.666C463.07 158.128 463.36 158.534 463.752 158.831C464.144 159.128 464.62 159.301 465.115 159.326C465.611 159.352 466.102 159.23 466.524 158.976L467.839 158.181C468.104 158.022 468.406 157.931 468.717 157.917C469.027 157.904 469.336 157.968 469.614 158.104C469.893 158.24 470.131 158.443 470.306 158.694C470.481 158.944 470.588 159.235 470.616 159.537L471.821 172.382C471.878 172.971 472.157 173.52 472.605 173.92C473.053 174.319 473.637 174.542 474.243 174.544C474.317 174.544 474.39 174.538 474.47 174.532L476.317 174.371C476.635 174.343 476.945 174.253 477.228 174.108C477.512 173.963 477.763 173.764 477.967 173.524C478.172 173.283 478.326 173.006 478.42 172.708C478.515 172.409 478.548 172.095 478.519 171.784L477.277 158.522C477.248 158.21 477.303 157.896 477.437 157.612C477.571 157.328 477.779 157.083 478.041 156.903C478.303 156.723 478.608 156.613 478.927 156.584C479.246 156.556 479.567 156.61 479.858 156.741L480.127 156.861C480.609 157.077 481.15 157.134 481.668 157.023C482.187 156.912 482.653 156.638 482.997 156.244C483.342 155.849 483.544 155.356 483.575 154.839C483.606 154.321 483.462 153.808 483.167 153.378Z" fill="#B8B8B8"/>
</g>
<defs>
<clipPath id="clip0_209_95">
<rect width="552" height="524" fill="white"/>
</clipPath>
</defs>
</svg>
