<svg width="500" height="500" viewBox="0 0 500 500" fill="none" xmlns="http://www.w3.org/2000/svg">
<path d="M125.23 389.24C194.14 422.08 305.86 422.09 374.77 389.24C443.68 356.39 443.67 303.15 374.77 270.31C305.87 237.47 194.14 237.47 125.23 270.31C56.3195 303.15 56.3295 356.4 125.23 389.24Z" fill="#F5F5F5"/>
<path d="M374.53 364.97C387.221 364.97 397.51 360.068 397.51 354.02C397.51 347.972 387.221 343.07 374.53 343.07C361.838 343.07 351.55 347.972 351.55 354.02C351.55 360.068 361.838 364.97 374.53 364.97Z" fill="#EBEBEB"/>
<path d="M120 355.59L128.13 350.9C132.669 347.196 136.124 342.335 138.13 336.83C140.64 329.91 140.29 324.65 138.49 322.01C136.28 318.76 130.55 319.33 130.32 326.17C129.84 339.65 125.91 349 120 355.59Z" fill="#D32222"/>
<path opacity="0.2" d="M120 355.59L128.13 350.9C132.669 347.196 136.124 342.335 138.13 336.83C140.64 329.91 140.29 324.65 138.49 322.01C136.28 318.76 130.55 319.33 130.32 326.17C129.84 339.65 125.91 349 120 355.59Z" fill="black"/>
<path d="M120.001 356.09C119.895 356.089 119.792 356.054 119.707 355.99C119.623 355.927 119.56 355.838 119.529 355.737C119.498 355.636 119.5 355.527 119.534 355.427C119.569 355.327 119.634 355.241 119.721 355.18C138.521 342.18 134.881 324.05 134.841 323.87C134.827 323.804 134.826 323.737 134.839 323.671C134.851 323.605 134.876 323.542 134.913 323.486C134.95 323.429 134.997 323.381 135.052 323.343C135.108 323.305 135.17 323.279 135.236 323.265C135.301 323.251 135.369 323.25 135.435 323.263C135.501 323.275 135.564 323.3 135.62 323.337C135.676 323.374 135.725 323.421 135.762 323.477C135.8 323.532 135.827 323.594 135.841 323.66C135.841 323.85 139.681 342.6 120.321 356C120.227 356.064 120.114 356.096 120.001 356.09Z" fill="white"/>
<path d="M103.71 365C103.71 365 100.88 362.7 101.56 359.58C102.24 356.46 104.07 354.22 100.94 350.2C97.8103 346.18 96.9403 340.82 100.68 337.92C103.53 335.67 107.98 338.85 109.58 332.92C110.76 328.58 110.36 318.97 115.89 315.77C121.42 312.57 124.89 317.39 124.02 323.91C123.26 329.74 122.18 335.35 123.02 336.91C124.64 339.91 127.41 339.5 127.28 344.98C127.17 350.08 122.34 354.3 122.34 354.3L103.71 365Z" fill="#D32222"/>
<path d="M113.001 360.11C112.878 360.109 112.761 360.064 112.669 359.983C112.577 359.902 112.517 359.791 112.501 359.67C111.071 347.82 114.501 327.36 117.301 321.28C117.324 321.213 117.362 321.151 117.411 321.099C117.461 321.048 117.521 321.007 117.587 320.981C117.653 320.954 117.725 320.942 117.796 320.945C117.867 320.949 117.937 320.967 118.001 321C118.06 321.027 118.114 321.065 118.159 321.113C118.203 321.161 118.238 321.218 118.26 321.279C118.282 321.341 118.292 321.406 118.289 321.472C118.286 321.537 118.269 321.601 118.241 321.66C115.471 327.66 112.161 348.18 113.531 359.51C113.545 359.641 113.506 359.773 113.424 359.876C113.342 359.979 113.222 360.045 113.091 360.06L113.001 360.11Z" fill="white"/>
<path d="M112.731 350.88C112.654 350.884 112.578 350.866 112.511 350.83C109.041 349.14 106.841 343.11 106.751 342.83C106.726 342.768 106.714 342.701 106.716 342.634C106.718 342.568 106.733 342.502 106.76 342.441C106.788 342.38 106.827 342.325 106.876 342.28C106.925 342.234 106.983 342.199 107.046 342.176C107.109 342.154 107.175 342.144 107.242 342.147C107.309 342.151 107.374 342.168 107.434 342.197C107.495 342.226 107.548 342.267 107.592 342.318C107.636 342.368 107.67 342.426 107.691 342.49C107.691 342.55 109.841 348.39 112.951 349.9C113.053 349.949 113.135 350.032 113.184 350.134C113.233 350.236 113.245 350.352 113.22 350.463C113.194 350.573 113.132 350.672 113.043 350.742C112.954 350.812 112.844 350.85 112.731 350.85V350.88Z" fill="white"/>
<path d="M112.67 354.88C112.57 354.88 112.472 354.849 112.39 354.792C112.307 354.735 112.245 354.654 112.21 354.56C112.16 354.438 112.161 354.301 112.211 354.179C112.262 354.058 112.358 353.961 112.48 353.91C118.32 351.57 121.96 344.62 122 344.54C122.061 344.422 122.166 344.333 122.293 344.293C122.419 344.252 122.557 344.264 122.675 344.325C122.793 344.386 122.882 344.491 122.922 344.618C122.962 344.745 122.951 344.882 122.89 345C122.73 345.3 119.04 352.36 112.89 354.84C112.821 354.872 112.745 354.886 112.67 354.88Z" fill="white"/>
<path d="M316.801 301.08C316.801 301.08 312.431 294 312.001 286.31C311.571 278.62 313.261 275.42 315.581 274.5C317.901 273.58 318.081 276.41 319.271 278.08C320.461 279.75 322.891 278.8 323.791 273.59C324.691 268.38 327.971 259.59 334.791 257.88C342.291 256.02 338.271 264.82 336.381 268.25C334.491 271.68 333.031 276.36 334.271 277.63C335.511 278.9 337.441 276.55 339.271 278.73C341.501 281.36 334.571 290.83 330.591 293.12L316.801 301.08Z" fill="#D32222"/>
<path d="M322.79 298.11C322.724 298.107 322.66 298.092 322.6 298.064C322.54 298.037 322.487 297.998 322.442 297.949C322.398 297.901 322.363 297.845 322.34 297.783C322.318 297.721 322.307 297.656 322.31 297.59C322.987 285.22 326.845 273.233 333.51 262.79C333.548 262.736 333.596 262.689 333.652 262.654C333.708 262.619 333.771 262.596 333.836 262.585C333.902 262.575 333.969 262.578 334.033 262.594C334.097 262.611 334.157 262.64 334.21 262.68C334.315 262.758 334.385 262.874 334.406 263.003C334.426 263.131 334.395 263.263 334.32 263.37C327.774 273.66 323.986 285.462 323.32 297.64C323.316 297.706 323.299 297.77 323.271 297.829C323.242 297.888 323.202 297.941 323.153 297.985C323.103 298.029 323.046 298.062 322.984 298.084C322.922 298.105 322.856 298.114 322.79 298.11Z" fill="white"/>
<path d="M323.36 292.2C323.277 292.199 323.194 292.179 323.12 292.14C320.32 290.59 318.77 285.99 318.71 285.8C318.688 285.738 318.679 285.671 318.682 285.605C318.686 285.539 318.703 285.475 318.732 285.415C318.76 285.356 318.801 285.302 318.85 285.259C318.9 285.215 318.958 285.181 319.02 285.16C319.146 285.119 319.283 285.13 319.401 285.19C319.52 285.25 319.609 285.354 319.65 285.48C319.65 285.48 321.15 289.91 323.65 291.26C323.764 291.327 323.847 291.435 323.882 291.562C323.917 291.688 323.902 291.824 323.84 291.94C323.795 292.026 323.725 292.097 323.64 292.143C323.554 292.189 323.457 292.209 323.36 292.2Z" fill="white"/>
<path d="M323.85 289.17C323.74 289.169 323.632 289.131 323.545 289.062C323.458 288.993 323.397 288.897 323.37 288.79C323.354 288.727 323.35 288.661 323.359 288.597C323.369 288.532 323.391 288.47 323.424 288.414C323.458 288.358 323.502 288.31 323.555 288.271C323.607 288.233 323.667 288.205 323.73 288.19C330.95 286.36 333.45 282.58 333.47 282.54C333.506 282.484 333.552 282.436 333.606 282.398C333.66 282.36 333.721 282.333 333.786 282.318C333.85 282.304 333.917 282.303 333.982 282.314C334.047 282.325 334.11 282.349 334.165 282.385C334.221 282.42 334.269 282.466 334.307 282.521C334.345 282.575 334.372 282.636 334.387 282.7C334.401 282.765 334.403 282.832 334.391 282.897C334.38 282.962 334.356 283.024 334.32 283.08C334.21 283.25 331.61 287.22 323.98 289.16L323.85 289.17Z" fill="white"/>
<path d="M208.001 285.54C208.001 285.54 198.411 283.2 197.911 265.24C197.381 245.86 200.261 223.24 188.911 221.41C177.561 219.58 171.261 233.41 171.401 249.56C171.531 263.7 177.231 294.4 207.961 300.42L208.001 285.54Z" fill="#D32222"/>
<path opacity="0.2" d="M208.001 285.54C208.001 285.54 198.411 283.2 197.911 265.24C197.381 245.86 200.261 223.24 188.911 221.41C177.561 219.58 171.261 233.41 171.401 249.56C171.531 263.7 177.231 294.4 207.961 300.42L208.001 285.54Z" fill="black"/>
<path d="M208.001 298.58H207.911C201.001 297.32 195.371 293.51 191.181 287.27C178.761 268.74 182.671 234.14 183.961 228.1C183.989 227.971 184.067 227.859 184.177 227.786C184.287 227.713 184.421 227.686 184.551 227.71C184.68 227.741 184.793 227.821 184.865 227.932C184.938 228.044 184.965 228.179 184.941 228.31C183.671 234.31 179.781 268.47 192.011 286.71C193.791 289.539 196.139 291.966 198.908 293.839C201.676 295.712 204.803 296.989 208.091 297.59C208.156 297.602 208.218 297.627 208.274 297.663C208.329 297.699 208.377 297.746 208.414 297.801C208.451 297.856 208.477 297.918 208.49 297.983C208.504 298.048 208.504 298.115 208.491 298.18C208.469 298.294 208.408 298.396 208.319 298.47C208.229 298.543 208.116 298.582 208.001 298.58Z" fill="white"/>
<path d="M208 344.67C198.09 346.01 182 345.99 172.71 338.67C163.42 331.35 165.36 325.05 168.93 322.42C172.5 319.79 175.6 316.79 169.46 310.95C163.32 305.11 153.46 295.73 150.26 281.66C147.06 267.59 148.64 258.79 154.92 255.86C161.01 253.02 162.62 257.54 166.35 266.86C170.08 276.18 178.47 268.19 185.65 271.1C192.83 274.01 192.54 279.77 192.99 284.72C193.44 289.67 195.81 291.04 199.88 291.04C203.95 291.04 208 293.38 208 298.04V344.67Z" fill="#D32222"/>
<path d="M208 328.33C207.957 328.339 207.913 328.339 207.87 328.33C207.44 328.21 197.19 325.23 182.26 311.52C166.36 296.92 158.86 275.02 158.78 274.8C158.742 274.674 158.753 274.538 158.813 274.421C158.873 274.303 158.976 274.213 159.1 274.17C159.225 274.129 159.361 274.138 159.478 274.196C159.596 274.254 159.687 274.356 159.73 274.48C159.8 274.7 167.23 296.36 182.94 310.78C197.66 324.31 208.03 327.34 208.14 327.37C208.203 327.388 208.262 327.419 208.313 327.46C208.364 327.501 208.407 327.552 208.438 327.61C208.47 327.667 208.49 327.73 208.497 327.796C208.504 327.861 208.498 327.927 208.48 327.99C208.447 328.091 208.383 328.179 208.297 328.24C208.21 328.301 208.106 328.333 208 328.33Z" fill="white"/>
<path d="M186.43 315C186.329 315.002 186.231 314.972 186.148 314.914C186.066 314.857 186.003 314.775 185.97 314.68C182.76 306.44 182.03 288.81 181.97 288.06C181.967 287.928 182.015 287.8 182.105 287.703C182.194 287.606 182.318 287.548 182.45 287.54C182.58 287.542 182.706 287.592 182.802 287.681C182.898 287.769 182.958 287.89 182.97 288.02C182.97 288.2 183.72 306.23 186.87 314.32C186.894 314.382 186.906 314.448 186.904 314.514C186.902 314.58 186.888 314.645 186.861 314.706C186.834 314.766 186.795 314.821 186.747 314.866C186.699 314.911 186.642 314.947 186.58 314.97C186.532 314.987 186.481 314.997 186.43 315Z" fill="white"/>
<path d="M186.35 326.85C185.428 326.857 184.507 326.811 183.59 326.71C183.524 326.702 183.461 326.681 183.403 326.649C183.346 326.617 183.295 326.573 183.254 326.521C183.213 326.469 183.183 326.41 183.165 326.346C183.147 326.282 183.142 326.216 183.15 326.15C183.158 326.084 183.179 326.021 183.211 325.963C183.243 325.906 183.287 325.855 183.339 325.814C183.391 325.773 183.45 325.743 183.514 325.725C183.578 325.707 183.644 325.702 183.71 325.71C183.8 325.71 193.11 326.77 197.38 322.42C197.425 322.367 197.479 322.325 197.541 322.294C197.603 322.264 197.67 322.246 197.739 322.243C197.808 322.24 197.877 322.251 197.941 322.276C198.005 322.301 198.064 322.338 198.113 322.387C198.162 322.435 198.201 322.493 198.226 322.557C198.252 322.621 198.264 322.689 198.262 322.758C198.26 322.827 198.243 322.895 198.214 322.957C198.184 323.019 198.142 323.075 198.09 323.12C195 326.31 189.61 326.85 186.35 326.85Z" fill="white"/>
<path d="M179.15 137.49L178.07 131.26L172.51 134.92C172.002 133.92 171.282 133.043 170.4 132.35L173.06 125.15L168.06 124.04L164.4 131.04C163.076 131.263 161.792 131.681 160.59 132.28L159 127L153.06 131.67L153.45 137.87C152.241 139.225 151.144 140.677 150.17 142.21L145.27 141.96L141.83 149.67L146.04 151.47C145.601 153.065 145.323 154.7 145.21 156.35L139.86 161.27L140.93 167.51L146.5 163.85C147.005 164.849 147.726 165.723 148.61 166.41L146 173.62L151 174.72L156.24 169.62C157.45 169.43 157.15 167.15 158.47 166.5L160.06 171.76L165.99 167.1L165.84 164.66C167.04 163.32 171.58 160.37 172.56 158.83L173.79 156.83L177.23 149.12L175.63 146.22L173.85 142.44L179.15 137.49ZM161 158C156.44 161.58 155 162.37 154.23 157.58C153.46 152.79 156.07 145.51 160.63 141.92C165.19 138.33 166.93 138.08 167.75 142.86C168.57 147.64 165.57 154.46 161 158Z" fill="#E0E0E0"/>
<path d="M168.1 124.04L174.59 127.78L170.93 134.76L164.44 131.02L168.1 124.04Z" fill="#F5F5F5"/>
<path d="M184.561 135L179.001 138.66L172.511 134.92L178.071 131.26L184.561 135Z" fill="#F5F5F5"/>
<path d="M183.671 152.83L179.461 151.04L172.971 147.3L177.181 149.09L183.671 152.83Z" fill="#E0E0E0"/>
<path d="M145.99 173.62L152.48 177.35L155.14 170.15L148.65 166.41L145.99 173.62Z" fill="#E0E0E0"/>
<path d="M166.491 175.5L160.011 171.76L158.421 166.5L164.911 170.24L166.491 175.5Z" fill="#E0E0E0"/>
<path d="M185.631 141.23L184.561 135L179.001 138.66C178.489 137.66 177.765 136.783 176.881 136.09L179.541 128.89L174.591 127.78L170.921 134.78C169.596 135.003 168.313 135.421 167.111 136.02L165.531 130.76L159.591 135.43L159.981 141.63C158.77 142.995 157.673 144.456 156.701 146L151.791 145.75L148.351 153.46L152.561 155.26C152.125 156.859 151.847 158.497 151.731 160.15L146.391 165L147.461 171.24L153.021 167.58C153.532 168.578 154.256 169.451 155.141 170.14L152.481 177.34L157.481 178.45L161.141 171.45C162.47 171.229 163.758 170.808 164.961 170.2L166.541 175.46L172.481 170.8L172.091 164.6C173.3 163.245 174.397 161.794 175.371 160.26L180.281 160.5L183.721 152.79L179.451 151C179.893 149.402 180.175 147.764 180.291 146.11L185.631 141.23ZM167.501 161.78C162.951 165.36 158.591 164.39 157.761 159.61C156.931 154.83 159.961 148.04 164.521 144.46C169.081 140.88 173.431 141.86 174.261 146.64C175.091 151.42 172.061 158.2 167.501 161.78Z" fill="#EBEBEB"/>
<path d="M165.531 130.74L159.041 127L153.101 131.67L159.591 135.41L165.531 130.74Z" fill="#F5F5F5"/>
<path d="M153.101 131.67L153.491 137.87L159.981 141.61L159.591 135.41L153.101 131.67Z" fill="#E0E0E0"/>
<path d="M156.701 145.95L150.211 142.21L145.311 141.97L151.791 145.71L156.701 145.95Z" fill="#F5F5F5"/>
<path d="M145.31 141.97L141.87 149.67L148.35 153.41L151.79 145.71L145.31 141.97Z" fill="#E0E0E0"/>
<path d="M151.73 160.09L145.25 156.35L139.9 161.27L146.38 165.01L151.73 160.09Z" fill="#F5F5F5"/>
<path d="M147.46 171.25L140.97 167.51L139.9 161.27L146.38 165.01L147.46 171.25Z" fill="#E0E0E0"/>
<path d="M174.591 127.78L168.101 124.04L173.061 125.15L179.541 128.89L174.591 127.78Z" fill="#F5F5F5"/>
<path d="M150.09 109.21V99.9L142.68 103.24C142.288 101.66 141.61 100.166 140.68 98.83L145.35 89.42L139.65 86.13L133.83 94.88C132.209 94.7383 130.574 94.8977 129.01 95.35L128.19 87.26L120.13 91.92L119.32 100.92C117.566 102.474 115.953 104.181 114.5 106.02L108.68 104.02L102.98 113.9L107.64 117.9C106.779 120.078 106.11 122.326 105.64 124.62L98.2305 129.83V139.15L105.64 135.81C106.033 137.39 106.711 138.884 107.64 140.22L103 149.64L108.7 152.93L114.52 144.18C116.142 144.321 117.776 144.162 119.34 143.71L120.15 151.8L128.21 147.14L129.03 138.14C131.546 137.222 133.775 135.656 135.49 133.6L139.67 135.07L145.37 125.2L141.87 122.2C142.63 119.698 142.912 117.076 142.7 114.47L150.09 109.21ZM124.16 132.47C117.98 136.04 114.16 133.47 114.16 126.36C114.16 119.25 119.27 110.46 125.46 106.89C131.65 103.32 135.39 105.89 135.39 113.06C135.39 120.23 130.35 128.89 124.16 132.47Z" fill="#E0E0E0"/>
<path d="M146.13 89.86L139.65 86.13L133.83 94.88L140.31 98.62L146.13 89.86Z" fill="#F5F5F5"/>
<path d="M156.581 103.64L150.091 99.9L142.681 103.24L149.171 106.98L156.581 103.64Z" fill="#F5F5F5"/>
<path d="M126.61 155.54L120.13 151.8L119.32 143.71L125.8 147.45L126.61 155.54Z" fill="#E0E0E0"/>
<path d="M102.971 149.64L109.461 153.38L114.131 143.97L107.641 140.23L102.971 149.64Z" fill="#E0E0E0"/>
<path d="M156.581 113V103.69L149.171 107C148.782 105.419 148.104 103.924 147.171 102.59L151.841 93.18L146.141 89.88L140.321 98.64C138.699 98.4934 137.064 98.6528 135.501 99.11L134.681 91L126.621 95.66L125.801 104.66C124.049 106.217 122.436 107.923 120.981 109.76L115.161 107.76L109.461 117.64L114.131 121.64C113.265 123.816 112.596 126.065 112.131 128.36L104.721 133.57V142.89L112.131 139.55C112.519 141.131 113.197 142.626 114.131 143.96L109.461 153.37L115.161 156.66L120.981 147.91C122.603 148.052 124.237 147.892 125.801 147.44L126.621 155.53L134.681 150.87L135.491 141.87C137.245 140.316 138.858 138.609 140.311 136.77L146.131 138.77L151.831 128.9L147.161 124.9C148.026 122.724 148.695 120.475 149.161 118.18L156.581 113ZM130.651 136.26C124.461 139.83 119.441 136.93 119.441 129.79C119.441 122.65 124.441 113.96 130.651 110.38C136.861 106.8 141.851 109.71 141.851 116.85C141.851 123.99 136.831 132.63 130.651 136.21V136.26Z" fill="#EBEBEB"/>
<path d="M114.501 106.04L120.981 109.78L115.161 107.75L108.681 104L114.501 106.04Z" fill="#F0F0F0"/>
<path d="M108.68 104.01L102.979 113.894L109.466 117.636L115.168 107.753L108.68 104.01Z" fill="#F5F5F5"/>
<path d="M102.971 113.88L109.461 117.62L114.131 121.64L107.641 117.91L102.971 113.88Z" fill="#E0E0E0"/>
<path d="M105.64 124.63L112.13 128.37L104.72 133.58L98.2305 129.84L105.64 124.63Z" fill="#F5F5F5"/>
<path d="M98.2305 129.84L104.72 133.58V142.9L98.2305 139.16V129.84Z" fill="#E0E0E0"/>
<path d="M134.681 91L128.191 87.26L120.131 91.92L126.611 95.66L134.681 91Z" fill="#F5F5F5"/>
<path d="M217.88 358.05L311.88 303.77C312.087 303.697 312.266 303.562 312.393 303.383C312.52 303.204 312.588 302.99 312.588 302.77C312.588 302.551 312.52 302.336 312.393 302.157C312.266 301.978 312.087 301.843 311.88 301.77L303.19 296.77C302.652 296.499 302.057 296.358 301.455 296.358C300.852 296.358 300.258 296.499 299.72 296.77L205.69 351C205.483 351.073 205.303 351.208 205.176 351.387C205.05 351.566 204.981 351.781 204.981 352C204.981 352.22 205.05 352.434 205.176 352.613C205.303 352.792 205.483 352.927 205.69 353L214.41 358C214.944 358.279 215.536 358.428 216.139 358.437C216.742 358.446 217.338 358.313 217.88 358.05Z" fill="#E0E0E0"/>
<path d="M309.3 94.2001L224.54 143.14C223.28 143.962 222.231 145.07 221.479 146.373C220.727 147.676 220.292 149.138 220.21 150.64V351.71C220.21 354.47 222.15 355.59 224.54 354.21L309.3 305.27C310.562 304.45 311.611 303.342 312.364 302.039C313.116 300.736 313.55 299.273 313.63 297.77V96.7001C313.63 93.9401 311.7 92.8201 309.3 94.2001Z" fill="#455A64"/>
<path d="M224.54 143.14L309.3 94.2C311.44 92.96 313.21 93.73 313.57 95.88C313.37 94.5283 312.886 93.2342 312.15 92.0828C311.414 90.9315 310.443 89.949 309.3 89.2L305.78 87.2C304.438 86.5192 302.955 86.1644 301.45 86.1644C299.945 86.1644 298.462 86.5192 297.12 87.2L212.35 136.1C211.073 136.901 210.02 138.012 209.29 139.33L221.48 146.33C222.21 145.022 223.264 143.924 224.54 143.14Z" fill="#37474F"/>
<path d="M208 344.67C208.082 346.172 208.517 347.634 209.269 348.937C210.021 350.24 211.07 351.348 212.33 352.17L215.86 354.17C217.082 354.781 218.419 355.127 219.784 355.186C221.149 355.245 222.51 355.014 223.78 354.51C221.78 355.29 220.19 354.14 220.19 351.67V150.64C220.24 149.131 220.677 147.661 221.46 146.37L209.27 139.37C208.498 140.651 208.062 142.106 208 143.6V344.67Z" fill="#263238"/>
<path d="M226.87 169.93L307 123.68C308.44 122.86 309.6 123.53 309.6 125.18V274C309.552 274.902 309.291 275.78 308.839 276.562C308.387 277.344 307.757 278.008 307 278.5L226.9 324.75C225.46 325.58 224.3 324.91 224.3 323.25V174.43C224.345 173.531 224.602 172.655 225.048 171.873C225.495 171.092 226.119 170.426 226.87 169.93Z" fill="white"/>
<path d="M266.919 126.29C266.477 126.58 266.109 126.971 265.845 127.429C265.581 127.888 265.428 128.402 265.399 128.93C265.399 129.93 266.079 130.3 266.919 129.81C267.363 129.521 267.733 129.132 267.997 128.673C268.261 128.214 268.413 127.699 268.439 127.17C268.439 126.2 267.759 125.81 266.919 126.29Z" fill="#37474F"/>
<path d="M266.92 308.74C265.172 309.884 263.718 311.423 262.675 313.233C261.633 315.044 261.031 317.074 260.92 319.16C260.92 322.99 263.61 324.55 266.92 322.63C268.668 321.486 270.121 319.946 271.164 318.136C272.206 316.326 272.808 314.296 272.92 312.21C272.94 308.38 270.24 306.82 266.92 308.74Z" fill="#37474F"/>
<path d="M252.53 141.77C251.651 142.353 250.922 143.135 250.401 144.052C249.88 144.97 249.582 145.996 249.53 147.05C249.53 148.99 250.89 149.78 252.53 148.81C253.418 148.232 254.158 147.453 254.688 146.535C255.218 145.618 255.523 144.588 255.58 143.53C255.58 141.59 254.22 140.8 252.53 141.77Z" fill="#37474F"/>
<path d="M260 141.11C260 142.41 261 142.9 262.17 142.21L282.17 130.64C282.79 130.253 283.309 129.725 283.686 129.1C284.063 128.474 284.287 127.769 284.34 127.04C284.34 125.75 283.34 125.26 282.17 125.95L262.17 137.52C261.552 137.906 261.033 138.432 260.656 139.056C260.279 139.68 260.054 140.383 260 141.11Z" fill="#37474F"/>
<path d="M214.76 176.37C215.47 176.832 216.06 177.455 216.484 178.188C216.908 178.922 217.154 179.744 217.2 180.59C217.2 182.15 216.11 182.78 214.76 182C214.053 181.536 213.464 180.912 213.042 180.179C212.62 179.446 212.376 178.625 212.33 177.78C212.33 176.23 213.42 175.6 214.76 176.37Z" fill="#37474F"/>
<path d="M214.76 195.15C215.47 195.612 216.06 196.235 216.484 196.968C216.908 197.702 217.154 198.524 217.2 199.37C217.2 200.92 216.11 201.55 214.76 200.78C214.053 200.316 213.464 199.692 213.042 198.959C212.62 198.226 212.376 197.405 212.33 196.56C212.33 195 213.42 194.37 214.76 195.15Z" fill="#37474F"/>
<path d="M214 176.75C214.709 177.212 215.3 177.835 215.724 178.568C216.148 179.302 216.393 180.124 216.44 180.97C216.44 182.52 215.35 183.15 214 182.38C213.29 181.918 212.699 181.295 212.275 180.562C211.851 179.828 211.606 179.006 211.56 178.16C211.57 176.6 212.66 176 214 176.75Z" fill="#455A64"/>
<path d="M214 195.52C214.711 195.983 215.302 196.608 215.726 197.343C216.15 198.078 216.395 198.903 216.44 199.75C216.44 201.3 215.35 201.93 214 201.15C213.288 200.69 212.696 200.067 212.272 199.333C211.848 198.6 211.604 197.776 211.56 196.93C211.57 195.38 212.66 194.75 214 195.52Z" fill="#455A64"/>
<path d="M325.82 129.89C325.82 128.23 324.66 127.56 323.22 128.39L313.63 133.92L243.12 174.64C242.362 175.132 241.732 175.796 241.28 176.578C240.828 177.36 240.568 178.238 240.52 179.14V327.92C240.52 329.58 241.68 330.25 243.12 329.42L313.66 288.69L323.22 283.17C323.977 282.678 324.607 282.014 325.059 281.232C325.511 280.45 325.771 279.572 325.82 278.67V129.89Z" fill="white"/>
<path d="M326.82 129.89C326.883 129.389 326.796 128.88 326.571 128.427C326.347 127.974 325.993 127.598 325.556 127.345C325.118 127.092 324.616 126.974 324.111 127.005C323.607 127.036 323.123 127.215 322.72 127.52L313.57 132.81L242.62 173.81C241.706 174.387 240.947 175.177 240.407 176.112C239.867 177.048 239.562 178.101 239.52 179.18V327.92C239.48 328.419 239.575 328.92 239.797 329.369C240.019 329.818 240.359 330.199 240.78 330.47C241.138 330.678 241.546 330.785 241.96 330.78C242.546 330.762 243.117 330.593 243.62 330.29L314.62 289.29L323.75 284.02C324.658 283.438 325.413 282.646 325.953 281.712C326.492 280.778 326.8 279.728 326.85 278.65L326.82 129.89ZM313.59 287.58L312.77 288.06L242.66 328.54C242.542 328.631 242.405 328.694 242.26 328.725C242.115 328.756 241.964 328.754 241.82 328.72C241.69 328.64 241.56 328.36 241.56 327.9V179.14C241.611 178.414 241.827 177.709 242.191 177.079C242.555 176.448 243.057 175.908 243.66 175.5L313.7 135L323.7 129.21C323.818 129.12 323.954 129.056 324.099 129.025C324.245 128.994 324.395 128.996 324.54 129.03C324.67 129.11 324.8 129.39 324.8 129.85V278.67C324.748 279.396 324.532 280.101 324.168 280.732C323.804 281.362 323.302 281.902 322.7 282.31L313.57 287.58H313.59Z" fill="#D32222"/>
<path d="M283.17 164.46C292.17 159.28 299.42 163.46 299.42 173.85C299.42 184.24 292.14 196.85 283.17 201.99C274.2 207.13 266.92 202.99 266.92 192.61C266.92 182.23 274.2 169.65 283.17 164.46Z" fill="#D32222"/>
<path d="M283.169 172.62C286.079 170.94 288.439 172.3 288.439 175.62C288.341 177.449 287.812 179.229 286.896 180.815C285.981 182.402 284.704 183.75 283.169 184.75C280.259 186.43 277.899 185.07 277.899 181.75C277.998 179.921 278.527 178.141 279.443 176.555C280.358 174.969 281.635 173.62 283.169 172.62Z" fill="#D32222"/>
<path d="M293.44 190.54C293.44 185.02 289.57 182.78 284.78 185.54L281.78 187.27C277 190.03 273.12 196.75 273.12 202.27V203.76C275.89 204.67 279.37 204.18 283.12 201.99C287.274 199.428 290.787 195.949 293.39 191.82L293.44 190.54Z" fill="#D32222"/>
<path opacity="0.7" d="M283.169 172.62C286.079 170.94 288.439 172.3 288.439 175.62C288.341 177.449 287.812 179.229 286.896 180.815C285.981 182.402 284.704 183.75 283.169 184.75C280.259 186.43 277.899 185.07 277.899 181.75C277.998 179.921 278.527 178.141 279.443 176.555C280.358 174.969 281.635 173.62 283.169 172.62Z" fill="white"/>
<path opacity="0.7" d="M293.44 190.54C293.44 185.02 289.57 182.78 284.78 185.54L281.78 187.27C277 190.03 273.12 196.75 273.12 202.27V203.76C275.89 204.67 279.37 204.18 283.12 201.99C287.274 199.428 290.787 195.949 293.39 191.82L293.44 190.54Z" fill="white"/>
<path d="M251.73 224.84L272.64 212.77C273.64 212.22 274.37 212.66 274.37 213.77V214.46C274.338 215.061 274.165 215.646 273.865 216.167C273.564 216.689 273.144 217.132 272.64 217.46L251.73 229.53C250.78 230.08 250 229.63 250 228.53V227.84C250.032 227.239 250.206 226.654 250.507 226.133C250.807 225.612 251.226 225.169 251.73 224.84Z" fill="#D32222"/>
<path opacity="0.1" d="M251.73 224.84L272.64 212.77C273.64 212.22 274.37 212.66 274.37 213.77V214.46C274.338 215.061 274.165 215.646 273.865 216.167C273.564 216.689 273.144 217.132 272.64 217.46L251.73 229.53C250.78 230.08 250 229.63 250 228.53V227.84C250.032 227.239 250.206 226.654 250.507 226.133C250.807 225.612 251.226 225.169 251.73 224.84Z" fill="black"/>
<path d="M250.87 239.41L314.13 202.89C314.6 202.61 314.99 202.83 314.99 203.39V210.77C314.972 211.07 314.886 211.361 314.736 211.621C314.587 211.881 314.38 212.104 314.13 212.27L250.87 248.79C250.39 249.07 250 248.84 250 248.29V240.91C250.017 240.609 250.105 240.317 250.256 240.056C250.407 239.796 250.617 239.574 250.87 239.41Z" fill="#D32222"/>
<path opacity="0.2" d="M250.87 239.41L314.13 202.89C314.6 202.61 314.99 202.83 314.99 203.39V210.77C314.972 211.07 314.886 211.361 314.736 211.621C314.587 211.881 314.38 212.104 314.13 212.27L250.87 248.79C250.39 249.07 250 248.84 250 248.29V240.91C250.017 240.609 250.105 240.317 250.256 240.056C250.407 239.796 250.617 239.574 250.87 239.41Z" fill="white"/>
<path d="M251.73 257.67L272.64 245.6C273.64 245.05 274.37 245.5 274.37 246.6V247.29C274.339 247.891 274.166 248.476 273.866 248.998C273.565 249.519 273.145 249.962 272.64 250.29L251.73 262.36C250.78 262.92 250 262.47 250 261.36V260.67C250.034 260.07 250.208 259.485 250.509 258.964C250.809 258.444 251.227 258 251.73 257.67Z" fill="#D32222"/>
<path opacity="0.1" d="M251.73 257.67L272.64 245.6C273.64 245.05 274.37 245.5 274.37 246.6V247.29C274.339 247.891 274.166 248.476 273.866 248.998C273.565 249.519 273.145 249.962 272.64 250.29L251.73 262.36C250.78 262.92 250 262.47 250 261.36V260.67C250.034 260.07 250.208 259.485 250.509 258.964C250.809 258.444 251.227 258 251.73 257.67Z" fill="black"/>
<path d="M250.87 272.24L314.13 235.72C314.6 235.44 314.99 235.67 314.99 236.22V243.6C314.972 243.9 314.886 244.191 314.736 244.451C314.587 244.711 314.38 244.934 314.13 245.1L250.87 281.62C250.39 281.9 250 281.68 250 281.12V273.74C250.017 273.439 250.105 273.147 250.256 272.886C250.407 272.626 250.617 272.404 250.87 272.24Z" fill="#D32222"/>
<path opacity="0.2" d="M250.87 272.24L314.13 235.72C314.6 235.44 314.99 235.67 314.99 236.22V243.6C314.972 243.9 314.886 244.191 314.736 244.451C314.587 244.711 314.38 244.934 314.13 245.1L250.87 281.62C250.39 281.9 250 281.68 250 281.12V273.74C250.017 273.439 250.105 273.147 250.256 272.886C250.407 272.626 250.617 272.404 250.87 272.24Z" fill="white"/>
<path d="M276.1 276.43L301.1 262.02C302.1 261.46 302.84 261.91 302.84 263.02V270.74C302.807 271.342 302.633 271.927 302.33 272.449C302.028 272.97 301.606 273.413 301.1 273.74L276.1 288.16C275.1 288.71 274.37 288.26 274.37 287.16V279.43C274.405 278.83 274.579 278.246 274.88 277.725C275.18 277.204 275.598 276.761 276.1 276.43Z" fill="#D32222"/>
<path opacity="0.1" d="M276.1 276.43L301.1 262.02C302.1 261.46 302.84 261.91 302.84 263.02V270.74C302.807 271.342 302.633 271.927 302.33 272.449C302.028 272.97 301.606 273.413 301.1 273.74L276.1 288.16C275.1 288.71 274.37 288.26 274.37 287.16V279.43C274.405 278.83 274.579 278.246 274.88 277.725C275.18 277.204 275.598 276.761 276.1 276.43Z" fill="black"/>
<path d="M335.3 243.85C335.3 243.85 323.02 226.91 322.3 224.85C321.73 223.33 322.3 221.07 322.48 220.02C322.66 218.97 322.82 216.63 323 216.02C323.3 214.88 321.83 215.11 321 216.15C320.17 217.19 319.89 219.27 319.46 219.61C319.03 219.95 315.76 215.18 314.05 212.98C312.34 210.78 311.27 209.44 310.22 210.26C309.47 210.85 310.03 212.13 311.27 214.01C311.995 215.022 312.662 216.074 313.27 217.16C313.46 217.57 312.44 217.6 311.89 218.45C311.46 219.11 311.89 220.18 311.29 220.69C310.921 220.971 310.668 221.378 310.58 221.834C310.491 222.289 310.573 222.761 310.81 223.16C311.924 224.908 313.359 226.428 315.04 227.64C316.88 228.91 317.62 229.36 318.71 231.09C319.8 232.82 329.58 250.49 330.24 251.55C330.9 252.61 332.17 254.77 334.1 254.83C336.03 254.89 351.83 241.29 352.64 240.61C355.24 238.44 356.07 238.13 356.51 240.08C356.662 240.773 356.776 241.474 356.85 242.18C357.16 244.66 358.85 253.52 358.85 253.52C358.85 253.52 366.85 257.39 373.42 255.52C379.99 253.65 382.21 250.86 382.21 250.86L378.92 245.5C379.81 243.29 383.92 234.33 385.25 228.06L364.65 224.73C364.23 224.64 363.55 224.47 362.65 224.24C361.52 223.94 358.65 222.95 356.48 224.85C349.4 231.02 335.32 243.85 335.32 243.85" fill="#FFA8A7"/>
<path d="M376.14 347.79L372.45 352.92C374.127 353.703 375.96 354.096 377.81 354.07C381.12 354.19 382.03 353.07 382.15 352.85C382.71 351.65 381.84 349.49 381.6 347.63L376.14 347.79Z" fill="#37474F"/>
<path d="M372.66 350.46C372.66 350.46 368.18 350.17 365.09 349.79C362 349.41 359.55 350.91 360.27 352.18C360.99 353.45 362.7 354.51 365.36 355.4C367.63 356.17 370.36 356.72 372.72 357.4C375.08 358.08 376.72 358.97 378.09 358.49C379.62 357.96 380.28 357.35 380.15 356.23C379.816 354.637 379.402 353.062 378.91 351.51L372.66 350.46Z" fill="#37474F"/>
<path d="M382.15 342.64C382.15 342.64 381.59 347.3 381.55 348.3C381.51 349.3 377 349.62 376.14 347.79L376 342.09L382.15 342.64Z" fill="#F28F8F"/>
<path d="M377.611 345.5L379.221 352.58C379.221 352.58 379.371 353.44 375.691 353.99C372.011 354.54 366.231 352.06 365.241 351.56C364.251 351.06 364.141 350.05 367.761 350.25C371.381 350.45 372.661 350.46 372.661 350.46L371.481 347.33L377.611 345.5Z" fill="#FFA8A7"/>
<path d="M385.19 228L387.74 227.29C387.74 227.29 393.07 244.16 393.66 245.79C394.25 247.42 394.92 249.14 393.77 251.15C392.4 253.54 385.19 263.15 385.19 263.15L380.61 258.67L385.81 249.15L381.21 239.85L385.19 228Z" fill="#F28F8F"/>
<path d="M359 206.09C358.402 204.968 358.099 203.712 358.118 202.441C358.137 201.169 358.479 199.924 359.11 198.82C361.65 194.11 367.31 191.82 374.05 192.69C377.17 193.1 380.85 195.69 382.86 199.56C385.08 203.85 385.29 212.49 385.86 215.76L359 206.09Z" fill="#37474F"/>
<path d="M358.821 207.94C358.821 207.94 357.221 210.99 357.501 211.27C357.915 211.512 358.369 211.681 358.841 211.77L358.821 207.94Z" fill="#FFA8A7"/>
<path d="M363.68 198.3C361.94 199.43 358.94 201.51 358.81 208.36C358.67 215.36 359.67 217.67 360.71 218.48C361.41 219.03 365.52 218.75 367.28 218.34C369.04 217.93 374.11 215.42 375.94 211.61C378.09 207.13 377.65 200.61 374.46 198.61C372.836 197.65 370.996 197.118 369.11 197.064C367.225 197.009 365.356 197.435 363.68 198.3Z" fill="#FFA8A7"/>
<path d="M382.15 250.82C385.23 255.62 388.15 259.82 388.79 265.24C390.11 276.63 385.79 289.65 384.86 298.08C386.609 300.478 387.618 303.336 387.76 306.3C387.76 309.79 382.15 342.64 382.15 342.64C382.15 342.64 378.07 343.88 376 342.09L372.15 281.66L374.15 274.3L382.15 250.82Z" fill="#D32222"/>
<path opacity="0.2" d="M382.15 250.82C385.23 255.62 388.15 259.82 388.79 265.24C390.11 276.63 385.79 289.65 384.86 298.08C386.609 300.478 387.618 303.336 387.76 306.3C387.76 309.79 382.15 342.64 382.15 342.64C382.15 342.64 378.07 343.88 376 342.09L372.15 281.66L374.15 274.3L382.15 250.82Z" fill="black"/>
<path d="M372.15 281.66L374.15 274.3C377.98 273.292 381.673 271.825 385.15 269.93C385.15 269.93 383.07 273.72 377.09 275.8L374 285.25L373.74 306.9L372.15 281.66Z" fill="#D32222"/>
<path opacity="0.3" d="M372.15 281.66L374.15 274.3C377.98 273.292 381.673 271.825 385.15 269.93C385.15 269.93 383.07 273.72 377.09 275.8L374 285.25L373.74 306.9L372.15 281.66Z" fill="black"/>
<path d="M382.15 250.82C383.8 253.52 387.74 258.12 386.9 262.55C385.9 267.91 383 271.68 374.18 274.3L365.9 304.3C365.9 304.3 370.21 308.3 371.53 312.17C372.85 316.04 377.61 345.52 377.61 345.52C377.61 345.52 376.13 347.93 371.48 347.35C371.48 347.35 355.27 310.35 354.13 307.94C352.747 305.499 352.262 302.651 352.76 299.89C353.27 296.01 358.76 253.54 358.76 253.54L382.15 250.82Z" fill="#D32222"/>
<path opacity="0.2" d="M382.15 250.82C383.8 253.52 387.74 258.12 386.9 262.55C385.9 267.91 383 271.68 374.18 274.3L365.9 304.3C365.9 304.3 370.21 308.3 371.53 312.17C372.85 316.04 377.61 345.52 377.61 345.52C377.61 345.52 376.13 347.93 371.48 347.35C371.48 347.35 355.27 310.35 354.13 307.94C352.747 305.499 352.262 302.651 352.76 299.89C353.27 296.01 358.76 253.54 358.76 253.54L382.15 250.82Z" fill="black"/>
<path d="M385.191 228L364.591 224.67C364.171 224.58 363.491 224.41 362.591 224.18C362.591 224.18 361.711 237.1 356.421 240.06C356.551 240.68 356.661 241.37 356.761 242.16C357.071 244.64 358.761 253.5 358.761 253.5C358.761 253.5 366.761 257.37 373.331 255.5C379.901 253.63 382.121 250.84 382.121 250.84L378.831 245.48C379.751 243.25 383.891 234.29 385.191 228Z" fill="#D32222"/>
<path opacity="0.7" d="M385.191 228L364.591 224.67C364.171 224.58 363.491 224.41 362.591 224.18C362.591 224.18 361.711 237.1 356.421 240.06C356.551 240.68 356.661 241.37 356.761 242.16C357.071 244.64 358.761 253.5 358.761 253.5C358.761 253.5 366.761 257.37 373.331 255.5C379.901 253.63 382.121 250.84 382.121 250.84L378.831 245.48C379.751 243.25 383.891 234.29 385.191 228Z" fill="white"/>
<path d="M379.76 243.35C377.025 244.993 374.158 246.408 371.19 247.58C373.884 247.526 376.521 246.797 378.86 245.46L379.76 243.35Z" fill="#D32222"/>
<path d="M363.17 198.64C363.17 198.64 362.17 205.14 364.53 208.96C364.53 208.96 365.41 206.37 367.6 206.86C369.79 207.35 369.91 210.24 368.37 211.86C367.979 212.314 367.467 212.649 366.894 212.826C366.321 213.003 365.71 213.015 365.13 212.86C365.13 212.86 364.78 217.56 364.59 221.5C364.4 225.44 363.36 234.03 367.79 237.5C372.22 240.97 383.34 242.19 388.55 234.91C391.45 230.86 387.6 223.7 385.81 215.67C384.16 208.29 383.23 197.35 375.4 195.59C367.57 193.83 363.17 198.64 363.17 198.64Z" fill="#37474F"/>
<path d="M391.9 109.83L390.25 110.83C390.389 110.243 390.466 109.643 390.48 109.04C390.48 105.69 388.13 104.34 385.23 106.04C384.348 106.572 383.56 107.248 382.9 108.04C382.9 103.54 379.74 101.71 375.84 103.96C373.785 105.3 372.075 107.106 370.848 109.231C369.621 111.356 368.913 113.74 368.78 116.19C368.78 116.42 368.78 116.64 368.78 116.86C367.775 116.734 366.759 116.968 365.91 117.52C364.382 118.516 363.11 119.858 362.198 121.437C361.286 123.017 360.759 124.789 360.66 126.61C360.66 127.033 360.703 127.456 360.79 127.87L359.91 128.38C357.52 129.76 355.58 132.45 355.58 134.38C355.58 136.31 357.52 136.77 359.91 135.38L391.91 116.93C394.3 115.55 396.24 112.86 396.24 110.93C396.24 109 394.29 108.44 391.9 109.83Z" fill="#EBEBEB"/>
</svg>
