<svg width="650" height="650" viewBox="0 0 650 650" fill="none" xmlns="http://www.w3.org/2000/svg">
<path d="M308.1 439.14H57.0829C55.1164 439.137 53.2317 438.353 51.8424 436.961C50.4531 435.57 49.6728 433.683 49.6729 431.717V78.858C49.69 76.9028 50.4778 75.0334 51.8652 73.6557C53.2527 72.278 55.1276 71.5033 57.0829 71.5H308.1C310.069 71.5 311.957 72.2821 313.349 73.6741C314.741 75.0662 315.523 76.9543 315.523 78.923V431.717C315.523 433.686 314.741 435.574 313.349 436.966C311.957 438.358 310.069 439.14 308.1 439.14ZM57.0829 71.76C55.2026 71.7634 53.4005 72.5128 52.0722 73.8435C50.7439 75.1743 49.9978 76.9777 49.9979 78.858V431.717C49.9978 433.597 50.7439 435.401 52.0722 436.731C53.4005 438.062 55.2026 438.812 57.0829 438.815H308.1C309.981 438.812 311.785 438.063 313.115 436.732C314.445 435.402 315.194 433.598 315.198 431.717V78.858C315.194 76.9765 314.445 75.1731 313.115 73.8428C311.785 72.5124 309.981 71.7634 308.1 71.76H57.0829Z" fill="#EBEBEB"/>
<path d="M589.303 439.14H338.273C336.305 439.137 334.419 438.353 333.028 436.962C331.636 435.571 330.853 433.685 330.85 431.717V78.858C330.87 76.9016 331.661 75.0322 333.05 73.6549C334.44 72.2775 336.316 71.5033 338.273 71.5H589.303C591.256 71.5068 593.127 72.2829 594.512 73.6602C595.896 75.0376 596.683 76.9051 596.7 78.858V431.717C596.7 433.681 595.921 435.565 594.535 436.957C593.148 438.348 591.267 439.133 589.303 439.14ZM338.273 71.76C336.391 71.7634 334.588 72.5124 333.257 73.8428C331.927 75.1731 331.178 76.9765 331.175 78.858V431.717C331.178 433.598 331.927 435.402 333.257 436.732C334.588 438.063 336.391 438.812 338.273 438.815H589.303C591.184 438.812 592.987 438.063 594.318 436.732C595.648 435.402 596.397 433.598 596.401 431.717V78.858C596.397 76.9765 595.648 75.1731 594.318 73.8428C592.987 72.5124 591.184 71.7634 589.303 71.76H338.273Z" fill="#EBEBEB"/>
<path d="M584.87 518.037H541.814V518.362H584.87V518.037Z" fill="#EBEBEB"/>
<path d="M430.586 521.573H419.289V521.898H430.586V521.573Z" fill="#EBEBEB"/>
<path d="M540.514 505.973H515.567V506.298H540.514V505.973Z" fill="#EBEBEB"/>
<path d="M124.345 508.157H68.1982V508.482H124.345V508.157Z" fill="#EBEBEB"/>
<path d="M144.157 508.157H135.928V508.482H144.157V508.157Z" fill="#EBEBEB"/>
<path d="M292.695 513.643H170.911V513.968H292.695V513.643Z" fill="#EBEBEB"/>
<path d="M650 497.12H0V497.445H650V497.12Z" fill="#EBEBEB"/>
<path d="M201.422 123.708H48.5156V349.648H201.422V123.708Z" fill="#E0E0E0"/>
<path d="M207.051 123.708H54.1445V349.648H207.051V123.708Z" fill="#F0F0F0"/>
<path d="M199.316 243.152H61.5811V336.414H199.316V243.152Z" fill="#EBEBEB"/>
<path d="M199.316 132.886H61.5811V243.152H199.316V132.886Z" fill="white"/>
<path d="M199.316 132.886H194.467V336.414H199.316V132.886Z" fill="#E0E0E0"/>
<path d="M61.1523 243.165V248.079H194.987V243.165H61.1523Z" fill="#E0E0E0"/>
<path d="M199.316 234.897H58.9814V243.152H199.316V234.897Z" fill="#F0F0F0"/>
<path d="M569.621 391.989H383.253C369.13 391.989 357.682 403.438 357.682 417.56V473.031C357.682 487.153 369.13 498.602 383.253 498.602H569.621C583.743 498.602 595.192 487.153 595.192 473.031V417.56C595.192 403.438 583.743 391.989 569.621 391.989Z" fill="#E0E0E0"/>
<path d="M557.102 392.769H370.734C356.612 392.769 345.163 404.218 345.163 418.34V473.811C345.163 487.934 356.612 499.382 370.734 499.382H557.102C571.225 499.382 582.673 487.934 582.673 473.811V418.34C582.673 404.218 571.225 392.769 557.102 392.769Z" fill="#F5F5F5"/>
<path d="M375.31 402.831H553.93C556.276 402.831 558.598 403.293 560.765 404.191C562.933 405.088 564.902 406.404 566.56 408.063C568.219 409.721 569.535 411.69 570.432 413.858C571.33 416.025 571.792 418.347 571.792 420.693V442.611H357.5V420.68C357.503 415.954 359.38 411.422 362.718 408.076C366.056 404.731 370.584 402.845 375.31 402.831Z" fill="#E0E0E0"/>
<path d="M357.5 447.98H571.792V469.898C571.792 474.635 569.91 479.179 566.56 482.528C563.211 485.878 558.667 487.76 553.93 487.76H375.31C370.582 487.746 366.052 485.858 362.713 482.51C359.375 479.162 357.5 474.626 357.5 469.898V447.98Z" fill="#E0E0E0"/>
<path d="M514.137 410.527H474.89V442.858H514.137V410.527Z" fill="#E6E6E6"/>
<path d="M474.89 410.527H464.841V442.858H474.89V410.527Z" fill="#F5F5F5"/>
<path d="M473.2 434.2C473.2 434.853 473.006 435.491 472.643 436.034C472.28 436.577 471.765 437.001 471.161 437.251C470.558 437.501 469.894 437.566 469.254 437.438C468.613 437.311 468.025 436.997 467.563 436.535C467.101 436.073 466.787 435.485 466.659 434.844C466.532 434.204 466.597 433.54 466.847 432.936C467.097 432.333 467.52 431.817 468.063 431.454C468.606 431.092 469.245 430.898 469.898 430.898C470.773 430.898 471.613 431.246 472.233 431.865C472.852 432.484 473.2 433.324 473.2 434.2Z" fill="#E0E0E0"/>
<path d="M524.433 405.535H494.949V442.858H524.433V405.535Z" fill="#E6E6E6"/>
<path d="M494.962 405.535H486.434V442.858H494.962V405.535Z" fill="#F5F5F5"/>
<path d="M490.698 413.881C492.314 413.881 493.623 412.571 493.623 410.956C493.623 409.341 492.314 408.031 490.698 408.031C489.083 408.031 487.773 409.341 487.773 410.956C487.773 412.571 489.083 413.881 490.698 413.881Z" fill="#E0E0E0"/>
<path d="M490.698 413.881C492.314 413.881 493.623 412.571 493.623 410.956C493.623 409.341 492.314 408.031 490.698 408.031C489.083 408.031 487.773 409.341 487.773 410.956C487.773 412.571 489.083 413.881 490.698 413.881Z" fill="#E0E0E0"/>
<path d="M528.489 410.527H503.633V442.858H528.489V410.527Z" fill="#EBEBEB"/>
<path d="M503.633 410.527H497.952V442.858H503.633V410.527Z" fill="#F5F5F5"/>
<path d="M556.583 416H523.979V442.871H556.583V416Z" fill="#E6E6E6"/>
<path d="M523.978 416H515.632V442.871H523.978V416Z" fill="#F5F5F5"/>
<path d="M565.123 411.853H540.631V442.858H565.123V411.853Z" fill="#E6E6E6"/>
<path d="M540.657 411.853H533.572V442.858H540.657V411.853Z" fill="#F5F5F5"/>
<path d="M571.649 416H547.859V442.871H571.649V416Z" fill="#E6E6E6"/>
<path d="M547.846 416H543.127V442.871H547.846V416Z" fill="#F0F0F0"/>
<path d="M420.329 454.194H389.948V486.525H420.329V454.194Z" fill="#E6E6E6"/>
<path d="M389.961 454.194H382.174V486.525H389.961V454.194Z" fill="#F5F5F5"/>
<path d="M428.285 449.202H405.47V486.525H428.285V449.202Z" fill="#E6E6E6"/>
<path d="M405.483 449.202H398.892V486.525H405.483V449.202Z" fill="#F5F5F5"/>
<path d="M523.965 454.194H493.584V486.525H523.965V454.194Z" fill="#E6E6E6"/>
<path d="M493.597 454.194H485.81V486.525H493.597V454.194Z" fill="#F5F5F5"/>
<path d="M531.921 449.202H509.106V486.525H531.921V449.202Z" fill="#E6E6E6"/>
<path d="M509.132 449.202H502.528V486.525H509.132V449.202Z" fill="#F5F5F5"/>
<path d="M431.444 454.194H412.204V486.525H431.444V454.194Z" fill="#EBEBEB"/>
<path d="M412.204 454.194H407.81V486.525H412.204V454.194Z" fill="#F5F5F5"/>
<path d="M453.18 459.667H427.947V486.538H453.18V459.667Z" fill="#E6E6E6"/>
<path d="M427.947 459.667H421.486V486.538H427.947V459.667Z" fill="#F5F5F5"/>
<path d="M459.797 455.52H440.843V486.525H459.797V455.52Z" fill="#E6E6E6"/>
<path d="M440.856 455.52H435.37V486.525H440.856V455.52Z" fill="#F5F5F5"/>
<path d="M464.854 459.667H446.433V486.538H464.854V459.667Z" fill="#E6E6E6"/>
<path d="M446.42 459.667H442.767V486.538H446.42V459.667Z" fill="#F0F0F0"/>
<path d="M442.585 360.984C442.266 360.364 441.757 359.862 441.133 359.551C440.509 359.24 439.801 359.136 439.114 359.255C438.423 359.424 437.801 359.804 437.336 360.342C436.87 360.88 436.583 361.55 436.514 362.258C436.041 361.908 435.472 361.711 434.884 361.695C434.296 361.679 433.717 361.844 433.225 362.167C432.733 362.524 432.351 363.012 432.121 363.574C431.892 364.137 431.824 364.753 431.925 365.352C431.652 365.152 431.34 365.011 431.01 364.939C430.679 364.867 430.337 364.864 430.006 364.931C429.674 364.998 429.36 365.134 429.084 365.33C428.808 365.525 428.576 365.776 428.402 366.067C428.083 366.693 428.016 367.417 428.217 368.09C428.418 368.763 428.871 369.333 429.481 369.681C429.06 369.743 428.675 369.957 428.401 370.283C428.127 370.609 427.982 371.024 427.993 371.45C428.004 371.876 428.171 372.283 428.462 372.595C428.753 372.906 429.148 373.099 429.572 373.139C429.136 373.172 428.724 373.357 428.409 373.66C428.093 373.964 427.893 374.368 427.843 374.803C427.796 375.24 427.899 375.681 428.135 376.051C428.372 376.422 428.727 376.702 429.143 376.844C428.938 376.963 428.761 377.126 428.627 377.322C428.493 377.518 428.405 377.741 428.369 377.976C428.333 378.21 428.35 378.45 428.418 378.677C428.487 378.904 428.606 379.113 428.766 379.288C428.949 379.431 429.165 379.527 429.394 379.568C429.622 379.609 429.858 379.594 430.079 379.523C430.301 379.453 430.502 379.33 430.665 379.164C430.828 378.998 430.948 378.796 431.015 378.573C431.048 378.637 431.095 378.693 431.153 378.735C431.211 378.778 431.278 378.806 431.349 378.817C431.42 378.829 431.493 378.823 431.562 378.801C431.63 378.779 431.692 378.741 431.743 378.69C431.79 378.632 431.823 378.564 431.842 378.492C431.86 378.42 431.864 378.345 431.851 378.271C431.839 378.198 431.812 378.128 431.771 378.065C431.73 378.003 431.676 377.95 431.613 377.91C431.718 378.029 431.853 378.117 432.004 378.164C432.155 378.211 432.316 378.215 432.47 378.176C432.623 378.137 432.763 378.056 432.873 377.943C432.984 377.829 433.06 377.687 433.095 377.533C433.045 377.902 433.093 378.279 433.232 378.624C433.372 378.97 433.599 379.273 433.892 379.504C434.185 379.735 434.532 379.886 434.901 379.941C435.27 379.997 435.647 379.955 435.994 379.821C435.921 379.992 435.885 380.177 435.889 380.364C435.894 380.55 435.938 380.733 436.019 380.901C436.101 381.069 436.217 381.217 436.361 381.336C436.505 381.454 436.672 381.541 436.852 381.589C437.577 381.709 438.321 381.561 438.945 381.173C439.565 380.783 440.27 380.547 440.999 380.484C441.631 380.564 442.249 380.735 442.832 380.991C443.812 381.287 444.854 381.305 445.844 381.044C446.833 380.782 447.73 380.251 448.435 379.509C448.699 379.813 449.036 380.045 449.413 380.184C449.79 380.323 450.197 380.365 450.595 380.305C450.993 380.246 451.369 380.087 451.689 379.843C452.009 379.599 452.263 379.279 452.426 378.911C452.489 379.288 452.679 379.633 452.963 379.889C453.248 380.145 453.611 380.296 453.993 380.319C454.375 380.342 454.753 380.234 455.066 380.014C455.379 379.793 455.608 379.473 455.715 379.106V380.12C456.07 380.15 456.426 380.09 456.751 379.947C457.076 379.803 457.36 379.579 457.576 379.297C457.793 379.015 457.934 378.683 457.989 378.331C458.043 377.98 458.008 377.62 457.886 377.286C458.398 377.266 458.886 377.066 459.264 376.721C459.642 376.376 459.886 375.908 459.953 375.401C460.011 374.888 459.89 374.371 459.611 373.938C459.331 373.504 458.91 373.181 458.419 373.022C459.257 372.749 459.988 372.219 460.509 371.508C461.031 370.797 461.316 369.94 461.324 369.059C461.333 368.178 461.065 367.316 460.558 366.595C460.05 365.874 459.33 365.33 458.497 365.04C458.182 364.919 457.841 364.881 457.506 364.929C457.172 364.977 456.855 365.109 456.586 365.313C456.457 365.425 456.353 365.564 456.282 365.72C456.211 365.876 456.174 366.045 456.174 366.216C456.174 366.388 456.211 366.557 456.282 366.713C456.353 366.869 456.457 367.008 456.586 367.12C456.814 366.316 456.778 365.461 456.483 364.679C456.188 363.897 455.65 363.231 454.948 362.778C454.23 362.397 453.401 362.282 452.606 362.453C451.812 362.624 451.103 363.071 450.606 363.714C450.845 363.358 450.972 362.94 450.972 362.512C450.972 362.083 450.845 361.665 450.606 361.309C450.373 360.971 450.037 360.719 449.647 360.59C449.258 360.461 448.837 360.462 448.448 360.594C448.353 360.058 448.059 359.577 447.626 359.247C447.192 358.917 446.651 358.762 446.108 358.813C445.571 358.934 445.095 359.245 444.77 359.69C444.445 360.135 444.292 360.682 444.34 361.231C444.298 361.018 444.192 360.822 444.038 360.669C443.883 360.516 443.686 360.413 443.473 360.372C443.259 360.332 443.038 360.356 442.838 360.442C442.639 360.528 442.469 360.671 442.351 360.854C441.818 360.685 442.585 360.984 442.585 360.984Z" fill="#EBEBEB"/>
<path d="M442.975 371.371C442.762 371.214 442.521 371.101 442.264 371.039C442.007 370.976 441.741 370.965 441.48 371.007C441.223 371.057 440.985 371.179 440.794 371.358C440.603 371.538 440.467 371.768 440.401 372.021C440.347 372.279 440.393 372.547 440.527 372.773C440.662 373 440.877 373.167 441.129 373.243C441.74 373.399 442.364 372.879 442.988 372.97C443.222 372.97 443.43 373.113 443.651 373.165C444.125 373.218 444.605 373.164 445.055 373.007C445.505 372.849 445.914 372.592 446.251 372.255C446.53 372.077 446.773 371.848 446.966 371.579C447.063 371.445 447.121 371.287 447.135 371.122C447.149 370.957 447.117 370.791 447.044 370.643C446.898 370.465 446.704 370.333 446.485 370.261C446.266 370.19 446.032 370.183 445.809 370.24C444.885 370.342 444.009 370.707 443.287 371.293L443.352 370.864L442.975 371.371Z" fill="#FAFAFA"/>
<path d="M456.144 370.591C455.912 370.397 455.642 370.256 455.351 370.175C455.207 370.131 455.054 370.128 454.909 370.167C454.764 370.206 454.633 370.285 454.532 370.396C454.428 370.575 454.395 370.785 454.438 370.987C454.482 371.189 454.598 371.367 454.766 371.488C455.106 371.717 455.501 371.852 455.91 371.878C456.339 371.943 456.859 371.956 457.067 371.592C457.128 371.451 457.142 371.294 457.107 371.144C457.072 370.994 456.99 370.859 456.872 370.76C456.632 370.567 456.352 370.43 456.053 370.357L456.144 370.591Z" fill="#FAFAFA"/>
<path d="M435.331 363.74C434.912 363.92 434.542 364.196 434.25 364.546C433.959 364.896 433.754 365.311 433.654 365.755C433.604 365.882 433.595 366.022 433.628 366.154C433.66 366.287 433.733 366.406 433.836 366.496C433.926 366.535 434.024 366.555 434.122 366.555C434.22 366.555 434.317 366.535 434.408 366.496L436.813 365.924C436.42 366.051 436.054 366.249 435.734 366.509C435.573 366.637 435.449 366.806 435.376 366.998C435.303 367.19 435.283 367.398 435.318 367.601C435.397 367.831 435.549 368.029 435.75 368.166C435.952 368.302 436.193 368.368 436.436 368.355C436.914 368.316 437.368 368.129 437.736 367.822C437.961 367.693 438.154 367.515 438.3 367.301C438.446 367.088 438.542 366.843 438.581 366.587C438.581 366.08 437.931 365.599 437.541 365.924C438.464 365.673 439.341 365.278 440.141 364.754C440.432 364.571 440.684 364.333 440.882 364.052C440.979 363.908 441.038 363.742 441.052 363.568C441.065 363.395 441.034 363.221 440.96 363.064C440.141 361.569 439.101 363.766 438.594 363.961C437.645 364.338 436.553 363.22 435.331 363.74Z" fill="#FAFAFA"/>
<path d="M431.6 370.123C431.55 370.269 431.544 370.426 431.58 370.576C431.617 370.726 431.696 370.862 431.808 370.968C431.867 371.013 431.935 371.045 432.007 371.061C432.08 371.078 432.155 371.079 432.227 371.064C432.3 371.049 432.368 371.019 432.428 370.976C432.489 370.932 432.539 370.876 432.575 370.812C432.019 370.917 431.513 371.2 431.132 371.618C431.045 371.726 430.982 371.852 430.949 371.988C430.916 372.123 430.913 372.264 430.94 372.4C430.968 372.536 431.025 372.665 431.107 372.777C431.19 372.889 431.296 372.982 431.418 373.048C431.592 373.079 431.771 373.074 431.943 373.034C432.115 372.994 432.277 372.919 432.419 372.814C433.292 372.34 434.123 371.792 434.902 371.176C434.668 371.735 435.24 372.359 435.838 372.476C436.445 372.465 437.033 372.26 437.515 371.891C438.152 371.501 438.815 370.916 438.711 370.201C438.585 369.91 438.356 369.676 438.069 369.542C437.782 369.408 437.455 369.383 437.151 369.473C436.554 369.722 436.03 370.121 435.63 370.63C435.968 370.149 435.5 369.408 434.902 369.33C434.613 369.315 434.324 369.372 434.061 369.494C433.798 369.616 433.57 369.801 433.394 370.032C434.07 369.655 434.213 368.732 433.316 368.589C432.718 368.446 431.73 369.642 431.6 370.123Z" fill="#FAFAFA"/>
<path d="M449.995 367.978C449.866 367.935 449.73 367.919 449.595 367.929C449.46 367.94 449.328 367.977 449.207 368.038C449.086 368.1 448.979 368.185 448.891 368.288C448.803 368.392 448.736 368.512 448.695 368.641C448.669 368.772 448.668 368.906 448.694 369.037C448.719 369.168 448.77 369.292 448.844 369.403C448.917 369.514 449.012 369.61 449.123 369.684C449.233 369.759 449.358 369.811 449.488 369.837C449.094 369.877 448.731 370.068 448.474 370.37C448.398 370.452 448.34 370.548 448.302 370.653C448.264 370.758 448.247 370.87 448.253 370.981C448.294 371.139 448.387 371.279 448.516 371.378C448.646 371.477 448.805 371.529 448.968 371.527C449.3 371.513 449.624 371.424 449.917 371.267C449.591 371.263 449.271 371.354 448.994 371.527C448.927 371.572 448.869 371.631 448.825 371.7C448.781 371.768 448.751 371.845 448.738 371.925C448.724 372.005 448.727 372.088 448.747 372.167C448.766 372.246 448.802 372.32 448.851 372.385C448.962 372.462 449.09 372.51 449.225 372.523C449.359 372.537 449.494 372.516 449.618 372.463C450.212 372.305 450.758 372.002 451.204 371.579C451.361 371.768 451.561 371.917 451.787 372.014C452.013 372.112 452.259 372.154 452.504 372.138C452.626 372.119 452.742 372.076 452.847 372.011C452.951 371.946 453.042 371.861 453.112 371.76C453.182 371.659 453.232 371.545 453.257 371.424C453.282 371.304 453.282 371.18 453.258 371.059C453.19 370.894 453.077 370.751 452.933 370.645C452.788 370.54 452.617 370.476 452.439 370.461C452.081 370.442 451.723 370.495 451.386 370.617C451.762 370.411 452.059 370.087 452.231 369.694C452.361 369.291 452.088 368.745 451.659 368.784C451.23 368.823 450.944 369.46 450.567 369.694C450.138 369.265 451.009 368.355 449.995 367.978Z" fill="#FAFAFA"/>
<path d="M441.402 365.989C441.147 366.196 440.949 366.465 440.826 366.769C440.703 367.074 440.66 367.405 440.7 367.731C440.7 368.095 440.796 368.453 440.979 368.768C441.162 369.083 441.424 369.344 441.74 369.525C441.965 369.595 442.202 369.616 442.436 369.587C442.669 369.558 442.894 369.479 443.095 369.356C443.295 369.233 443.468 369.068 443.599 368.873C443.731 368.678 443.82 368.457 443.859 368.225C443.907 367.751 443.808 367.273 443.575 366.857C443.343 366.441 442.988 366.106 442.559 365.898C442.372 365.823 442.171 365.791 441.97 365.807C441.769 365.823 441.575 365.885 441.402 365.989Z" fill="#FAFAFA"/>
<path d="M447.486 365.209L447.707 365.404C447.616 365.281 447.5 365.178 447.367 365.102C447.234 365.027 447.086 364.98 446.933 364.965C446.781 364.95 446.627 364.968 446.481 365.017C446.336 365.065 446.202 365.144 446.09 365.248C445.977 365.352 445.887 365.478 445.826 365.619C445.765 365.759 445.735 365.911 445.736 366.065C445.738 366.218 445.772 366.369 445.836 366.508C445.9 366.648 445.993 366.772 446.108 366.873C446.337 367.067 446.633 367.163 446.932 367.141C447.231 367.12 447.509 366.981 447.707 366.756C448.019 366.91 448.372 366.959 448.715 366.896C449.057 366.833 449.369 366.661 449.605 366.405C449.808 366.13 449.894 365.786 449.846 365.448C449.797 365.11 449.617 364.805 449.345 364.598C449.195 364.525 449.028 364.49 448.861 364.497C448.694 364.503 448.531 364.551 448.387 364.636C448.243 364.721 448.122 364.841 448.035 364.984C447.948 365.127 447.898 365.289 447.889 365.456L447.629 365.17L447.486 365.209Z" fill="#FAFAFA"/>
<path d="M454.207 366.301C453.736 366.685 453.377 367.187 453.167 367.757C453.075 368.045 453.095 368.358 453.223 368.632C453.351 368.906 453.576 369.123 453.856 369.239C454.441 369.382 454.987 368.901 455.325 368.407C455.493 368.193 455.611 367.944 455.672 367.679C455.733 367.414 455.734 367.139 455.676 366.873C455.507 366.353 454.766 366.054 454.376 366.444L454.207 366.301Z" fill="#FAFAFA"/>
<path d="M444.522 362.778C444.46 362.661 444.374 362.558 444.271 362.475C444.168 362.392 444.05 362.33 443.922 362.294C443.795 362.257 443.661 362.247 443.53 362.263C443.399 362.279 443.272 362.322 443.157 362.388C442.934 362.542 442.77 362.768 442.692 363.028C442.614 363.288 442.627 363.566 442.728 363.818C442.842 364.072 443.023 364.29 443.253 364.448C443.482 364.607 443.75 364.699 444.028 364.715C444.678 364.78 445.458 364.247 445.328 363.597C445.484 363.784 445.686 363.927 445.914 364.011C446.142 364.095 446.388 364.118 446.628 364.078C447.091 364.004 447.533 363.836 447.928 363.584C448.487 363.259 449.072 362.778 449.02 362.141C448.979 361.886 448.852 361.654 448.661 361.481C448.469 361.308 448.224 361.206 447.967 361.192C447.712 361.18 447.457 361.22 447.218 361.309C446.979 361.399 446.761 361.536 446.576 361.712C446.277 361.972 446.017 362.284 445.692 362.518C445.536 362.646 445.348 362.728 445.149 362.756C444.949 362.783 444.746 362.755 444.561 362.674L444.522 362.778Z" fill="#FAFAFA"/>
<path d="M452.79 392.34H436.137L434.512 375.557H454.415L452.79 392.34Z" fill="#F0F0F0"/>
<path d="M455.715 376.428H433.056L432.653 374.192H456.118L455.715 376.428Z" fill="#FAFAFA"/>
<path d="M435.5 442.819H416.39L422.383 423.527L423.254 420.719H427.583L435.5 442.819Z" fill="#EBEBEB"/>
<path d="M423.254 420.719L422.383 423.527L416.39 442.819L398.723 442.559L393.042 423.527L392.171 420.719H423.254Z" fill="#E0E0E0"/>
<path d="M423.254 420.719L422.383 423.527L416.39 442.819L380.107 442.286L387.842 420.719H423.254Z" fill="#FAFAFA"/>
<path d="M423.254 420.719L422.383 423.527H386.841L387.842 420.719H423.254Z" fill="#EBEBEB"/>
<path d="M392.301 432.692H384.332L387.114 424.892L394.732 424.97L392.301 432.692ZM385.255 432.042H391.755L393.783 425.542L387.504 425.477L385.255 432.042Z" fill="#EBEBEB"/>
<path d="M401.219 432.692H393.25L396.019 424.892L403.65 424.97L401.219 432.692ZM394.16 432.042H400.738L402.766 425.542L396.487 425.477L394.16 432.042Z" fill="#EBEBEB"/>
<path d="M410.124 432.692H402.155L404.937 424.892L412.555 424.97L410.124 432.692ZM403.078 432.042H409.656L411.671 425.542L405.392 425.477L403.078 432.042Z" fill="#EBEBEB"/>
<path d="M419.042 432.692H411.073L413.855 424.892L421.473 424.97L419.042 432.692ZM411.996 432.042H418.6L420.628 425.542L414.349 425.477L411.996 432.042Z" fill="#EBEBEB"/>
<path d="M389.519 441.025H381.55L384.332 433.225L391.95 433.316L389.519 441.025ZM382.473 440.375H389.038L391.066 433.875H384.787L382.473 440.375Z" fill="#EBEBEB"/>
<path d="M398.437 441.025H390.468L393.25 433.225L400.868 433.316L398.437 441.025ZM391.391 440.375H397.956L399.984 433.875H393.705L391.391 440.375Z" fill="#EBEBEB"/>
<path d="M407.342 441.025H399.373L402.155 433.225L409.773 433.316L407.342 441.025ZM400.296 440.375H406.9L408.928 433.875H402.636L400.296 440.375Z" fill="#EBEBEB"/>
<path d="M416.26 441.025H408.291L411.073 433.225L418.691 433.316L416.26 441.025ZM409.214 440.375H415.779L417.807 433.875H411.528L409.214 440.375Z" fill="#EBEBEB"/>
<path d="M537.173 381.927C537.173 386.022 537.823 388.674 538.902 390.377C539.318 391 539.883 391.508 540.546 391.856C541.209 392.203 541.949 392.379 542.698 392.366H548.6C549.347 392.378 550.084 392.202 550.745 391.854C551.406 391.507 551.969 390.999 552.383 390.377C553.475 388.674 554.112 386.022 554.112 381.927C554.112 375.986 551.512 371.228 550.68 367.432C550.368 366.067 551.382 361.868 551.382 361.868H539.877C539.877 361.868 540.891 366.067 540.579 367.432C539.76 371.228 537.173 375.986 537.173 381.927Z" fill="#F0F0F0"/>
<path d="M549.497 333.19C548.295 333.524 547.225 334.218 546.429 335.179C545.298 336.687 547.248 340.223 547.248 340.223C547.786 340.75 548.441 341.142 549.159 341.368C549.878 341.594 550.639 341.647 551.382 341.523L553.683 340.964C553.683 340.964 551.2 334.1 549.51 333.645L549.497 333.19Z" fill="#EBEBEB"/>
<path d="M558.545 334.841C558.246 337.87 555.698 341.263 552.994 341.003C550.29 340.743 548.483 336.882 548.782 333.866C549.081 330.85 551.291 330.954 553.982 331.266C556.673 331.578 558.857 331.825 558.545 334.841Z" fill="#EBEBEB"/>
<path d="M550.94 332.501C550.94 332.501 552.669 334.503 557.024 334.347C557.024 334.347 549.601 337.493 550.94 332.501Z" fill="#EBEBEB"/>
<path d="M552.838 332.254C552.838 332.254 555.256 332.254 555.113 333.268C555.113 333.268 557.115 333.528 556.998 332.644C556.881 331.76 552.838 332.254 552.838 332.254Z" fill="#EBEBEB"/>
<path d="M550.94 332.501C550.94 332.501 552.669 334.503 557.024 334.347C557.024 334.347 549.601 337.493 550.94 332.501Z" fill="#E0E0E0"/>
<path d="M552.838 332.254C552.838 332.254 555.256 332.254 555.113 333.268C555.113 333.268 557.115 333.528 556.998 332.644C556.881 331.76 552.838 332.254 552.838 332.254Z" fill="#E0E0E0"/>
<path d="M548.366 341.094C548.688 341.85 549.216 342.5 549.889 342.972C550.563 343.443 551.355 343.715 552.175 343.759C552.996 343.791 553.813 343.651 554.577 343.349C555.34 343.047 556.032 342.589 556.608 342.004C557.754 340.825 558.554 339.355 558.922 337.753C559.026 337.337 559.26 336.31 558.74 336.037C558.22 335.764 557.817 336.44 557.531 336.726C556.702 337.549 555.787 338.282 554.801 338.91C553.833 339.524 552.794 340.017 551.707 340.379C551.408 340.483 548.47 341.367 548.366 341.094Z" fill="#EBEBEB"/>
<path d="M560.872 337.311C561.004 337.965 560.965 338.642 560.76 339.277C560.555 339.912 560.191 340.484 559.702 340.938C559.033 341.512 558.261 341.953 557.427 342.238C556.855 342.446 556.127 342.615 555.698 342.238C555.269 341.861 555.425 341.003 555.698 340.392C556.075 339.456 556.465 338.533 556.894 337.61C557.198 336.684 557.636 335.808 558.194 335.01C558.74 334.464 559.286 335.01 559.858 335.53C560.349 336.023 560.699 336.638 560.872 337.311Z" fill="#EBEBEB"/>
<path d="M549.354 339.573C548.846 339.448 548.385 339.181 548.024 338.803C547.662 338.426 547.416 337.953 547.313 337.441C547.17 336.674 547.508 334.841 548.47 334.841C548.464 336.46 548.764 338.065 549.354 339.573Z" fill="#E0E0E0"/>
<path d="M556.673 340.106C557.185 340.056 557.678 339.88 558.106 339.595C558.535 339.309 558.887 338.922 559.13 338.468C559.39 337.961 559.702 335.205 558.675 336.193C558.337 336.518 558.168 337.727 557.934 338.182C557.594 338.872 557.17 339.518 556.673 340.106Z" fill="#E0E0E0"/>
<path d="M552.656 341.081C552.979 341.464 553.419 341.729 553.909 341.835C554.398 341.941 554.908 341.881 555.36 341.666C555.165 342.173 553.423 342.303 552.89 342.355C551.473 342.498 550.888 341.77 549.692 340.99C549.692 340.99 551.681 341.692 552.656 341.081Z" fill="#E0E0E0"/>
<path d="M544.062 389.103L547.39 355.537L551.785 343.616L552.551 343.902L548.171 355.758L544.699 390.026L544.062 389.103Z" fill="#E6E6E6"/>
<path d="M548.145 355.472L547.417 355.836C546.894 354.701 546.46 353.528 546.117 352.326C545.482 349.945 544.543 347.655 543.322 345.514L544.011 345.085C545.269 347.283 546.239 349.634 546.897 352.079C547.23 353.239 547.647 354.373 548.145 355.472Z" fill="#E6E6E6"/>
<path d="M549.9 351.065C551.041 350.981 552.112 350.487 552.916 349.674C553.762 348.697 554.395 347.555 554.775 346.32C553.293 346.476 551.928 345.514 550.446 345.41C549.856 345.373 549.264 345.47 548.717 345.696C548.169 345.921 547.681 346.268 547.287 346.71C546.286 347.88 545.701 349.31 546.247 350.012C547.28 350.827 548.592 351.205 549.9 351.065Z" fill="#F0F0F0"/>
<path d="M538.044 347.425C538.732 346.957 539.516 346.646 540.338 346.516C541.161 346.386 542.002 346.439 542.802 346.671C543.434 346.91 544 347.296 544.452 347.799C544.904 348.301 545.23 348.903 545.402 349.557C545.107 349.935 544.717 350.228 544.271 350.404C543.825 350.58 543.34 350.633 542.867 350.558C541.92 350.384 541.013 350.041 540.189 349.544C539.363 349.051 538.456 348.708 537.511 348.53L538.044 347.425Z" fill="#F0F0F0"/>
<path d="M545.376 348.062C543.452 348.283 541.723 348.66 539.968 346.476C538.798 345.007 539.175 342.784 539.253 341.029C541.431 341.724 543.541 342.616 545.558 343.694C545.99 343.888 546.372 344.179 546.674 344.544C546.976 344.909 547.19 345.339 547.3 345.8C547.362 346.249 547.252 346.706 546.991 347.077C546.731 347.449 546.339 347.708 545.896 347.802L545.376 348.062Z" fill="#F0F0F0"/>
<path d="M539.864 374.192C538.926 376.36 538.482 378.709 538.564 381.069C538.564 381.511 538.746 382.018 539.071 382.096C539.396 382.174 539.656 381.81 539.76 381.407C539.843 380.979 539.869 380.542 539.838 380.107C539.838 376.506 541.788 373.464 542.165 369.954C542.269 368.953 542.009 365.807 541.424 368.121C540.943 370.24 540.579 372.164 539.864 374.192Z" fill="#FAFAFA"/>
<path d="M267.501 445.718C267.501 445.718 271.284 403.845 254.644 383.435C238.004 363.025 267.644 381.602 272.844 401.96C272.844 401.96 273.819 364.26 257.244 339.885C240.669 315.51 268.944 333.749 273.871 360.373C273.871 360.373 274.82 326.755 266.526 308.945C258.232 291.135 270.595 301.73 276.068 312.845C281.541 323.96 278.837 353.6 278.837 353.6C278.837 353.6 284.648 298.87 295.737 301.834C306.826 304.798 283.842 342.979 282.009 361.634C282.009 361.634 292.045 335.634 302.042 339.534C312.039 343.434 288.119 348.946 280.722 386.789L278.512 404.3C278.512 404.3 287.612 378.742 295.88 385.463C304.148 392.184 275.665 408.941 272.48 446.394L267.501 445.718Z" fill="#EBEBEB"/>
<path d="M269.295 447.889C269.295 447.889 265.746 396.11 286.819 371.436C307.892 346.762 270.842 368.771 263.822 393.731C263.822 393.731 263.614 347.217 284.765 317.629C305.916 288.041 270.465 309.686 263.692 342.329C263.692 342.329 263.432 300.833 274.092 279.11C284.752 257.387 269.256 270.075 262.21 283.647C255.164 297.219 257.725 333.762 257.725 333.762C257.725 333.762 252.005 266.045 238.316 269.347C224.627 272.649 251.888 320.489 253.656 343.538C253.656 343.538 241.956 311.142 229.528 315.692C217.1 320.242 246.428 327.756 254.553 374.686L256.802 396.5C256.802 396.5 246.298 364.689 235.885 372.697C225.472 380.705 260.195 402.311 263.185 448.643L269.295 447.889Z" fill="#F0F0F0"/>
<path d="M302.042 473.707C302.042 487.916 286.637 499.447 267.631 499.447C248.625 499.447 233.207 487.916 233.207 473.707C233.207 467.298 236.327 461.461 241.501 456.963L237.432 439.738H297.817L293.8 456.963C298.922 461.5 302.042 467.298 302.042 473.707Z" fill="#EBEBEB"/>
<path d="M325 555.113C464.208 555.113 577.057 548.524 577.057 540.397C577.057 532.27 464.208 525.681 325 525.681C185.793 525.681 72.9434 532.27 72.9434 540.397C72.9434 548.524 185.793 555.113 325 555.113Z" fill="#F5F5F5"/>
<path d="M304.291 334.1L307.541 315.354L313.924 317.2L304.291 334.1Z" fill="#D32222"/>
<path d="M306.436 340.106L324.714 334.815L322.166 328.666L306.436 340.106Z" fill="#D32222"/>
<path d="M309.686 333.047L320.099 313.365L327.119 318.24L309.686 333.047Z" fill="#D32222"/>
<path d="M427.323 150.384H408.382C407.591 150.333 406.849 149.983 406.307 149.404C405.765 148.826 405.463 148.063 405.463 147.27C405.463 146.478 405.765 145.715 406.307 145.137C406.849 144.558 407.591 144.208 408.382 144.157H427.323C428.114 144.208 428.855 144.558 429.398 145.137C429.94 145.715 430.241 146.478 430.241 147.27C430.241 148.063 429.94 148.826 429.398 149.404C428.855 149.983 428.114 150.333 427.323 150.384Z" fill="#D32222"/>
<g opacity="0.7">
<path d="M427.323 150.384H408.382C407.591 150.333 406.849 149.983 406.307 149.404C405.765 148.826 405.463 148.063 405.463 147.27C405.463 146.478 405.765 145.715 406.307 145.137C406.849 144.558 407.591 144.208 408.382 144.157H427.323C428.114 144.208 428.855 144.558 429.398 145.137C429.94 145.715 430.241 146.478 430.241 147.27C430.241 148.063 429.94 148.826 429.398 149.404C428.855 149.983 428.114 150.333 427.323 150.384Z" fill="white"/>
</g>
<path d="M496.808 214.227L424.19 347.867C423.739 348.692 422.98 349.305 422.078 349.57C421.176 349.836 420.206 349.733 419.38 349.284L295.815 282.1C294.99 281.649 294.377 280.89 294.111 279.988C293.846 279.086 293.949 278.116 294.398 277.29L388.843 103.506C389.293 102.681 390.053 102.068 390.955 101.803C391.857 101.537 392.827 101.64 393.653 102.089L476.853 147.329L496.808 214.227Z" fill="#D32222"/>
<g opacity="0.2">
<path d="M496.808 214.227L424.19 347.867C423.739 348.692 422.98 349.305 422.078 349.57C421.176 349.836 420.206 349.733 419.38 349.284L295.815 282.1C294.99 281.649 294.377 280.89 294.111 279.988C293.846 279.086 293.949 278.116 294.398 277.29L388.843 103.506C389.293 102.681 390.053 102.068 390.955 101.803C391.857 101.537 392.827 101.64 393.653 102.089L476.853 147.329L496.808 214.227Z" fill="white"/>
</g>
<path d="M456.034 244.236L363.752 194.443L360.665 200.164L452.947 249.956L456.034 244.236Z" fill="#D32222"/>
<path d="M443.431 267.607L351.149 217.814L348.063 223.534L440.345 273.327L443.431 267.607Z" fill="#D32222"/>
<path d="M430.815 290.99L338.533 241.198L335.447 246.918L427.728 296.711L430.815 290.99Z" fill="#D32222"/>
<path d="M477.022 147.264L455.13 187.564C454.681 188.39 454.578 189.36 454.844 190.262C455.11 191.164 455.722 191.923 456.547 192.374L496.73 214.214L477.022 147.264Z" fill="#D32222"/>
<path opacity="0.7" d="M477.022 147.264L455.13 187.564C454.681 188.39 454.578 189.36 454.844 190.262C455.11 191.164 455.722 191.923 456.547 192.374L496.73 214.214L477.022 147.264Z" fill="white"/>
<path d="M515.736 209.729L443.131 343.369C442.68 344.194 441.92 344.807 441.019 345.072C440.117 345.338 439.146 345.235 438.321 344.786L314.756 277.654C313.928 277.206 313.313 276.447 313.045 275.545C312.776 274.643 312.878 273.672 313.326 272.844L407.771 99.021C408.219 98.1937 408.977 97.5783 409.879 97.3101C410.781 97.042 411.753 97.143 412.581 97.591L495.846 142.831L515.736 209.729Z" fill="#D32222"/>
<g opacity="0.5">
<path d="M515.736 209.729L443.131 343.369C442.68 344.194 441.92 344.807 441.019 345.072C440.117 345.338 439.146 345.235 438.321 344.786L314.756 277.654C313.928 277.206 313.313 276.447 313.045 275.545C312.776 274.643 312.878 273.672 313.326 272.844L407.771 99.021C408.219 98.1937 408.977 97.5783 409.879 97.3101C410.781 97.042 411.753 97.143 412.581 97.591L495.846 142.831L515.736 209.729Z" fill="white"/>
</g>
<path d="M472.536 238.394L385.176 191.269C384.854 191.093 384.5 190.984 384.135 190.945C383.77 190.907 383.401 190.942 383.049 191.047C382.698 191.152 382.37 191.326 382.086 191.558C381.802 191.79 381.566 192.076 381.393 192.4L380.964 193.193C380.789 193.516 380.678 193.871 380.64 194.237C380.602 194.603 380.636 194.973 380.741 195.326C380.846 195.679 381.02 196.007 381.253 196.292C381.485 196.578 381.771 196.815 382.095 196.989L469.455 244.114C470.107 244.465 470.872 244.543 471.581 244.331C472.29 244.119 472.886 243.634 473.238 242.983L473.667 242.177C473.843 241.855 473.953 241.501 473.991 241.136C474.029 240.771 473.994 240.402 473.889 240.05C473.784 239.698 473.611 239.371 473.378 239.087C473.146 238.803 472.86 238.567 472.536 238.394Z" fill="#D32222"/>
<path d="M459.907 261.786L372.545 214.648C371.186 213.915 369.491 214.422 368.758 215.781L368.326 216.581C367.593 217.94 368.1 219.635 369.458 220.368L456.82 267.506C458.179 268.239 459.874 267.732 460.607 266.374L461.039 265.573C461.772 264.215 461.265 262.519 459.907 261.786Z" fill="#D32222"/>
<path d="M447.297 285.181L359.935 238.043C358.577 237.31 356.881 237.817 356.148 239.176L355.716 239.977C354.983 241.335 355.49 243.031 356.849 243.764L444.211 290.902C445.569 291.635 447.265 291.128 447.998 289.769L448.43 288.968C449.163 287.61 448.656 285.914 447.297 285.181Z" fill="#D32222"/>
<path d="M495.963 142.779L474.058 183.079C473.835 183.487 473.694 183.936 473.645 184.399C473.597 184.862 473.64 185.33 473.773 185.776C473.906 186.222 474.126 186.637 474.42 186.997C474.715 187.358 475.077 187.657 475.488 187.876L515.671 209.716L495.963 142.779Z" fill="#D32222"/>
<path opacity="0.7" d="M495.963 142.779L474.058 183.079C473.835 183.487 473.694 183.936 473.645 184.399C473.597 184.862 473.64 185.33 473.773 185.776C473.906 186.222 474.126 186.637 474.42 186.997C474.715 187.358 475.077 187.657 475.488 187.876L515.671 209.716L495.963 142.779Z" fill="white"/>
<path d="M490.945 81.51L497.055 108.641C473.915 114.985 453.154 137.891 438.217 159.523C432.104 168.506 427.187 178.247 423.592 188.5C423.592 188.5 470.262 146.289 495.989 143.819L494.754 188.656C494.754 188.656 521.443 136.656 573.248 117.676C573.3 117.663 529.854 86.411 490.945 81.51Z" fill="#D32222"/>
<path d="M328.523 464.009L337.792 456.326L314.418 434.148L304.447 442.663L328.523 464.009Z" fill="#CB7A63"/>
<path d="M345.306 453.362C344.248 453.057 343.119 453.111 342.095 453.518C341.471 453.7 340.795 453.921 340.249 454.129C339.703 454.337 339.378 454.467 339.027 454.61L338 455.065C337.94 455.08 337.886 455.115 337.848 455.165C337.81 455.214 337.791 455.276 337.792 455.338C337.784 455.359 337.779 455.381 337.779 455.403C337.779 455.425 337.784 455.447 337.792 455.468C337.835 455.532 337.9 455.579 337.974 455.598C339.291 455.944 340.635 456.175 341.991 456.287C342.658 456.373 343.335 456.32 343.98 456.131H344.071C344.443 456.008 344.8 455.847 345.137 455.65C345.351 455.479 345.518 455.257 345.625 455.006C345.732 454.754 345.774 454.479 345.748 454.207C345.751 454.041 345.712 453.876 345.634 453.728C345.557 453.581 345.444 453.455 345.306 453.362ZM345.176 454.22C345.208 454.404 345.187 454.593 345.116 454.766C345.045 454.938 344.926 455.087 344.773 455.195C344.462 455.419 344.1 455.562 343.72 455.611C343.197 455.705 342.665 455.736 342.134 455.702C341.305 455.656 340.479 455.552 339.664 455.39L339.053 455.273C340.162 454.743 341.326 454.338 342.524 454.064C343.174 453.899 343.834 453.778 344.5 453.7C344.691 453.69 344.88 453.735 345.046 453.83C345.105 453.874 345.148 453.935 345.172 454.005C345.195 454.074 345.196 454.149 345.176 454.22Z" fill="#D32222"/>
<path d="M341.056 448.5C340.759 448.553 340.475 448.665 340.223 448.831C339.97 448.996 339.754 449.211 339.587 449.462C339.481 449.618 339.389 449.783 339.314 449.956C338.82 451.466 338.722 453.077 339.028 454.636C339.033 454.657 339.033 454.68 339.028 454.701C339.038 454.752 339.062 454.798 339.096 454.837C339.13 454.876 339.174 454.905 339.223 454.922C339.251 454.935 339.282 454.942 339.314 454.942C339.345 454.942 339.376 454.935 339.405 454.922C339.428 454.922 339.451 454.915 339.471 454.904C339.492 454.893 339.509 454.877 339.522 454.857C339.779 454.639 340.018 454.4 340.237 454.142C340.648 453.654 341.018 453.132 341.342 452.582C342.148 451.282 342.72 449.787 342.369 449.02C342.239 448.682 341.901 448.344 341.056 448.5ZM341.836 449.28C342.057 449.774 341.615 450.944 340.965 452.088C340.569 452.787 340.098 453.441 339.561 454.038C339.382 452.859 339.444 451.656 339.743 450.502C339.818 450.252 339.932 450.015 340.081 449.8C340.296 449.484 340.612 449.25 340.978 449.137H341.16C341.706 448.981 341.81 449.189 341.901 449.254L341.836 449.28Z" fill="#D32222"/>
<path d="M336.584 455.78L324.884 461.656C324.662 461.761 324.484 461.942 324.384 462.166C324.284 462.39 324.268 462.643 324.338 462.878L327.77 473.772C327.855 474.028 327.99 474.265 328.167 474.469C328.343 474.673 328.559 474.84 328.8 474.961C329.042 475.082 329.305 475.154 329.574 475.173C329.843 475.192 330.114 475.158 330.37 475.072L330.565 474.981C350.52 467.974 356.643 463.008 358.723 461.877C364.664 458.64 361.323 454.428 359.113 454.948C349.155 457.327 345.814 456.716 341.511 455.611C339.879 455.269 338.188 455.327 336.584 455.78Z" fill="#263238"/>
<path opacity="0.2" d="M314.431 434.161L326.261 444.652L316.277 453.154L304.447 442.663L314.431 434.161Z" fill="black"/>
<path d="M310.74 453.076L325.625 439.348L322.349 433.602L305.137 448.383L310.74 453.076Z" fill="#D32222"/>
<path opacity="0.5" d="M310.74 453.076L325.625 439.348L322.349 433.602L305.137 448.383L310.74 453.076Z" fill="white"/>
<path d="M320.009 435.617L318.007 437.333L315.03 439.933L313.301 441.402L308.101 445.9L307.1 446.745C307.1 446.745 285.897 434.798 274.093 424.645C266.02 417.664 265.292 415.051 264.434 415.701C253.033 424.385 219.285 454.363 200.162 469.95C199.538 470.028 198.862 470.08 198.29 470.132C188.072 470.873 180.09 469.755 173.798 467.376C173.798 459.082 180.831 439.712 181.416 437.84C181.416 437.84 209.639 409.799 255.373 386.087C255.821 385.859 256.281 385.655 256.751 385.476C257.336 385.203 257.935 384.96 258.545 384.748C260.783 383.856 263.148 383.321 265.552 383.162C267.574 383.08 269.593 383.398 271.493 384.098C272.584 384.485 273.645 384.954 274.665 385.502C275.559 385.964 276.427 386.477 277.265 387.036C278.682 387.933 280.047 388.934 281.334 389.922C284.259 392.184 306.346 420.641 318.215 433.771C318.852 434.382 319.45 435.032 320.009 435.617Z" fill="#D32222"/>
<g opacity="0.1">
<path d="M320.009 435.617L318.007 437.333L315.03 439.933L313.301 441.402L308.101 445.9L307.1 446.745C307.1 446.745 285.897 434.798 274.093 424.645C266.02 417.664 265.292 415.051 264.434 415.701C253.033 424.385 219.285 454.363 200.162 469.95C199.538 470.028 198.862 470.08 198.29 470.132C188.072 470.873 180.09 469.755 173.798 467.376C173.798 459.082 180.831 439.712 181.416 437.84C181.416 437.84 209.639 409.799 255.373 386.087C255.821 385.859 256.281 385.655 256.751 385.476C257.336 385.203 257.935 384.96 258.545 384.748C260.783 383.856 263.148 383.321 265.552 383.162C267.574 383.08 269.593 383.398 271.493 384.098C272.584 384.485 273.645 384.954 274.665 385.502C275.559 385.964 276.427 386.477 277.265 387.036C278.682 387.933 280.047 388.934 281.334 389.922C284.259 392.184 306.346 420.641 318.215 433.771C318.852 434.382 319.45 435.032 320.009 435.617Z" fill="black"/>
</g>
<path d="M169.404 315.9C171.198 323.986 173.07 335.803 167.506 341.367C174.414 353.505 182.702 364.803 192.206 375.037C204.387 353.86 192.843 340.769 192.843 340.769C183.743 338.819 183.86 335.14 185.29 328.796L169.404 315.9Z" fill="#CB7A63"/>
<path d="M161.863 342.355C162.526 340.169 163.898 338.266 165.763 336.947C167.596 335.556 186.563 335.348 191.438 336.947C194.314 337.858 196.758 339.785 198.315 342.368L161.863 342.355Z" fill="#D32222"/>
<path d="M249.184 374.595L254.072 372.359L254.319 380.341C252.909 381.571 251.283 382.528 249.522 383.162C248.972 383.324 248.389 383.339 247.832 383.205C247.275 383.07 246.763 382.791 246.348 382.396C245.932 382 245.629 381.502 245.467 380.952C245.306 380.402 245.292 379.819 245.427 379.262C245.669 378.254 246.131 377.313 246.781 376.506C247.43 375.699 248.251 375.046 249.184 374.595Z" fill="#CB7A63"/>
<path d="M260.338 374.608L260.078 377.546C260.042 377.987 259.866 378.405 259.577 378.739C259.287 379.074 258.898 379.307 258.466 379.405L254.28 380.341L254.033 372.359L258.284 372.424C258.552 372.419 258.818 372.467 259.067 372.566C259.316 372.665 259.543 372.813 259.734 373C259.926 373.188 260.077 373.412 260.181 373.659C260.285 373.906 260.338 374.171 260.338 374.439V374.608Z" fill="#CB7A63"/>
<path d="M187.031 397.293C194.8 401.286 203.618 402.763 212.264 401.518C222.664 399.763 240.864 389.298 248.755 383.318L246.155 379.418C242.255 380.263 210.028 396.617 189.241 381.823C185.341 379.067 170.144 367.718 164.775 367.952C156.052 368.342 156.806 377.481 160.55 381.29C164.879 385.645 181.012 394.329 187.031 397.293Z" fill="#CB7A63"/>
<g opacity="0.2">
<path d="M260.078 377.546C260.046 377.985 259.874 378.402 259.585 378.735C259.297 379.067 258.909 379.298 258.479 379.392L254.319 380.341C252.91 381.571 251.283 382.528 249.522 383.162C249.275 383.244 249.016 383.287 248.755 383.292C240.851 389.298 222.755 399.75 212.277 401.492C203.636 402.73 194.823 401.254 187.057 397.267C181.038 394.303 164.879 385.567 160.498 381.173C156.754 377.364 156 368.173 164.723 367.835C170.092 367.601 185.302 378.95 189.189 381.706C209.027 395.811 239.213 381.589 245.388 379.509C245.382 379.414 245.382 379.318 245.388 379.223C245.614 378.22 246.058 377.279 246.688 376.467C247.338 375.662 248.16 375.014 249.093 374.569L253.942 372.346L258.167 372.411C258.434 372.408 258.699 372.457 258.946 372.557C259.194 372.657 259.419 372.804 259.609 372.992C259.799 373.179 259.95 373.403 260.052 373.649C260.155 373.895 260.208 374.159 260.208 374.426V374.608L260.078 377.546Z" fill="black"/>
<path d="M254.072 372.359L254.033 372.372V372.359H254.072Z" fill="black"/>
</g>
<path d="M214.292 355.42C225.329 379.743 199.732 386.698 211.458 426.582L155.818 427.882C156.182 406.51 163.787 411.099 153.764 370.916C152.919 367.51 151.515 357.747 155.142 348.816C156.529 345.338 159.079 342.448 162.357 340.639C166.465 338.429 184.561 340.158 192.816 340.717C201.76 339.508 212.654 352.378 214.292 355.42Z" fill="#D32222"/>
<path opacity="0.5" d="M214.292 355.42C225.329 379.743 199.732 386.698 211.458 426.582L155.818 427.882C156.182 406.51 163.787 411.099 153.764 370.916C152.919 367.51 151.515 357.747 155.142 348.816C156.529 345.338 159.079 342.448 162.357 340.639C166.465 338.429 184.561 340.158 192.816 340.717C201.76 339.508 212.654 352.378 214.292 355.42Z" fill="white"/>
<path d="M203.658 307.164C203.502 308.23 203.931 309.101 204.594 309.192C205.257 309.283 205.894 308.542 206.089 307.515C206.284 306.488 205.803 305.591 205.14 305.487C204.477 305.383 203.801 306.15 203.658 307.164Z" fill="#263238"/>
<path d="M204.842 305.5L207.442 305.149C207.442 305.149 205.856 306.891 204.842 305.5Z" fill="#263238"/>
<path d="M203.827 308.568C204.395 311.027 205.305 313.395 206.531 315.601C205.956 315.899 205.323 316.067 204.676 316.094C204.03 316.121 203.385 316.006 202.787 315.757L203.827 308.568Z" fill="#A02724"/>
<path d="M207.338 300.014C207.437 299.977 207.524 299.915 207.591 299.832C207.657 299.75 207.7 299.651 207.715 299.546C207.737 299.386 207.697 299.224 207.603 299.093C207.508 298.962 207.367 298.873 207.208 298.844C206.259 298.678 205.284 298.742 204.366 299.032C203.447 299.322 202.612 299.828 201.93 300.508C201.86 300.559 201.802 300.623 201.76 300.698C201.717 300.772 201.69 300.855 201.682 300.94C201.673 301.026 201.683 301.112 201.71 301.194C201.737 301.275 201.781 301.35 201.839 301.414C201.896 301.477 201.967 301.528 202.046 301.562C202.125 301.596 202.21 301.613 202.295 301.613C202.381 301.612 202.466 301.593 202.544 301.557C202.622 301.521 202.692 301.47 202.749 301.405L202.827 301.314C203.375 300.782 204.041 300.387 204.77 300.161C205.5 299.935 206.273 299.885 207.026 300.014C207.128 300.04 207.235 300.04 207.338 300.014Z" fill="#263238"/>
<path d="M169.989 298.74C168.936 311.415 168.221 316.758 173.616 324.129C181.754 335.205 197.575 333.749 202.359 321.646C206.714 310.739 207.702 291.85 196.145 285.077C194.182 283.915 192.01 283.152 189.752 282.831C187.494 282.51 185.195 282.638 182.986 283.206C180.777 283.775 178.703 284.774 176.881 286.146C175.059 287.517 173.525 289.235 172.368 291.2C170.999 293.494 170.184 296.076 169.989 298.74Z" fill="#CB7A63"/>
<path d="M202.658 320.879C201.692 320.049 200.965 318.976 200.552 317.772C200.541 317.705 200.553 317.637 200.586 317.578C200.619 317.519 200.671 317.473 200.734 317.447C200.799 317.431 200.868 317.441 200.927 317.475C200.985 317.509 201.027 317.564 201.046 317.629C201.428 318.663 202.047 319.594 202.853 320.346L202.658 320.879Z" fill="#263238"/>
<path d="M160.954 282.269C156.131 288.769 153.934 290.511 159.914 307.944C162.319 314.951 169.3 324.233 172.693 325.078C178.777 326.612 184.692 322.348 189.255 318.045C193.408 314.432 196.885 310.11 199.525 305.279C201.969 300.352 202.866 294.437 200.825 289.328C198.641 283.777 190.932 278.824 185.16 277.628C178.4 276.172 164.971 276.822 160.954 282.269Z" fill="#263238"/>
<path d="M198.9 306.358C198.9 306.358 200.421 308.958 198.497 310.921V307.45L198.9 306.358Z" fill="#263238"/>
<path d="M198.9 306.358C198.9 306.358 199.459 310.362 196.105 311.857L197.899 307.541L198.9 306.358Z" fill="#263238"/>
<path d="M176.514 323.609C176.514 323.609 172.822 325.286 173.355 328.913L176.046 325.078L176.514 323.609Z" fill="#263238"/>
<path d="M176.657 323.7C176.657 323.7 173.849 326.612 175.695 329.797L176.774 325.234L176.657 323.7Z" fill="#263238"/>
<path d="M203.918 301.119C205.29 299.814 206.503 298.353 207.532 296.764C208.585 295.169 209.045 293.255 208.832 291.356C208.57 290.158 208.048 289.033 207.302 288.06C206.556 287.087 205.605 286.291 204.516 285.727C202.342 284.606 200.01 283.821 197.6 283.4C196.459 282.99 195.205 283.027 194.09 283.504C193.626 283.847 193.261 284.307 193.033 284.837C192.805 285.366 192.721 285.947 192.79 286.52C192.914 287.674 193.231 288.799 193.726 289.848C195.311 294.057 196.478 298.411 197.21 302.848C197.613 305.084 197.314 306.579 199.524 305.708C200.889 305.201 202.8 302.302 203.918 301.119Z" fill="#263238"/>
<path d="M186.42 307.385C186.285 310.317 187.318 313.183 189.293 315.354C191.893 318.214 195.299 316.342 196.261 312.754C197.132 309.556 196.807 304.213 193.336 302.679C189.865 301.145 186.602 303.81 186.42 307.385Z" fill="#CB7A63"/>
<path d="M333.866 469.846L343.902 460.07L324.467 435.643L312.338 442.806L333.866 469.846Z" fill="#CB7A63"/>
<path d="M354.146 457.054C353.041 456.664 350.753 457.912 349.011 459.017C348.569 459.29 348.179 459.563 347.841 459.797L347.672 459.927C347.282 460.2 346.996 460.408 346.892 460.499C346.833 460.527 346.785 460.575 346.757 460.634C346.728 460.693 346.721 460.76 346.736 460.824C346.755 460.889 346.794 460.947 346.848 460.989C346.902 461.031 346.967 461.055 347.035 461.058C348.233 461.11 349.432 461.071 350.623 460.941L351.416 460.85C352.276 460.785 353.105 460.498 353.821 460.018C354.083 459.858 354.327 459.671 354.549 459.459C354.737 459.233 354.866 458.963 354.923 458.675C354.979 458.387 354.963 458.088 354.874 457.808C354.822 457.633 354.728 457.474 354.602 457.343C354.475 457.212 354.319 457.113 354.146 457.054ZM354.224 457.99C354.288 458.179 354.302 458.382 354.263 458.579C354.224 458.775 354.135 458.957 354.003 459.108C353.461 459.632 352.772 459.977 352.027 460.096C351.148 460.297 350.251 460.415 349.349 460.447C348.933 460.447 348.5 460.447 348.049 460.447L348.491 460.122C348.589 460.04 348.693 459.966 348.803 459.901C350.201 458.916 351.739 458.149 353.366 457.626C353.566 457.568 353.778 457.568 353.977 457.626C354.048 457.658 354.109 457.708 354.153 457.773C354.197 457.837 354.221 457.912 354.224 457.99Z" fill="#D32222"/>
<path d="M348.582 452.907C348.287 453.021 348.018 453.195 347.794 453.419C347.57 453.643 347.396 453.911 347.282 454.207C346.45 456.196 347.672 459.29 347.867 459.771C347.89 459.823 347.925 459.869 347.971 459.903C348.017 459.938 348.07 459.959 348.127 459.966C348.191 459.979 348.258 459.979 348.322 459.966C348.367 459.951 348.405 459.918 348.426 459.875C348.631 459.595 348.814 459.3 348.972 458.991C349.934 457.184 350.831 454.168 350.051 453.128C349.856 452.842 349.427 452.556 348.582 452.907ZM348.257 459.043C347.648 457.602 347.502 456.007 347.841 454.48C347.994 454.095 348.28 453.777 348.647 453.583L348.816 453.505C349.375 453.284 349.518 453.505 349.57 453.505C350.142 454.298 349.271 457.379 348.257 459.043Z" fill="#D32222"/>
<path opacity="0.2" d="M323.453 434.148L332.592 445.848L320.229 452.751L310.947 441.35L323.453 434.148Z" fill="black"/>
<path d="M155.312 423.657L154.012 428.714C153.817 429.104 154.298 429.481 154.935 429.468L212.226 428.168C212.733 428.168 213.136 427.895 213.162 427.57L211.732 422.279C211.732 421.941 211.316 421.655 210.77 421.668L156.17 423.28C156.007 423.272 155.845 423.302 155.696 423.368C155.548 423.433 155.416 423.532 155.312 423.657Z" fill="#263238"/>
<path d="M206.297 428.714L204.789 428.883C204.49 428.883 204.243 428.792 204.243 428.597V422.097C204.243 421.902 204.49 421.72 204.776 421.694L206.284 421.512C206.583 421.512 206.83 421.616 206.83 421.811V428.311C206.83 428.506 206.596 428.688 206.297 428.714Z" fill="#D32222"/>
<path d="M185.783 429L184.275 429.156C183.989 429.156 183.742 429.065 183.742 428.87V422.37C183.742 422.188 183.989 422.006 184.288 421.967L185.783 421.798C186.082 421.798 186.329 421.889 186.329 422.084V428.584C186.329 428.792 186.082 429 185.783 429Z" fill="#D32222"/>
<path d="M185.783 429L184.275 429.156C183.989 429.156 183.742 429.065 183.742 428.87V422.37C183.742 422.188 183.989 422.006 184.288 421.967L185.783 421.798C186.082 421.798 186.329 421.889 186.329 422.084V428.584C186.329 428.792 186.082 429 185.783 429Z" fill="#D32222"/>
<path d="M331.136 439.4L328.601 440.83L324.233 443.3L320.333 445.497L316.316 447.759L314.769 448.63L313.807 447.915C313.573 447.759 313.3 447.564 312.988 447.317C312.026 446.602 310.7 445.614 309.088 444.379C301.015 437.983 286.624 425.425 282.334 413.998C279.565 417.3 276.25 421.447 272.454 426.023C256.1 445.744 230.724 473.577 200.2 477.204L198.328 477.399C188.123 478.27 180.128 477.256 173.823 474.955C157.976 469.144 153.556 455.221 154.635 443.378C154.739 437.827 155.818 427.947 155.818 427.947H213.642C221.78 418.054 238.134 402.558 254.839 392.847C255.229 392.6 255.632 392.366 256.035 392.158C256.438 391.95 257.036 391.586 257.53 391.313C262.571 388.466 267.959 386.282 273.559 384.813C274.703 384.54 275.834 384.306 276.952 384.137C278.098 383.966 279.252 383.857 280.41 383.812C288.327 383.461 295.204 386.412 299.91 394.303L330.265 438.1L331.136 439.4Z" fill="#D32222"/>
<path d="M299.937 379.314L236.055 381.953L237.927 341.302L301.809 338.663L299.937 379.314Z" fill="#D32222"/>
<path d="M299.195 382.512L236.236 385.112C235.823 385.139 235.408 385.077 235.02 384.93C234.632 384.783 234.28 384.555 233.988 384.26C233.696 383.966 233.47 383.612 233.327 383.223C233.183 382.834 233.125 382.419 233.155 382.005L235.001 341.614C235.057 340.734 235.433 339.904 236.058 339.281C236.683 338.659 237.514 338.286 238.394 338.234L301.353 335.634C301.767 335.609 302.181 335.672 302.568 335.82C302.954 335.968 303.305 336.196 303.597 336.49C303.889 336.784 304.114 337.137 304.259 337.525C304.403 337.913 304.463 338.328 304.434 338.741L302.575 379.132C302.526 380.012 302.154 380.843 301.53 381.467C300.907 382.09 300.076 382.462 299.195 382.512Z" fill="#263238"/>
<path d="M299.937 379.314L236.055 381.953L237.927 341.302L301.809 338.663L299.937 379.314Z" fill="#D32222"/>
<path opacity="0.9" d="M299.937 379.314L236.055 381.953L237.927 341.302L301.809 338.663L299.937 379.314Z" fill="white"/>
<path opacity="0.1" d="M260.598 337.337L250.042 384.527L254.241 384.358L264.654 337.168L260.598 337.337Z" fill="white"/>
<path opacity="0.1" d="M267.073 337.064L256.517 384.254L264.85 383.916L275.263 336.726L267.073 337.064Z" fill="white"/>
<path d="M279.201 383.019L300.469 382.421C300.833 384.891 299.78 385.814 298.428 385.853L291.629 386.022L287.079 386.126L280.02 386.321L236.223 387.621L235.872 384.54L279.201 383.019Z" fill="#D32222"/>
<path d="M279.202 383.019L300.47 382.421C300.834 384.891 299.781 385.814 298.429 385.853L291.63 386.022L287.08 386.126L280.021 386.321L225.811 387.985C225.506 387.997 225.205 387.92 224.944 387.763C224.683 387.606 224.473 387.376 224.342 387.101C224.229 386.865 224.177 386.606 224.19 386.345C224.204 386.084 224.281 385.831 224.417 385.608C224.552 385.385 224.741 385.199 224.966 385.067C225.191 384.935 225.446 384.861 225.707 384.852L279.202 383.019Z" fill="#D32222"/>
<path opacity="0.2" d="M279.202 383.019L300.47 382.421C300.834 384.891 299.781 385.814 298.429 385.853L291.63 386.022L287.08 386.126L280.021 386.321L225.811 387.985C225.506 387.997 225.205 387.92 224.944 387.763C224.683 387.606 224.473 387.376 224.342 387.101C224.229 386.865 224.177 386.606 224.19 386.345C224.204 386.084 224.281 385.831 224.417 385.608C224.552 385.385 224.741 385.199 224.966 385.067C225.191 384.935 225.446 384.861 225.707 384.852L279.202 383.019Z" fill="black"/>
<path opacity="0.2" d="M300.469 382.421L300.599 383.279C300.649 383.596 300.631 383.92 300.546 384.229C300.46 384.538 300.31 384.826 300.104 385.072C299.898 385.318 299.643 385.518 299.353 385.657C299.064 385.796 298.749 385.872 298.428 385.879L291.629 386.048L278.993 386.503L279.201 383.045L300.469 382.421Z" fill="black"/>
<path opacity="0.2" d="M190.308 356.616C190.308 356.616 187.305 362.739 195.976 378.911L199.603 385.502C200.799 387.673 208.703 383.24 211.121 379.171C211.121 379.171 195.911 370.045 190.308 356.616Z" fill="black"/>
<path d="M263.9 375.466L269.945 373.685L268.983 383.019C268.983 383.019 260.546 388.661 257.621 383.266L258.804 380.263C259.24 379.133 259.924 378.115 260.806 377.285C261.688 376.454 262.746 375.833 263.9 375.466Z" fill="#CB7A63"/>
<path d="M276.9 377.351L276.146 380.718C276.036 381.226 275.766 381.684 275.375 382.026C274.984 382.368 274.493 382.575 273.975 382.616L268.944 383.019L269.919 373.672L274.859 374.452C275.493 374.536 276.068 374.868 276.457 375.375C276.847 375.881 277.021 376.522 276.939 377.156L276.9 377.351Z" fill="#CB7A63"/>
<path d="M213.513 391.3C217.738 397.02 223.666 401.804 230.634 403.169C238.85 404.768 254.658 393.146 262.068 385.632C261.704 382.46 261.912 380.744 258.753 380.302C258.753 380.302 250.589 386.282 235.21 389.87C230.231 391.027 226.916 385.97 222.587 378.547C220.429 374.868 213.487 359.736 210.796 356.369C206.558 350.961 194.52 354.835 199.304 367.848C201.306 373.282 210.068 386.594 213.513 391.3Z" fill="#CB7A63"/>
<path d="M209.014 347.477C217.555 355.277 221.715 369.213 221.715 369.213L201.76 381.381C201.76 381.381 187.2 360.893 189.8 353.756C191.854 348.218 195.663 344.578 200.668 344.266C202.203 344.215 203.733 344.473 205.167 345.024C206.601 345.576 207.909 346.41 209.014 347.477Z" fill="#D32222"/>
<path d="M163.228 429.767H161.72C161.421 429.767 161.174 429.624 161.2 429.429L161.759 422.929C161.759 422.734 162.032 422.578 162.331 422.565H163.839C164.138 422.565 164.385 422.721 164.359 422.903L163.8 429.403C163.769 429.525 163.693 429.631 163.586 429.699C163.48 429.766 163.352 429.791 163.228 429.767Z" fill="#D32222"/>
<path d="M312.299 451.399L331.747 441.675L330.083 434.759L307.905 444.873L312.299 451.399Z" fill="#D32222"/>
<path opacity="0.5" d="M312.299 451.399L331.747 441.675L330.083 434.759L307.905 444.873L312.299 451.399Z" fill="white"/>
<path d="M343.122 459.004L329.706 463.06C329.451 463.13 329.229 463.289 329.081 463.508C328.933 463.728 328.869 463.993 328.9 464.256L330.525 476.424C330.571 476.71 330.673 476.984 330.826 477.231C330.978 477.477 331.178 477.69 331.414 477.858C331.65 478.027 331.917 478.146 332.2 478.21C332.482 478.274 332.775 478.281 333.06 478.231H333.294C355.706 474.5 363.103 470.431 365.508 469.573C372.398 467.246 369.642 462.176 367.198 462.319C356.226 462.995 352.807 461.721 348.452 459.719C346.762 459.043 344.931 458.797 343.122 459.004Z" fill="#263238"/>
<path d="M162.721 298.597C158.691 299.234 154.7 296.14 153.439 292.266C152.919 290.294 152.816 288.235 153.136 286.22C153.456 284.206 154.192 282.28 155.298 280.566C156.819 277.966 166.79 271.804 170.482 278.746C177.84 292.5 162.721 298.597 162.721 298.597Z" fill="#263238"/>
<path d="M299.364 352.599L260.039 354.263L260.221 350.363L299.546 348.699L299.364 352.599Z" fill="#D32222"/>
<g opacity="0.7">
<path d="M299.364 352.599L260.039 354.263L260.221 350.363L299.546 348.699L299.364 352.599Z" fill="white"/>
</g>
<path d="M299.13 358.007L259.805 359.684L259.974 355.784L299.299 354.107L299.13 358.007Z" fill="#D32222"/>
<g opacity="0.7">
<path d="M299.13 358.007L259.805 359.684L259.974 355.784L299.299 354.107L299.13 358.007Z" fill="white"/>
</g>
<path d="M298.883 363.428L259.558 365.105L259.74 361.192L299.052 359.528L298.883 363.428Z" fill="#D32222"/>
<g opacity="0.7">
<path d="M298.883 363.428L259.558 365.105L259.74 361.192L299.052 359.528L298.883 363.428Z" fill="white"/>
</g>
<path d="M298.636 368.836L259.311 370.513L259.493 366.613L298.818 364.936L298.636 368.836Z" fill="#D32222"/>
<g opacity="0.7">
<path d="M298.636 368.836L259.311 370.513L259.493 366.613L298.818 364.936L298.636 368.836Z" fill="white"/>
</g>
<path d="M298.402 374.257L259.077 375.934L259.246 372.034L298.571 370.357L298.402 374.257Z" fill="#D32222"/>
<g opacity="0.7">
<path d="M298.402 374.257L259.077 375.934L259.246 372.034L298.571 370.357L298.402 374.257Z" fill="white"/>
</g>
<path d="M244.138 356.467L240.981 356.602L241.037 357.901L244.193 357.766L244.138 356.467Z" fill="#D32222"/>
<g opacity="0.5">
<path d="M244.138 356.467L240.981 356.602L241.037 357.901L244.193 357.766L244.138 356.467Z" fill="white"/>
</g>
<path d="M243.987 360.227L240.831 360.362L240.887 361.661L244.043 361.525L243.987 360.227Z" fill="#D32222"/>
<g opacity="0.5">
<path d="M243.987 360.226L240.831 360.362L240.887 361.661L244.043 361.525L243.987 360.226Z" fill="white"/>
</g>
<path d="M243.036 364.996L239.877 365.122L239.929 366.422L243.088 366.296L243.036 364.996Z" fill="#D32222"/>
<g opacity="0.5">
<path d="M243.036 364.996L239.877 365.122L239.929 366.422L243.088 366.296L243.036 364.996Z" fill="white"/>
</g>
<path d="M243.698 367.72L240.542 367.856L240.598 369.155L243.754 369.019L243.698 367.72Z" fill="#D32222"/>
<g opacity="0.5">
<path d="M243.698 367.72L240.542 367.856L240.598 369.155L243.754 369.019L243.698 367.72Z" fill="white"/>
</g>
<path d="M242.712 372.496L239.553 372.622L239.605 373.922L242.764 373.796L242.712 372.496Z" fill="#D32222"/>
<g opacity="0.5">
<path d="M240.461 372.892L240.578 371.592L243.724 371.449L243.607 372.762L240.461 372.892Z" fill="white"/>
</g>
<path d="M243.403 375.22L240.247 375.352L240.302 376.651L243.458 376.518L243.403 375.22Z" fill="#D32222"/>
<g opacity="0.5">
<path d="M243.403 375.219L240.247 375.352L240.302 376.651L243.458 376.518L243.403 375.219Z" fill="white"/>
</g>
<path d="M247.442 352.872L240.916 355.303L240.981 353.587L244.595 353.002L241.02 352.755L241.085 351.039L247.442 352.872Z" fill="#D32222"/>
<path d="M287.287 346.671L260.039 347.828L260.169 345.124L287.417 343.967L287.287 346.671Z" fill="#D32222"/>
<g opacity="0.7">
<path d="M287.287 346.671L260.039 347.828L260.169 345.124L287.417 343.967L287.287 346.671Z" fill="white"/>
</g>
<path d="M250.523 348.062L246.532 348.244L248.144 347.217L248.586 347.62L249.067 347.204L250.523 348.062Z" fill="#D32222"/>
<path d="M247.988 347.087L246.376 348.127L246.493 345.735L247.988 347.087Z" fill="#D32222"/>
<path d="M250.783 345.67L250.653 347.919L249.184 347.061L250.783 345.67Z" fill="#D32222"/>
<path d="M248.629 346.667L248.54 346.762L248.549 346.771L248.639 346.676L248.629 346.667Z" fill="white"/>
<path d="M248.564 346.682L248.555 346.691L248.644 346.786L248.654 346.777L248.564 346.682Z" fill="white"/>
<path d="M250.783 345.436L249.067 346.996L248.586 347.425L248.144 347.009L246.649 345.657L246.532 345.553L250.783 345.436Z" fill="#D32222"/>
<path d="M244.145 345.887L240.989 346.021L241.006 346.411L244.162 346.277L244.145 345.887Z" fill="#D32222"/>
<path d="M244.147 346.874L240.991 347.008L241.008 347.398L244.164 347.264L244.147 346.874Z" fill="#D32222"/>
<path d="M244.151 347.887L240.995 348.021L241.012 348.411L244.168 348.277L244.151 347.887Z" fill="#D32222"/>
<path d="M176.163 377.91L187.954 512.694H169L156.312 367.653H165.022C167.823 367.665 170.519 368.724 172.581 370.622C174.642 372.519 175.919 375.119 176.163 377.91Z" fill="#D32222"/>
<path opacity="0.2" d="M176.28 379.132L187.98 512.694H169L156.312 367.653H163.8C166.936 367.667 169.955 368.852 172.263 370.975C174.572 373.098 176.004 376.007 176.28 379.132Z" fill="black"/>
<path d="M163.8 376.441L175.721 512.694H62.621L50.921 378.118C50.8038 376.789 50.9644 375.45 51.3926 374.186C51.8208 372.922 52.5073 371.761 53.4083 370.777C54.3094 369.793 55.4054 369.007 56.6266 368.469C57.8478 367.931 59.1676 367.653 60.502 367.653H154.336C156.723 367.683 159.013 368.599 160.762 370.223C162.511 371.847 163.594 374.063 163.8 376.441Z" fill="#D32222"/>
<path opacity="0.2" d="M163.943 377.923L175.734 512.694H62.6342L50.9732 379.886C50.8362 378.333 51.0237 376.768 51.5239 375.291C52.024 373.814 52.8258 372.457 53.8784 371.307C54.931 370.157 56.2114 369.238 57.6381 368.609C59.0649 367.98 60.6069 367.654 62.1662 367.653H152.75C155.562 367.655 158.271 368.711 160.343 370.612C162.415 372.513 163.699 375.122 163.943 377.923Z" fill="white"/>
<path d="M362.947 512.694H63.1018L59.7998 475.319H347.62C350.893 475.378 354.031 476.635 356.44 478.85C358.85 481.066 360.365 484.088 360.698 487.344L362.947 512.694Z" fill="#D32222"/>
<path opacity="0.2" d="M362.947 512.694H63.1018L59.7998 475.319H347.62C350.893 475.378 354.031 476.635 356.44 478.85C358.85 481.066 360.365 484.088 360.698 487.344L362.947 512.694Z" fill="white"/>
<path d="M376.701 527.007H59.5789C57.6043 527.004 55.7117 526.218 54.3154 524.821C52.9192 523.425 52.1333 521.533 52.1299 519.558C52.1299 517.582 52.9147 515.688 54.3116 514.291C55.7086 512.894 57.6033 512.109 59.5789 512.109H376.701C378.676 512.109 380.571 512.894 381.968 514.291C383.365 515.688 384.15 517.582 384.15 519.558C384.146 521.533 383.36 523.425 381.964 524.821C380.568 526.218 378.675 527.004 376.701 527.007Z" fill="#D32222"/>
<path opacity="0.2" d="M376.701 527.007H192.608C190.633 527.007 188.738 526.222 187.341 524.825C185.944 523.428 185.159 521.534 185.159 519.558C185.157 518.579 185.349 517.61 185.723 516.705C186.096 515.801 186.645 514.979 187.337 514.287C188.029 513.595 188.851 513.046 189.756 512.673C190.66 512.299 191.63 512.107 192.608 512.109H376.701C378.677 512.109 380.571 512.894 381.968 514.291C383.365 515.688 384.15 517.582 384.15 519.558C384.147 521.533 383.361 523.425 381.965 524.821C380.568 526.218 378.676 527.004 376.701 527.007Z" fill="black"/>
<path d="M63.7393 527.007L67.4963 539.786H75.0103L79.1443 527.007H63.7393Z" fill="#263238"/>
<path opacity="0.5" d="M63.7393 527.007L67.4963 539.786H75.0103L79.1443 527.007H63.7393Z" fill="white"/>
<path d="M171.418 527.007L175.175 539.786H182.689L186.836 527.007H171.418Z" fill="#263238"/>
<path opacity="0.5" d="M171.418 527.007L175.175 539.786H182.689L186.836 527.007H171.418Z" fill="white"/>
<path d="M253.838 527.007L257.595 539.786H265.109L269.243 527.007H253.838Z" fill="#263238"/>
<path opacity="0.5" d="M253.838 527.007L257.595 539.786H265.109L269.243 527.007H253.838Z" fill="white"/>
<path d="M361.517 527.007L365.274 539.786H372.788L376.922 527.007H361.517Z" fill="#263238"/>
<path opacity="0.5" d="M361.517 527.007L365.274 539.786H372.788L376.922 527.007H361.517Z" fill="white"/>
<path d="M137.657 362.583H129.428C129.256 362.583 129.091 362.515 128.969 362.393C128.847 362.271 128.778 362.105 128.778 361.933C128.778 361.761 128.847 361.595 128.969 361.473C129.091 361.352 129.256 361.283 129.428 361.283H137.657C137.829 361.286 137.992 361.356 138.113 361.477C138.234 361.598 138.304 361.762 138.307 361.933C138.307 362.105 138.239 362.271 138.117 362.393C137.995 362.515 137.83 362.583 137.657 362.583Z" fill="#D32222"/>
<path d="M123.955 362.583H82.7057C82.5333 362.583 82.3679 362.515 82.246 362.393C82.1241 362.271 82.0557 362.105 82.0557 361.933C82.059 361.762 82.1285 361.598 82.2497 361.477C82.3709 361.356 82.5343 361.286 82.7057 361.283H123.955C124.126 361.286 124.289 361.356 124.411 361.477C124.532 361.598 124.601 361.762 124.605 361.933C124.605 362.105 124.536 362.271 124.414 362.393C124.292 362.515 124.127 362.583 123.955 362.583Z" fill="#D32222"/>
<path d="M270.205 437.814C270.042 437.809 269.886 437.75 269.763 437.645C269.702 437.585 269.653 437.513 269.62 437.433C269.587 437.354 269.57 437.269 269.57 437.184C269.57 437.098 269.587 437.013 269.62 436.934C269.653 436.854 269.702 436.782 269.763 436.722L273.663 432.536C273.723 432.475 273.795 432.427 273.874 432.394C273.953 432.361 274.038 432.344 274.124 432.344C274.21 432.344 274.295 432.361 274.374 432.394C274.453 432.427 274.525 432.475 274.586 432.536C274.705 432.66 274.773 432.825 274.773 432.998C274.773 433.17 274.705 433.335 274.586 433.459L270.686 437.645C270.553 437.762 270.381 437.823 270.205 437.814Z" fill="#D32222"/>
<path d="M234.962 471.133C234.842 471.134 234.724 471.1 234.622 471.035C234.521 470.971 234.44 470.878 234.39 470.769C234.35 470.693 234.326 470.61 234.319 470.525C234.311 470.44 234.322 470.354 234.348 470.273C234.375 470.191 234.418 470.116 234.474 470.052C234.53 469.988 234.599 469.935 234.676 469.898C246.714 463.801 265.811 440.999 266.006 440.765C266.06 440.699 266.127 440.645 266.202 440.605C266.277 440.565 266.36 440.541 266.445 440.534C266.53 440.527 266.615 440.536 266.696 440.563C266.777 440.589 266.852 440.631 266.916 440.687C267.047 440.8 267.129 440.96 267.143 441.133C267.158 441.305 267.104 441.476 266.994 441.61C266.214 442.546 247.494 464.841 235.261 471.055C235.17 471.107 235.067 471.134 234.962 471.133Z" fill="#D32222"/>
</svg>
