<svg width="650" height="650" viewBox="0 0 650 650" fill="none" xmlns="http://www.w3.org/2000/svg">
<path d="M650 497.12H0V497.445H650V497.12Z" fill="#EBEBEB"/>
<path d="M584.87 518.037H565.5V518.362H584.87V518.037Z" fill="#EBEBEB"/>
<path d="M430.586 521.573H419.289V521.898H430.586V521.573Z" fill="#EBEBEB"/>
<path d="M560.014 505.973H515.567V506.298H560.014V505.973Z" fill="#EBEBEB"/>
<path d="M142.519 512.681H86.3721V513.006H142.519V512.681Z" fill="#EBEBEB"/>
<path d="M174.343 512.681H154.089V513.006H174.343V512.681Z" fill="#EBEBEB"/>
<path d="M331.188 508.313H209.404V508.638H331.188V508.313Z" fill="#EBEBEB"/>
<path d="M308.1 439.14H57.0829C55.1164 439.137 53.2317 438.353 51.8424 436.961C50.4531 435.57 49.6728 433.683 49.6729 431.717V78.858C49.69 76.9028 50.4778 75.0334 51.8652 73.6557C53.2527 72.278 55.1276 71.5033 57.0829 71.5H308.1C310.069 71.5 311.957 72.2821 313.349 73.6741C314.741 75.0662 315.523 76.9543 315.523 78.923V431.717C315.523 433.686 314.741 435.574 313.349 436.966C311.957 438.358 310.069 439.14 308.1 439.14ZM57.0829 71.76C55.2026 71.7634 53.4005 72.5128 52.0722 73.8435C50.7439 75.1743 49.9978 76.9777 49.9979 78.858V431.717C49.9978 433.597 50.7439 435.401 52.0722 436.731C53.4005 438.062 55.2026 438.812 57.0829 438.815H308.1C309.981 438.812 311.785 438.063 313.115 436.732C314.445 435.402 315.194 433.598 315.198 431.717V78.858C315.194 76.9765 314.445 75.1731 313.115 73.8428C311.785 72.5124 309.981 71.7634 308.1 71.76H57.0829Z" fill="#EBEBEB"/>
<path d="M589.303 439.14H338.273C336.305 439.137 334.419 438.353 333.028 436.962C331.636 435.571 330.853 433.685 330.85 431.717V78.858C330.87 76.9016 331.661 75.0322 333.05 73.6549C334.44 72.2775 336.316 71.5033 338.273 71.5H589.303C591.256 71.5068 593.127 72.2829 594.512 73.6602C595.896 75.0376 596.682 76.9051 596.7 78.858V431.717C596.7 433.681 595.921 435.565 594.535 436.957C593.148 438.348 591.267 439.133 589.303 439.14ZM338.273 71.76C336.391 71.7634 334.588 72.5124 333.257 73.8428C331.927 75.1731 331.178 76.9765 331.175 78.858V431.717C331.178 433.598 331.927 435.402 333.257 436.732C334.588 438.063 336.391 438.812 338.273 438.815H589.303C591.184 438.812 592.987 438.063 594.318 436.732C595.648 435.402 596.397 433.598 596.401 431.717V78.858C596.397 76.9765 595.648 75.1731 594.318 73.8428C592.987 72.5124 591.184 71.7634 589.303 71.76H338.273Z" fill="#EBEBEB"/>
<path d="M278.824 497.12H303.03V330.889H278.824V497.12Z" fill="#E6E6E6"/>
<path d="M287.339 497.12H278.811V465.53H296.27L287.339 497.12Z" fill="#F0F0F0"/>
<path d="M534.82 497.12H559.026V330.889H534.82V497.12Z" fill="#E6E6E6"/>
<path d="M278.824 488.488L542.256 488.488V330.876H278.824V488.488Z" fill="#F0F0F0"/>
<path d="M533.728 497.12H542.256V465.53H524.797L533.728 497.12Z" fill="#F0F0F0"/>
<path d="M455.403 343.941V474.318H533.494V343.941H455.403Z" fill="#E6E6E6"/>
<path d="M486.72 348.517H502.177C508.71 348.599 515.038 346.239 519.922 341.9H468.988C473.867 346.24 480.191 348.6 486.72 348.517Z" fill="#F0F0F0"/>
<path d="M371.488 343.941V474.318H449.579V343.941H371.488Z" fill="#E6E6E6"/>
<path d="M402.025 348.517H417.469C424.002 348.599 430.33 346.239 435.214 341.9H384.28C389.164 346.239 395.492 348.599 402.025 348.517Z" fill="#F0F0F0"/>
<path d="M287.586 343.941V474.318H365.677V343.941H287.586Z" fill="#E6E6E6"/>
<path d="M318.11 348.517H333.554C340.087 348.602 346.416 346.242 351.299 341.9H300.365C305.249 346.239 311.577 348.599 318.11 348.517Z" fill="#F0F0F0"/>
<path d="M90.9743 497.12H256.152L256.152 125.814H90.9743L90.9743 497.12Z" fill="#F0F0F0"/>
<path d="M90.974 497.12H252.668L252.668 125.814H90.974L90.974 497.12Z" fill="#F5F5F5"/>
<path d="M242.814 488.696L242.814 134.238H100.828L100.828 488.696H242.814Z" fill="#F0F0F0"/>
<path d="M228.865 200.2C228.865 189.932 224.787 180.085 217.526 172.825C210.266 165.565 200.419 161.486 190.151 161.486H153.491C143.224 161.486 133.377 165.565 126.116 172.825C118.856 180.085 114.777 189.932 114.777 200.2H228.865Z" fill="#FAFAFA"/>
<path d="M228.865 466.661V381.979H114.79V466.661H228.865Z" fill="#F5F5F5"/>
<path d="M228.865 224.029H178.542V371.046H228.865V224.029Z" fill="#F5F5F5"/>
<path d="M165.1 224.029H114.777V371.046H165.1V224.029Z" fill="#F5F5F5"/>
<path d="M133.029 296.881H112.424C112.002 296.884 111.583 296.804 111.192 296.645C110.801 296.486 110.446 296.251 110.146 295.954C109.846 295.656 109.608 295.303 109.446 294.913C109.284 294.523 109.2 294.105 109.2 293.683C109.2 292.835 109.537 292.021 110.137 291.422C110.737 290.822 111.55 290.485 112.398 290.485H133.003C133.85 290.488 134.662 290.826 135.261 291.425C135.86 292.024 136.198 292.836 136.201 293.683C136.201 294.527 135.868 295.336 135.274 295.935C134.68 296.534 133.873 296.874 133.029 296.881Z" fill="#E0E0E0"/>
<path d="M103.376 488.696L103.376 134.238H100.815L100.815 488.696H103.376Z" fill="#F0F0F0"/>
<path d="M360.633 290.134H535.795V125.814L360.633 125.814V290.134Z" fill="#E6E6E6"/>
<path d="M356.226 290.134H531.388V125.814L356.226 125.814V290.134Z" fill="#F5F5F5"/>
<path d="M345.982 299.65H535.795V290.134H345.982V299.65Z" fill="#E6E6E6"/>
<path d="M341.016 299.65H521.053V290.134H341.016V299.65Z" fill="#F5F5F5"/>
<path d="M523.458 281.58V134.355H364.143V281.58H523.458Z" fill="white"/>
<path d="M448.214 281.58V134.355H439.387V281.58H448.214Z" fill="#F5F5F5"/>
<path d="M367.484 281.593V134.368H364.143V281.593H367.484Z" fill="#E6E6E6"/>
<path d="M451.555 281.58V134.355H448.214V281.58H451.555Z" fill="#E6E6E6"/>
<path d="M384.176 294.489C380.952 261.105 378.716 206.947 380.458 188.825C380.488 188.516 380.583 188.217 380.738 187.948C380.893 187.679 381.103 187.446 381.355 187.265C381.692 187.02 382.091 186.875 382.506 186.844C382.921 186.814 383.337 186.901 383.706 187.094C384.075 187.287 384.382 187.58 384.594 187.938C384.806 188.297 384.913 188.708 384.904 189.124C384.592 198.107 384.241 220.545 386.204 259.246C387.153 278.512 388.531 291.746 387.582 294.489H384.176Z" fill="#E6E6E6"/>
<path d="M372.164 217.555C363.064 207.363 344.266 200.122 325.169 200.161C317.681 200.161 347.971 212.004 360.568 225.069C370.357 235.209 381.368 252.278 385.151 261.755C382.72 241.8 381.342 227.734 372.164 217.555Z" fill="#E6E6E6"/>
<path d="M390.351 220.662C397.969 210.054 415.558 201.89 434.551 200.967C442.026 200.603 413.608 213.967 403 227.565C394.758 238.16 386.308 255.723 383.994 265.343C383.5 245.362 382.733 231.27 390.351 220.662Z" fill="#E6E6E6"/>
<path d="M371.8 180.362C364 171.73 348.166 165.594 332.007 165.633C325.65 165.633 351.312 175.669 361.985 186.719C370.266 195.312 379.613 209.768 382.785 217.789C380.692 200.915 379.522 188.981 371.8 180.362Z" fill="#E6E6E6"/>
<path d="M387.153 193.115C393.653 184.132 408.499 177.216 424.606 176.436C430.924 176.137 406.861 187.408 397.891 198.965C390.91 207.935 383.76 222.807 381.784 230.958C381.316 214.032 380.705 202.098 387.153 193.115Z" fill="#E6E6E6"/>
<path d="M385.476 330.889C380.645 330.871 376.004 329.012 372.497 325.69C368.99 322.369 366.881 317.836 366.6 313.014L364.936 283.998H406.146L404.469 313.014C404.189 317.857 402.065 322.409 398.532 325.734C394.999 329.059 390.327 330.904 385.476 330.889Z" fill="#E6E6E6"/>
<path d="M408.746 290.589H362.193L360.867 278.512H410.072L408.746 290.589Z" fill="#E6E6E6"/>
<path d="M325 555.828C464.208 555.828 577.057 549.239 577.057 541.112C577.057 532.985 464.208 526.396 325 526.396C185.793 526.396 72.9434 532.985 72.9434 541.112C72.9434 549.239 185.793 555.828 325 555.828Z" fill="#F5F5F5"/>
<path d="M330.083 527.046L319.228 528.268L315.224 503.646L326.079 502.424L330.083 527.046Z" fill="#FFC3BD"/>
<path d="M378.678 529.412H367.836L365.145 504.309H375.987L378.678 529.412Z" fill="#FFC3BD"/>
<path d="M366.951 528.151H380.159C380.374 528.152 380.583 528.225 380.75 528.36C380.918 528.495 381.035 528.682 381.082 528.892L383.227 538.525C383.278 538.76 383.276 539.003 383.219 539.236C383.163 539.469 383.054 539.687 382.901 539.872C382.749 540.058 382.556 540.206 382.338 540.306C382.119 540.406 381.881 540.455 381.641 540.449C377.39 540.384 374.283 540.137 368.927 540.137C365.638 540.137 355.706 540.475 351.156 540.475C346.606 540.475 345.956 535.977 347.88 535.574C356.226 533.741 362.518 531.219 365.196 528.814C365.678 528.382 366.304 528.146 366.951 528.151Z" fill="#263238"/>
<path d="M319.059 526.409L330.759 525.109C330.974 525.083 331.191 525.133 331.374 525.249C331.556 525.365 331.693 525.541 331.76 525.746L334.971 535.067C335.051 535.29 335.08 535.528 335.055 535.764C335.03 535.999 334.952 536.226 334.827 536.427C334.702 536.629 334.533 536.799 334.333 536.926C334.133 537.053 333.907 537.133 333.671 537.16C329.42 537.576 323.271 538.018 317.928 538.629C311.688 539.331 310.648 541.008 303.303 540.826C298.844 540.722 297.713 536.198 299.585 535.834C308.113 534.183 309.751 532.896 316.485 527.579C317.212 526.948 318.106 526.541 319.059 526.409Z" fill="#263238"/>
<path d="M328.627 210.925C324.987 213.928 321.399 216.541 317.694 219.219C313.989 221.897 310.206 224.419 306.306 226.798C302.406 229.177 298.415 231.504 294.216 233.597C289.932 235.83 285.471 237.704 280.878 239.2C279.669 239.577 278.486 239.902 277.121 240.227C275.786 240.52 274.437 240.737 273.078 240.877C270.634 241.15 268.346 241.254 266.058 241.371C261.495 241.579 256.958 241.566 252.538 241.54C243.594 241.436 234.728 241.007 225.81 240.24L225.68 232.102C234.429 230.984 243.217 230.009 251.914 229.034C256.256 228.553 260.598 228.033 264.823 227.474C266.942 227.188 269.035 226.85 270.959 226.486C271.791 226.337 272.616 226.146 273.429 225.914C274.183 225.654 275.119 225.355 276.029 225.004C279.745 223.491 283.354 221.728 286.832 219.726C290.433 217.659 294.021 215.436 297.557 213.083C301.093 210.73 304.616 208.286 308.113 205.803C311.61 203.32 315.081 200.681 318.357 198.185L328.627 210.925Z" fill="#FFC3BD"/>
<path d="M339.222 201.669C337.662 211.913 316.095 227.578 316.095 227.578L300.612 208.377C307.391 201.138 314.584 194.297 322.153 187.889C329.108 182.195 340.912 190.515 339.222 201.669Z" fill="#D32222"/>
<path d="M228.67 232.934L222.521 228.553L221.845 242.398C221.845 242.398 225.251 242.398 226.564 239.902L228.67 232.934Z" fill="#FFC3BD"/>
<path d="M216.957 224.523L215.696 238.082L221.845 242.398L222.521 228.553L216.957 224.523Z" fill="#FFC3BD"/>
<path opacity="0.2" d="M315.237 503.659L317.291 516.347L328.146 515.125L326.092 502.437L315.237 503.659Z" fill="black"/>
<path opacity="0.2" d="M375.987 504.309H365.145L366.536 517.257H377.378L375.987 504.309Z" fill="black"/>
<path d="M376.142 188.214C376.949 188.394 377.712 188.734 378.386 189.214C379.059 189.694 379.63 190.304 380.064 191.008C380.498 191.712 380.786 192.496 380.912 193.313C381.037 194.131 380.998 194.965 380.796 195.767C378.445 205.529 376.674 215.422 375.492 225.394C374.465 233.792 373.854 241.813 373.477 249.08C372.567 266.11 372.944 279.097 372.437 283.504L314.6 279.5C308.724 233.48 315.601 204.1 319.475 192.179C320.071 190.322 321.182 188.673 322.677 187.421C324.173 186.17 325.992 185.367 327.925 185.107C330.148 184.821 332.8 184.535 335.608 184.366C336.583 184.366 337.584 184.275 338.585 184.249C346.813 184.328 355.029 184.879 363.194 185.9C364.741 186.082 366.301 186.316 367.822 186.55C370.851 187.083 373.75 187.681 376.142 188.214Z" fill="#263238"/>
<path d="M362.7 158.093C360.594 165.893 358.033 180.271 363.194 185.939C349.791 194.961 341.237 207.649 338.767 204.893C337.467 203.45 336.921 186.693 338.611 184.223C347.581 182.728 347.815 176.176 346.71 169.923L362.7 158.093Z" fill="#FFC3BD"/>
<path d="M362.154 182.702C362.154 182.702 340.301 192.374 337.454 213.98C343.46 207.012 356.759 199.433 356.759 199.433L350.896 197.756C354.622 196.34 358.481 195.299 362.414 194.649C361.764 191.659 365.235 185.705 365.235 185.705L362.154 182.702Z" fill="#D32222"/>
<path d="M342.446 182.351C342.446 182.351 345.345 194.701 337.415 213.98C336.18 206.622 330.993 194.311 330.993 194.311L336.349 195.754C336.349 195.754 336.076 193.271 331.747 189.956C333.359 186.862 338.403 183.209 338.403 183.209L342.446 182.351Z" fill="#D32222"/>
<path opacity="0.2" d="M356.2 162.916L346.736 169.91C347.02 171.367 347.173 172.846 347.191 174.33C350.597 174.083 355.485 170.703 356.083 167.193C356.383 165.786 356.422 164.337 356.2 162.916Z" fill="black"/>
<path d="M334.932 135.499C329.641 135.72 326.729 144.833 332.085 152.399C337.441 159.965 342.043 135.2 334.932 135.499Z" fill="#263238"/>
<path d="M360.997 143.52C361.621 154.258 362.531 160.511 357.812 166.621C350.701 175.825 336.947 172.536 333.112 162.201C329.68 152.893 329.212 136.89 339.157 131.404C341.34 130.18 343.799 129.534 346.302 129.528C348.805 129.523 351.267 130.157 353.456 131.371C355.644 132.585 357.486 134.339 358.806 136.465C360.126 138.591 360.88 141.02 360.997 143.52Z" fill="#FFC3BD"/>
<path d="M362.57 151.762C354.432 146.562 351.559 139.711 350.935 136.266C347.776 137.007 332.098 144.222 327.275 136.266C322.452 128.31 328.575 123.63 337.545 128.531C333.554 121.485 337.181 118.04 349.726 117.728C362.271 117.416 360.581 124.696 360.581 124.696C360.581 124.696 370.071 120.562 373.438 127.842C377.325 136.214 370.149 150.501 362.57 151.762Z" fill="#263238"/>
<path d="M358.436 122.772C358.553 122.772 363.181 123.89 368.524 118.521C367.575 123.097 359.281 126.152 359.281 126.152L358.436 122.772Z" fill="#263238"/>
<path d="M364.663 138.489C359.671 136.76 353.613 144.17 355.849 153.114C358.085 162.058 371.41 140.816 364.663 138.489Z" fill="#263238"/>
<path d="M367.497 152.451C367.273 153.772 366.79 155.035 366.076 156.168C365.363 157.301 364.432 158.283 363.337 159.055C360.399 161.109 357.747 158.769 357.578 155.376C357.422 152.321 358.774 147.576 362.193 146.874C365.612 146.172 368.03 149.175 367.497 152.451Z" fill="#FFC3BD"/>
<path d="M330.915 401.583C333.515 369.889 352.625 282.126 352.625 282.126L314.6 279.5C314.6 279.5 299.936 366.6 298.818 399.672C297.648 434.057 311.48 510.458 311.48 510.458L329.68 508.378C329.68 508.378 328.289 433.42 330.915 401.583Z" fill="#D32222"/>
<path opacity="0.5" d="M330.915 401.583C333.515 369.889 352.625 282.126 352.625 282.126L314.6 279.5C314.6 279.5 299.936 366.6 298.818 399.672C297.648 434.057 311.48 510.458 311.48 510.458L329.68 508.378C329.68 508.378 328.289 433.42 330.915 401.583Z" fill="white"/>
<path opacity="0.2" d="M338.299 311.844C330.629 321.646 330.499 356.044 333.463 381.498C336.284 363.142 340.73 339.898 344.643 320.398L338.299 311.844Z" fill="black"/>
<path d="M335.114 280.904C335.114 280.904 339.222 373.698 343.798 405.119C348.803 439.53 361.53 514.8 361.53 514.8H381.381C381.381 514.8 378.118 443.963 375.492 410.15C372.515 371.644 372.437 283.556 372.437 283.556L335.114 280.904Z" fill="#D32222"/>
<path opacity="0.5" d="M335.114 280.904C335.114 280.904 339.222 373.698 343.798 405.119C348.803 439.53 361.53 514.8 361.53 514.8H381.381C381.381 514.8 378.118 443.963 375.492 410.15C372.515 371.644 372.437 283.556 372.437 283.556L335.114 280.904Z" fill="white"/>
<path d="M359.152 515.177H382.526V508.196L356.396 507.741L359.152 515.177Z" fill="#D32222"/>
<path d="M310.674 512.486L332.41 510.016L331.617 502.996L307.281 505.375L310.674 512.486Z" fill="#D32222"/>
<path d="M345.189 148.434C345.293 149.305 344.916 150.072 344.344 150.137C343.772 150.202 343.239 149.552 343.122 148.681C343.005 147.81 343.395 147.056 343.967 146.991C344.539 146.926 345.085 147.576 345.189 148.434Z" fill="#263238"/>
<path d="M335.4 149.617C335.504 150.488 335.127 151.242 334.555 151.32C333.983 151.398 333.45 150.735 333.346 149.864C333.242 148.993 333.619 148.239 334.178 148.174C334.737 148.109 335.27 148.746 335.4 149.617Z" fill="#263238"/>
<path d="M338.546 149.682C337.826 152.458 336.728 155.122 335.283 157.599C335.929 157.951 336.644 158.158 337.379 158.205C338.113 158.252 338.848 158.138 339.534 157.872L338.546 149.682Z" fill="#ED847E"/>
<path d="M347.854 144.898C347.763 144.927 347.667 144.93 347.575 144.907C347.483 144.884 347.399 144.836 347.334 144.768C346.897 144.294 346.356 143.93 345.753 143.704C345.15 143.478 344.503 143.398 343.863 143.468C343.788 143.49 343.709 143.494 343.632 143.481C343.555 143.468 343.482 143.438 343.419 143.393C343.355 143.348 343.302 143.29 343.264 143.222C343.226 143.153 343.204 143.078 343.2 143C343.185 142.933 343.184 142.864 343.197 142.797C343.21 142.729 343.237 142.666 343.276 142.609C343.315 142.553 343.365 142.506 343.424 142.47C343.482 142.434 343.548 142.411 343.616 142.402C344.423 142.295 345.243 142.385 346.008 142.663C346.773 142.942 347.46 143.4 348.01 144.001C348.058 144.048 348.097 144.105 348.124 144.167C348.15 144.23 348.164 144.297 348.164 144.365C348.164 144.433 348.15 144.5 348.124 144.563C348.097 144.625 348.058 144.682 348.01 144.729C347.969 144.795 347.916 144.852 347.854 144.898Z" fill="#263238"/>
<path d="M344.084 161.343C345.322 161.081 346.479 160.525 347.456 159.722C348.434 158.919 349.203 157.892 349.7 156.728C349.726 156.661 349.723 156.586 349.694 156.52C349.665 156.455 349.611 156.403 349.544 156.377C349.473 156.352 349.396 156.355 349.327 156.387C349.259 156.419 349.206 156.476 349.18 156.546C348.707 157.612 347.99 158.552 347.086 159.291C346.183 160.029 345.119 160.545 343.98 160.797C343.91 160.818 343.85 160.864 343.812 160.927C343.774 160.989 343.759 161.063 343.772 161.135C343.793 161.2 343.835 161.256 343.891 161.294C343.948 161.332 344.016 161.349 344.084 161.343Z" fill="#263238"/>
<path d="M330.759 146.744C330.659 146.783 330.548 146.783 330.447 146.744C330.319 146.7 330.213 146.607 330.153 146.485C330.092 146.364 330.081 146.223 330.122 146.094C330.371 145.317 330.802 144.612 331.378 144.035C331.955 143.458 332.661 143.028 333.437 142.779C333.503 142.762 333.572 142.758 333.639 142.767C333.706 142.777 333.771 142.8 333.829 142.835C333.888 142.87 333.938 142.917 333.978 142.972C334.018 143.027 334.046 143.09 334.061 143.156C334.079 143.22 334.083 143.287 334.074 143.353C334.065 143.419 334.043 143.482 334.009 143.539C333.975 143.596 333.93 143.645 333.877 143.685C333.823 143.724 333.762 143.752 333.697 143.767C333.091 143.967 332.54 144.306 332.088 144.758C331.637 145.209 331.297 145.76 331.097 146.367C331.083 146.456 331.044 146.538 330.984 146.605C330.924 146.672 330.846 146.72 330.759 146.744Z" fill="#263238"/>
<path d="M363.363 530.049C362.626 530.103 361.893 529.906 361.283 529.49C361.097 529.331 360.952 529.131 360.859 528.905C360.766 528.679 360.729 528.433 360.75 528.19C360.747 528.039 360.787 527.891 360.865 527.762C360.943 527.633 361.057 527.529 361.192 527.462C362.388 526.838 365.885 528.996 366.275 529.243C366.32 529.267 366.356 529.306 366.378 529.353C366.399 529.4 366.404 529.453 366.392 529.503C366.385 529.554 366.362 529.601 366.327 529.638C366.292 529.675 366.247 529.701 366.197 529.711C365.268 529.93 364.317 530.044 363.363 530.049ZM361.751 527.8C361.639 527.797 361.528 527.819 361.426 527.865C361.372 527.893 361.327 527.936 361.297 527.989C361.267 528.042 361.253 528.103 361.257 528.164C361.233 528.337 361.253 528.513 361.314 528.676C361.376 528.84 361.476 528.985 361.608 529.1C362.206 529.594 363.623 529.672 365.508 529.295C364.364 528.558 363.088 528.05 361.751 527.8Z" fill="#D32222"/>
<path d="M366.145 529.659C366.102 529.671 366.057 529.671 366.015 529.659C364.897 529.048 362.726 526.669 362.96 525.473C362.999 525.284 363.101 525.113 363.25 524.99C363.399 524.867 363.586 524.799 363.779 524.797C363.974 524.77 364.172 524.785 364.36 524.841C364.548 524.897 364.723 524.993 364.871 525.122C366.171 526.149 366.392 529.282 366.392 529.412C366.4 529.458 366.393 529.506 366.372 529.548C366.351 529.59 366.317 529.625 366.275 529.646C366.234 529.663 366.189 529.668 366.145 529.659ZM364 525.265H363.896C363.558 525.265 363.532 525.46 363.519 525.525C363.376 526.24 364.819 528.034 365.872 528.879C365.794 527.642 365.341 526.458 364.572 525.486C364.413 525.347 364.211 525.269 364 525.265Z" fill="#D32222"/>
<path d="M318.175 528.008C316.485 528.554 313.443 529.308 312.143 528.411C311.951 528.28 311.795 528.103 311.688 527.897C311.581 527.69 311.528 527.46 311.532 527.228C311.521 527.088 311.546 526.947 311.605 526.82C311.665 526.692 311.756 526.582 311.87 526.5C313.092 525.642 317.681 527.332 318.188 527.527C318.237 527.547 318.279 527.581 318.309 527.625C318.339 527.669 318.356 527.721 318.357 527.774C318.356 527.828 318.338 527.879 318.305 527.921C318.272 527.964 318.226 527.994 318.175 528.008ZM312.182 526.89C312.137 526.925 312.101 526.971 312.078 527.023C312.056 527.075 312.046 527.132 312.052 527.189C312.049 527.342 312.084 527.494 312.155 527.63C312.225 527.766 312.328 527.883 312.455 527.969C313.183 528.489 314.964 528.385 317.304 527.722C315.419 527.137 312.936 526.5 312.182 526.89Z" fill="#D32222"/>
<path d="M318.175 528.008C318.108 528.034 318.034 528.034 317.967 528.008C316.602 527.579 313.768 525.538 313.833 524.303C313.833 524.004 314.002 523.627 314.691 523.484C314.941 523.425 315.202 523.418 315.454 523.465C315.707 523.512 315.948 523.612 316.16 523.757C317.655 524.732 318.279 527.657 318.305 527.657C318.312 527.701 318.309 527.747 318.296 527.79C318.282 527.833 318.259 527.872 318.227 527.904L318.175 528.008ZM314.522 524.108C314.353 524.199 314.34 524.303 314.34 524.355C314.34 525.096 316.264 526.721 317.681 527.371C317.42 526.157 316.789 525.053 315.874 524.212C315.722 524.103 315.548 524.027 315.364 523.991C315.18 523.955 314.99 523.96 314.808 524.004C314.708 524.018 314.612 524.049 314.522 524.095V524.108Z" fill="#D32222"/>
<path d="M385.268 203.84C384.995 208.078 384.501 212.017 383.968 216.086C383.435 220.155 382.759 224.146 381.992 228.176C380.483 236.408 378.251 244.49 375.323 252.33L374.023 255.359L373.698 256.113L373.62 256.308L373.49 256.594L373.1 257.4C372.609 258.336 372.007 259.209 371.306 260C370.187 261.277 368.87 262.365 367.406 263.224C366.219 263.936 364.97 264.541 363.675 265.031C359.382 266.582 354.892 267.523 350.337 267.826C342.061 268.44 333.741 268.13 325.533 266.903L325.832 258.765L331.565 258.115C333.489 257.894 335.4 257.595 337.298 257.335C341.094 256.776 344.851 256.152 348.439 255.32C351.748 254.647 354.964 253.583 358.02 252.148C358.841 251.799 359.561 251.249 360.113 250.549C360.113 250.354 359.736 251.173 360.217 249.873L361.075 247.364C363.178 240.177 364.785 232.853 365.885 225.446C366.509 221.676 367.029 217.867 367.549 214.045C368.069 210.223 368.472 206.336 368.849 202.683L385.268 203.84Z" fill="#FFC3BD"/>
<path d="M386.23 195.988C391.534 204.88 387.01 232.856 387.01 232.856L359.19 227.656C359.19 227.656 357.682 211.64 362.986 199.342C368.745 186.004 379.808 185.198 386.23 195.988Z" fill="#D32222"/>
<path d="M318.084 283.79L303.329 215.15C302.623 212.218 300.982 209.595 298.653 207.679C296.324 205.763 293.434 204.657 290.42 204.529H233.896C236.909 204.661 239.796 205.768 242.124 207.684C244.453 209.6 246.096 212.22 246.805 215.15L261.547 283.79C262.257 286.72 263.9 289.34 266.229 291.256C268.557 293.172 271.444 294.279 274.456 294.411H330.993C327.981 294.281 325.092 293.174 322.763 291.258C320.435 289.343 318.793 286.721 318.084 283.79Z" fill="#263238"/>
<path opacity="0.7" d="M318.084 283.79L303.329 215.15C302.623 212.218 300.982 209.595 298.653 207.679C296.324 205.763 293.434 204.657 290.42 204.529H233.896C236.909 204.661 239.796 205.768 242.124 207.684C244.453 209.6 246.096 212.22 246.805 215.15L261.547 283.79C262.257 286.72 263.9 289.34 266.229 291.256C268.557 293.172 271.444 294.279 274.456 294.411H330.993C327.981 294.281 325.092 293.174 322.763 291.258C320.435 289.343 318.793 286.721 318.084 283.79Z" fill="#D32222"/>
<path d="M211.844 287.221L210.395 303.328L211.695 303.445L213.144 287.338L211.844 287.221Z" fill="#D32222"/>
<path d="M208.926 311.111L208.304 317.856L209.598 317.975L210.22 311.231L208.926 311.111Z" fill="#D32222"/>
<path d="M233.896 204.529H290.42C287.526 204.583 284.752 205.692 282.619 207.648C280.485 209.604 279.14 212.272 278.837 215.15L264.173 374.634C263.866 377.513 262.518 380.181 260.383 382.137C258.248 384.093 255.472 385.202 252.577 385.255H217.295C215.936 385.28 214.587 385.015 213.339 384.477C212.09 383.939 210.971 383.14 210.057 382.135C209.142 381.129 208.453 379.94 208.036 378.646C207.618 377.352 207.482 375.985 207.636 374.634L222.3 215.15C222.606 212.271 223.954 209.603 226.089 207.647C228.225 205.691 231.001 204.582 233.896 204.529Z" fill="#D32222"/>
<path d="M242.918 374.634C242.764 375.985 242.9 377.352 243.318 378.646C243.736 379.94 244.425 381.129 245.339 382.135C246.254 383.14 247.373 383.939 248.621 384.477C249.869 385.015 251.218 385.28 252.577 385.255H196.04C194.681 385.281 193.333 385.015 192.085 384.477C190.838 383.939 189.72 383.14 188.806 382.134C187.892 381.128 187.205 379.939 186.789 378.645C186.373 377.351 186.238 375.984 186.394 374.634H242.918Z" fill="#263238"/>
<path opacity="0.7" d="M242.918 374.634C242.764 375.985 242.9 377.352 243.318 378.646C243.736 379.94 244.425 381.129 245.339 382.135C246.254 383.14 247.373 383.939 248.621 384.477C249.869 385.015 251.218 385.28 252.577 385.255H196.04C194.681 385.281 193.333 385.015 192.085 384.477C190.838 383.939 189.72 383.14 188.806 382.134C187.892 381.128 187.205 379.939 186.789 378.645C186.373 377.351 186.238 375.984 186.394 374.634H242.918Z" fill="#D32222"/>
<g opacity="0.5">
<path d="M269.099 222.404H230.775C230.48 222.408 230.188 222.349 229.917 222.231C229.647 222.113 229.404 221.938 229.206 221.719C229.008 221.501 228.859 221.242 228.769 220.961C228.678 220.68 228.649 220.383 228.682 220.09C228.751 219.464 229.045 218.885 229.509 218.459C229.972 218.034 230.575 217.791 231.204 217.776H269.463C269.758 217.772 270.051 217.831 270.321 217.949C270.592 218.067 270.834 218.242 271.032 218.461C271.23 218.679 271.379 218.938 271.469 219.219C271.56 219.5 271.589 219.797 271.556 220.09C271.489 220.705 271.205 221.276 270.754 221.7C270.304 222.124 269.717 222.374 269.099 222.404Z" fill="white"/>
<path d="M267.904 234.91H229.645C229.348 234.916 229.055 234.858 228.782 234.741C228.51 234.623 228.266 234.449 228.067 234.23C227.868 234.011 227.717 233.752 227.626 233.47C227.535 233.188 227.505 232.89 227.539 232.596C227.608 231.97 227.901 231.391 228.365 230.965C228.829 230.54 229.431 230.297 230.061 230.282H268.32C268.616 230.276 268.91 230.334 269.182 230.451C269.454 230.569 269.698 230.743 269.897 230.962C270.097 231.181 270.247 231.44 270.338 231.722C270.429 232.004 270.459 232.302 270.426 232.596C270.357 233.222 270.063 233.801 269.599 234.227C269.135 234.652 268.533 234.895 267.904 234.91Z" fill="white"/>
<path d="M257.4 247.429H228.501C228.206 247.433 227.913 247.374 227.643 247.256C227.372 247.138 227.13 246.963 226.932 246.744C226.734 246.526 226.585 246.267 226.494 245.986C226.404 245.705 226.375 245.408 226.408 245.115C226.477 244.489 226.77 243.91 227.234 243.484C227.698 243.059 228.301 242.816 228.93 242.801H257.803C258.099 242.795 258.393 242.853 258.665 242.97C258.937 243.088 259.181 243.262 259.38 243.481C259.58 243.7 259.73 243.959 259.821 244.241C259.912 244.523 259.942 244.821 259.909 245.115C259.84 245.738 259.548 246.316 259.087 246.741C258.626 247.167 258.027 247.411 257.4 247.429Z" fill="white"/>
<path d="M237.159 260H227.37C227.075 260.005 226.782 259.948 226.511 259.831C226.24 259.715 225.997 259.542 225.798 259.325C225.598 259.107 225.448 258.85 225.356 258.569C225.264 258.289 225.232 257.992 225.264 257.699C225.333 257.073 225.626 256.494 226.09 256.068C226.554 255.643 227.157 255.4 227.786 255.385H237.588C237.883 255.381 238.175 255.44 238.446 255.558C238.716 255.676 238.959 255.851 239.157 256.07C239.355 256.288 239.504 256.547 239.594 256.828C239.684 257.109 239.714 257.406 239.681 257.699C239.609 258.322 239.314 258.899 238.85 259.321C238.387 259.744 237.786 259.985 237.159 260Z" fill="white"/>
<path d="M264.485 272.454H226.2C225.905 272.458 225.612 272.399 225.342 272.281C225.071 272.163 224.829 271.988 224.631 271.769C224.433 271.551 224.284 271.292 224.194 271.011C224.103 270.73 224.074 270.433 224.107 270.14C224.176 269.514 224.47 268.935 224.933 268.509C225.397 268.084 226 267.841 226.629 267.826H264.875C265.171 267.82 265.465 267.878 265.737 267.995C266.009 268.113 266.253 268.287 266.453 268.506C266.652 268.725 266.802 268.984 266.893 269.266C266.984 269.548 267.014 269.846 266.981 270.14C266.913 270.761 266.623 271.337 266.164 271.762C265.706 272.187 265.11 272.433 264.485 272.454Z" fill="white"/>
<path d="M248.3 284.973H225.095C224.799 284.979 224.505 284.921 224.233 284.804C223.961 284.686 223.717 284.512 223.517 284.293C223.318 284.074 223.168 283.815 223.076 283.533C222.985 283.251 222.955 282.953 222.989 282.659C223.058 282.033 223.352 281.454 223.815 281.028C224.279 280.603 224.882 280.36 225.511 280.345H248.703C248.998 280.342 249.291 280.401 249.562 280.519C249.833 280.637 250.077 280.81 250.275 281.029C250.474 281.248 250.625 281.506 250.717 281.787C250.809 282.068 250.84 282.365 250.809 282.659C250.74 283.282 250.448 283.86 249.987 284.285C249.526 284.711 248.927 284.955 248.3 284.973Z" fill="white"/>
<path d="M262.21 297.479H223.951C223.656 297.483 223.363 297.424 223.093 297.306C222.822 297.188 222.58 297.013 222.382 296.794C222.184 296.576 222.035 296.317 221.945 296.036C221.854 295.755 221.825 295.458 221.858 295.165C221.927 294.539 222.221 293.96 222.684 293.534C223.148 293.109 223.751 292.866 224.38 292.851H262.6C262.896 292.848 263.188 292.907 263.46 293.025C263.731 293.142 263.974 293.316 264.173 293.535C264.372 293.754 264.522 294.012 264.614 294.293C264.706 294.574 264.737 294.871 264.706 295.165C264.638 295.786 264.348 296.362 263.889 296.787C263.431 297.212 262.835 297.458 262.21 297.479Z" fill="white"/>
<path d="M251.692 309.998H222.819C222.523 310.004 222.229 309.946 221.957 309.829C221.685 309.711 221.441 309.537 221.242 309.318C221.043 309.099 220.892 308.84 220.801 308.558C220.71 308.276 220.68 307.978 220.713 307.684C220.782 307.058 221.076 306.479 221.54 306.053C222.004 305.628 222.606 305.385 223.235 305.37H252.108C252.405 305.364 252.699 305.422 252.971 305.539C253.243 305.657 253.487 305.831 253.686 306.05C253.885 306.269 254.036 306.528 254.127 306.81C254.218 307.092 254.248 307.39 254.214 307.684C254.145 308.31 253.852 308.889 253.388 309.315C252.924 309.74 252.322 309.983 251.692 309.998Z" fill="white"/>
<path d="M231.477 322.517H221.675C221.38 322.52 221.087 322.461 220.816 322.343C220.545 322.225 220.302 322.052 220.103 321.833C219.904 321.614 219.753 321.356 219.661 321.075C219.569 320.794 219.538 320.497 219.569 320.203C219.639 319.575 219.934 318.994 220.401 318.568C220.867 318.142 221.473 317.901 222.104 317.889H231.893C232.19 317.883 232.483 317.941 232.756 318.058C233.028 318.176 233.271 318.35 233.471 318.569C233.67 318.788 233.821 319.047 233.912 319.329C234.003 319.611 234.033 319.909 233.999 320.203C233.93 320.829 233.637 321.408 233.173 321.834C232.709 322.259 232.107 322.502 231.477 322.517Z" fill="white"/>
<path d="M258.791 335.023H220.545C220.249 335.029 219.955 334.971 219.683 334.854C219.411 334.736 219.167 334.562 218.967 334.343C218.768 334.124 218.618 333.865 218.527 333.583C218.436 333.301 218.406 333.003 218.439 332.709C218.508 332.083 218.802 331.504 219.266 331.078C219.729 330.653 220.332 330.41 220.961 330.395H259.22C259.515 330.391 259.808 330.45 260.078 330.568C260.349 330.686 260.591 330.861 260.789 331.08C260.987 331.298 261.136 331.557 261.226 331.838C261.317 332.119 261.346 332.416 261.313 332.709C261.244 333.335 260.95 333.914 260.486 334.34C260.023 334.765 259.42 335.008 258.791 335.023Z" fill="white"/>
<path d="M242.593 347.542H219.401C219.104 347.548 218.81 347.49 218.538 347.373C218.266 347.255 218.022 347.082 217.823 346.862C217.624 346.643 217.473 346.384 217.382 346.102C217.291 345.82 217.261 345.522 217.294 345.228C217.364 344.602 217.657 344.023 218.121 343.598C218.585 343.172 219.187 342.929 219.817 342.914H243.008C243.305 342.908 243.599 342.966 243.871 343.083C244.143 343.201 244.387 343.375 244.586 343.594C244.785 343.813 244.936 344.072 245.027 344.354C245.118 344.636 245.148 344.934 245.115 345.228C245.045 345.854 244.752 346.433 244.288 346.859C243.824 347.284 243.222 347.527 242.593 347.542Z" fill="white"/>
<path d="M256.516 360.1H218.27C217.973 360.106 217.68 360.048 217.407 359.931C217.135 359.813 216.891 359.639 216.692 359.42C216.493 359.201 216.342 358.942 216.251 358.66C216.16 358.378 216.13 358.08 216.164 357.786C216.236 357.163 216.531 356.586 216.994 356.164C217.458 355.741 218.058 355.5 218.686 355.485H256.945C257.238 355.482 257.53 355.54 257.799 355.658C258.069 355.775 258.31 355.948 258.508 356.165C258.706 356.383 258.855 356.639 258.947 356.919C259.038 357.198 259.069 357.494 259.038 357.786C258.969 358.412 258.675 358.991 258.211 359.417C257.747 359.842 257.145 360.085 256.516 360.1Z" fill="white"/>
</g>
<path d="M329.199 259.506L320.892 252.291L316.992 265.577C316.992 265.577 325.429 270.153 328.341 265.954L329.199 259.506Z" fill="#FFC3BD"/>
<path d="M311.857 251.771L309.153 262.912L317.005 265.577L320.892 252.291L311.857 251.771Z" fill="#FFC3BD"/>
</svg>
